<svg height="22" viewBox="0 0 22 22" width="22" xmlns="http://www.w3.org/2000/svg" xmlns:xlink="http://www.w3.org/1999/xlink"><linearGradient id="a" x1="100%" x2="0%" y1="100%" y2="0%"><stop offset="0" stop-color="#fe3876"/><stop offset=".714447846" stop-color="#7c30dd"/><stop offset="1" stop-color="#3a30dd"/></linearGradient><g fill="none" fill-rule="evenodd"><circle cx="11" cy="11" fill="url(#a)" fill-rule="nonzero" r="11"/><g fill="#fff" transform="translate(3 3)"><path d="m8.84984 2.05161333c.46933333-.46933333.46933333-1.23026666 0-1.6996-.46933333-.46933333-1.23026667-.46933333-1.6996 0l-6.79813333 6.79826667c-.46933334.46933333-.46933334 1.23026667 0 1.69946667l3.39906666 3.39906663v.0001334c.46933334.4693333 1.23013334.4693333 1.69946667 0l5.9485333-5.94853337 1.6996 1.6996-5.9485333 5.94853337c-.46933333.4692-.46933333 1.2301333 0 1.6996.46933333.4692 1.23026667.4692 1.6996 0l6.7981333-6.79840003c.4693334-.4692.4693334-1.23013334 0-1.69946667l-3.3990666-3.3992c-.4693334-.4692-1.2301334-.4692-1.6994667 0l-5.94853333 5.94853333-1.6996-1.6996z" opacity=".3"/><path d="m2.0516 7.15032c.46933333.46933333.46933333 1.23026667 0 1.69946667-.46933333.46946666-1.23026667.46946666-1.6996 0-.46933333-.4692-.46933333-1.23013334 0-1.69946667.46933333-.46946667 1.23026667-.46946667 1.6996 0"/><path d="m5.45069333 3.75109333c.46933334.46946667.46933334 1.2304 0 1.6996-.46933333.46933334-1.23026666.46933334-1.6996 0-.46933333-.4692-.46933333-1.23013333 0-1.69946666.46933334-.46946667 1.23026667-.46946667 1.6996-.00013334"/><path d="m8.84984.352c.46933333.46946667.46933333 1.2304 0 1.6996-.46933333.46933333-1.23026667.46933333-1.6996 0-.46933333-.4692-.46933333-1.23013333 0-1.6996.46933333-.46933333 1.23026667-.46933333 1.6996 0"/><path d="m5.45069333 10.5494c.46933334.4693333.46933334 1.2302667 0 1.6996-.46933333.4693333-1.23026666.4693333-1.6996 0-.46933333-.4693333-.46933333-1.2302667 0-1.6996.46933334-.4693333 1.23026667-.4693333 1.6996 0"/><path d="m8.84984 7.15032c.46933333.46933333.46933333 1.23026667 0 1.69946667-.46933333.46946666-1.23026667.46946666-1.6996 0-.46933333-.4692-.46933333-1.23013334 0-1.69946667.46933333-.46946667 1.23026667-.46946667 1.6996 0"/><path d="m12.2489333 3.75109333c.4693334.46946667.4693334 1.2304 0 1.6996-.4693333.46933334-1.2302666.46933334-1.6996 0-.4693333-.4692-.4693333-1.23013333 0-1.69946666.4693334-.46946667 1.2302667-.46946667 1.6996-.00013334"/><path d="m8.84984 13.9484933c.46933333.4693334.46933333 1.2302667 0 1.6996-.46933333.4693334-1.23026667.4693334-1.6996 0-.46933333-.4693333-.46933333-1.2302666 0-1.6996.46933333-.4693333 1.23026667-.4693333 1.6996 0"/><path d="m12.2489333 10.5494c.4693334.4693333.4693334 1.2302667 0 1.6994667-.4693333.4694666-1.2302666.4694666-1.6996.0001333-.4693333-.4693333-.4693333-1.2302667 0-1.6996.4693334-.4693333 1.2302667-.4693333 1.6996 0"/><path d="m15.6480267 7.15032c.4693333.46933333.4693333 1.23026667 0 1.69946667-.4693334.46946666-1.2302667.46946666-1.6996 0-.4693334-.4692-.4693334-1.23013334 0-1.69946667.4693333-.46946667 1.2302666-.46946667 1.6996 0"/></g></g></svg>