<?xml version="1.0" encoding="UTF-8"?>
<svg width="160px" height="160px" viewBox="0 0 160 160" version="1.1" xmlns="http://www.w3.org/2000/svg" xmlns:xlink="http://www.w3.org/1999/xlink">
    <title>C</title>
    <g id="C" stroke="none" stroke-width="1" fill="none" fill-rule="evenodd">
        <path d="M126.5,48 C129.537566,48 132,50.4624339 132,53.5 C132,56.5375661 129.537566,59 126.5,59 C126.285628,59 126.07412,58.9877355 125.866141,58.9638699 L119.880605,68.2865651 L119.808905,68.3963367 C118.31134,70.6504002 115.840615,72 113.19781,72 L104.401933,72.0004904 C105.329318,74.0250869 106.029314,76.1834093 106.467695,78.4399647 L123.861318,78.4405471 L123.949591,78.4391022 C124.830241,78.4102584 125.645599,77.9511059 126.136351,77.2027355 L132.701602,67.1900115 C132.254808,66.3947362 132,65.4771249 132,64.5 C132,61.4624339 134.462434,59 137.5,59 C140.537566,59 143,61.4624339 143,64.5 C143,67.5375661 140.537566,70 137.5,70 C137.477307,70 137.454645,69.9998626 137.432017,69.9995885 L130.686417,80.2865651 L130.61319,80.3963368 C129.083736,82.6504003 126.560399,84 123.861318,84 L107,84 C107,85.7066731 106.852761,87.3776829 106.570736,89.0001135 L123.861318,89 C126.560399,89 129.083736,90.3495997 130.61319,92.6036632 L130.686417,92.7134349 L137.433015,103.0004 L137.5,103 C140.537566,103 143,105.462434 143,108.5 C143,111.537566 140.537566,114 137.5,114 C134.462434,114 132,111.537566 132,108.5 C132,107.522875 132.254808,106.605264 132.701602,105.809988 L126.136351,95.7972645 C125.645599,95.0488941 124.830241,94.5897416 123.949591,94.5608978 L123.861318,94.5594529 L105.014042,94.5595918 C104.25538,96.4903712 103.294892,98.3135965 102.159753,100.001087 L112.857674,100 C115.557365,100 118.081271,101.3496 119.611071,103.603663 L119.684314,103.713435 L126.432017,114.000412 L126.5,114 C129.537566,114 132,116.462434 132,119.5 C132,122.537566 129.537566,125 126.5,125 C123.462434,125 121,122.537566 121,119.5 C121,118.523287 121.254594,117.606037 121.701038,116.810994 L115.133221,106.797265 C114.642359,106.048894 113.826816,105.589742 112.945967,105.560898 L112.857674,105.559453 L97.2285354,105.5598 C92.5535345,109.581952 86.5490648,112 80,112 C73.4509352,112 67.4464655,109.581952 62.7714646,105.5598 L46.9237235,105.559453 L46.8366262,105.560898 C45.9677062,105.589742 45.1632075,106.048894 44.6789927,106.797265 L38.2525776,116.730009 C38.7277293,117.543487 39,118.489948 39,119.5 C39,122.537566 36.5375661,125 33.5,125 C30.4624339,125 28,122.537566 28,119.5 C28,116.462434 30.4624339,114 33.5,114 L33.5331653,114.000098 L40.1895312,103.713435 L40.2617826,103.603663 C41.7708657,101.3496 44.2605924,100 46.9237235,100 L57.8402471,100.001087 C56.7051079,98.3135965 55.7446203,96.4903712 54.985958,94.5595918 L36.2588327,94.5594529 L36.1699025,94.5608978 C35.2826963,94.5897416 34.4612673,95.0488941 33.9668624,95.7972645 L27.3229514,105.854168 C27.7545151,106.639172 28,107.540918 28,108.5 C28,111.537566 25.5375661,114 22.5,114 C19.4624339,114 17,111.537566 17,108.5 C17,105.462434 19.4624339,103 22.5,103 C22.5290341,103 22.5580156,103.000225 22.586943,103.000673 L29.3829217,92.7134349 L29.4566936,92.6036632 C30.9975348,90.3495997 33.539657,89 36.2588327,89 L53.4292637,89.0001135 C53.1472394,87.3776829 53,85.7066731 53,84 L36.2588327,84 C33.539657,84 30.9975348,82.6504003 29.4566936,80.3963368 L29.3829217,80.2865651 L22.5863336,69.9993361 C22.5576086,69.9997782 22.5288302,70 22.5,70 C19.4624339,70 17,67.5375661 17,64.5 C17,61.4624339 19.4624339,59 22.5,59 C25.5375661,59 28,61.4624339 28,64.5 C28,65.4594871 27.7543078,66.3615897 27.3224048,67.1468264 L33.9668624,77.2027355 C34.4612673,77.9511059 35.2826963,78.4102584 36.1699025,78.4391022 L36.2588327,78.4405471 L53.5323045,78.4399647 C53.9706861,76.1834093 54.670682,74.0250869 55.598067,72.0004904 L46.8021899,72 C44.1593844,72 41.6886599,70.6504003 40.1910945,68.3963368 L40.1193945,68.2865651 L34.1338592,58.9638699 C33.9258796,58.9877355 33.714372,59 33.5,59 C30.4624339,59 28,56.5375661 28,53.5 C28,50.4624339 30.4624339,48 33.5,48 C36.5375661,48 39,50.4624339 39,53.5 C39,54.3068535 38.8262589,55.0731276 38.5141479,55.7634512 L44.5745914,65.2027355 C45.0551105,65.9511059 45.8534692,66.4102584 46.7157574,66.4391022 L46.8021899,66.4405471 L58.9679864,66.4405105 C63.917201,60.0733793 71.4998952,56 80,56 C88.5001048,56 96.082799,60.0733793 101.032014,66.4405105 L113.19781,66.4405471 L113.284243,66.4391023 C114.146531,66.4102583 114.944889,65.9511059 115.425408,65.2027355 L121.485852,55.7634512 C121.173741,55.0731276 121,54.3068535 121,53.5 C121,50.4624339 123.462434,48 126.5,48 Z M80,61.6 C68.0706494,61.6 58.4,71.6288216 58.4,84 C58.4,96.3711784 68.0706494,106.4 80,106.4 C85.8269907,106.4 91.1150744,104.007208 95.0004476,100.11742 L95,100 L95.1160325,100.000842 C99.1173013,95.9351278 101.6,90.2682348 101.6,84 C101.6,71.6288216 91.9293506,61.6 80,61.6 Z M79.5,67 C88.6126984,67 96,74.3873016 96,83.5 C96,92.6126984 88.6126984,100 79.5,100 C70.3873016,100 63,92.6126984 63,83.5 C63,74.3873016 70.3873016,67 79.5,67 Z M99,34 L99.2884075,34.0037074 C105.230236,34.1566348 110,39.0212984 110,45 C110,51.0751322 105.075132,56 99,56 C92.9248678,56 88,51.0751322 88,45 C88,41.9624339 89.2312171,39.2124339 91.2218255,37.2218254 L99,45 L99,34 Z M61,34 L61,45 L67.1024293,35.8465323 C70.0552649,37.8190481 72,41.1824153 72,45 C72,51.0751322 67.0751322,56 61,56 C54.9248678,56 50,51.0751322 50,45 C50,38.9248677 54.9248678,34 61,34 Z" id="形状结合" fill="#FFFFFF" fill-rule="nonzero"></path>
    </g>
</svg>
