<?xml version="1.0" encoding="UTF-8"?>
<svg width="160px" height="160px" viewBox="0 0 160 160" version="1.1" xmlns="http://www.w3.org/2000/svg" xmlns:xlink="http://www.w3.org/1999/xlink">
    <title>MP</title>
    <g id="MP" stroke="none" stroke-width="1" fill="none" fill-rule="evenodd">
        <polygon id="路径" fill="#FFFFFF" fill-rule="nonzero" points="17 124.726549 144 124.726549 144 133 17 133"></polygon>
        <g id="编组" transform="translate(70.552246, 80.082031) rotate(-17.000000) translate(-70.552246, -80.082031) translate(10.659180, 55.082031)" stroke="#FFFFFF" stroke-width="4">
            <path d="M46,-8.05991612e-13 L75.563,31 L100.786133,31 C111.166711,31 119.602966,39.3246359 119.78319,49.6622002 L119.786133,50 L17.7861328,50 L17.786,49.999 L16.7861328,50 L-3.85514063e-13,16 L15,16 L29.305,31 L46.305,31 L31,-8.05991612e-13 L46,-8.05991612e-13 Z" id="形状结合"></path>
        </g>
        <path d="M137.657173,23 C139.339444,23 140.952858,23.6608274 142.142402,24.8375067 C143.331947,26.014186 144,27.6101502 144,29.274226 L144,58.725774 C144,60.3898498 143.331947,61.985814 142.142402,63.1624933 C140.952858,64.3391726 139.339444,65 137.657173,65 L97.3428268,65 C95.6605564,65 94.0471423,64.3391726 92.8575975,63.1624933 C91.6680527,61.985814 91,60.3898498 91,58.725774 L91,29.274226 C91,27.6101502 91.6680527,26.014186 92.8575975,24.8375067 C94.0471423,23.6608274 95.6605564,23 97.3428268,23 L137.657173,23 Z M95.4380246,30.7565858 L95.4413408,58.725774 C95.4423202,59.7641762 96.293071,60.6057257 97.3428268,60.6066945 L137.657173,60.6066945 C138.706929,60.6057257 139.55768,59.7641762 139.558659,58.725774 L139.556764,30.8353138 L119.272983,46.4422092 L119.063372,46.6893906 C118.685806,47.0730556 118.287111,47.2892009 117.867286,47.3378264 L117.548456,47.3428856 C116.930402,47.3909946 116.358369,47.0973441 115.829516,46.461192 L95.4380246,30.7565858 Z M136.797685,27.3900251 L98.2956425,27.3900251 L117.548559,42.2096401 L136.797685,27.3900251 Z" id="形状" fill="#FFFFFF" fill-rule="nonzero"></path>
    </g>
</svg>
