<?xml version="1.0" encoding="UTF-8"?>
<svg width="160px" height="160px" viewBox="0 0 160 160" version="1.1" xmlns="http://www.w3.org/2000/svg" xmlns:xlink="http://www.w3.org/1999/xlink">
    <title>DC</title>
    <g id="DC" stroke="none" stroke-width="1" fill="none" fill-rule="evenodd">
        <path d="M49.9131126,57.9822161 C49.9131126,60.997264 48.0130902,63.5362517 45.3213918,64.5677155 L45.3213918,100.668947 C50.3089505,100.430917 54.9006713,99.5581395 59.0173864,98.0506156 L59.0173864,70.3597811 C56.3256881,69.4076607 54.4256657,66.7893297 54.4256657,63.7742818 C54.4256657,59.8864569 57.5132021,56.7920657 61.3924144,56.7920657 C65.2716268,56.7920657 68.3591631,59.8864569 68.3591631,63.7742818 C68.3591631,66.7893297 66.4591407,69.3283174 63.7674424,70.3597811 L63.7674424,95.9083447 C68.3591631,93.4487004 72.0008727,90.1162791 74.4550682,85.9904241 C72.7925487,84.4829001 71.7633699,82.3406293 71.7633699,79.9603283 C71.7633699,75.4377565 75.4050794,71.8673051 79.838465,71.8673051 C80.234303,71.8673051 80.5509734,71.8673051 80.9468114,71.9466484 C87.1218841,61.1559508 100.342873,54.6497948 116.176393,54.4911081 L116.809734,54.4911081 L142.222533,54.4911081 C143.568382,54.4911081 144.597561,55.5225718 144.597561,56.871409 C144.597561,58.1409029 143.64755,59.1723666 142.380868,59.25171 L142.222533,59.25171 L137.630812,59.25171 L137.630812,95.4322845 C140.322511,96.3844049 142.222533,99.002736 142.222533,102.017784 C142.222533,105.905609 139.134997,109 135.255784,109 C131.376572,109 128.289036,105.905609 128.289036,102.017784 C128.289036,99.002736 130.189058,96.4637483 132.880756,95.4322845 L132.880756,59.1723666 L119.184762,59.1723666 L119.184762,95.3529412 C121.87646,96.3050616 123.776482,98.9233926 123.776482,101.93844 C123.776482,105.826265 120.688946,108.920657 116.809734,108.920657 C112.930521,108.920657 109.842985,105.826265 109.842985,101.93844 C109.842985,98.9233926 111.743007,96.3844049 114.434706,95.3529412 L114.434706,59.25171 C109.447147,59.4897401 104.855426,60.3625171 100.738711,61.870041 L100.738711,89.5608755 C103.430409,90.5129959 105.330432,93.1313269 105.330432,96.1463748 C105.330432,100.0342 102.242896,103.128591 98.3636832,103.128591 C94.4844708,103.128591 91.3969344,100.0342 91.3969344,96.1463748 C91.3969344,93.1313269 93.2969568,90.5923393 95.9886552,89.5608755 L95.9886552,64.0123119 C91.3969344,66.4719562 87.7552249,69.8043776 85.3010293,73.9302326 C86.9635489,75.4377565 87.9927277,77.5800274 87.9927277,79.9603283 C87.9927277,84.4829001 84.3510181,88.0533516 79.9176326,88.0533516 C79.5217946,88.0533516 79.2051242,88.0533516 78.8092862,87.9740082 C72.6342135,98.7647059 59.4132244,105.270862 43.5797046,105.429549 L42.9463638,105.429549 L17.5335646,105.429549 C16.1877154,105.429549 15.1585366,104.398085 15.1585366,103.049248 C15.1585366,101.779754 16.1085478,100.74829 17.3752294,100.668947 L17.5335646,100.668947 L22.1252853,100.668947 L22.1252853,64.5677155 C19.4335869,63.5362517 17.5335646,60.997264 17.5335646,57.9822161 C17.5335646,54.0943912 20.6211009,51 24.5003133,51 C28.3795256,51 31.467062,54.0943912 31.467062,57.9822161 C31.467062,60.997264 29.5670396,63.5362517 26.8753412,64.5677155 L26.8753412,100.74829 L40.5713359,100.74829 L40.5713359,64.5677155 C37.8796375,63.6155951 35.9796151,60.997264 35.9796151,57.9822161 C35.9796151,54.0943912 39.0671515,51 42.9463638,51 C46.8255762,51 49.9131126,54.0943912 49.9131126,57.9822161 Z" id="_x31_-path" fill="#FFFFFF"></path>
    </g>
</svg>
