<svg width="29" height="20" viewBox="0 0 29 20" fill="none" xmlns="http://www.w3.org/2000/svg">
<path d="M14.423 0.986658C11.1852 0.976791 7.99845 1.80395 5.16422 3.38988C7.25451 1.46614 10.91 0.358524 10.91 0.358524L10.5647 0.00438055C7.13367 0.0670481 4.0263 2.51108 4.0263 2.51108L4.0263 2.51108C1.94885 6.87445 0.833555 11.6436 0.757812 16.4874C1.59108 17.5887 2.66441 18.4801 3.89395 19.0917C5.1182 19.7009 6.46329 20.0098 7.82419 19.9982L9.2671 18.1182C7.60683 17.6517 6.14835 16.6359 5.12394 15.2326H5.12394C7.91935 16.9808 11.1393 17.9077 14.4245 17.9098C17.7045 17.9098 20.9197 16.9843 23.7236 15.2355C22.6991 16.6375 21.2412 17.6522 19.5818 18.1182L21.0248 19.9997C22.3871 20.0119 23.7335 19.7015 24.9564 19.0932C26.1854 18.4813 27.2582 17.59 28.0911 16.4888V16.4889C28.0158 11.6441 26.9005 6.87398 24.8227 2.5097C24.8227 2.5097 21.7153 0.0626685 18.2842 0L17.939 0.355602C17.939 0.355602 21.593 1.46321 23.6847 3.3855L23.6847 3.3855C20.8501 1.79933 17.6628 0.972161 14.4245 0.982275L14.4245 0.986647L14.423 0.986658ZM10.2195 8.90751C10.8807 8.93087 11.504 9.22608 11.9458 9.72511H11.9458C12.3955 10.2261 12.6295 10.888 12.596 11.5643C12.6535 12.2453 12.4313 12.9202 11.9817 13.4298C11.5341 13.9316 10.8986 14.2193 10.231 14.2226C9.56221 14.2232 8.92508 13.9342 8.4802 13.4283H8.4802C8.02781 12.921 7.80512 12.2452 7.86592 11.5643C7.8348 10.8924 8.06459 10.2348 8.5061 9.73239C8.94563 9.23758 9.56176 8.94071 10.218 8.90751H10.2195H10.2195ZM18.687 8.90751C19.2064 8.85796 19.7286 8.9731 20.1832 9.23397C20.6407 9.4963 21.0089 9.89416 21.2406 10.3751C21.7145 11.3604 21.5543 12.5382 20.8349 13.3569C20.1229 14.1706 18.9845 14.4461 17.9864 14.0462H17.9864C17.4984 13.851 17.0801 13.5106 16.7867 13.0698C16.4906 12.625 16.3323 12.1008 16.3321 11.5643C16.3047 10.891 16.5378 10.2337 16.9794 9.73676C17.4166 9.24044 18.0313 8.94142 18.687 8.90605L18.687 8.90751Z" fill="white"/>
</svg>
