<svg width="20" height="21" viewBox="0 0 20 21" fill="none" xmlns="http://www.w3.org/2000/svg">
<path fill-rule="evenodd" clip-rule="evenodd" d="M10 20.3145C4.47619 20.3145 0 15.8383 0 10.3145C0 4.79064 4.47619 0.314453 10 0.314453C15.5238 0.314453 20 4.79064 20 10.3145C20 15.8383 15.5238 20.3145 10 20.3145ZM1.26894 7.95986C1.06268 8.71209 0.952393 9.50171 0.952393 10.3144C0.952393 14.796 4.30597 18.5756 8.61355 19.2538C8.89379 19.1717 9.25192 19.1717 9.52382 19.1717C9.42858 18.6003 9.42858 18.1241 9.42858 17.5527C9.42858 17.5527 7.23811 15.9336 7.23811 14.9812C7.23811 14.5787 7.28915 14.2612 7.32651 14.0288C7.37755 13.7114 7.40307 13.5526 7.23811 13.5526C7.0671 13.5526 6.8838 13.6018 6.71469 13.6471C6.4129 13.728 6.15629 13.7968 6.09525 13.5526C5.90478 12.9812 5.52382 12.505 4.95239 12.3145C3.52382 12.3145 3.42859 10.6003 3.42859 8.98121C3.42859 8.66584 3.17795 8.55933 2.898 8.44037C2.75524 8.3797 2.60486 8.3158 2.47621 8.21931C2.42859 8.26692 2.40478 8.29073 2.40478 8.31454C2.40478 8.33835 2.42859 8.36216 2.47621 8.40978C2.19049 8.88597 1.52382 8.88597 1.14287 8.50502C1.17968 8.32097 1.22176 8.1392 1.26894 7.95986ZM12.1466 19.0998C15.187 18.3446 17.6484 16.0281 18.6108 13.0703C18.5981 13.1042 18.5849 13.1381 18.5714 13.1718C17.8095 14.3147 16.6667 14.5052 16.9524 13.7433C16.6667 13.1718 16.2857 12.6956 15.8095 12.2194C14.9524 11.4576 14.1905 10.029 16.8571 8.02898C16.3809 6.79088 17.8095 5.64803 18.381 7.17184C18.381 7.26708 18.4762 7.26708 18.4762 7.26708C18.604 7.65052 18.7318 8.03397 18.8309 8.35987C17.9973 4.65455 14.8527 1.76762 11.0237 1.32559C12.196 1.86714 12.1581 3.15205 11.0476 2.9812C11.0476 3.45739 11.0476 4.02883 10.9524 4.60025C10.8948 5.17598 10.4544 5.29926 10.0519 5.41192C9.78865 5.48562 9.54159 5.55478 9.42859 5.74311C9.14288 6.2193 10 6.69549 10.9524 6.50501C11.1071 6.50501 11.0943 6.42127 11.0802 6.32935C11.0683 6.25148 11.0555 6.16774 11.1429 6.12406C11.5238 6.02882 12 6.02882 12.381 6.12406C12 6.9812 11.5238 7.83835 11.0476 8.60025C10.919 8.79323 10.9641 9.11657 11.007 9.42351C11.0276 9.571 11.0476 9.7147 11.0476 9.83835C11.0476 11.8911 10.3594 10.6501 9.9012 9.82387C9.72166 9.50014 9.57745 9.24011 9.52383 9.26692C9.40808 9.38267 9.04613 9.2874 8.69446 9.19483C8.46745 9.13507 8.2447 9.07644 8.09526 9.07644C7.90478 9.07644 7.85716 9.26692 7.80954 9.45739C7.76192 9.64787 7.7143 9.83835 7.52383 9.83835C7.17481 9.83835 7.02564 9.79838 6.96647 9.78252C6.94531 9.77685 6.93566 9.77427 6.93249 9.77769C6.92982 9.78056 6.93173 9.78767 6.93523 9.80074C6.94137 9.82363 6.9524 9.86481 6.9524 9.93358C6.9524 10.073 6.96516 10.2635 6.98133 10.505C7.00936 10.9233 7.04764 11.4948 7.04764 12.2193C7.04764 12.4537 7.33617 12.3636 7.66909 12.2595C7.87716 12.1945 8.10259 12.1241 8.28573 12.1241C8.67624 12.1241 8.97778 12.3464 9.25117 12.5481C9.37783 12.6415 9.49845 12.7304 9.61907 12.7907C9.94878 12.932 10.2785 13.2364 10.5852 13.5195C10.8986 13.8088 11.1879 14.0759 11.4286 14.1241C11.6519 14.1687 11.6867 14.3599 11.7196 14.5406C11.7569 14.7453 11.7918 14.9366 12.0953 14.886C12.381 14.7907 12.7619 14.9812 12.9524 15.2669C13.2381 15.6479 13.0476 16.1241 12.6667 16.4098C12.0953 16.9812 11.9048 17.6479 11.6191 18.9812C11.8661 18.8989 12.0419 18.9589 12.1466 19.0998ZM19.0473 10.2337C19.0456 10.4945 19.0375 10.7552 19.0202 11.0141C19.0384 10.783 19.0476 10.5497 19.0476 10.3144C19.0476 10.2875 19.0475 10.2606 19.0473 10.2337Z" fill="white"/>
</svg>
