<?xml version="1.0" encoding="UTF-8"?>
<svg width="160px" height="160px" viewBox="0 0 160 160" version="1.1" xmlns="http://www.w3.org/2000/svg" xmlns:xlink="http://www.w3.org/1999/xlink">
    <title>ED</title>
    <g id="ED" stroke="none" stroke-width="1" fill="none" fill-rule="evenodd">
        <g id="编组-5" transform="translate(17.000000, 14.000000)">
            <rect id="矩形备份-4" stroke-opacity="0.01" stroke="#000000" stroke-width="3" x="4.5" y="1.5" width="127" height="127"></rect>
            <path d="M115.94271,72.4662455 C118.157403,72.4662455 120.170171,73.3769029 121.630338,74.8383177 C122.904021,76.1130901 123.758869,77.8091995 123.95637,79.6934667 L124,117.93582 C124,120.152078 123.089613,122.166202 121.629545,123.627518 C120.355604,124.902549 118.660823,125.758532 116.778751,125.956304 L78.5692759,126 C76.3540307,126 74.3417754,125.089303 72.8820317,123.628311 C71.6079898,122.35318 70.7531179,120.656647 70.5556181,118.772654 L70.5119863,80.5304254 C70.5119863,78.3129574 71.4213979,76.2986151 72.8812396,74.8375249 C74.1550232,73.5626521 75.8499853,72.7074525 77.7329538,72.5098856 L115.94271,72.4662455 Z M118.562172,77.9087237 L75.9498143,77.9087237 L75.9498143,120.557522 L118.562172,120.557522 L118.562172,77.9087237 Z M27.6208251,75.3194385 L55.2416501,126 L0,126 L27.6208251,75.3194385 Z M27.6208251,86.6872182 L9.16151668,120.557522 L46.0801335,120.557522 L27.6208251,86.6872182 Z M54.5947101,3 L54.5947101,56.5353575 L1.10509475,56.5353575 L1.10509475,3 L54.5947101,3 Z M49.1552804,8.44408124 L6.54452441,8.44408124 L6.54452441,51.0912763 L49.1552804,51.0912763 L49.1552804,8.44408124 Z M97.2543915,3 C104.63976,3 111.326302,5.99659332 116.166416,10.8416388 C121.006358,15.6865125 124,22.3797011 124,29.7732894 C124,37.1614202 121.005664,43.8521906 116.165142,48.6957953 C111.325092,53.5389274 104.639101,56.5353575 97.2543915,56.5353575 C89.8710844,56.5353575 83.185821,53.5387826 78.3461922,48.6955436 C73.5062055,43.8519465 70.5119863,37.1612854 70.5119863,29.7732894 C70.5119863,22.379836 73.5055116,15.6867568 78.3449182,10.8418906 C83.1846109,5.9967381 89.8704259,3 97.2543915,3 Z M97.2543915,8.4424782 C91.3729544,8.4424782 86.0465865,10.8298951 82.1906983,14.6894115 C78.3350224,18.5487153 75.9498143,23.8798083 75.9498143,29.7668772 C75.9498143,35.6539462 78.3350224,40.9850391 82.1906983,44.844343 C86.0465865,48.7038594 91.3729544,51.0912763 97.2543915,51.0912763 C103.136589,51.0912763 108.463714,48.7038835 112.320169,44.8444608 C116.176545,40.9851185 118.562172,35.6539745 118.562172,29.7668772 C118.562172,23.87978 116.176545,18.548636 112.320169,14.6892936 C108.463714,10.829871 103.136589,8.4424782 97.2543915,8.4424782 Z" id="形状结合" fill="#FFFFFF" fill-rule="nonzero"></path>
        </g>
    </g>
</svg>
