<svg width="21" height="20" viewBox="0 0 21 20" fill="none" xmlns="http://www.w3.org/2000/svg">
<path d="M8.96505 0C8.28323 0 7.75293 0.555555 7.75293 1.21212C7.75293 1.86869 8.28323 2.39899 8.96505 2.39899C12.1469 2.39899 14.7226 4.97474 14.7226 8.15656C14.7226 8.83838 15.2782 9.36868 15.9347 9.36868C16.6166 9.36868 17.1469 8.81312 17.1469 8.15656C17.1469 3.66161 13.4852 0 8.96505 0Z" fill="white"/>
<path d="M20.7582 8.1567C20.7582 7.47488 20.2026 6.94458 19.5461 6.94458C18.8895 6.94458 18.3339 7.50013 18.3339 8.13145C18.3339 11.3133 15.7582 13.889 12.5764 13.889C11.8946 13.889 11.3643 14.4446 11.3643 15.1011C11.3643 15.783 11.9198 16.3133 12.5764 16.3133C17.0966 16.3133 20.7582 12.6516 20.7582 8.1567Z" fill="white"/>
<path d="M13.7894 18.7879C13.7894 19.4445 13.2591 20 12.5773 20C8.05712 20 4.39551 16.3384 4.39551 11.8435C4.39551 11.1869 4.92581 10.6313 5.60763 10.6313C6.26419 10.6313 6.81975 11.1616 6.81975 11.8435C6.81975 15.0253 9.3955 17.601 12.5773 17.601C13.2591 17.601 13.7894 18.1313 13.7894 18.7879Z" fill="white"/>
<path d="M0.758789 11.8433C0.758789 12.5251 1.31434 13.0554 1.97091 13.0554C2.62747 13.0554 3.15778 12.4999 3.18303 11.8686C3.18303 8.68676 5.75878 6.11101 8.9406 6.11101C9.62242 6.11101 10.1527 5.55545 10.1527 4.89889C10.1527 4.21707 9.59716 3.68677 8.9406 3.68677C4.4204 3.68677 0.758789 7.34838 0.758789 11.8433Z" fill="white"/>
</svg>
