<svg width="21" height="20" viewBox="0 0 21 20" fill="none" xmlns="http://www.w3.org/2000/svg">
<path d="M10.5407 2.60599e-05C5.01501 -0.0022691 0.539551 4.59264 0.539551 10.264C0.539551 14.7487 3.33923 18.561 7.23824 19.961C7.76332 20.0964 7.68288 19.7131 7.68288 19.4515V17.6727C4.65082 18.0377 4.52794 15.9766 4.32461 15.6323C3.91349 14.9117 2.94153 14.7281 3.232 14.3838C3.92242 14.0188 4.62625 14.4756 5.44181 15.7127C6.03169 16.6101 7.1824 16.4586 7.76557 16.3094C7.89293 15.7701 8.16552 15.2881 8.5409 14.914C5.39935 14.3356 4.09001 12.3663 4.09001 10.0253C4.09001 8.88916 4.45422 7.84488 5.16922 7.00255C4.7134 5.61398 5.21167 4.42509 5.2787 4.24836C6.57688 4.12901 7.92645 5.20315 8.03146 5.28806C8.76881 5.0838 9.61117 4.97592 10.5541 4.97592C11.5015 4.97592 12.3461 5.08839 13.0901 5.29495C13.3426 5.09757 14.5938 4.17491 15.8004 4.28738C15.8652 4.4641 16.3523 5.62545 15.9233 6.99566C16.6473 7.84028 17.0159 8.89375 17.0159 10.0322C17.0159 12.3778 15.6976 14.3493 12.5472 14.9185C13.0923 15.4692 13.399 16.2218 13.3985 17.0071V19.5892C13.4163 19.7957 13.3985 20 13.7336 20C17.6907 18.6298 20.5396 14.79 20.5396 10.2662C20.5396 4.59261 16.0618 0 10.5407 0L10.5407 2.60599e-05Z" fill="white"/>
</svg>
