<svg width="60" height="60" viewBox="0 0 60 60" fill="none" xmlns="http://www.w3.org/2000/svg">
<path d="M9.73872 6.59961L14.5412 12.3992L0 18.1988L9.73872 6.59961Z" fill="url(#paint0_linear_2047_1881)"/>
<path d="M30.0514 35.8238L44.8491 18.1992H52.3965L30.0132 44.9878L30.0514 35.8238Z" fill="url(#paint1_linear_2047_1881)"/>
<path d="M44.8489 18.2H0L14.5412 12.4004H47.6985L52.3962 18.2H44.8489Z" fill="url(#paint2_linear_2047_1881)"/>
<path d="M44.8491 18.2L47.6988 12.4004L52.3965 18.2H44.8491Z" fill="url(#paint3_linear_2047_1881)"/>
<path d="M47.6981 12.3992H14.5407L9.73828 6.59961H50.3521L47.6981 12.3992Z" fill="url(#paint4_linear_2047_1881)"/>
<path d="M52.3955 18.1988L47.6978 12.3992L50.3517 6.59961L59.9989 18.1988H52.3955Z" fill="url(#paint5_linear_2047_1881)"/>
<path d="M30.0132 44.9877L52.3965 18.1992H59.9999L37.6268 44.8463L30.0652 53.8852L30.0132 44.9877Z" fill="url(#paint6_linear_2047_1881)"/>
<path d="M21.2003 34.4937L30.0431 44.9882L30.095 53.8857L9.87158 29.7988L21.2003 34.4937Z" fill="url(#paint7_linear_2047_1881)"/>
<path d="M21.2003 34.4937L9.87158 29.7988H25.0223L21.2003 34.4937Z" fill="url(#paint8_linear_2047_1881)"/>
<path d="M25.0223 29.7988L21.2002 34.4937L30.043 44.9882L30.0812 35.8242L25.0223 29.7988Z" fill="url(#paint9_linear_2047_1881)"/>
<defs>
<linearGradient id="paint0_linear_2047_1881" x1="7.27058" y1="18.1988" x2="7.27058" y2="6.59961" gradientUnits="userSpaceOnUse">
<stop stop-color="#ABEC79"/>
<stop offset="1" stop-color="#72D444"/>
</linearGradient>
<linearGradient id="paint1_linear_2047_1881" x1="41.2048" y1="18.1992" x2="41.2048" y2="44.4881" gradientUnits="userSpaceOnUse">
<stop stop-color="#36B564"/>
<stop offset="1" stop-color="#598E69"/>
</linearGradient>
<linearGradient id="paint2_linear_2047_1881" x1="26.1981" y1="18.2" x2="26.1981" y2="12.4004" gradientUnits="userSpaceOnUse">
<stop stop-color="#499D6C"/>
<stop offset="1" stop-color="#1C8441"/>
</linearGradient>
<linearGradient id="paint3_linear_2047_1881" x1="44.8491" y1="15.3002" x2="52.3965" y2="15.3002" gradientUnits="userSpaceOnUse">
<stop stop-color="#4C9B72"/>
<stop offset="1" stop-color="#25623E"/>
</linearGradient>
<linearGradient id="paint4_linear_2047_1881" x1="30.0452" y1="6.59961" x2="30.0452" y2="12.2867" gradientUnits="userSpaceOnUse">
<stop stop-color="#B1F286"/>
<stop offset="1" stop-color="#6BD240"/>
</linearGradient>
<linearGradient id="paint5_linear_2047_1881" x1="59.9989" y1="12.3992" x2="47.6978" y2="12.3992" gradientUnits="userSpaceOnUse">
<stop stop-color="#A6E579"/>
<stop offset="1" stop-color="#66B740"/>
</linearGradient>
<linearGradient id="paint6_linear_2047_1881" x1="45.0065" y1="53.8852" x2="45.0065" y2="18.1992" gradientUnits="userSpaceOnUse">
<stop stop-color="#399163"/>
<stop offset="1" stop-color="#205A38"/>
</linearGradient>
<linearGradient id="paint7_linear_2047_1881" x1="19.9833" y1="29.7988" x2="19.9833" y2="53.8857" gradientUnits="userSpaceOnUse">
<stop stop-color="#54A66D"/>
<stop offset="1" stop-color="#2A6D3B"/>
</linearGradient>
<linearGradient id="paint8_linear_2047_1881" x1="17.447" y1="29.7988" x2="17.447" y2="34.4937" gradientUnits="userSpaceOnUse">
<stop stop-color="#B1F286"/>
<stop offset="1" stop-color="#79E14E"/>
</linearGradient>
<linearGradient id="paint9_linear_2047_1881" x1="25.6407" y1="29.7988" x2="25.6407" y2="44.9882" gradientUnits="userSpaceOnUse">
<stop stop-color="#4C9D69"/>
<stop offset="1" stop-color="#256438"/>
</linearGradient>
</defs>
</svg>
