<svg width="24" height="20" viewBox="0 0 24 20" fill="none" xmlns="http://www.w3.org/2000/svg">
<path d="M23.5396 0.426957L21.67 2.35245C21.5064 2.4864 21.4285 2.70406 21.4596 2.91335V17.0866C21.4285 17.3043 21.5064 17.522 21.67 17.6476L23.5006 19.573V20H14.3083V19.5898L16.2013 17.6141C16.3882 17.4131 16.3882 17.3545 16.3882 17.0532V5.5923L11.1221 19.9581H10.4132L4.2824 5.5923V15.2198C4.22786 15.6216 4.3603 16.0318 4.62516 16.3248L7.08684 19.5312V19.9581H0.0913086V19.5312L2.55299 16.3248C2.81785 16.0318 2.9347 15.6216 2.87238 15.2198V4.08539C2.90354 3.77564 2.79448 3.47426 2.57636 3.26496L0.387333 0.426957V0H7.18811L12.4387 12.3901L17.0582 0.00837164H23.5396V0.426957Z" fill="white"/>
</svg>
