<svg width="23" height="20" viewBox="0 0 23 20" fill="none" xmlns="http://www.w3.org/2000/svg">
<path d="M15.9542 16.5854L13.2225 20L10.4908 16.5854H5.4176C5.15885 16.5854 4.9107 16.4826 4.72774 16.2996C4.54478 16.1167 4.44199 15.8685 4.44199 15.6098V4.97854C4.44199 4.71979 4.54478 4.47164 4.72774 4.28868C4.9107 4.10571 5.15885 4.00293 5.4176 4.00293H21.0274C21.2861 4.00293 21.5343 4.10571 21.7172 4.28868C21.9002 4.47164 22.003 4.71979 22.003 4.97854V15.6098C22.003 15.8685 21.9002 16.1167 21.7172 16.2996C21.5343 16.4826 21.2861 16.5854 21.0274 16.5854H15.9542ZM1.51516 0H18.1005V1.95122H2.49077V12.6829H0.539551V0.97561C0.539551 0.716862 0.642338 0.468712 0.8253 0.285749C1.00826 0.102787 1.25641 6.0644e-09 1.51516 0Z" fill="white"/>
</svg>
