<svg width="60" height="60" viewBox="0 0 60 60" fill="none" xmlns="http://www.w3.org/2000/svg">
<path d="M30.6683 51.4277C40.8197 51.4695 49.7942 46.3611 55.226 38.606C57.4256 35.4667 59.0444 31.8853 59.9253 28.0209C59.9755 28.7302 60.001 29.4463 60.001 30.1685C60.001 46.644 46.7158 60 30.3278 60C12.5222 60 0.000610352 47.6418 0.000610352 32.3972C0.000610352 20.5277 7.59154 10.4081 18.2435 6.50895C20.8323 5.62118 23.4774 5.13738 26.2349 5.13738C39.044 5.13738 50.1099 15.5766 50.1099 28.454C50.1099 30.6663 49.8034 32.8067 48.5487 34.8346C49.0195 33.5838 49.0867 32.6555 49.0867 31.7115C49.0867 21.0118 40.1179 12.681 29.4751 12.681C18.8323 12.681 10.2045 21.3547 10.2045 32.0544C10.2045 41.1155 16.3922 48.7237 24.7513 50.8414C26.4552 51.1839 28.1972 51.4196 30.6683 51.4277Z" fill="url(#paint0_linear_1966_2720)"/>
<path d="M29.3326 8.57229C19.1813 8.53053 10.2068 13.6389 4.775 21.394C2.57541 24.5334 0.956531 28.1147 0.0757087 31.9791C0.025522 31.2698 0 30.5537 0 29.8316C0 13.356 13.2852 0 29.6732 0C47.4787 0 60.0004 12.3582 60.0004 27.6028C60.0004 39.4723 52.4094 49.5919 41.7575 53.4911C39.1687 54.3788 36.5236 54.8626 33.7661 54.8626C20.957 54.8626 9.89107 44.4234 9.89107 31.546C9.89107 29.3337 10.1976 27.1933 11.4523 25.1654C10.9815 26.4162 10.9143 27.3445 10.9143 28.2885C10.9143 38.9882 19.8831 47.319 30.5259 47.319C41.1687 47.319 49.7964 38.6453 49.7964 27.9456C49.7964 18.8845 43.6088 11.2763 35.2497 9.1586C33.5458 8.81608 31.8037 8.58041 29.3326 8.57229Z" fill="url(#paint1_linear_1966_2720)"/>
<defs>
<linearGradient id="paint0_linear_1966_2720" x1="60.001" y1="32.5687" x2="0.000614166" y2="32.5687" gradientUnits="userSpaceOnUse">
<stop stop-color="#929297"/>
<stop offset="0.780357" stop-color="#88878D"/>
<stop offset="1" stop-color="#BAB9C6"/>
</linearGradient>
<linearGradient id="paint1_linear_1966_2720" x1="0" y1="27.4313" x2="60.0004" y2="27.4313" gradientUnits="userSpaceOnUse">
<stop stop-color="#919FB7"/>
<stop offset="1" stop-color="#F8FAFE"/>
</linearGradient>
</defs>
</svg>
