<?xml version="1.0" encoding="UTF-8"?>
<svg width="160px" height="160px" viewBox="0 0 160 160" version="1.1" xmlns="http://www.w3.org/2000/svg" xmlns:xlink="http://www.w3.org/1999/xlink">
    <title>S</title>
    <g id="S" stroke="none" stroke-width="1" fill="none" fill-rule="evenodd">
        <circle id="椭圆形" stroke="#FFFFFF" stroke-width="7.6" cx="79.520318" cy="75.6422261" r="59.5922261"></circle>
        <polyline id="路径-3" stroke="#FFFFFF" stroke-width="7" transform="translate(67.758464, 61.946770) rotate(-90.000000) translate(-67.758464, -61.946770) " points="51.9584806 49.1700427 51.9584806 74.7234982 83.5584477 74.7234982"></polyline>
        <g id="编组-6" transform="translate(76.000000, 114.000000)" fill="#000000" stroke="#FFFFFF" stroke-width="7">
            <ellipse id="椭圆形" cx="33.5" cy="14" rx="30" ry="10.5"></ellipse>
        </g>
        <g id="编组-6备份" transform="translate(76.000000, 100.000000)" fill="#000000" stroke="#FFFFFF" stroke-width="7">
            <path d="M63.5,17.5 L63.5,28 C63.5,29.0602502 62.8596963,29.9997187 61.9772685,30.8900223 C60.5487775,32.3312626 58.4301893,33.5870602 55.8385017,34.6701535 C50.1215805,37.0593146 42.21809,38.5 33.5,38.5 C24.78191,38.5 16.8784195,37.0593146 11.1614983,34.6701535 C8.5698107,33.5870602 6.45122248,32.3312626 5.02273152,30.8900223 C4.14030365,29.9997187 3.5,29.0602502 3.5,28 L3.5,17.5 L63.5,17.5 Z" id="椭圆形备份-4"></path>
            <ellipse id="椭圆形" cx="33.5" cy="14" rx="30" ry="10.5"></ellipse>
        </g>
        <g id="编组-6备份-2" transform="translate(76.000000, 86.000000)" fill="#000000" stroke="#FFFFFF" stroke-width="7">
            <path d="M63.5,17.5 L63.5,28 C63.5,29.0602502 62.8596963,29.9997187 61.9772685,30.8900223 C60.5487775,32.3312626 58.4301893,33.5870602 55.8385017,34.6701535 C50.1215805,37.0593146 42.21809,38.5 33.5,38.5 C24.78191,38.5 16.8784195,37.0593146 11.1614983,34.6701535 C8.5698107,33.5870602 6.45122248,32.3312626 5.02273152,30.8900223 C4.14030365,29.9997187 3.5,29.0602502 3.5,28 L3.5,17.5 L63.5,17.5 Z" id="椭圆形备份-4"></path>
            <ellipse id="椭圆形" cx="33.5" cy="14" rx="30" ry="10.5"></ellipse>
        </g>
    </g>
</svg>
