<svg width="23" height="20" viewBox="0 0 23 20" fill="none" xmlns="http://www.w3.org/2000/svg">
<path d="M15.0053 0.0271052L14.447 0.107385C14.1047 0.187665 13.7625 0.308084 13.4383 0.448573C12.1574 1.07249 11.2114 2.32699 10.8806 3.84039C10.7005 4.62312 10.7005 5.44599 10.8806 6.20864C10.1962 6.20864 9.51172 6.10829 8.8633 5.90759C6.84108 5.40467 4.95283 4.38046 3.3502 2.91718C2.85726 2.48643 2.40962 1.99494 2.01582 1.45208C1.86388 1.28518 1.72526 1.10387 1.60155 0.910187C1.3908 1.32049 1.2274 1.75881 1.11523 2.21473C0.77449 3.8383 1.14918 5.54561 2.12389 6.81075C2.35805 7.13187 2.71828 7.33257 2.95244 7.61355C2.74709 7.65358 2.53592 7.63282 2.34003 7.55334C2.01272 7.4931 1.69251 7.39212 1.38541 7.25229L0.899089 7.05159C0.843306 8.82084 1.65825 10.4831 3.02448 11.3867C3.45677 11.748 3.9611 11.9687 4.50145 12.049C4.21326 12.33 2.93442 12.2096 2.48413 12.1494C2.93442 13.6747 3.99712 14.8588 5.34951 15.3806C5.78179 15.5613 6.23209 15.6415 6.68238 15.6415C6.30829 15.991 5.89691 16.2876 5.45758 16.5246C4.61094 17.0394 3.70044 17.4114 2.7558 17.6285C2.34153 17.7288 1.90925 17.7087 1.44094 17.789C0.960119 17.8291 0.476776 17.8089 0 17.7288L0.396261 17.9897C0.810533 18.2707 1.22481 18.5115 1.6751 18.7122C2.53967 19.1136 3.42224 19.4348 4.32283 19.6756C6.44823 20.1773 8.66517 20.0971 10.7545 19.4348C15.4751 17.789 18.4651 13.9356 19.6013 8.25579C19.7815 7.19208 19.8535 6.08823 19.8175 5.00446L20.538 4.34215C21.1367 3.77893 21.6532 3.11539 22.069 2.3753C21.2558 2.77567 20.3939 3.03944 19.5113 3.15802C19.6914 3.05767 19.8535 2.91719 20.0156 2.75663C20.7001 2.13446 21.2044 1.31159 21.4746 0.388374L20.9162 0.729562C20.1852 1.16281 19.3934 1.45462 18.5747 1.59257C17.658 0.508452 16.3597 -0.0714213 15.0249 0.00704758V0.0271175L15.0053 0.0271052Z" fill="white"/>
</svg>
