<svg width="375" height="521" viewBox="0 0 375 521" fill="none" xmlns="http://www.w3.org/2000/svg">
<mask id="mask0_381_5506" style="mask-type:alpha" maskUnits="userSpaceOnUse" x="0" y="0" width="375" height="521">
<rect width="375" height="521" fill="white"/>
</mask>
<g mask="url(#mask0_381_5506)">
<g opacity="0.1">
<path d="M277.656 106.5H214.91" stroke="#5930DD" stroke-width="0.148"/>
<path d="M268.756 115.4H206.01" stroke="#5930DD" stroke-width="0.2"/>
<path d="M259.856 124.301H197.11" stroke="#5930DD" stroke-width="0.252"/>
<path d="M250.955 133.2H188.209" stroke="#5930DD" stroke-width="0.304"/>
<path d="M242.055 142.101H179.309" stroke="#5930DD" stroke-width="0.356"/>
<path d="M233.155 151.001H170.409" stroke="#5930DD" stroke-width="0.408"/>
<path d="M224.255 159.901H161.509" stroke="#5930DD" stroke-width="0.46"/>
<path d="M215.355 168.802H152.609" stroke="#5930DD" stroke-width="0.512"/>
<path d="M206.454 177.701H143.708" stroke="#5930DD" stroke-width="0.564"/>
<path d="M197.554 186.602H134.808" stroke="#5930DD" stroke-width="0.616"/>
<path d="M188.654 195.502H125.908" stroke="#5930DD" stroke-width="0.668"/>
<path d="M179.754 204.402H117.008" stroke="#5930DD" stroke-width="0.72"/>
<path d="M170.854 213.303H108.108" stroke="#5930DD" stroke-width="0.772"/>
<path d="M161.954 222.202H99.2075" stroke="#5930DD" stroke-width="0.824"/>
<path d="M153.053 231.103H90.3074" stroke="#5930DD" stroke-width="0.876"/>
<path d="M144.153 240.003H81.4072" stroke="#5930DD" stroke-width="0.928"/>
<path d="M135.253 248.903H72.5071" stroke="#5930DD" stroke-width="0.98"/>
<path d="M126.353 257.804H63.6067" stroke="#5930DD" stroke-width="1.032"/>
<path d="M117.453 266.703H54.7065" stroke="#5930DD" stroke-width="1.084"/>
<path d="M108.552 275.604H45.8064" stroke="#5930DD" stroke-width="1.136"/>
<path d="M99.6522 284.504H36.9062" stroke="#5930DD" stroke-width="1.188"/>
<path d="M90.7521 293.404H28.0061" stroke="#5930DD" stroke-width="1.24"/>
<path d="M81.8517 302.305H19.1057" stroke="#5930DD" stroke-width="1.292"/>
<path d="M72.9516 311.205H10.2056" stroke="#5930DD" stroke-width="1.344"/>
<path d="M64.0512 320.104H1.30518" stroke="#5930DD" stroke-width="1.396"/>
<path d="M55.1513 329.005H-7.59473" stroke="#5930DD" stroke-width="1.448"/>
<path d="M46.2509 337.905H-16.4951" stroke="#5930DD" stroke-width="1.5"/>
<path d="M37.3507 346.806H-25.3953" stroke="#5930DD" stroke-width="1.552"/>
<path d="M28.4506 355.706H-34.2954" stroke="#5930DD" stroke-width="1.604"/>
<path d="M19.5502 364.605H-43.1958" stroke="#5930DD" stroke-width="1.656"/>
<path d="M10.6503 373.506H-52.0957" stroke="#5930DD" stroke-width="1.708"/>
<path d="M1.7499 382.406H-60.9961" stroke="#5930DD" stroke-width="1.76"/>
</g>
<path opacity="0.1" fill-rule="evenodd" clip-rule="evenodd" d="M19 470.5C19 458.072 29.0748 448 41.5 448C53.9258 448 64 458.072 64 470.5C64 482.926 53.9258 493 41.5 493C29.0748 493 19 482.926 19 470.5Z" fill="#6330DD"/>
<g opacity="0.1">
<path fill-rule="evenodd" clip-rule="evenodd" d="M312.346 561C312.346 526.397 340.397 498.347 374.999 498.347C409.604 498.347 437.655 526.397 437.655 561C437.655 595.604 409.604 623.655 374.999 623.655C340.397 623.655 312.346 595.604 312.346 561Z" stroke="#5930DD" stroke-width="2"/>
<path fill-rule="evenodd" clip-rule="evenodd" d="M453.072 561C453.072 604.119 418.118 639.073 374.999 639.073C331.881 639.073 296.927 604.119 296.927 561C296.927 517.882 331.881 482.928 374.999 482.928C418.118 482.928 453.072 517.882 453.072 561Z" stroke="#5930DD" stroke-width="1.796"/>
<path fill-rule="evenodd" clip-rule="evenodd" d="M468.49 561C468.49 612.634 426.634 654.491 374.999 654.491C323.366 654.491 281.509 612.634 281.509 561C281.509 509.367 323.366 467.51 374.999 467.51C426.634 467.51 468.49 509.367 468.49 561Z" stroke="#5930DD" stroke-width="1.592"/>
<path fill-rule="evenodd" clip-rule="evenodd" d="M483.908 561C483.908 621.15 435.149 669.909 374.999 669.909C314.851 669.909 266.091 621.15 266.091 561C266.091 500.851 314.851 452.092 374.999 452.092C435.149 452.092 483.908 500.851 483.908 561Z" stroke="#5930DD" stroke-width="1.388"/>
<path fill-rule="evenodd" clip-rule="evenodd" d="M499.326 561C499.326 629.665 443.664 685.327 374.999 685.327C306.335 685.327 250.673 629.665 250.673 561C250.673 492.336 306.335 436.674 374.999 436.674C443.664 436.674 499.326 492.336 499.326 561Z" stroke="#5930DD" stroke-width="1.184"/>
<path fill-rule="evenodd" clip-rule="evenodd" d="M514.744 561C514.744 638.18 452.179 700.745 374.999 700.745C297.82 700.745 235.255 638.18 235.255 561C235.255 483.821 297.82 421.255 374.999 421.255C452.179 421.255 514.744 483.821 514.744 561Z" stroke="#5930DD" stroke-width="0.98"/>
<path fill-rule="evenodd" clip-rule="evenodd" d="M530.162 561C530.162 646.695 460.694 716.163 374.999 716.163C289.305 716.163 219.836 646.695 219.836 561C219.836 475.305 289.305 405.837 374.999 405.837C460.694 405.837 530.162 475.305 530.162 561Z" stroke="#5930DD" stroke-width="0.776"/>
<path fill-rule="evenodd" clip-rule="evenodd" d="M545.58 561C545.58 655.21 469.209 731.581 374.999 731.581C280.79 731.581 204.418 655.21 204.418 561C204.418 466.79 280.79 390.419 374.999 390.419C469.209 390.419 545.58 466.79 545.58 561Z" stroke="#5930DD" stroke-width="0.572"/>
<path fill-rule="evenodd" clip-rule="evenodd" d="M189 561C189 458.274 272.274 375 374.999 375C477.725 375 560.998 458.274 560.998 561C560.998 663.726 477.725 747 374.999 747C272.274 747 189 663.726 189 561Z" stroke="#5930DD" stroke-width="0.368"/>
</g>
<g opacity="0.1">
<path fill-rule="evenodd" clip-rule="evenodd" d="M-73.6543 -42.0003C-73.6543 -76.6033 -45.6033 -104.653 -11.0013 -104.653C23.6037 -104.653 51.6547 -76.6033 51.6547 -42.0003C51.6547 -7.39632 23.6037 20.6547 -11.0013 20.6547C-45.6033 20.6547 -73.6543 -7.39632 -73.6543 -42.0003Z" stroke="#5930DD" stroke-width="2"/>
<path fill-rule="evenodd" clip-rule="evenodd" d="M67.0723 -42.0003C67.0723 1.11873 32.1182 36.0727 -11.0008 36.0727C-54.1188 36.0727 -89.0728 1.11873 -89.0728 -42.0003C-89.0728 -85.1183 -54.1188 -120.072 -11.0008 -120.072C32.1182 -120.072 67.0723 -85.1183 67.0723 -42.0003Z" stroke="#5930DD" stroke-width="1.796"/>
<path fill-rule="evenodd" clip-rule="evenodd" d="M82.4903 -42.0002C82.4903 9.63376 40.6343 51.4908 -11.0007 51.4908C-62.6337 51.4908 -104.491 9.63376 -104.491 -42.0002C-104.491 -93.6332 -62.6337 -135.49 -11.0007 -135.49C40.6343 -135.49 82.4903 -93.6332 82.4903 -42.0002Z" stroke="#5930DD" stroke-width="1.592"/>
<path fill-rule="evenodd" clip-rule="evenodd" d="M97.9082 -42.0002C97.9082 18.1498 49.1492 66.9088 -11.0008 66.9088C-71.1488 66.9088 -119.909 18.1498 -119.909 -42.0002C-119.909 -102.149 -71.1488 -150.908 -11.0008 -150.908C49.1492 -150.908 97.9082 -102.149 97.9082 -42.0002Z" stroke="#5930DD" stroke-width="1.388"/>
<path fill-rule="evenodd" clip-rule="evenodd" d="M113.326 -42.0002C113.326 26.6648 57.6642 82.3268 -11.0008 82.3268C-79.6648 82.3268 -135.327 26.6648 -135.327 -42.0002C-135.327 -110.664 -79.6648 -166.326 -11.0008 -166.326C57.6642 -166.326 113.326 -110.664 113.326 -42.0002Z" stroke="#5930DD" stroke-width="1.184"/>
<path fill-rule="evenodd" clip-rule="evenodd" d="M128.744 -42.0001C128.744 35.1799 66.1791 97.7449 -11.0009 97.7449C-88.1799 97.7449 -150.745 35.1799 -150.745 -42.0001C-150.745 -119.179 -88.1799 -181.745 -11.0009 -181.745C66.1791 -181.745 128.744 -119.179 128.744 -42.0001Z" stroke="#5930DD" stroke-width="0.98"/>
<path fill-rule="evenodd" clip-rule="evenodd" d="M144.162 -42.0001C144.162 43.6949 74.6941 113.163 -11.0009 113.163C-96.6949 113.163 -166.164 43.6949 -166.164 -42.0001C-166.164 -127.695 -96.6949 -197.163 -11.0009 -197.163C74.6941 -197.163 144.162 -127.695 144.162 -42.0001Z" stroke="#5930DD" stroke-width="0.776"/>
<path fill-rule="evenodd" clip-rule="evenodd" d="M159.58 -42.0001C159.58 52.2099 83.2091 128.581 -11.0009 128.581C-105.21 128.581 -181.582 52.2099 -181.582 -42.0001C-181.582 -136.21 -105.21 -212.581 -11.0009 -212.581C83.2091 -212.581 159.58 -136.21 159.58 -42.0001Z" stroke="#5930DD" stroke-width="0.572"/>
<path fill-rule="evenodd" clip-rule="evenodd" d="M-197 -42C-197 -144.726 -113.726 -228 -11.001 -228C91.725 -228 174.998 -144.726 174.998 -42C174.998 60.726 91.725 144 -11.001 144C-113.726 144 -197 60.726 -197 -42Z" stroke="#5930DD" stroke-width="0.368"/>
</g>
</g>
</svg>
