<svg width="2560" height="630" viewBox="0 0 2560 630" fill="none" xmlns="http://www.w3.org/2000/svg">
<rect width="2560" height="630" fill="white"/>
<mask id="mask0_379_5019" style="mask-type:alpha" maskUnits="userSpaceOnUse" x="0" y="0" width="2560" height="630">
<rect opacity="0.34" width="2560" height="630" fill="white"/>
</mask>
<g mask="url(#mask0_379_5019)">
<g opacity="0.34">
<path fill-rule="evenodd" clip-rule="evenodd" d="M1941.44 505.106C1941.44 480.389 1961.47 460.351 1986.19 460.351C2010.91 460.351 2030.95 480.389 2030.95 505.106C2030.95 529.825 2010.91 549.863 1986.19 549.863C1961.47 549.863 1941.44 529.825 1941.44 505.106Z" stroke="#5930DD" stroke-width="1.5"/>
<path fill-rule="evenodd" clip-rule="evenodd" d="M2041.96 505.105C2041.96 535.906 2016.99 560.876 1986.19 560.876C1955.39 560.876 1930.42 535.906 1930.42 505.105C1930.42 474.305 1955.39 449.336 1986.19 449.336C2016.99 449.336 2041.96 474.305 2041.96 505.105Z" stroke="#5930DD" stroke-width="1.345"/>
<path fill-rule="evenodd" clip-rule="evenodd" d="M2052.97 505.105C2052.97 541.989 2023.07 571.889 1986.19 571.889C1949.31 571.889 1919.41 541.989 1919.41 505.105C1919.41 468.223 1949.31 438.323 1986.19 438.323C2023.07 438.323 2052.97 468.223 2052.97 505.105Z" stroke="#5930DD" stroke-width="1.191"/>
<path fill-rule="evenodd" clip-rule="evenodd" d="M2063.99 505.106C2063.99 548.073 2029.16 582.904 1986.19 582.904C1943.22 582.904 1908.39 548.073 1908.39 505.106C1908.39 462.141 1943.22 427.31 1986.19 427.31C2029.16 427.31 2063.99 462.141 2063.99 505.106Z" stroke="#5930DD" stroke-width="1.036"/>
<path fill-rule="evenodd" clip-rule="evenodd" d="M2075 505.105C2075 554.154 2035.24 593.917 1986.19 593.917C1937.14 593.917 1897.38 554.154 1897.38 505.105C1897.38 456.057 1937.14 416.295 1986.19 416.295C2035.24 416.295 2075 456.057 2075 505.105Z" stroke="#5930DD" stroke-width="0.881"/>
<path fill-rule="evenodd" clip-rule="evenodd" d="M2086.01 505.105C2086.01 560.237 2041.32 604.93 1986.19 604.93C1931.06 604.93 1886.37 560.237 1886.37 505.105C1886.37 449.974 1931.06 405.282 1986.19 405.282C2041.32 405.282 2086.01 449.974 2086.01 505.105Z" stroke="#5930DD" stroke-width="0.727"/>
<path fill-rule="evenodd" clip-rule="evenodd" d="M2097.03 505.106C2097.03 566.321 2047.4 615.945 1986.19 615.945C1924.98 615.945 1875.35 566.321 1875.35 505.106C1875.35 443.892 1924.98 394.269 1986.19 394.269C2047.4 394.269 2097.03 443.892 2097.03 505.106Z" stroke="#5930DD" stroke-width="0.572"/>
<path fill-rule="evenodd" clip-rule="evenodd" d="M2108.04 505.105C2108.04 572.402 2053.49 626.958 1986.19 626.958C1918.89 626.958 1864.34 572.402 1864.34 505.105C1864.34 437.808 1918.89 383.254 1986.19 383.254C2053.49 383.254 2108.04 437.808 2108.04 505.105Z" stroke="#5930DD" stroke-width="0.417"/>
<path fill-rule="evenodd" clip-rule="evenodd" d="M1853.33 505.105C1853.33 431.726 1912.81 372.241 1986.19 372.241C2059.57 372.241 2119.05 431.726 2119.05 505.105C2119.05 578.485 2059.57 637.971 1986.19 637.971C1912.81 637.971 1853.33 578.485 1853.33 505.105Z" stroke="#5930DD" stroke-width="0.263"/>
</g>
<g opacity="0.34">
<path fill-rule="evenodd" clip-rule="evenodd" d="M362.084 74.2793C362.084 28.6683 399.058 -8.30566 444.668 -8.30566C490.28 -8.30566 527.255 28.6683 527.255 74.2793C527.255 119.89 490.28 156.865 444.668 156.865C399.058 156.865 362.084 119.89 362.084 74.2793Z" stroke="#5930DD" stroke-width="2.636"/>
<path fill-rule="evenodd" clip-rule="evenodd" d="M547.577 74.2791C547.577 131.114 501.504 177.188 444.667 177.188C387.833 177.188 341.76 131.114 341.76 74.2791C341.76 17.4431 387.833 -28.6289 444.667 -28.6289C501.504 -28.6289 547.577 17.4431 547.577 74.2791Z" stroke="#5930DD" stroke-width="2.367"/>
<path fill-rule="evenodd" clip-rule="evenodd" d="M567.9 74.2798C567.9 142.339 512.728 197.511 444.668 197.511C376.609 197.511 321.438 142.339 321.438 74.2798C321.438 6.21983 376.609 -48.9512 444.668 -48.9512C512.728 -48.9512 567.9 6.21983 567.9 74.2798Z" stroke="#5930DD" stroke-width="2.098"/>
<path fill-rule="evenodd" clip-rule="evenodd" d="M588.223 74.2796C588.223 153.563 523.952 217.834 444.668 217.834C365.386 217.834 301.115 153.563 301.115 74.2796C301.115 -5.00441 365.386 -69.2744 444.668 -69.2744C523.952 -69.2744 588.223 -5.00441 588.223 74.2796Z" stroke="#5930DD" stroke-width="1.829"/>
<path fill-rule="evenodd" clip-rule="evenodd" d="M608.545 74.2793C608.545 164.786 535.176 238.156 444.668 238.156C354.161 238.156 280.792 164.786 280.792 74.2793C280.792 -16.2287 354.161 -89.5977 444.668 -89.5977C535.176 -89.5977 608.545 -16.2287 608.545 74.2793Z" stroke="#5930DD" stroke-width="1.561"/>
<path fill-rule="evenodd" clip-rule="evenodd" d="M628.868 74.2791C628.868 176.01 546.4 258.479 444.668 258.479C342.938 258.479 260.469 176.01 260.469 74.2791C260.469 -27.4539 342.938 -109.921 444.668 -109.921C546.4 -109.921 628.868 -27.4539 628.868 74.2791Z" stroke="#5930DD" stroke-width="1.292"/>
<path fill-rule="evenodd" clip-rule="evenodd" d="M649.191 74.2798C649.191 187.235 557.625 278.802 444.668 278.802C331.714 278.802 240.146 187.235 240.146 74.2798C240.146 -38.6772 331.714 -130.243 444.668 -130.243C557.625 -130.243 649.191 -38.6772 649.191 74.2798Z" stroke="#5930DD" stroke-width="1.023"/>
<path fill-rule="evenodd" clip-rule="evenodd" d="M669.513 74.2796C669.513 198.459 568.848 299.125 444.668 299.125C320.489 299.125 219.823 198.459 219.823 74.2796C219.823 -49.9014 320.489 -150.566 444.668 -150.566C568.848 -150.566 669.513 -49.9014 669.513 74.2796Z" stroke="#5930DD" stroke-width="0.754"/>
<path fill-rule="evenodd" clip-rule="evenodd" d="M199.5 74.2794C199.5 -61.1256 309.266 -170.89 444.668 -170.89C580.072 -170.89 689.836 -61.1256 689.836 74.2794C689.836 209.682 580.072 319.447 444.668 319.447C309.266 319.447 199.5 209.682 199.5 74.2794Z" stroke="#5930DD" stroke-width="0.485"/>
</g>
<g opacity="0.34">
<path d="M574.617 434.508H511.871" stroke="#5930DD" stroke-width="0.148"/>
<path d="M565.717 443.408H502.971" stroke="#5930DD" stroke-width="0.2"/>
<path d="M556.817 452.309H494.071" stroke="#5930DD" stroke-width="0.252"/>
<path d="M547.916 461.208H485.17" stroke="#5930DD" stroke-width="0.304"/>
<path d="M539.016 470.108H476.27" stroke="#5930DD" stroke-width="0.356"/>
<path d="M530.116 479.009H467.37" stroke="#5930DD" stroke-width="0.408"/>
<path d="M521.216 487.909H458.47" stroke="#5930DD" stroke-width="0.46"/>
<path d="M512.316 496.81H449.57" stroke="#5930DD" stroke-width="0.512"/>
<path d="M503.415 505.709H440.669" stroke="#5930DD" stroke-width="0.564"/>
<path d="M494.515 514.609H431.769" stroke="#5930DD" stroke-width="0.616"/>
<path d="M485.615 523.51H422.869" stroke="#5930DD" stroke-width="0.668"/>
<path d="M476.715 532.41H413.969" stroke="#5930DD" stroke-width="0.72"/>
<path d="M467.815 541.311H405.069" stroke="#5930DD" stroke-width="0.772"/>
<path d="M458.914 550.21H396.168" stroke="#5930DD" stroke-width="0.824"/>
<path d="M450.014 559.11H387.268" stroke="#5930DD" stroke-width="0.876"/>
<path d="M441.114 568.011H378.368" stroke="#5930DD" stroke-width="0.928"/>
<path d="M432.214 576.911H369.468" stroke="#5930DD" stroke-width="0.98"/>
<path d="M423.314 585.812H360.568" stroke="#5930DD" stroke-width="1.032"/>
<path d="M414.413 594.711H351.667" stroke="#5930DD" stroke-width="1.084"/>
<path d="M405.513 603.611H342.767" stroke="#5930DD" stroke-width="1.136"/>
<path d="M396.613 612.512H333.867" stroke="#5930DD" stroke-width="1.188"/>
<path d="M387.713 621.412H324.967" stroke="#5930DD" stroke-width="1.24"/>
<path d="M378.813 630.312H316.067" stroke="#5930DD" stroke-width="1.292"/>
</g>
<path opacity="0.34" fill-rule="evenodd" clip-rule="evenodd" d="M1252.95 -17.158C1252.95 -57.184 1285.4 -89.624 1325.42 -89.624C1365.44 -89.624 1397.88 -57.184 1397.88 -17.158C1397.88 22.861 1365.44 55.307 1325.42 55.307C1285.4 55.307 1252.95 22.861 1252.95 -17.158Z" fill="#6330DD"/>
<g opacity="0.34">
<path fill-rule="evenodd" clip-rule="evenodd" d="M1154.06 607C1154.06 572.397 1182.11 544.347 1216.71 544.347C1251.32 544.347 1279.37 572.397 1279.37 607C1279.37 641.604 1251.32 669.655 1216.71 669.655C1182.11 669.655 1154.06 641.604 1154.06 607Z" stroke="#5930DD" stroke-width="2"/>
<path fill-rule="evenodd" clip-rule="evenodd" d="M1294.78 607C1294.78 650.119 1259.83 685.073 1216.71 685.073C1173.59 685.073 1138.64 650.119 1138.64 607C1138.64 563.882 1173.59 528.928 1216.71 528.928C1259.83 528.928 1294.78 563.882 1294.78 607Z" stroke="#5930DD" stroke-width="1.796"/>
<path fill-rule="evenodd" clip-rule="evenodd" d="M1310.2 607C1310.2 658.634 1268.35 700.491 1216.71 700.491C1165.08 700.491 1123.22 658.634 1123.22 607C1123.22 555.367 1165.08 513.51 1216.71 513.51C1268.35 513.51 1310.2 555.367 1310.2 607Z" stroke="#5930DD" stroke-width="1.592"/>
<path fill-rule="evenodd" clip-rule="evenodd" d="M1325.62 607C1325.62 667.15 1276.86 715.909 1216.71 715.909C1156.56 715.909 1107.8 667.15 1107.8 607C1107.8 546.851 1156.56 498.092 1216.71 498.092C1276.86 498.092 1325.62 546.851 1325.62 607Z" stroke="#5930DD" stroke-width="1.388"/>
<path fill-rule="evenodd" clip-rule="evenodd" d="M1341.04 607C1341.04 675.665 1285.38 731.327 1216.71 731.327C1148.05 731.327 1092.38 675.665 1092.38 607C1092.38 538.336 1148.05 482.674 1216.71 482.674C1285.38 482.674 1341.04 538.336 1341.04 607Z" stroke="#5930DD" stroke-width="1.184"/>
<path fill-rule="evenodd" clip-rule="evenodd" d="M1356.46 607C1356.46 684.18 1293.89 746.745 1216.71 746.745C1139.53 746.745 1076.97 684.18 1076.97 607C1076.97 529.821 1139.53 467.255 1216.71 467.255C1293.89 467.255 1356.46 529.821 1356.46 607Z" stroke="#5930DD" stroke-width="0.98"/>
<path fill-rule="evenodd" clip-rule="evenodd" d="M1371.87 607C1371.87 692.695 1302.41 762.163 1216.71 762.163C1131.02 762.163 1061.55 692.695 1061.55 607C1061.55 521.305 1131.02 451.837 1216.71 451.837C1302.41 451.837 1371.87 521.305 1371.87 607Z" stroke="#5930DD" stroke-width="0.776"/>
<path fill-rule="evenodd" clip-rule="evenodd" d="M1387.29 607C1387.29 701.21 1310.92 777.581 1216.71 777.581C1122.5 777.581 1046.13 701.21 1046.13 607C1046.13 512.79 1122.5 436.419 1216.71 436.419C1310.92 436.419 1387.29 512.79 1387.29 607Z" stroke="#5930DD" stroke-width="0.572"/>
<path fill-rule="evenodd" clip-rule="evenodd" d="M1030.71 607C1030.71 504.274 1113.99 421 1216.71 421C1319.44 421 1402.71 504.274 1402.71 607C1402.71 709.726 1319.44 793 1216.71 793C1113.99 793 1030.71 709.726 1030.71 607Z" stroke="#5930DD" stroke-width="0.368"/>
</g>
<path opacity="0.34" fill-rule="evenodd" clip-rule="evenodd" d="M826.566 551.681C826.566 545.076 831.919 539.723 838.523 539.723C845.128 539.723 850.481 545.076 850.481 551.681C850.481 558.287 845.128 563.639 838.523 563.639C831.919 563.639 826.566 558.287 826.566 551.681Z" stroke="#5930DD" stroke-width="2.957"/>
<path opacity="0.34" fill-rule="evenodd" clip-rule="evenodd" d="M1486.46 143.725C1486.46 136.852 1492.03 131.281 1498.9 131.281C1505.78 131.281 1511.35 136.852 1511.35 143.725C1511.35 150.598 1505.78 156.169 1498.9 156.169C1492.03 156.169 1486.46 150.598 1486.46 143.725Z" stroke="#5930DD" stroke-width="3"/>
<g opacity="0.34">
<path d="M1924.81 287.985H1862.07" stroke="#5930DD" stroke-width="0.148"/>
<path d="M1915.91 296.886H1853.17" stroke="#5930DD" stroke-width="0.2"/>
<path d="M1907.01 305.786H1844.27" stroke="#5930DD" stroke-width="0.252"/>
<path d="M1898.11 314.686H1835.37" stroke="#5930DD" stroke-width="0.304"/>
<path d="M1889.21 323.586H1826.47" stroke="#5930DD" stroke-width="0.356"/>
<path d="M1880.31 332.486H1817.57" stroke="#5930DD" stroke-width="0.408"/>
<path d="M1871.41 341.387H1808.67" stroke="#5930DD" stroke-width="0.46"/>
<path d="M1862.51 350.287H1799.77" stroke="#5930DD" stroke-width="0.512"/>
<path d="M1853.61 359.187H1790.87" stroke="#5930DD" stroke-width="0.564"/>
<path d="M1844.71 368.087H1781.97" stroke="#5930DD" stroke-width="0.616"/>
<path d="M1835.81 376.987H1773.07" stroke="#5930DD" stroke-width="0.668"/>
<path d="M1826.91 385.888H1764.17" stroke="#5930DD" stroke-width="0.72"/>
<path d="M1818.01 394.788H1755.27" stroke="#5930DD" stroke-width="0.772"/>
<path d="M1809.11 403.688H1746.37" stroke="#5930DD" stroke-width="0.824"/>
<path d="M1800.21 412.588H1737.47" stroke="#5930DD" stroke-width="0.876"/>
<path d="M1791.31 421.488H1728.57" stroke="#5930DD" stroke-width="0.928"/>
<path d="M1782.41 430.389H1719.67" stroke="#5930DD" stroke-width="0.98"/>
<path d="M1773.51 439.289H1710.76" stroke="#5930DD" stroke-width="1.032"/>
<path d="M1764.61 448.188H1701.86" stroke="#5930DD" stroke-width="1.084"/>
<path d="M1755.71 457.089H1692.96" stroke="#5930DD" stroke-width="1.136"/>
<path d="M1746.81 465.989H1684.06" stroke="#5930DD" stroke-width="1.188"/>
<path d="M1737.91 474.89H1675.16" stroke="#5930DD" stroke-width="1.24"/>
<path d="M1729.01 483.79H1666.26" stroke="#5930DD" stroke-width="1.292"/>
<path d="M1720.11 492.69H1657.36" stroke="#5930DD" stroke-width="1.344"/>
<path d="M1711.21 501.59H1648.46" stroke="#5930DD" stroke-width="1.396"/>
<path d="M1702.31 510.49H1639.56" stroke="#5930DD" stroke-width="1.448"/>
<path d="M1693.41 519.391H1630.66" stroke="#5930DD" stroke-width="1.5"/>
<path d="M1684.51 528.291H1621.76" stroke="#5930DD" stroke-width="1.552"/>
<path d="M1675.61 537.191H1612.86" stroke="#5930DD" stroke-width="1.604"/>
<path d="M1666.71 546.091H1603.96" stroke="#5930DD" stroke-width="1.656"/>
<path d="M1657.81 554.991H1595.06" stroke="#5930DD" stroke-width="1.708"/>
<path d="M1648.91 563.892H1586.16" stroke="#5930DD" stroke-width="1.76"/>
<path d="M1640.01 572.792H1577.26" stroke="#5930DD" stroke-width="1.812"/>
<path d="M1631.11 581.692H1568.36" stroke="#5930DD" stroke-width="1.863"/>
<path d="M1622.21 590.592H1559.46" stroke="#5930DD" stroke-width="1.915"/>
<path d="M1613.31 599.492H1550.56" stroke="#5930DD" stroke-width="1.967"/>
<path d="M1604.41 608.393H1541.66" stroke="#5930DD" stroke-width="2.019"/>
<path d="M1595.51 617.293H1532.76" stroke="#5930DD" stroke-width="2.071"/>
<path d="M1586.61 626.193H1523.86" stroke="#5930DD" stroke-width="2.123"/>
</g>
<path opacity="0.34" fill-rule="evenodd" clip-rule="evenodd" d="M784.078 131.011L782.718 129.651L1029.73 -117.362L1031.09 -115.999L784.078 131.011Z" fill="#6330DD"/>
<path opacity="0.34" fill-rule="evenodd" clip-rule="evenodd" d="M1005.44 59.1349L1004.79 58.4849L1122.73 -59.4531L1123.38 -58.8031L1005.44 59.1349Z" fill="#6330DD"/>
<path opacity="0.34" fill-rule="evenodd" clip-rule="evenodd" d="M541.682 551.49C541.682 569.873 556.583 584.772 574.964 584.772C593.347 584.772 608.246 569.873 608.246 551.49C608.246 533.108 593.347 518.207 574.964 518.207C556.583 518.207 541.682 533.108 541.682 551.49Z" fill="#6330DD"/>
<path opacity="0.34" fill-rule="evenodd" clip-rule="evenodd" d="M1220.44 319.304C1220.44 289.953 1244.23 266.162 1273.58 266.162C1302.93 266.162 1326.72 289.953 1326.72 319.304C1326.72 348.654 1302.93 372.445 1273.58 372.445C1244.23 372.445 1220.44 348.654 1220.44 319.304Z" fill="#6330DD"/>
<path opacity="0.34" fill-rule="evenodd" clip-rule="evenodd" d="M1931.88 348.152L1930.52 346.791L2177.54 99.7793L2178.9 101.14L1931.88 348.152Z" fill="#6330DD"/>
<path opacity="0.34" fill-rule="evenodd" clip-rule="evenodd" d="M582.364 711.294L581.684 710.613L705.19 587.106L705.871 587.788L582.364 711.294Z" fill="#6330DD"/>
<path opacity="0.34" fill-rule="evenodd" clip-rule="evenodd" d="M656.795 587.491L656.369 587.065L733.876 509.557L734.305 509.984L656.795 587.491Z" fill="#6330DD"/>
<g opacity="0.34">
<path d="M1640.96 347.966H1703.71" stroke="#5930DD" stroke-width="0.148"/>
<path d="M1649.86 339.065H1712.61" stroke="#5930DD" stroke-width="0.2"/>
<path d="M1658.76 330.165H1721.51" stroke="#5930DD" stroke-width="0.252"/>
<path d="M1667.66 321.266H1730.41" stroke="#5930DD" stroke-width="0.304"/>
<path d="M1676.56 312.365H1739.31" stroke="#5930DD" stroke-width="0.356"/>
<path d="M1685.46 303.465H1748.21" stroke="#5930DD" stroke-width="0.408"/>
<path d="M1694.36 294.564H1757.11" stroke="#5930DD" stroke-width="0.46"/>
<path d="M1703.26 285.664H1766.01" stroke="#5930DD" stroke-width="0.512"/>
<path d="M1712.16 276.764H1774.91" stroke="#5930DD" stroke-width="0.564"/>
<path d="M1721.06 267.864H1783.81" stroke="#5930DD" stroke-width="0.616"/>
<path d="M1729.96 258.964H1792.71" stroke="#5930DD" stroke-width="0.668"/>
<path d="M1738.86 250.063H1801.61" stroke="#5930DD" stroke-width="0.72"/>
<path d="M1747.76 241.163H1810.51" stroke="#5930DD" stroke-width="0.772"/>
<path d="M1756.66 232.263H1819.41" stroke="#5930DD" stroke-width="0.824"/>
<path d="M1765.56 223.363H1828.31" stroke="#5930DD" stroke-width="0.876"/>
<path d="M1774.46 214.463H1837.21" stroke="#5930DD" stroke-width="0.928"/>
<path d="M1783.36 205.562H1846.11" stroke="#5930DD" stroke-width="0.98"/>
<path d="M1792.26 196.662H1855.01" stroke="#5930DD" stroke-width="1.032"/>
<path d="M1801.16 187.762H1863.91" stroke="#5930DD" stroke-width="1.084"/>
<path d="M1810.06 178.862H1872.81" stroke="#5930DD" stroke-width="1.136"/>
<path d="M1818.96 169.962H1881.71" stroke="#5930DD" stroke-width="1.188"/>
<path d="M1827.87 161.062H1890.61" stroke="#5930DD" stroke-width="1.24"/>
<path d="M1836.77 152.161H1899.51" stroke="#5930DD" stroke-width="1.292"/>
<path d="M1845.67 143.261H1908.41" stroke="#5930DD" stroke-width="1.344"/>
<path d="M1854.57 134.361H1917.31" stroke="#5930DD" stroke-width="1.396"/>
<path d="M1863.47 125.461H1926.21" stroke="#5930DD" stroke-width="1.448"/>
<path d="M1872.37 116.561H1935.11" stroke="#5930DD" stroke-width="1.5"/>
<path d="M1881.27 107.66H1944.01" stroke="#5930DD" stroke-width="1.552"/>
<path d="M1890.17 98.7598H1952.91" stroke="#5930DD" stroke-width="1.604"/>
<path d="M1899.07 89.8604H1961.81" stroke="#5930DD" stroke-width="1.656"/>
<path d="M1907.97 80.96H1970.71" stroke="#5930DD" stroke-width="1.708"/>
<path d="M1916.87 72.0596H1979.61" stroke="#5930DD" stroke-width="1.76"/>
<path d="M1925.77 63.1592H1988.51" stroke="#5930DD" stroke-width="1.812"/>
<path d="M1934.67 54.2588H1997.41" stroke="#5930DD" stroke-width="1.863"/>
<path d="M1943.57 45.3594H2006.31" stroke="#5930DD" stroke-width="1.915"/>
<path d="M1952.47 36.459H2015.21" stroke="#5930DD" stroke-width="1.967"/>
<path d="M1961.37 27.5586H2024.11" stroke="#5930DD" stroke-width="2.019"/>
<path d="M1970.27 18.6582H2033.01" stroke="#5930DD" stroke-width="2.071"/>
<path d="M1979.17 9.75781H2041.91" stroke="#5930DD" stroke-width="2.123"/>
<path d="M1988.07 0.858398H2050.81" stroke="#5930DD" stroke-width="2.175"/>
</g>
</g>
</svg>
