<svg width="60" height="60" viewBox="0 0 60 60" fill="none" xmlns="http://www.w3.org/2000/svg">
<path d="M30.604 51.3215C40.7343 51.3631 49.6901 46.2654 55.1106 38.5263C57.3057 35.3935 58.9212 31.8195 59.8002 27.9631C59.8503 28.6709 59.8757 29.3856 59.8757 30.1062C59.8757 46.5476 46.6182 59.876 30.2641 59.876C12.4956 59.876 -1.14441e-05 47.5434 -1.14441e-05 32.3304C-1.14441e-05 20.4855 7.57515 10.3868 18.205 6.49574C20.7884 5.60981 23.428 5.12702 26.1798 5.12702C38.9622 5.12702 50.0052 15.5446 50.0052 28.3953C50.0052 30.6031 49.6994 32.739 48.4472 34.7627C48.9171 33.5145 48.9841 32.5881 48.9841 31.646C48.9841 20.9686 40.034 12.655 29.4132 12.655C18.7925 12.655 10.1827 21.3108 10.1827 31.9882C10.1827 41.0306 16.3575 48.6231 24.6993 50.7363C26.3996 51.0782 28.138 51.3133 30.604 51.3215Z" fill="url(#paint0_linear_348_5672)"/>
<path d="M29.2717 8.55453C19.1414 8.51285 10.1856 13.6106 4.76508 21.3496C2.57006 24.4825 0.954545 28.0565 0.0755515 31.9128C0.025469 31.205 0 30.4904 0 29.7698C0 13.3284 13.2576 0 29.6116 0C47.3801 0 59.8757 12.3326 59.8757 27.5456C59.8757 39.3905 52.3006 49.4892 41.6707 53.3802C39.0873 54.2662 36.4477 54.749 33.6959 54.749C20.9135 54.749 9.87053 44.3314 9.87053 31.4807C9.87053 29.2729 10.1764 27.1369 11.4285 25.1133C10.9586 26.3615 10.8916 27.2879 10.8916 28.2299C10.8916 38.9074 19.8418 47.221 30.4625 47.221C41.0832 47.221 49.693 38.5652 49.693 27.8878C49.693 18.8454 43.5182 11.2529 35.1765 9.13963C33.4761 8.79781 31.7377 8.56263 29.2717 8.55453Z" fill="url(#paint1_linear_348_5672)"/>
<defs>
<linearGradient id="paint0_linear_348_5672" x1="-1.92888e-05" y1="9.61413" x2="55.4065" y2="60.2766" gradientUnits="userSpaceOnUse">
<stop stop-color="#FE3876"/>
<stop offset="0.714448" stop-color="#7C30DD"/>
<stop offset="1" stop-color="#3A30DD"/>
</linearGradient>
<linearGradient id="paint1_linear_348_5672" x1="59.8758" y1="50.2619" x2="4.46919" y2="-0.400575" gradientUnits="userSpaceOnUse">
<stop stop-color="#FE3876"/>
<stop offset="0.714448" stop-color="#7C30DD"/>
<stop offset="1" stop-color="#3A30DD"/>
</linearGradient>
</defs>
</svg>
