<svg width="438" height="326" viewBox="0 0 438 326" fill="none" xmlns="http://www.w3.org/2000/svg">
<path opacity="0.5" d="M258.51 24.1806L259.922 22.7646L258.51 21.3558L257.098 22.7646L258.51 24.1806ZM285.12 13.1865V11.1865H283.12V13.1865H285.12ZM285.12 50.7227L283.708 52.1388L287.12 55.5425V50.7227H285.12ZM380.207 98.0756L380.157 96.0762L379.119 96.1018L378.543 96.9656L380.207 98.0756ZM357.281 132.435L358.936 133.558L358.94 133.551L358.945 133.545L357.281 132.435ZM357.027 132.809L358.673 133.945L358.678 133.939L358.682 133.932L357.027 132.809ZM305.612 145.089V143.089H302.536L303.783 145.9L305.612 145.089ZM311.686 164.031L309.727 164.434L310.056 166.031H311.686V164.031ZM371.016 164.031V166.031H371.032L371.048 166.031L371.016 164.031ZM371.322 164.026L371.354 166.026L371.37 166.025L371.386 166.025L371.322 164.026ZM378.888 159.813L380.552 160.921L378.888 159.813ZM400.799 126.903L402.464 128.011L403.173 126.946L402.504 125.856L400.799 126.903ZM417.507 135.962L417.456 133.963L416.418 133.989L415.843 134.854L417.507 135.962ZM394.631 170.322L396.287 171.443L396.291 171.437L396.296 171.43L394.631 170.322ZM394.378 170.696L396.025 171.83L396.029 171.824L396.033 171.817L394.378 170.696ZM313.608 182.977V180.977H311.608V182.977H313.608ZM311.828 201.218L309.866 200.83L309.394 203.218H311.828V201.218ZM394.378 213.499L396.033 212.378L396.029 212.371L396.025 212.364L394.378 213.499ZM394.631 213.873L396.296 212.765L396.291 212.758L396.287 212.752L394.631 213.873ZM417.507 248.233L415.843 249.341L416.418 250.205L417.456 250.232L417.507 248.233ZM400.799 257.292L402.504 258.339L403.173 257.249L402.464 256.184L400.799 257.292ZM378.888 224.382L380.552 223.274L378.888 224.382ZM371.322 220.169L371.386 218.17L371.37 218.169L371.354 218.169L371.322 220.169ZM371.016 220.164L371.048 218.164L371.032 218.164H371.016V220.164ZM305.919 220.164V218.164H304.606L304.084 219.368L305.919 220.164ZM294.904 239.105L293.304 237.905L290.904 241.105H294.904V239.105ZM357.137 251.386L358.794 250.265L358.789 250.259L358.785 250.252L357.137 251.386ZM357.39 251.76L359.056 250.653L359.051 250.646L359.047 250.64L357.39 251.76ZM380.239 286.12L378.573 287.228L379.148 288.092L380.186 288.119L380.239 286.12ZM363.534 295.154L365.237 296.203L365.909 295.113L365.2 294.047L363.534 295.154ZM341.666 262.269L343.332 261.162L341.666 262.269ZM334.109 258.056L334.174 256.057L334.158 256.057L334.142 256.056L334.109 258.056ZM333.804 258.051L333.837 256.051L333.821 256.051H333.804V258.051ZM275.958 258.051V256.051H275.292L274.758 256.451L275.958 258.051ZM162.042 258.051L163.242 256.451L162.708 256.051H162.042V258.051ZM105.132 258.051V256.051H105.116L105.1 256.051L105.132 258.051ZM104.826 258.056L104.794 256.056L104.778 256.057L104.761 256.057L104.826 258.056ZM97.2373 262.269L98.9006 263.38H98.9006L97.2373 262.269ZM75.2213 295.239L73.5581 294.129L72.8496 295.19L73.5129 296.279L75.2213 295.239ZM58.5044 286.119L58.5529 288.119L59.591 288.093L60.1676 287.23L58.5044 286.119ZM81.4478 251.76L79.7934 250.636L79.7889 250.643L79.7845 250.65L81.4478 251.76ZM81.7019 251.386L80.0565 250.249L80.052 250.256L80.0475 250.262L81.7019 251.386ZM143.096 239.105V241.105H147.096L144.696 237.905L143.096 239.105ZM132.081 220.164L133.916 219.368L133.394 218.164H132.081V220.164ZM66.7814 220.164V218.164H66.7652L66.7491 218.164L66.7814 220.164ZM66.4771 220.169L66.4448 218.169L66.4286 218.169L66.4123 218.17L66.4771 220.169ZM58.9383 224.382L60.605 225.488L58.9383 224.382ZM37.1553 257.219L35.4887 256.113L34.7794 257.182L35.4556 258.273L37.1553 257.219ZM20.4581 248.234L20.5131 250.233L21.5508 250.204L22.1247 249.339L20.4581 248.234ZM43.2523 213.873L41.5945 212.754L41.59 212.761L41.5856 212.768L43.2523 213.873ZM43.5047 213.499L41.8558 212.367L41.8513 212.374L41.8469 212.38L43.5047 213.499ZM126.172 201.218V203.218H128.606L128.134 200.83L126.172 201.218ZM124.392 182.977H126.392V180.977H124.392V182.977ZM43.5047 170.696L41.8469 171.815L41.8513 171.821L41.8558 171.828L43.5047 170.696ZM43.2523 170.322L41.5856 171.427L41.59 171.434L41.5944 171.441L43.2523 170.322ZM20.4581 135.961L22.1247 134.856L21.5508 133.991L20.5131 133.962L20.4581 135.961ZM37.1553 126.976L35.4556 125.922L34.7794 127.013L35.4887 128.082L37.1553 126.976ZM58.9383 159.813L57.2717 160.918H57.2717L58.9383 159.813ZM66.4771 164.026L66.4123 166.025L66.4285 166.025L66.4447 166.026L66.4771 164.026ZM66.7814 164.031L66.749 166.031L66.7652 166.031H66.7814V164.031ZM126.314 164.031V166.031H127.944L128.273 164.434L126.314 164.031ZM132.388 145.089L134.217 145.9L135.464 143.089H132.388V145.089ZM80.9728 132.809L79.318 133.932L79.3224 133.939L79.327 133.945L80.9728 132.809ZM80.7189 132.435L79.0552 133.545L79.0596 133.551L79.0641 133.558L80.7189 132.435ZM57.7724 98.0441L59.4361 96.9341L58.886 96.1097L57.8969 96.048L57.7724 98.0441ZM74.8689 89.5124L73.1977 88.4137L72.4701 89.5206L73.2053 90.6225L74.8689 89.5124ZM96.496 121.926L94.8323 123.036V123.036L96.496 121.926ZM104.078 126.139L104.014 128.138L104.03 128.138L104.046 128.139L104.078 126.139ZM104.385 126.144L104.352 128.144L104.368 128.144H104.385V126.144ZM143.629 126.144V128.144H144.617L145.217 127.359L143.629 126.144ZM294.371 126.144L292.783 127.359L293.383 128.144H294.371V126.144ZM333.616 126.144V128.144H333.632L333.648 128.144L333.616 126.144ZM333.922 126.139L333.954 128.139L333.97 128.138L333.986 128.138L333.922 126.139ZM341.504 121.926L339.84 120.816V120.816L341.504 121.926ZM363.492 88.9717L365.156 90.0817L365.864 89.0198L365.199 87.9301L363.492 88.9717ZM152.88 50.7227H150.88V57.3142L154.543 51.8341L152.88 50.7227ZM173.757 19.4876L174.866 17.8232L173.204 16.7158L172.094 18.3762L173.757 19.4876ZM152.88 13.1865H154.88V11.1865H152.88V13.1865ZM249.488 50.7227C249.488 40.9108 253.473 32.03 259.922 25.5966L257.098 22.7646C249.927 29.9167 245.488 39.804 245.488 50.7227H249.488ZM285.12 86.259C265.436 86.259 249.488 70.344 249.488 50.7227H245.488C245.488 72.5628 263.237 90.259 285.12 90.259V86.259ZM320.752 50.7227C320.752 70.344 304.804 86.259 285.12 86.259V90.259C307.003 90.259 324.752 72.5628 324.752 50.7227H320.752ZM285.12 15.1865C304.804 15.1865 320.752 31.1014 320.752 50.7227H324.752C324.752 28.8827 307.003 11.1865 285.12 11.1865V15.1865ZM287.12 50.7227V13.1865H283.12V50.7227H287.12ZM257.098 25.5966L283.708 52.1388L286.532 49.3067L259.922 22.7646L257.098 25.5966ZM380.256 100.075C391.601 99.7949 400.72 90.5332 400.72 79.138H396.72C396.72 88.3478 389.347 95.8494 380.157 96.0762L380.256 100.075ZM358.945 133.545L381.87 99.1857L378.543 96.9656L355.617 131.325L358.945 133.545ZM358.682 133.932L358.936 133.558L355.626 131.311L355.372 131.686L358.682 133.932ZM333.616 147.089C343.632 147.089 352.996 142.167 358.673 133.945L355.381 131.673C350.451 138.813 342.317 143.089 333.616 143.089V147.089ZM305.612 147.089H333.616V143.089H305.612V147.089ZM313.645 163.628C312.259 156.894 310.163 150.418 307.44 144.278L303.783 145.9C306.392 151.781 308.399 157.985 309.727 164.434L313.645 163.628ZM371.016 162.031H311.686V166.031H371.016V162.031ZM371.289 162.026L370.984 162.031L371.048 166.031L371.354 166.026L371.289 162.026ZM377.223 158.704C375.883 160.716 373.659 161.949 371.257 162.027L371.386 166.025C375.079 165.906 378.496 164.01 380.552 160.921L377.223 158.704ZM399.134 125.794L377.223 158.704L380.552 160.921L402.464 128.011L399.134 125.794ZM396.016 117.025C396.016 121.024 397.142 124.767 399.095 127.949L402.504 125.856C400.926 123.286 400.016 120.264 400.016 117.025H396.016ZM417.008 96.0815C405.419 96.0815 396.016 105.453 396.016 117.025H400.016C400.016 107.672 407.619 100.082 417.008 100.082V96.0815ZM438 117.025C438 105.453 428.597 96.0815 417.008 96.0815V100.082C426.397 100.082 434 107.672 434 117.025H438ZM417.559 137.961C428.894 137.67 438 128.413 438 117.025H434C434 126.229 426.637 133.726 417.456 133.963L417.559 137.961ZM396.296 171.43L419.172 137.071L415.843 134.854L392.966 169.213L396.296 171.43ZM396.033 171.817L396.287 171.443L392.975 169.2L392.722 169.574L396.033 171.817ZM371.016 184.977C381.014 184.977 390.36 180.053 396.025 171.83L392.731 169.561C387.811 176.702 379.696 180.977 371.016 180.977V184.977ZM313.608 184.977H371.016V180.977H313.608V184.977ZM313.79 201.607C314.983 195.578 315.608 189.349 315.608 182.977H311.608C311.608 189.087 311.009 195.056 309.866 200.83L313.79 201.607ZM371.016 199.218H311.828V203.218H371.016V199.218ZM396.025 212.364C390.36 204.142 381.014 199.218 371.016 199.218V203.218C379.696 203.218 387.811 207.493 392.731 214.634L396.025 212.364ZM396.287 212.752L396.033 212.378L392.722 214.621L392.975 214.995L396.287 212.752ZM419.172 247.124L396.296 212.765L392.966 214.982L415.843 249.341L419.172 247.124ZM438 267.17C438 255.782 428.894 246.525 417.559 246.233L417.456 250.232C426.637 250.469 434 257.966 434 267.17H438ZM417.008 288.113C428.597 288.113 438 278.741 438 267.17H434C434 276.523 426.397 284.113 417.008 284.113V288.113ZM396.016 267.17C396.016 278.741 405.419 288.113 417.008 288.113V284.113C407.619 284.113 400.016 276.523 400.016 267.17H396.016ZM399.095 256.246C397.142 259.428 396.016 263.171 396.016 267.17H400.016C400.016 263.931 400.926 260.909 402.504 258.339L399.095 256.246ZM377.223 225.491L399.134 258.401L402.464 256.184L380.552 223.274L377.223 225.491ZM371.257 222.168C373.659 222.245 375.883 223.479 377.223 225.491L380.552 223.274C378.496 220.185 375.079 218.289 371.386 218.17L371.257 222.168ZM370.984 222.164L371.289 222.169L371.354 218.169L371.048 218.164L370.984 222.164ZM305.919 222.164H371.016V218.164H305.919V222.164ZM296.504 240.305C300.97 234.352 304.757 227.866 307.753 220.96L304.084 219.368C301.214 225.984 297.584 232.199 293.304 237.905L296.504 240.305ZM333.804 237.105H294.904V241.105H333.804V237.105ZM358.785 250.252C353.127 242.03 343.792 237.105 333.804 237.105V241.105C342.471 241.105 350.576 245.379 355.489 252.52L358.785 250.252ZM359.047 250.64L358.794 250.265L355.481 252.507L355.734 252.881L359.047 250.64ZM381.904 285.013L359.056 250.653L355.725 252.868L378.573 287.228L381.904 285.013ZM400.72 305.057C400.72 293.674 391.62 284.419 380.291 284.121L380.186 288.119C389.363 288.361 396.72 295.857 396.72 305.057H400.72ZM379.728 326C391.316 326 400.72 316.629 400.72 305.057H396.72C396.72 314.41 389.117 322 379.728 322V326ZM358.736 305.057C358.736 316.629 368.139 326 379.728 326V322C370.339 322 362.736 314.41 362.736 305.057H358.736ZM361.831 294.105C359.868 297.293 358.736 301.046 358.736 305.057H362.736C362.736 301.808 363.651 298.779 365.237 296.203L361.831 294.105ZM340.001 263.377L361.869 296.262L365.2 294.047L343.332 261.162L340.001 263.377ZM334.045 260.055C336.442 260.132 338.663 261.365 340.001 263.377L343.332 261.162C341.278 258.073 337.864 256.176 334.174 256.057L334.045 260.055ZM333.772 260.051L334.077 260.056L334.142 256.056L333.837 256.051L333.772 260.051ZM275.958 260.051H333.804V256.051H275.958V260.051ZM219 278.992C240.832 278.992 260.979 271.793 277.159 259.651L274.758 256.451C259.248 268.09 239.939 274.992 219 274.992V278.992ZM160.841 259.651C177.021 271.793 197.168 278.992 219 278.992V274.992C198.061 274.992 178.752 268.09 163.242 256.451L160.841 259.651ZM105.132 260.051H162.042V256.051H105.132V260.051ZM104.858 260.056L105.164 260.051L105.1 256.051L104.794 256.056L104.858 260.056ZM98.9006 263.38C100.244 261.368 102.477 260.133 104.89 260.055L104.761 256.057C101.062 256.176 97.6366 258.07 95.574 261.159L98.9006 263.38ZM76.8846 296.35L98.9006 263.38L95.574 261.159L73.5581 294.129L76.8846 296.35ZM79.9676 305.057C79.9676 301.085 78.8577 297.367 76.9297 294.199L73.5129 296.279C75.0705 298.838 75.9676 301.84 75.9676 305.057H79.9676ZM58.9757 326C70.5644 326 79.9676 316.629 79.9676 305.057H75.9676C75.9676 314.41 68.3649 322 58.9757 322V326ZM37.9838 305.057C37.9838 316.629 47.387 326 58.9757 326V322C49.5865 322 41.9838 314.41 41.9838 305.057H37.9838ZM58.4558 284.12C47.1066 284.395 37.9838 293.659 37.9838 305.057H41.9838C41.9838 295.845 49.3598 288.342 58.5529 288.119L58.4558 284.12ZM79.7845 250.65L56.8411 285.008L60.1676 287.23L83.111 252.871L79.7845 250.65ZM80.0475 250.262L79.7934 250.636L83.1022 252.884L83.3563 252.51L80.0475 250.262ZM105.132 237.105C95.1091 237.105 85.7375 242.027 80.0565 250.249L83.3473 252.523C88.2812 245.382 96.4225 241.105 105.132 241.105V237.105ZM143.096 237.105H105.132V241.105H143.096V237.105ZM130.247 220.96C133.243 227.866 137.03 234.352 141.496 240.305L144.696 237.905C140.416 232.199 136.786 225.984 133.916 219.368L130.247 220.96ZM66.7814 222.164H132.081V218.164H66.7814V222.164ZM66.5093 222.169L66.8137 222.164L66.7491 218.164L66.4448 218.169L66.5093 222.169ZM60.605 225.488C61.9397 223.476 64.1543 222.245 66.5418 222.168L66.4123 218.17C62.7279 218.289 59.3207 220.188 57.2717 223.277L60.605 225.488ZM38.822 258.324L60.605 225.488L57.2717 223.277L35.4887 256.113L38.822 258.324ZM41.9838 267.17C41.9838 263.136 40.8389 259.364 38.855 256.165L35.4556 258.273C37.0585 260.857 37.9838 263.903 37.9838 267.17H41.9838ZM20.9919 288.113C32.5806 288.113 41.9838 278.741 41.9838 267.17H37.9838C37.9838 276.523 30.3811 284.113 20.9919 284.113V288.113ZM0 267.17C0 278.741 9.4032 288.113 20.9919 288.113V284.113C11.6027 284.113 4 276.523 4 267.17H0ZM20.403 246.234C9.08584 246.546 0 255.795 0 267.17H4C4 257.977 11.3461 250.485 20.5131 250.233L20.403 246.234ZM41.5856 212.768L18.7914 247.128L22.1247 249.339L44.9189 214.979L41.5856 212.768ZM41.8469 212.38L41.5945 212.754L44.9101 214.992L45.1625 214.618L41.8469 212.38ZM66.7814 199.218C56.814 199.218 47.4996 204.145 41.8558 212.367L45.1536 214.631C50.0552 207.49 58.1389 203.218 66.7814 203.218V199.218ZM126.172 199.218H66.7814V203.218H126.172V199.218ZM122.392 182.977C122.392 189.349 123.017 195.578 124.21 201.607L128.134 200.83C126.991 195.056 126.392 189.087 126.392 182.977H122.392ZM66.7814 184.977H124.392V180.977H66.7814V184.977ZM41.8558 171.828C47.4996 180.05 56.8141 184.977 66.7814 184.977V180.977C58.1389 180.977 50.0552 176.705 45.1536 169.564L41.8558 171.828ZM41.5944 171.441L41.8469 171.815L45.1625 169.577L44.9101 169.203L41.5944 171.441ZM18.7914 137.067L41.5856 171.427L44.9189 169.216L22.1247 134.856L18.7914 137.067ZM0 117.025C0 128.4 9.08584 137.649 20.403 137.96L20.5131 133.962C11.3461 133.71 4 126.218 4 117.025H0ZM20.9919 96.0815C9.4032 96.0815 0 105.453 0 117.025H4C4 107.672 11.6027 100.082 20.9919 100.082V96.0815ZM41.9838 117.025C41.9838 105.453 32.5806 96.0815 20.9919 96.0815V100.082C30.3811 100.082 37.9838 107.672 37.9838 117.025H41.9838ZM38.855 128.03C40.8389 124.831 41.9838 121.059 41.9838 117.025H37.9838C37.9838 120.292 37.0585 123.338 35.4556 125.922L38.855 128.03ZM60.605 158.707L38.822 125.871L35.4887 128.082L57.2717 160.918L60.605 158.707ZM66.5418 162.027C64.1543 161.95 61.9397 160.719 60.605 158.707L57.2717 160.918C59.3207 164.007 62.7279 165.906 66.4123 166.025L66.5418 162.027ZM66.8138 162.031L66.5094 162.026L66.4447 166.026L66.749 166.031L66.8138 162.031ZM126.314 162.031H66.7814V166.031H126.314V162.031ZM130.56 144.279C127.837 150.418 125.741 156.894 124.355 163.628L128.273 164.434C129.601 157.985 131.608 151.781 134.217 145.9L130.56 144.279ZM104.385 147.089H132.388V143.089H104.385V147.089ZM79.327 133.945C85.0035 142.167 94.3682 147.089 104.385 147.089V143.089C95.683 143.089 87.5487 138.813 82.6187 131.673L79.327 133.945ZM79.0641 133.558L79.318 133.932L82.6276 131.686L82.3737 131.312L79.0641 133.558ZM56.1088 99.1542L79.0552 133.545L82.3826 131.325L59.4361 96.9341L56.1088 99.1542ZM37.9838 79.138C37.9838 90.2643 46.6765 99.356 57.6479 100.04L57.8969 96.048C49.0117 95.4939 41.9838 88.1298 41.9838 79.138H37.9838ZM58.9757 58.1945C47.387 58.1945 37.9838 67.5664 37.9838 79.138H41.9838C41.9838 69.7852 49.5865 62.1945 58.9757 62.1945V58.1945ZM79.9676 79.138C79.9676 67.5664 70.5644 58.1945 58.9757 58.1945V62.1945C68.3649 62.1945 75.9676 69.7852 75.9676 79.138H79.9676ZM76.5401 90.6111C78.7071 87.315 79.9676 83.3705 79.9676 79.138H75.9676C75.9676 82.5653 74.9492 85.7496 73.1977 88.4137L76.5401 90.6111ZM98.1596 120.816L76.5326 88.4024L73.2053 90.6225L94.8323 123.036L98.1596 120.816ZM104.143 124.14C101.733 124.062 99.502 122.827 98.1596 120.816L94.8323 123.036C96.8933 126.124 100.317 128.019 104.014 128.138L104.143 124.14ZM104.417 124.144L104.111 124.139L104.046 128.139L104.352 128.144L104.417 124.144ZM143.629 124.144H104.385V128.144H143.629V124.144ZM219 86.9606C187.593 86.9606 159.683 101.858 142.04 124.929L145.217 127.359C162.132 105.24 188.886 90.9606 219 90.9606V86.9606ZM295.96 124.929C278.317 101.858 250.407 86.9606 219 86.9606V90.9606C249.114 90.9606 275.868 105.24 292.783 127.359L295.96 124.929ZM333.616 124.144H294.371V128.144H333.616V124.144ZM333.889 124.139L333.583 124.144L333.648 128.144L333.954 128.139L333.889 124.139ZM339.84 120.816C338.498 122.827 336.267 124.062 333.857 124.14L333.986 128.138C337.683 128.019 341.107 126.124 343.168 123.036L339.84 120.816ZM361.828 87.8616L339.84 120.816L343.168 123.036L365.156 90.0817L361.828 87.8616ZM358.736 79.138C358.736 83.1169 359.85 86.8421 361.785 90.0133L365.199 87.9301C363.636 85.3681 362.736 82.3608 362.736 79.138H358.736ZM379.728 58.1945C368.139 58.1945 358.736 67.5664 358.736 79.138H362.736C362.736 69.7852 370.339 62.1945 379.728 62.1945V58.1945ZM400.72 79.138C400.72 67.5664 391.316 58.1945 379.728 58.1945V62.1945C389.117 62.1945 396.72 69.7852 396.72 79.138H400.72ZM219 105.764C176.107 105.764 141.314 140.321 141.314 182.977H145.314C145.314 142.554 178.292 109.764 219 109.764V105.764ZM296.686 182.977C296.686 140.321 261.893 105.764 219 105.764V109.764C259.708 109.764 292.686 142.554 292.686 182.977H296.686ZM219 260.189C261.893 260.189 296.686 225.632 296.686 182.977H292.686C292.686 223.399 259.708 256.189 219 256.189V260.189ZM141.314 182.977C141.314 225.632 176.107 260.189 219 260.189V256.189C178.292 256.189 145.314 223.399 145.314 182.977H141.314ZM273.624 182.626C273.624 212.709 249.173 237.105 219 237.105V241.105C251.372 241.105 277.624 214.928 277.624 182.626H273.624ZM219 128.146C249.173 128.146 273.624 152.542 273.624 182.626H277.624C277.624 150.323 251.372 124.146 219 124.146V128.146ZM164.376 182.626C164.376 152.542 188.827 128.146 219 128.146V124.146C186.628 124.146 160.376 150.323 160.376 182.626H164.376ZM219 237.105C188.827 237.105 164.376 212.709 164.376 182.626H160.376C160.376 214.928 186.628 241.105 219 241.105V237.105ZM154.543 51.8341L175.42 20.599L172.094 18.3762L151.217 49.6114L154.543 51.8341ZM150.88 13.1865V50.7227H154.88V13.1865H150.88ZM117.248 50.7227C117.248 31.1014 133.196 15.1865 152.88 15.1865V11.1865C130.997 11.1865 113.248 28.8827 113.248 50.7227H117.248ZM152.88 86.259C133.196 86.259 117.248 70.344 117.248 50.7227H113.248C113.248 72.5628 130.997 90.259 152.88 90.259V86.259ZM188.512 50.7227C188.512 70.344 172.564 86.259 152.88 86.259V90.259C174.763 90.259 192.512 72.5628 192.512 50.7227H188.512ZM172.648 21.152C182.218 27.5287 188.512 38.394 188.512 50.7227H192.512C192.512 36.9974 185.5 24.9085 174.866 17.8232L172.648 21.152Z" fill="#5930DD"/>
<path opacity="0.4" d="M307.227 28.0977L306.729 28.5957V28.5957L307.227 28.0977ZM291.429 19.5781L291.57 18.8885L290.725 18.7149V19.5781H291.429ZM262.973 72.3237L262.475 72.8216L262.973 72.3237ZM258.78 33.2888L258.191 32.9031L258.189 32.9072L258.78 33.2888ZM258.953 33.0249L259.451 32.5269L258.839 31.915L258.364 32.6392L258.953 33.0249ZM291.429 65.48L290.931 65.978L292.133 67.1789V65.48H291.429ZM388.743 87.502L388.239 87.0104L388.743 87.502ZM377.236 91.0922L377.1 91.7829L377.107 91.7842L377.236 91.0922ZM376.954 91.0364L377.091 90.3458L376.629 90.2543L376.368 90.6462L376.954 91.0364ZM351.985 128.53L352.568 128.925L352.571 128.921L351.985 128.53ZM351.76 128.862L352.339 129.262L352.343 129.257L351.76 128.862ZM334.233 138.396L334.248 139.1L334.253 139.1L334.233 138.396ZM333.887 138.404L333.887 139.108H333.895L333.902 139.108L333.887 138.404ZM295.24 138.406L295.24 137.702L294.01 137.702L294.633 138.762L295.24 138.406ZM306.237 169.315L306.933 169.211L306.932 169.208L306.237 169.315ZM306.343 170.026L305.646 170.13L305.736 170.73L306.342 170.73L306.343 170.026ZM371.057 170.028L371.057 170.732H371.066L371.075 170.732L371.057 170.028ZM383.761 163.483L384.332 163.895L384.336 163.89L383.761 163.483ZM383.926 163.25L384.501 163.657L384.507 163.648L384.512 163.639L383.926 163.25ZM408.601 126.124L409.187 126.514L409.529 126L409.064 125.594L408.601 126.124ZM426.017 125.446L425.513 124.954L426.017 125.446ZM414.519 129.043L414.383 129.734L414.39 129.735L414.519 129.043ZM414.237 128.988L414.373 128.297L413.911 128.206L413.651 128.598L414.237 128.988ZM389.32 166.484L389.903 166.879L389.906 166.874L389.32 166.484ZM389.095 166.816L389.675 167.216L389.679 167.21L389.095 166.816ZM371.62 176.345L371.635 177.049L371.641 177.049L371.62 176.345ZM371.276 176.353L371.276 177.057H371.283L371.291 177.056L371.276 176.353ZM307.028 176.355L307.028 175.651L306.273 175.651L306.326 176.404L307.028 176.355ZM303.937 206.613L304.613 206.808L304.614 206.805L303.937 206.613ZM303.746 207.276L303.069 207.081L302.81 207.98L303.746 207.98V207.276ZM370.97 207.276V206.572V207.276ZM388.901 216.536L389.477 216.133L389.474 216.128L388.901 216.536ZM389.095 216.814L389.679 216.42L389.672 216.41L389.095 216.814ZM389.32 217.146L389.906 216.757L389.903 216.752L389.32 217.146ZM414.237 254.643L413.651 255.032L413.914 255.429L414.38 255.332L414.237 254.643ZM426.017 258.185L425.513 258.676L426.017 258.185ZM408.393 257.692L407.924 257.167L407.919 257.172L408.393 257.692ZM408.601 257.507L409.07 258.032L409.525 257.625L409.187 257.117L408.601 257.507ZM384.112 220.654L384.698 220.264L384.112 220.654ZM371.655 213.618L371.686 212.914L371.679 212.914L371.655 213.618ZM371.365 213.608L371.389 212.904L371.377 212.904H371.365L371.365 213.608ZM301.628 213.604L301.628 212.9L301.142 212.9L300.97 213.356L301.628 213.604ZM281.446 244.751L281.941 245.252L281.943 245.25L281.446 244.751ZM280.965 245.227L280.47 244.727L279.252 245.931L280.965 245.931L280.965 245.227ZM333.77 245.224V244.52H333.77L333.77 245.224ZM351.67 254.482L352.247 254.079L352.244 254.074L351.67 254.482ZM351.864 254.76L352.448 254.366L352.441 254.356L351.864 254.76ZM352.088 255.092L352.675 254.703L352.672 254.698L352.088 255.092ZM376.976 292.59L376.39 292.979L376.653 293.376L377.119 293.279L376.976 292.59ZM388.75 296.136L388.246 296.628L388.75 296.136ZM388.629 313.903L388.132 313.405L388.629 313.903ZM370.729 313.903L371.227 313.405L370.729 313.903ZM371.142 295.624L370.674 295.098L370.668 295.104L371.142 295.624ZM371.35 295.439L371.818 295.965L372.274 295.559L371.936 295.05L371.35 295.439ZM346.903 258.605L346.317 258.995L346.903 258.605ZM334.454 251.566L334.485 250.863L334.478 250.863L334.454 251.566ZM334.164 251.556L334.188 250.853L334.176 250.852H334.164L334.164 251.556ZM273.785 251.552L273.785 250.848L273.541 250.848L273.349 250.999L273.785 251.552ZM164.668 251.907L164.233 252.461L164.235 252.462L164.668 251.907ZM164.215 251.552L164.649 250.998L164.458 250.848H164.215L164.215 251.552ZM105.079 251.551L105.079 250.847H105.071L105.062 250.848L105.079 251.551ZM92.3578 258.09L91.7875 257.677L91.7839 257.682L92.3578 258.09ZM92.1925 258.322L91.6186 257.915L91.6125 257.923L91.6067 257.932L92.1925 258.322ZM67.4152 295.494L66.8294 295.103L66.4883 295.615L66.9495 296.022L67.4152 295.494ZM67.974 313.903L67.4764 313.405H67.4764L67.974 313.903ZM50.0737 313.903L50.5713 313.405H50.5713L50.0737 313.903ZM49.9621 296.127L50.4659 296.618H50.4659L49.9621 296.127ZM61.4718 292.539L61.6089 291.849L61.6017 291.847L61.4718 292.539ZM61.754 292.595L61.6169 293.286L62.0787 293.377L62.3398 292.986L61.754 292.595ZM86.7426 255.102L86.1598 254.707L86.1567 254.712L86.7426 255.102ZM86.9676 254.77L86.3884 254.37L86.3849 254.375L86.9676 254.77ZM104.514 245.234L104.499 244.53L104.493 244.53L104.514 245.234ZM104.86 245.227L104.86 244.523H104.852L104.845 244.523L104.86 245.227ZM157.035 245.227V245.931L158.757 245.931L157.528 244.725L157.035 245.227ZM136.617 214.247L135.96 214.499L135.961 214.501L136.617 214.247ZM136.372 213.605L137.029 213.353L136.856 212.901L136.372 212.901L136.372 213.605ZM66.7398 213.603L66.7398 212.899H66.731L66.7222 212.899L66.7398 213.603ZM54.0581 220.156L53.4865 219.745L53.4829 219.75L54.0581 220.156ZM53.8933 220.39L53.3181 219.984L53.3121 219.992L53.3063 220.001L53.8933 220.39ZM29.3454 257.46L28.7585 257.071L28.4165 257.587L28.8851 257.992L29.3454 257.46ZM11.9751 258.193L12.4797 258.684H12.4797L11.9751 258.193ZM23.4578 254.583L23.5928 253.892L23.5855 253.891L23.4578 254.583ZM23.7394 254.638L23.6045 255.329L24.0665 255.419L24.3264 255.027L23.7394 254.638ZM48.5692 217.137L47.9853 216.744L47.9822 216.749L48.5692 217.137ZM48.7928 216.805L48.2124 216.407L48.2089 216.412L48.7928 216.805ZM66.1806 207.285L66.1653 206.582L66.1597 206.582L66.1806 207.285ZM66.5235 207.278L66.5235 206.574H66.5158L66.5082 206.574L66.5235 207.278ZM134.254 207.276L134.254 207.98L135.193 207.98L134.93 207.079L134.254 207.276ZM130.923 177.09L130.221 177.043L130.221 177.046L130.923 177.09ZM130.972 176.355L131.674 176.401L131.724 175.651H130.972V176.355ZM48.9864 167.102L48.4091 167.505L48.4122 167.51L48.9864 167.102ZM48.7928 166.825L48.2088 167.218L48.2155 167.228L48.7928 166.825ZM48.5692 166.493L47.9822 166.882L47.9853 166.886L48.5692 166.493ZM23.7394 128.993L24.3264 128.604L24.0636 128.207L23.5973 128.303L23.7394 128.993ZM11.9751 125.437L11.4705 125.928H11.4705L11.9751 125.437ZM29.5493 125.991L30.0153 126.519L30.021 126.514L29.5493 125.991ZM29.3451 126.171L28.8791 125.644L28.4199 126.049L28.7581 126.56L29.3451 126.171ZM53.7086 162.968L54.2956 162.579L53.7086 162.968ZM66.1439 170.013L66.1133 170.716L66.1197 170.717L66.1439 170.013ZM66.4332 170.023L66.4091 170.726L66.4211 170.727H66.4332L66.4332 170.023ZM131.657 170.027L131.657 170.731L132.267 170.731L132.354 170.128L131.657 170.027ZM142.412 139.004L141.804 138.649L141.802 138.652L142.412 139.004ZM142.76 138.406L143.369 138.76L143.985 137.702L142.76 137.702V138.406ZM104.419 138.406V139.11H104.419L104.419 138.406ZM86.4352 129.14L85.859 129.545L85.8621 129.549L86.4352 129.14ZM86.24 128.862L85.6571 129.257L85.6638 129.267L86.24 128.862ZM86.0152 128.53L85.4292 128.921L85.4324 128.925L86.0152 128.53ZM61.1226 91.1509L61.7086 90.7607L61.4575 90.3837L61.0104 90.456L61.1226 91.1509ZM49.7918 87.3259L50.305 86.844L49.7918 87.3259ZM67.1575 88.3599L67.6035 88.9047L67.6091 88.9L67.1575 88.3599ZM66.9529 88.5274L66.507 87.9827L66.0134 88.3867L66.367 88.9176L66.9529 88.5274ZM91.2642 125.034L91.8502 124.643H91.8502L91.2642 125.034ZM103.733 132.064L103.703 132.768L103.709 132.768L103.733 132.064ZM104.023 132.074L103.999 132.778L104.011 132.778H104.023L104.023 132.074ZM146.852 132.079L146.852 132.783L147.216 132.783L147.426 132.486L146.852 132.079ZM290.665 131.405L291.238 130.995L291.236 130.992L290.665 131.405ZM291.148 132.078L290.575 132.488L290.786 132.782L291.148 132.782L291.148 132.078ZM333.668 132.079L333.668 132.783H333.677L333.685 132.783L333.668 132.079ZM346.385 125.539L346.955 125.952L346.959 125.947L346.385 125.539ZM346.55 125.306L347.124 125.714L347.13 125.705L347.136 125.696L346.55 125.306ZM371.3 88.1473L371.885 88.5375L372.227 88.0253L371.765 87.6187L371.3 88.1473ZM161.031 124.929L161.528 125.428L161.031 124.929ZM161.031 240.43L160.534 240.929L161.031 240.43ZM276.969 240.43L277.466 240.929H277.466L276.969 240.43ZM300.992 182.679H300.288H300.992ZM276.969 124.929L277.466 124.43H277.466L276.969 124.929ZM183.448 146.798L183.946 147.296L183.448 146.798ZM183.448 217.858L183.946 217.36L183.448 217.858ZM254.552 217.858L254.054 217.36L254.552 217.858ZM146.571 19.5781H147.275V18.7149L146.43 18.8885L146.571 19.5781ZM146.571 71.0996H145.867V73.4236L147.157 71.4903L146.571 71.0996ZM130.773 28.0977L130.275 27.5997L130.773 28.0977ZM130.773 72.3237L130.275 72.8216L130.773 72.3237ZM175.027 72.3237L175.524 72.8216L175.027 72.3237ZM175.165 28.2368L175.666 27.742L175.059 27.1276L174.579 27.8461L175.165 28.2368ZM307.724 27.5997C303.388 23.2659 297.811 20.1695 291.57 18.8885L291.287 20.2677C297.251 21.4918 302.582 24.451 306.729 28.5957L307.724 27.5997ZM317.096 50.2107C317.096 41.3807 313.514 33.3855 307.724 27.5997L306.729 28.5957C312.265 34.1283 315.688 41.7694 315.688 50.2107H317.096ZM307.724 72.8216C313.514 67.0358 317.096 59.0407 317.096 50.2107H315.688C315.688 58.652 312.265 66.2931 306.729 71.8257L307.724 72.8216ZM285.1 82.1872C293.935 82.1872 301.935 78.6074 307.724 72.8216L306.729 71.8257C301.193 77.3583 293.547 80.7792 285.1 80.7792V82.1872ZM262.475 72.8216C268.265 78.6074 276.265 82.1872 285.1 82.1872V80.7792C276.653 80.7792 269.007 77.3583 263.471 71.8257L262.475 72.8216ZM253.104 50.2107C253.104 59.0407 256.686 67.0358 262.475 72.8216L263.471 71.8257C257.935 66.2931 254.512 58.652 254.512 50.2107H253.104ZM258.189 32.9072C254.971 37.8953 253.104 43.8362 253.104 50.2107H254.512C254.512 44.115 256.296 38.438 259.372 33.6704L258.189 32.9072ZM258.364 32.6392L258.191 32.9031L259.369 33.6745L259.542 33.4106L258.364 32.6392ZM291.926 64.9821L259.451 32.5269L258.456 33.5228L290.931 65.978L291.926 64.9821ZM290.725 19.5781V65.48H292.133V19.5781H290.725ZM389.127 69.2296C386.71 66.8139 383.369 65.3186 379.679 65.3186V66.7266C382.98 66.7266 385.968 68.063 388.132 70.2255L389.127 69.2296ZM393.041 78.6721C393.041 74.9847 391.544 71.6453 389.127 69.2296L388.132 70.2255C390.296 72.3881 391.633 75.3734 391.633 78.6721H393.041ZM389.247 87.9936C391.594 85.5881 393.041 82.2983 393.041 78.6721H391.633C391.633 81.9162 390.34 84.8571 388.239 87.0104L389.247 87.9936ZM377.107 91.7842C381.855 92.6733 386.274 91.0403 389.247 87.9936L388.239 87.0104C385.58 89.7357 381.63 91.1988 377.366 90.4003L377.107 91.7842ZM376.818 91.727L377.1 91.7828L377.373 90.4017L377.091 90.3458L376.818 91.727ZM352.571 128.921L377.54 91.4266L376.368 90.6462L351.399 128.14L352.571 128.921ZM352.343 129.257L352.568 128.925L351.402 128.136L351.177 128.467L352.343 129.257ZM334.253 139.1C341.496 138.887 348.213 135.237 352.339 129.262L351.181 128.462C347.309 134.068 341.006 137.493 334.212 137.693L334.253 139.1ZM333.902 139.108L334.248 139.1L334.217 137.693L333.872 137.7L333.902 139.108ZM295.24 139.11L333.887 139.108L333.887 137.7L295.24 137.702L295.24 139.11ZM306.932 169.208C305.213 157.99 301.379 147.465 295.847 138.049L294.633 138.762C300.076 148.028 303.849 158.384 305.541 169.422L306.932 169.208ZM307.039 169.922L306.933 169.211L305.54 169.419L305.646 170.13L307.039 169.922ZM371.057 169.324L306.343 169.322L306.342 170.73L371.057 170.732L371.057 169.324ZM383.19 163.071C380.481 166.825 376.206 169.195 371.04 169.324L371.075 170.732C376.676 170.592 381.363 168.009 384.332 163.895L383.19 163.071ZM383.352 162.843L383.187 163.076L384.336 163.89L384.501 163.657L383.352 162.843ZM408.015 125.734L383.34 162.86L384.512 163.639L409.187 126.514L408.015 125.734ZM403.587 116.621C403.587 120.619 405.341 124.21 408.138 126.654L409.064 125.594C406.563 123.408 404.995 120.198 404.995 116.621H403.587ZM407.501 107.178C405.083 109.594 403.587 112.933 403.587 116.621H404.995C404.995 113.322 406.332 110.337 408.496 108.174L407.501 107.178ZM416.948 103.267C413.259 103.267 409.918 104.763 407.501 107.178L408.496 108.174C410.66 106.012 413.647 104.675 416.948 104.675V103.267ZM426.396 107.178C423.979 104.763 420.638 103.267 416.948 103.267V104.675C420.25 104.675 423.237 106.012 425.401 108.174L426.396 107.178ZM430.31 116.621C430.31 112.933 428.813 109.594 426.396 107.178L425.401 108.174C427.565 110.337 428.902 113.322 428.902 116.621H430.31ZM426.521 125.937C428.865 123.532 430.31 120.244 430.31 116.621H428.902C428.902 119.862 427.611 122.801 425.513 124.954L426.521 125.937ZM414.39 129.735C419.136 130.619 423.551 128.984 426.521 125.937L425.513 124.954C422.856 127.68 418.91 129.145 414.648 128.351L414.39 129.735ZM414.101 129.679L414.383 129.734L414.655 128.353L414.373 128.297L414.101 129.679ZM389.906 166.874L414.824 129.377L413.651 128.598L388.733 166.095L389.906 166.874ZM389.679 167.21L389.903 166.879L388.736 166.09L388.512 166.422L389.679 167.21ZM371.641 177.049C378.864 176.836 385.561 173.185 389.675 167.216L388.516 166.417C384.656 172.018 378.373 175.441 371.599 175.641L371.641 177.049ZM371.291 177.056L371.635 177.049L371.605 175.641L371.26 175.649L371.291 177.056ZM307.028 177.059L371.276 177.057L371.276 175.649L307.028 175.651L307.028 177.059ZM304.614 206.805C307.34 197.2 308.477 186.933 307.73 176.305L306.326 176.404C307.06 186.868 305.942 196.971 303.26 206.42L304.614 206.805ZM304.422 207.471L304.613 206.808L303.261 206.418L303.069 207.081L304.422 207.471ZM370.97 206.572L303.746 206.572V207.98L370.97 207.98V206.572ZM389.474 216.128C385.216 210.147 378.331 206.572 370.97 206.572V207.98C377.873 207.98 384.331 211.332 388.327 216.945L389.474 216.128ZM389.672 216.41L389.477 216.133L388.324 216.94L388.519 217.218L389.672 216.41ZM389.903 216.752L389.679 216.42L388.512 217.209L388.736 217.54L389.903 216.752ZM414.824 254.253L389.906 216.757L388.733 217.536L413.651 255.032L414.824 254.253ZM426.521 257.693C423.489 254.583 418.951 252.944 414.094 253.953L414.38 255.332C418.745 254.425 422.801 255.894 425.513 258.676L426.521 257.693ZM430.31 267.01C430.31 263.386 428.865 260.099 426.521 257.693L425.513 258.676C427.611 260.829 428.902 263.768 428.902 267.01H430.31ZM426.396 276.452C428.813 274.037 430.31 270.697 430.31 267.01H428.902C428.902 270.308 427.565 273.294 425.401 275.456L426.396 276.452ZM416.948 280.363C420.638 280.363 423.979 278.868 426.396 276.452L425.401 275.456C423.237 277.619 420.25 278.955 416.948 278.955V280.363ZM407.501 276.452C409.918 278.868 413.259 280.363 416.948 280.363V278.955C413.647 278.955 410.66 277.619 408.496 275.456L407.501 276.452ZM403.587 267.01C403.587 270.697 405.083 274.037 407.501 276.452L408.496 275.456C406.332 273.294 404.995 270.308 404.995 267.01H403.587ZM407.919 257.172C405.25 259.61 403.587 263.117 403.587 267.01H404.995C404.995 263.527 406.481 260.392 408.868 258.211L407.919 257.172ZM408.132 256.982L407.924 257.167L408.863 258.217L409.07 258.032L408.132 256.982ZM383.525 221.043L408.014 257.896L409.187 257.117L384.698 220.264L383.525 221.043ZM371.624 214.321C376.418 214.529 380.848 217.014 383.525 221.043L384.698 220.264C381.771 215.859 376.928 213.142 371.686 212.914L371.624 214.321ZM371.341 214.311L371.631 214.321L371.679 212.914L371.389 212.904L371.341 214.311ZM301.628 214.308L371.365 214.312L371.365 212.904L301.628 212.9L301.628 214.308ZM281.943 245.25C290.796 236.425 297.791 225.749 302.287 213.853L300.97 213.356C296.546 225.06 289.663 235.567 280.949 244.253L281.943 245.25ZM281.46 245.728L281.941 245.252L280.951 244.251L280.47 244.727L281.46 245.728ZM333.77 244.52L280.965 244.523L280.965 245.931L333.77 245.928L333.77 244.52ZM352.244 254.074C347.992 248.096 341.119 244.52 333.77 244.52V245.928C340.66 245.928 347.107 249.28 351.096 254.89L352.244 254.074ZM352.441 254.356L352.247 254.079L351.093 254.886L351.287 255.163L352.441 254.356ZM352.672 254.698L352.448 254.366L351.281 255.154L351.505 255.486L352.672 254.698ZM377.563 292.2L352.675 254.703L351.502 255.481L376.39 292.979L377.563 292.2ZM389.255 295.645C386.225 292.534 381.689 290.894 376.833 291.9L377.119 293.279C381.482 292.375 385.536 293.845 388.246 296.628L389.255 295.645ZM393.041 304.958C393.041 301.336 391.597 298.05 389.255 295.645L388.246 296.628C390.343 298.78 391.633 301.718 391.633 304.958H393.041ZM389.127 314.401C391.544 311.985 393.041 308.646 393.041 304.958H391.633C391.633 308.257 390.296 311.242 388.132 313.405L389.127 314.401ZM379.679 318.312C383.369 318.312 386.71 316.817 389.127 314.401L388.132 313.405C385.968 315.568 382.98 316.904 379.679 316.904V318.312ZM370.231 314.401C372.649 316.817 375.99 318.312 379.679 318.312V316.904C376.378 316.904 373.391 315.568 371.227 313.405L370.231 314.401ZM366.318 304.958C366.318 308.646 367.814 311.985 370.231 314.401L371.227 313.405C369.063 311.242 367.726 308.257 367.726 304.958H366.318ZM370.668 295.104C367.989 297.542 366.318 301.057 366.318 304.958H367.726C367.726 301.467 369.219 298.326 371.616 296.145L370.668 295.104ZM370.882 294.913L370.674 295.098L371.61 296.15L371.818 295.965L370.882 294.913ZM346.317 258.995L370.763 295.828L371.936 295.05L347.49 258.216L346.317 258.995ZM334.423 252.27C339.214 252.478 343.641 254.963 346.317 258.995L347.49 258.216C344.565 253.808 339.724 251.091 334.485 250.863L334.423 252.27ZM334.14 252.26L334.43 252.27L334.478 250.863L334.188 250.853L334.14 252.26ZM273.785 252.256L334.164 252.26L334.164 250.852L273.785 250.848L273.785 252.256ZM219 271.228C239.862 271.228 259.05 264.079 274.221 252.104L273.349 250.999C258.418 262.785 239.535 269.82 219 269.82V271.228ZM164.235 252.462C179.334 264.222 198.347 271.228 219 271.228V269.82C198.671 269.82 179.96 262.925 165.1 251.352L164.235 252.462ZM163.781 252.106L164.233 252.461L165.102 251.353L164.649 250.998L163.781 252.106ZM105.079 252.255L164.215 252.256L164.215 250.848L105.079 250.847L105.079 252.255ZM92.9282 258.502C95.6411 254.754 99.9222 252.384 105.097 252.255L105.062 250.848C99.4523 250.987 94.7605 253.569 91.7875 257.677L92.9282 258.502ZM92.7664 258.73L92.9318 258.497L91.7839 257.682L91.6186 257.915L92.7664 258.73ZM68.001 295.884L92.7783 258.713L91.6067 257.932L66.8294 295.103L68.001 295.884ZM72.3853 304.958C72.3853 300.983 70.6504 297.409 67.8809 294.966L66.9495 296.022C69.4269 298.207 70.9773 301.401 70.9773 304.958H72.3853ZM68.4717 314.401C70.8889 311.985 72.3853 308.646 72.3853 304.958H70.9773C70.9773 308.257 69.6402 311.242 67.4764 313.405L68.4717 314.401ZM59.0238 318.312C62.7132 318.312 66.0545 316.817 68.4717 314.401L67.4764 313.405C65.3125 315.568 62.325 316.904 59.0238 316.904V318.312ZM49.576 314.401C51.9932 316.817 55.3345 318.312 59.0238 318.312V316.904C55.7227 316.904 52.7352 315.568 50.5713 313.405L49.576 314.401ZM45.6624 304.958C45.6624 308.646 47.1588 311.985 49.576 314.401L50.5713 313.405C48.4074 311.242 47.0704 308.257 47.0704 304.958H45.6624ZM49.4584 295.635C47.1102 298.041 45.6624 301.331 45.6624 304.958H47.0704C47.0704 301.713 48.364 298.772 50.4659 296.618L49.4584 295.635ZM61.6017 291.847C56.8524 290.956 52.432 292.588 49.4583 295.635L50.4659 296.618C53.126 293.893 57.0766 292.431 61.342 293.231L61.6017 291.847ZM61.891 291.905L61.6089 291.849L61.3348 293.23L61.6169 293.286L61.891 291.905ZM86.1567 254.712L61.1681 292.205L62.3398 292.986L87.3284 255.492L86.1567 254.712ZM86.3849 254.375L86.1599 254.707L87.3253 255.497L87.5503 255.165L86.3849 254.375ZM104.493 244.53C97.2439 244.744 90.5189 248.394 86.3885 254.37L87.5467 255.17C91.4225 249.563 97.7329 246.138 104.535 245.938L104.493 244.53ZM104.845 244.523L104.499 244.53L104.529 245.938L104.875 245.93L104.845 244.523ZM157.035 244.523L104.86 244.523L104.86 245.931L157.035 245.931V244.523ZM135.961 214.501C140.547 226.353 147.621 236.972 156.542 245.729L157.528 244.725C148.748 236.105 141.787 225.654 137.274 213.993L135.961 214.501ZM135.714 213.856L135.96 214.499L137.275 213.996L137.029 213.353L135.714 213.856ZM66.7397 214.307L136.372 214.309L136.372 212.901L66.7398 212.899L66.7397 214.307ZM54.6296 220.567C57.3341 216.806 61.6028 214.435 66.7574 214.307L66.7222 212.899C61.1304 213.039 56.4502 215.624 53.4865 219.745L54.6296 220.567ZM54.4684 220.796L54.6332 220.562L53.4829 219.75L53.3181 219.984L54.4684 220.796ZM29.9324 257.848L54.4802 220.778L53.3063 220.001L28.7585 257.071L29.9324 257.848ZM34.4129 267.01C34.4129 262.985 32.6346 259.372 29.8058 256.927L28.8851 257.992C31.4158 260.179 33.0049 263.409 33.0049 267.01H34.4129ZM30.4993 276.452C32.9165 274.037 34.4129 270.697 34.4129 267.01H33.0049C33.0049 270.308 31.6679 273.294 29.504 275.456L30.4993 276.452ZM21.0515 280.363C24.7408 280.363 28.0821 278.868 30.4993 276.452L29.504 275.456C27.3401 277.619 24.3527 278.955 21.0515 278.955V280.363ZM11.6037 276.452C14.0209 278.868 17.3622 280.363 21.0515 280.363V278.955C17.7503 278.955 14.7629 277.619 12.599 275.456L11.6037 276.452ZM7.69004 267.01C7.69004 270.697 9.18646 274.037 11.6037 276.452L12.599 275.456C10.4351 273.294 9.09804 270.308 9.09804 267.01H7.69004ZM11.4705 257.702C9.13144 260.107 7.69004 263.391 7.69004 267.01H9.09804C9.09804 263.772 10.386 260.836 12.4797 258.684L11.4705 257.702ZM23.5855 253.891C18.8443 253.016 14.4351 254.655 11.4705 257.702L12.4797 258.684C15.1317 255.958 19.0724 254.49 23.3301 255.275L23.5855 253.891ZM23.8744 253.947L23.5928 253.892L23.3229 255.274L23.6045 255.329L23.8744 253.947ZM47.9822 216.749L23.1524 254.249L24.3264 255.027L49.1562 217.526L47.9822 216.749ZM48.2089 216.412L47.9853 216.744L49.1531 217.531L49.3767 217.199L48.2089 216.412ZM66.1597 206.582C58.9692 206.795 52.3056 210.446 48.2124 216.407L49.3732 217.204C53.214 211.61 59.4633 208.189 66.2015 207.989L66.1597 206.582ZM66.5082 206.574L66.1653 206.582L66.1959 207.989L66.5388 207.982L66.5082 206.574ZM134.254 206.572L66.5235 206.574L66.5235 207.982L134.254 207.98L134.254 206.572ZM130.221 177.046C129.562 187.657 130.778 197.9 133.578 207.474L134.93 207.079C132.175 197.66 130.977 187.58 131.626 177.134L130.221 177.046ZM130.269 176.308L130.221 177.043L131.626 177.136L131.674 176.401L130.269 176.308ZM66.8272 177.059H130.972V175.651H66.8272V177.059ZM48.4122 167.51C52.6494 173.483 59.4997 177.059 66.8272 177.059V175.651C59.9606 175.651 53.5364 172.3 49.5606 166.695L48.4122 167.51ZM48.2155 167.228L48.4091 167.505L49.5637 166.7L49.3701 166.422L48.2155 167.228ZM47.9853 166.886L48.2089 167.218L49.3767 166.432L49.1531 166.1L47.9853 166.886ZM23.1524 129.381L47.9822 166.882L49.1562 166.104L24.3264 128.604L23.1524 129.381ZM11.4705 125.928C14.4971 129.039 19.0289 130.682 23.8815 129.682L23.5973 128.303C19.2369 129.202 15.1868 127.729 12.4797 124.947L11.4705 125.928ZM7.69004 116.621C7.69004 120.24 9.13144 123.524 11.4705 125.928L12.4797 124.947C10.386 122.794 9.09804 119.859 9.09804 116.621H7.69004ZM11.6037 107.178C9.18646 109.594 7.69004 112.933 7.69004 116.621H9.09804C9.09804 113.322 10.4351 110.337 12.599 108.174L11.6037 107.178ZM21.0515 103.267C17.3622 103.267 14.0209 104.763 11.6037 107.178L12.599 108.174C14.7629 106.012 17.7503 104.675 21.0515 104.675V103.267ZM30.4993 107.178C28.0821 104.763 24.7408 103.267 21.0515 103.267V104.675C24.3527 104.675 27.3401 106.012 29.504 108.174L30.4993 107.178ZM34.4129 116.621C34.4129 112.933 32.9165 109.594 30.4993 107.178L29.504 108.174C31.6679 110.337 33.0049 113.322 33.0049 116.621H34.4129ZM30.021 126.514C32.7245 124.074 34.4129 120.543 34.4129 116.621H33.0049C33.0049 120.13 31.4961 123.286 29.0776 125.468L30.021 126.514ZM29.8111 126.699L30.0153 126.519L29.0832 125.463L28.8791 125.644L29.8111 126.699ZM54.2956 162.579L29.9321 125.783L28.7581 126.56L53.1216 163.357L54.2956 162.579ZM66.1745 169.31C61.3911 169.101 56.9684 166.616 54.2956 162.579L53.1216 163.357C56.0434 167.77 60.88 170.489 66.1133 170.716L66.1745 169.31ZM66.4574 169.319L66.168 169.309L66.1197 170.717L66.4091 170.726L66.4574 169.319ZM131.657 169.323L66.4333 169.319L66.4332 170.727L131.657 170.731L131.657 169.323ZM141.802 138.652C136.343 148.115 132.589 158.678 130.961 169.926L132.354 170.128C133.957 159.061 137.65 148.667 143.022 139.355L141.802 138.652ZM142.152 138.052L141.804 138.649L143.021 139.358L143.369 138.76L142.152 138.052ZM104.419 139.11L142.76 139.11V137.702L104.419 137.702L104.419 139.11ZM85.8621 129.549C90.1333 135.536 97.0391 139.11 104.419 139.11V137.702C97.4956 137.702 91.0161 134.349 87.0083 128.732L85.8621 129.549ZM85.6638 129.267L85.859 129.545L87.0114 128.736L86.8162 128.458L85.6638 129.267ZM85.4324 128.925L85.6572 129.257L86.8229 128.468L86.598 128.136L85.4324 128.925ZM60.5367 91.5412L85.4292 128.921L86.6012 128.14L61.7086 90.7607L60.5367 91.5412ZM49.2786 87.8079C52.1762 90.8934 56.5263 92.6065 61.2349 91.8459L61.0104 90.456C56.7859 91.1383 52.898 89.6052 50.305 86.844L49.2786 87.8079ZM45.6624 78.6721C45.6624 82.2056 47.0363 85.4201 49.2786 87.8079L50.305 86.844C48.2981 84.7069 47.0704 81.8335 47.0704 78.6721H45.6624ZM49.576 69.2296C47.1588 71.6453 45.6624 74.9847 45.6624 78.6721H47.0704C47.0704 75.3734 48.4074 72.3881 50.5713 70.2255L49.576 69.2296ZM59.0238 65.3186C55.3345 65.3186 51.9932 66.8139 49.576 69.2296L50.5713 70.2255C52.7352 68.063 55.7226 66.7266 59.0238 66.7266V65.3186ZM68.4717 69.2296C66.0544 66.8139 62.7132 65.3186 59.0238 65.3186V66.7266C62.325 66.7266 65.3125 68.063 67.4764 70.2255L68.4717 69.2296ZM72.3853 78.6721C72.3853 74.9847 70.8889 71.6453 68.4717 69.2296L67.4764 70.2255C69.6402 72.3881 70.9773 75.3734 70.9773 78.6721H72.3853ZM67.6091 88.9C70.5344 86.4538 72.3853 82.7776 72.3853 78.6721H70.9773C70.9773 82.345 69.3234 85.6311 66.7059 87.8199L67.6091 88.9ZM67.3989 89.0722L67.6035 88.9047L66.7116 87.8152L66.507 87.9827L67.3989 89.0722ZM91.8502 124.643L67.5389 88.1372L66.367 88.9176L90.6783 125.424L91.8502 124.643ZM103.764 131.361C98.9635 131.153 94.5303 128.668 91.8502 124.643L90.6783 125.424C93.6082 129.823 98.4547 132.54 103.703 132.768L103.764 131.361ZM104.048 131.371L103.757 131.361L103.709 132.768L103.999 132.778L104.048 131.371ZM146.852 131.375L104.024 131.37L104.023 132.778L146.852 132.783L146.852 131.375ZM219 94.1314C188.954 94.1314 162.385 108.961 146.278 131.671L147.426 132.486C163.279 110.133 189.428 95.5395 219 95.5395V94.1314ZM291.236 130.992C275.083 108.666 248.745 94.1314 219 94.1314V95.5395C248.276 95.5395 274.197 109.843 290.095 131.817L291.236 130.992ZM291.72 131.668L291.238 130.995L290.093 131.815L290.575 132.488L291.72 131.668ZM333.668 131.375L291.148 131.374L291.148 132.782L333.668 132.783L333.668 131.375ZM345.814 125.127C343.102 128.877 338.823 131.247 333.65 131.375L333.685 132.783C339.293 132.643 343.983 130.061 346.955 125.952L345.814 125.127ZM345.976 124.899L345.811 125.132L346.959 125.947L347.124 125.714L345.976 124.899ZM370.714 87.757L345.964 124.916L347.136 125.696L371.885 88.5375L370.714 87.757ZM366.318 78.6721C366.318 82.6538 368.058 86.2325 370.835 88.6758L371.765 87.6187C369.281 85.4331 367.726 82.2347 367.726 78.6721H366.318ZM370.231 69.2296C367.814 71.6453 366.318 74.9847 366.318 78.6721H367.726C367.726 75.3734 369.063 72.3881 371.227 70.2255L370.231 69.2296ZM379.679 65.3186C375.99 65.3186 372.649 66.8139 370.231 69.2296L371.227 70.2255C373.391 68.063 376.378 66.7266 379.679 66.7266V65.3186ZM161.528 125.428C176.236 110.783 196.554 101.724 219 101.724V100.316C196.168 100.316 175.497 109.533 160.534 124.43L161.528 125.428ZM137.712 182.679C137.712 160.322 146.811 140.081 161.528 125.428L160.534 124.43C145.563 139.336 136.304 159.932 136.304 182.679H137.712ZM161.528 239.931C146.811 225.278 137.712 205.037 137.712 182.679H136.304C136.304 205.427 145.563 226.023 160.534 240.929L161.528 239.931ZM219 263.635C196.554 263.635 176.236 254.576 161.528 239.931L160.534 240.929C175.497 255.826 196.168 265.043 219 265.043V263.635ZM276.472 239.931C261.763 254.576 241.445 263.635 219 263.635V265.043C241.832 265.043 262.503 255.826 277.466 240.929L276.472 239.931ZM300.288 182.679C300.288 205.037 291.189 225.278 276.472 239.931L277.466 240.929C292.437 226.023 301.696 205.427 301.696 182.679H300.288ZM276.472 125.428C291.189 140.081 300.288 160.322 300.288 182.679H301.696C301.696 159.932 292.437 139.336 277.466 124.43L276.472 125.428ZM219 101.724C241.445 101.724 261.763 110.783 276.472 125.428L277.466 124.43C262.503 109.533 241.832 100.316 219 100.316V101.724ZM219 132.785C232.69 132.785 245.082 138.33 254.054 147.296L255.05 146.3C245.824 137.081 233.078 131.377 219 131.377V132.785ZM183.946 147.296C192.917 138.33 205.31 132.785 219 132.785V131.377C204.922 131.377 192.175 137.081 182.95 146.3L183.946 147.296ZM169.426 182.328C169.426 168.647 174.974 156.263 183.946 147.296L182.95 146.3C173.725 155.52 168.018 168.258 168.018 182.328H169.426ZM183.946 217.36C174.974 208.394 169.426 196.009 169.426 182.328H168.018C168.018 196.398 173.725 209.136 182.95 218.356L183.946 217.36ZM219 231.871C205.31 231.871 192.917 226.326 183.946 217.36L182.95 218.356C192.175 227.575 204.922 233.279 219 233.279V231.871ZM254.054 217.36C245.082 226.326 232.69 231.871 219 231.871V233.279C233.078 233.279 245.824 227.575 255.05 218.356L254.054 217.36ZM268.574 182.328C268.574 196.009 263.026 208.394 254.054 217.36L255.05 218.356C264.275 209.136 269.982 196.398 269.982 182.328H268.574ZM254.054 147.296C263.026 156.263 268.574 168.647 268.574 182.328H269.982C269.982 168.258 264.275 155.52 255.05 146.3L254.054 147.296ZM145.867 19.5781V71.0996H147.275V19.5781H145.867ZM131.271 28.5957C135.418 24.451 140.749 21.4918 146.713 20.2677L146.43 18.8885C140.189 20.1695 134.612 23.2659 130.275 27.5997L131.271 28.5957ZM122.312 50.2107C122.312 41.7694 125.735 34.1283 131.271 28.5957L130.275 27.5997C124.486 33.3855 120.904 41.3807 120.904 50.2107H122.312ZM131.271 71.8257C125.735 66.2931 122.312 58.652 122.312 50.2107H120.904C120.904 59.0407 124.486 67.0358 130.275 72.8216L131.271 71.8257ZM152.9 80.7792C144.453 80.7792 136.807 77.3583 131.271 71.8257L130.275 72.8216C136.065 78.6074 144.065 82.1872 152.9 82.1872V80.7792ZM174.529 71.8257C168.993 77.3583 161.347 80.7792 152.9 80.7792V82.1872C161.735 82.1872 169.735 78.6074 175.524 72.8216L174.529 71.8257ZM183.488 50.2107C183.488 58.652 180.065 66.2931 174.529 71.8257L175.524 72.8216C181.314 67.0358 184.896 59.0407 184.896 50.2107H183.488ZM174.664 28.7316C180.12 34.2535 183.488 41.8381 183.488 50.2107H184.896C184.896 41.4525 181.371 33.5165 175.666 27.742L174.664 28.7316ZM147.157 71.4903L175.75 28.6275L174.579 27.8461L145.986 70.709L147.157 71.4903Z" fill="#5930DD"/>
<path opacity="0.4" d="M300.285 33.1611L300.741 32.6246L299.581 31.6392V33.1611H300.285ZM301.678 34.4473L301.18 34.9445L301.18 34.9445L301.678 34.4473ZM300.285 68.1327H299.581V69.6574L300.742 68.6686L300.285 68.1327ZM300.442 67.9988L300.899 68.5347L300.903 68.5312L300.442 67.9988ZM301.678 66.8476L301.18 66.3503L301.18 66.3503L301.678 66.8476ZM287.426 73.4782L287.487 74.1796L289.004 74.0479L287.921 72.9776L287.426 73.4782ZM262.711 49.0391L263.206 48.5385L262.115 47.4591L262.009 48.9906L262.711 49.0391ZM287.318 73.4876L287.373 74.1895L287.379 74.189L287.318 73.4876ZM285.878 73.555L285.884 74.259L285.889 74.2589L285.878 73.555ZM285.515 73.5579V74.2619L285.52 74.2619L285.515 73.5579ZM269.351 66.8476L268.853 67.3448L269.351 66.8476ZM62.3712 76.2066L61.8728 76.7038L62.3712 76.2066ZM62.242 82.3088L62.7059 82.8383L62.7116 82.8333L62.7172 82.8282L62.242 82.3088ZM62.1064 82.4275L62.5586 82.9671L62.5645 82.9622L62.5703 82.9571L62.1064 82.4275ZM61.5077 82.9293L61.8158 83.5623L61.8936 83.5245L61.96 83.4689L61.5077 82.9293ZM61.4343 82.965L61.728 83.6049L61.7352 83.6015L61.7424 83.5981L61.4343 82.965ZM56.4006 82.1856L55.8944 82.675L55.9024 82.683L56.4006 82.1856ZM56.3073 82.0891L55.7934 82.5704L55.8012 82.5785L56.3073 82.0891ZM420.377 114.273L420.876 113.776L420.876 113.776L420.377 114.273ZM420.417 120.214L419.913 119.723L419.912 119.723L420.417 120.214ZM415.27 121.005L414.964 121.64L414.971 121.643L415.27 121.005ZM415.241 120.992L414.777 121.521L414.849 121.584L414.935 121.626L415.241 120.992ZM414.6 120.429L415.064 119.9L415.064 119.9L414.6 120.429ZM413.178 117.462L412.474 117.478L412.474 117.486L412.474 117.494L413.178 117.462ZM413.173 117.264H412.469V117.272L412.469 117.28L413.173 117.264ZM414.409 114.273L414.907 114.77L414.908 114.77L414.409 114.273ZM248.992 153.517L248.493 154.014L248.992 153.517ZM219.4 225.119V224.415V225.119ZM248.992 212.834L248.493 212.337L248.992 212.834ZM261.249 183.176H260.545H261.249ZM23.5231 264.376L23.8324 263.744L23.8213 263.739L23.5231 264.376ZM23.5436 264.386L24.0048 263.855L23.9354 263.794L23.8529 263.754L23.5436 264.386ZM18.3792 265.173L17.8739 264.683H17.8739L18.3792 265.173ZM18.4221 271.111L18.9204 270.614H18.9204L18.4221 271.111ZM25.6263 268.12H26.3303V268.112L26.3301 268.104L25.6263 268.12ZM25.6217 267.921L26.3255 267.905L26.3253 267.897L26.3249 267.889L25.6217 267.921ZM24.181 264.939L23.7198 265.471L23.7199 265.471L24.181 264.939ZM61.5492 302.464L62.0157 301.936L61.9432 301.872L61.8561 301.83L61.5492 302.464ZM61.5163 302.448L61.8232 301.814L61.8155 301.81L61.5163 302.448ZM62.1951 303.035L61.7286 303.562L61.7286 303.562L62.1951 303.035ZM63.6028 305.99L64.3066 305.974L64.3064 305.966L64.3061 305.958L63.6028 305.99ZM63.6073 306.187H64.3112V306.179L64.3111 306.171L63.6073 306.187ZM62.3712 309.178L61.8728 308.681L62.3712 309.178ZM56.3652 303.235L55.8607 302.744L55.8607 302.744L56.3652 303.235ZM383.141 303.238L383.646 302.748H383.646L383.141 303.238ZM383.1 309.178L383.598 309.675L383.598 309.675L383.1 309.178ZM377.131 309.178L377.63 308.681L377.63 308.681L377.131 309.178ZM377.122 303.209L376.636 302.7L376.63 302.706L376.624 302.712L377.122 303.209ZM377.259 303.078L376.785 302.558L376.779 302.564L376.773 302.569L377.259 303.078ZM377.918 302.476L377.616 301.841L377.521 301.886L377.443 301.957L377.918 302.476ZM377.939 302.466L378.242 303.102L378.242 303.102L377.939 302.466ZM420.417 265.17L419.913 265.661L420.417 265.17ZM420.377 271.111L420.876 271.609L420.876 271.609L420.377 271.111ZM414.409 271.111L414.908 270.614L414.907 270.614L414.409 271.111ZM414.394 265.148L413.907 264.64L413.901 264.646L413.895 264.651L414.394 265.148ZM414.531 265.017L414.055 264.498L414.049 264.503L414.044 264.509L414.531 265.017ZM415.19 264.413L414.881 263.78L414.789 263.825L414.714 263.894L415.19 264.413ZM415.215 264.401L414.912 263.765L414.905 263.768L415.215 264.401ZM18.4221 114.273L18.9204 114.77H18.9204L18.4221 114.273ZM18.3792 120.211L17.8738 120.701L17.8819 120.71L18.3792 120.211ZM18.475 120.307L17.9777 120.805L17.986 120.813L18.475 120.307ZM23.5778 120.987L23.8803 121.622L23.8932 121.616L23.906 121.609L23.5778 120.987ZM23.5922 120.979L23.9203 121.602L23.9986 121.561L24.0643 121.501L23.5922 120.979ZM24.2489 120.385L24.721 120.908L24.7271 120.902L24.7332 120.896L24.2489 120.385ZM24.3876 120.254L24.8719 120.765L24.8778 120.759L24.8835 120.754L24.3876 120.254ZM380.116 74.9677V74.2637H380.107L380.099 74.2639L380.116 74.9677ZM383.1 76.2066L383.598 75.7093L383.598 75.7093L383.1 76.2066ZM379.911 74.9726L379.894 74.2688L379.886 74.269L379.877 74.2694L379.911 74.9726ZM377.131 76.2066L377.63 76.7038L377.63 76.7038L377.131 76.2066ZM375.895 79.1974H375.191V79.2054L375.192 79.2134L375.895 79.1974ZM375.9 79.3944L375.196 79.4105L375.196 79.4185L375.197 79.4265L375.9 79.3944ZM377.312 82.353L377.777 81.8253L377.777 81.8252L377.312 82.353ZM377.956 82.9216L377.49 83.4493L377.561 83.5122L377.646 83.554L377.956 82.9216ZM377.988 82.9374L377.679 83.5699L377.689 83.5747L377.988 82.9374ZM383.138 82.1491L383.643 82.64V82.64L383.138 82.1491ZM175.256 44.3042L175.933 44.11L175.513 42.6469L174.67 43.9143L175.256 44.3042ZM169.448 66.8476L168.95 66.3503L169.448 66.8476ZM156.152 73.3794L156.233 74.0787L156.24 74.0779L156.152 73.3794ZM155.895 73.4091L155.309 73.0192L154.468 74.2835L155.977 74.1084L155.895 73.4091ZM138.514 33.1611L139.218 33.1611L139.218 31.6392L138.058 32.6246L138.514 33.1611ZM138.514 68.132L138.057 68.668L139.217 69.6559L139.218 68.132L138.514 68.132ZM137.121 34.4473L137.619 34.9445L137.619 34.9445L137.121 34.4473ZM137.121 66.8476L136.623 67.3448L136.626 67.3484L137.121 66.8476ZM137.361 67.085L136.867 67.5859L136.87 67.5895L137.361 67.085ZM138.357 67.9988L137.896 68.5312L137.901 68.5348L138.357 67.9988ZM299.829 33.6976C300.297 34.0946 300.747 34.5107 301.18 34.9445L302.177 33.95C301.717 33.4889 301.238 33.0467 300.741 32.6246L299.829 33.6976ZM300.989 68.1327V33.1611H299.581V68.1327H300.989ZM299.986 67.4629L299.829 67.5968L300.742 68.6686L300.899 68.5346L299.986 67.4629ZM301.18 66.3503C300.794 66.7368 300.395 67.1091 299.982 67.4663L300.903 68.5312C301.342 68.1514 301.767 67.7556 302.177 67.3448L301.18 66.3503ZM307.67 50.6474C307.67 56.7803 305.19 62.3311 301.18 66.3503L302.177 67.3448C306.44 63.0721 309.078 57.1677 309.078 50.6474H307.67ZM301.18 34.9445C305.19 38.9637 307.67 44.5146 307.67 50.6474H309.078C309.078 44.1272 306.44 38.2228 302.177 33.95L301.18 34.9445ZM287.921 72.9776L263.206 48.5385L262.216 49.5397L286.931 73.9788L287.921 72.9776ZM287.379 74.189L287.487 74.1796L287.366 72.7769L287.257 72.7863L287.379 74.189ZM285.889 74.2589C286.388 74.2512 286.882 74.2279 287.373 74.1895L287.263 72.7858C286.802 72.8219 286.336 72.8438 285.867 72.8511L285.889 74.2589ZM285.52 74.2619L285.884 74.259L285.873 72.8511L285.509 72.8539L285.52 74.2619ZM268.853 67.3448C273.116 71.6176 279.008 74.2619 285.515 74.2619V72.8539C279.397 72.8539 273.86 70.3695 269.849 66.3503L268.853 67.3448ZM261.952 50.6474C261.952 57.1677 264.59 63.0721 268.853 67.3448L269.849 66.3503C265.839 62.3311 263.36 56.7803 263.36 50.6474H261.952ZM262.009 48.9906C261.971 49.538 261.952 50.0905 261.952 50.6474H263.36C263.36 50.1229 263.378 49.6028 263.413 49.0876L262.009 48.9906ZM62.8696 75.7093C61.9794 74.8171 60.7472 74.2637 59.3871 74.2637V75.6717C60.3578 75.6717 61.2357 76.0652 61.8728 76.7038L62.8696 75.7093ZM64.3112 79.1974C64.3112 77.8357 63.7597 76.6015 62.8696 75.7093L61.8728 76.7038C62.5101 77.3425 62.9033 78.2231 62.9033 79.1974H64.3112ZM62.7172 82.8282C63.701 81.9284 64.3112 80.6317 64.3112 79.1974H62.9033C62.9033 80.225 62.4677 81.1483 61.7669 81.7893L62.7172 82.8282ZM62.5703 82.9571L62.7059 82.8383L61.7782 81.7792L61.6425 81.898L62.5703 82.9571ZM61.96 83.4689L62.5586 82.9671L61.6542 81.888L61.0555 82.3898L61.96 83.4689ZM61.7424 83.5981L61.8158 83.5623L61.1997 82.2963L61.1263 82.332L61.7424 83.5981ZM55.9024 82.683C57.3124 84.0953 59.5445 84.6068 61.728 83.6049L61.1407 82.3252C59.4888 83.0832 57.8894 82.6804 56.8988 81.6882L55.9024 82.683ZM55.8012 82.5785L55.8945 82.6749L56.9067 81.6962L56.8135 81.5998L55.8012 82.5785ZM54.463 79.1974C54.463 80.5006 54.9677 81.6885 55.7935 82.5703L56.8212 81.6079C56.2311 80.9778 55.871 80.1307 55.871 79.1974H54.463ZM55.9047 75.7093C55.0145 76.6015 54.463 77.8357 54.463 79.1974H55.871C55.871 78.2231 56.2642 77.3425 56.9014 76.7038L55.9047 75.7093ZM59.3871 74.2637C58.0271 74.2637 56.7949 74.8171 55.9047 75.7093L56.9014 76.7038C57.5386 76.0652 58.4165 75.6717 59.3871 75.6717V74.2637ZM420.876 113.776C419.985 112.884 418.753 112.33 417.393 112.33V113.738C418.364 113.738 419.242 114.132 419.879 114.77L420.876 113.776ZM422.317 117.264C422.317 115.902 421.766 114.668 420.876 113.776L419.879 114.77C420.516 115.409 420.909 116.29 420.909 117.264H422.317ZM420.922 120.705C421.785 119.816 422.317 118.601 422.317 117.264H420.909C420.909 118.221 420.53 119.088 419.913 119.723L420.922 120.705ZM414.971 121.643C417.194 122.685 419.492 122.176 420.922 120.705L419.912 119.723C418.912 120.753 417.262 121.162 415.568 120.368L414.971 121.643ZM414.935 121.626L414.964 121.64L415.576 120.371L415.547 120.358L414.935 121.626ZM414.136 120.958L414.777 121.521L415.705 120.463L415.064 119.9L414.136 120.958ZM412.474 117.494C412.537 118.871 413.162 120.105 414.136 120.959L415.064 119.9C414.371 119.293 413.926 118.415 413.881 117.43L412.474 117.494ZM412.469 117.28L412.474 117.478L413.881 117.446L413.877 117.248L412.469 117.28ZM413.911 113.776C413.021 114.668 412.469 115.902 412.469 117.264H413.877C413.877 116.29 414.27 115.409 414.907 114.77L413.911 113.776ZM417.393 112.33C416.033 112.33 414.801 112.884 413.911 113.776L414.908 114.77C415.545 114.132 416.423 113.738 417.393 113.738V112.33ZM219.4 141.936C230.761 141.936 241.047 146.551 248.493 154.014L249.49 153.02C241.79 145.303 231.151 140.528 219.4 140.528V141.936ZM190.306 154.014C197.753 146.551 208.038 141.936 219.4 141.936V140.528C207.649 140.528 197.009 145.303 189.309 153.02L190.306 154.014ZM178.254 183.176C178.254 171.787 182.859 161.478 190.306 154.014L189.309 153.02C181.61 160.737 176.846 171.399 176.846 183.176H178.254ZM190.306 212.337C182.859 204.873 178.254 194.564 178.254 183.176H176.846C176.846 194.952 181.61 205.614 189.309 213.332L190.306 212.337ZM219.4 224.415C208.038 224.415 197.753 219.801 190.306 212.337L189.309 213.332C197.009 221.049 207.649 225.823 219.4 225.823V224.415ZM248.493 212.337C241.047 219.801 230.761 224.415 219.4 224.415V225.823C231.151 225.823 241.79 221.049 249.49 213.332L248.493 212.337ZM260.545 183.176C260.545 194.564 255.94 204.873 248.493 212.337L249.49 213.332C257.19 205.614 261.953 194.952 261.953 183.176H260.545ZM248.493 154.014C255.94 161.478 260.545 171.787 260.545 183.176H261.953C261.953 171.399 257.19 160.737 249.49 153.02L248.493 154.014ZM23.2138 265.009L23.2344 265.019L23.8529 263.754L23.8324 263.744L23.2138 265.009ZM18.8845 265.663C19.8837 264.633 21.5317 264.223 23.2249 265.014L23.8213 263.739C21.5981 262.699 19.3016 263.211 17.8739 264.683L18.8845 265.663ZM17.89 268.12C17.89 267.164 18.2684 266.299 18.8845 265.663L17.8739 264.683C17.0125 265.571 16.482 266.785 16.482 268.12H17.89ZM18.9204 270.614C18.2832 269.975 17.89 269.095 17.89 268.12H16.482C16.482 269.482 17.0336 270.716 17.9237 271.609L18.9204 270.614ZM21.4061 271.646C20.4355 271.646 19.5576 271.253 18.9204 270.614L17.9237 271.609C18.8139 272.501 20.0461 273.054 21.4061 273.054V271.646ZM23.8919 270.614C23.2547 271.253 22.3768 271.646 21.4061 271.646V273.054C22.7662 273.054 23.9984 272.501 24.8886 271.609L23.8919 270.614ZM24.9223 268.12C24.9223 269.095 24.5291 269.975 23.8919 270.614L24.8886 271.609C25.7787 270.716 26.3303 269.482 26.3303 268.12H24.9223ZM24.9179 267.937L24.9224 268.137L26.3301 268.104L26.3255 267.905L24.9179 267.937ZM23.7199 265.471C24.421 266.079 24.8727 266.962 24.9184 267.954L26.3249 267.889C26.2611 266.503 25.6276 265.261 24.6421 264.407L23.7199 265.471ZM23.0825 264.918L23.7198 265.471L24.6421 264.407L24.0048 263.855L23.0825 264.918ZM61.8561 301.83L61.8232 301.814L61.2095 303.081L61.2424 303.097L61.8561 301.83ZM62.6616 302.508L62.0157 301.936L61.0827 302.991L61.7286 303.562L62.6616 302.508ZM64.3061 305.958C64.2438 304.59 63.6263 303.361 62.6615 302.508L61.7286 303.562C62.4145 304.169 62.855 305.043 62.8995 306.022L64.3061 305.958ZM64.3111 306.171L64.3066 305.974L62.899 306.006L62.9034 306.203L64.3111 306.171ZM62.8696 309.675C63.7597 308.783 64.3112 307.549 64.3112 306.187H62.9033C62.9033 307.161 62.5101 308.042 61.8728 308.681L62.8696 309.675ZM59.3871 311.121C60.7472 311.121 61.9794 310.567 62.8696 309.675L61.8728 308.681C61.2357 309.319 60.3578 309.713 59.3871 309.713V311.121ZM55.9047 309.675C56.7949 310.567 58.0271 311.121 59.3871 311.121V309.713C58.4165 309.713 57.5386 309.319 56.9014 308.681L55.9047 309.675ZM54.463 306.187C54.463 307.549 55.0145 308.783 55.9047 309.675L56.9014 308.681C56.2642 308.042 55.871 307.161 55.871 306.187H54.463ZM55.8607 302.744C54.996 303.632 54.463 304.848 54.463 306.187H55.871C55.871 305.229 56.2511 304.361 56.8697 303.726L55.8607 302.744ZM61.8155 301.81C59.5924 300.767 57.2924 301.273 55.8607 302.744L56.8697 303.726C57.8711 302.697 59.5222 302.289 61.2172 303.085L61.8155 301.81ZM385.04 306.187C385.04 304.85 384.508 303.636 383.646 302.748L382.636 303.729C383.253 304.364 383.632 305.23 383.632 306.187H385.04ZM383.598 309.675C384.488 308.783 385.04 307.549 385.04 306.187H383.632C383.632 307.161 383.238 308.042 382.601 308.681L383.598 309.675ZM380.116 311.121C381.476 311.121 382.708 310.567 383.598 309.675L382.601 308.681C381.964 309.319 381.086 309.713 380.116 309.713V311.121ZM376.633 309.675C377.523 310.567 378.755 311.121 380.116 311.121V309.713C379.145 309.713 378.267 309.319 377.63 308.681L376.633 309.675ZM375.191 306.187C375.191 307.549 375.743 308.783 376.633 309.675L377.63 308.681C376.993 308.042 376.599 307.161 376.599 306.187H375.191ZM376.624 302.712C375.734 303.602 375.191 304.834 375.191 306.187H376.599C376.599 305.217 376.987 304.34 377.62 303.707L376.624 302.712ZM376.773 302.569L376.636 302.7L377.608 303.718L377.746 303.587L376.773 302.569ZM377.443 301.957L376.785 302.558L377.734 303.598L378.393 302.996L377.443 301.957ZM377.637 301.83L377.616 301.841L378.221 303.112L378.242 303.102L377.637 301.83ZM383.646 302.748C382.2 301.259 379.873 300.765 377.637 301.831L378.242 303.102C379.954 302.286 381.627 302.69 382.636 303.729L383.646 302.748ZM422.317 268.12C422.317 266.783 421.785 265.568 420.922 264.68L419.913 265.661C420.53 266.296 420.909 267.163 420.909 268.12H422.317ZM420.876 271.609C421.766 270.716 422.317 269.482 422.317 268.12H420.909C420.909 269.095 420.516 269.975 419.879 270.614L420.876 271.609ZM417.393 273.054C418.753 273.054 419.985 272.501 420.876 271.609L419.879 270.614C419.242 271.253 418.364 271.646 417.393 271.646V273.054ZM413.911 271.609C414.801 272.501 416.033 273.054 417.393 273.054V271.646C416.423 271.646 415.545 271.253 414.908 270.614L413.911 271.609ZM412.469 268.12C412.469 269.482 413.021 270.716 413.911 271.609L414.907 270.614C414.27 269.975 413.877 269.095 413.877 268.12H412.469ZM413.895 264.651C413.009 265.541 412.469 266.771 412.469 268.12H413.877C413.877 267.152 414.263 266.278 414.893 265.645L413.895 264.651ZM414.044 264.509L413.907 264.64L414.881 265.656L415.018 265.525L414.044 264.509ZM414.714 263.894L414.055 264.498L415.007 265.536L415.666 264.931L414.714 263.894ZM414.905 263.768L414.881 263.78L415.5 265.045L415.524 265.033L414.905 263.768ZM420.922 264.68C419.476 263.192 417.148 262.699 414.912 263.765L415.518 265.036C417.23 264.22 418.903 264.622 419.913 265.661L420.922 264.68ZM21.4061 113.738C22.3768 113.738 23.2547 114.132 23.8919 114.77L24.8886 113.776C23.9984 112.884 22.7662 112.33 21.4061 112.33V113.738ZM18.9204 114.77C19.5576 114.132 20.4355 113.738 21.4061 113.738V112.33C20.0461 112.33 18.8139 112.884 17.9237 113.776L18.9204 114.77ZM17.89 117.264C17.89 116.29 18.2832 115.409 18.9204 114.77L17.9237 113.776C17.0336 114.668 16.482 115.902 16.482 117.264H17.89ZM18.8845 119.721C18.2684 119.086 17.89 118.22 17.89 117.264H16.482C16.482 118.6 17.0125 119.813 17.8739 120.701L18.8845 119.721ZM18.9723 119.808L18.8765 119.713L17.8819 120.71L17.9778 120.805L18.9723 119.808ZM23.2754 120.351C21.6073 121.144 19.978 120.78 18.9641 119.8L17.986 120.813C19.4374 122.215 21.7016 122.659 23.8803 121.622L23.2754 120.351ZM23.264 120.356L23.2497 120.364L23.906 121.609L23.9203 121.602L23.264 120.356ZM23.7768 119.863L23.1201 120.457L24.0643 121.501L24.721 120.908L23.7768 119.863ZM23.9034 119.743L23.7646 119.874L24.7332 120.896L24.8719 120.765L23.9034 119.743ZM24.9223 117.264C24.9223 118.239 24.5307 119.12 23.8918 119.754L24.8835 120.754C25.7822 119.862 26.3303 118.624 26.3303 117.264H24.9223ZM23.8919 114.77C24.5291 115.409 24.9223 116.29 24.9223 117.264H26.3303C26.3303 115.902 25.7787 114.668 24.8886 113.776L23.8919 114.77ZM380.116 75.6717C381.086 75.6717 381.964 76.0652 382.601 76.7038L383.598 75.7093C382.708 74.8171 381.476 74.2637 380.116 74.2637V75.6717ZM379.928 75.6764L380.132 75.6715L380.099 74.2639L379.894 74.2688L379.928 75.6764ZM377.63 76.7038C378.23 76.1026 379.043 75.7189 379.945 75.6758L379.877 74.2694C378.611 74.33 377.471 74.8697 376.633 75.7093L377.63 76.7038ZM376.599 79.1974C376.599 78.2231 376.993 77.3425 377.63 76.7038L376.633 75.7093C375.743 76.6015 375.191 77.8357 375.191 79.1974H376.599ZM376.604 79.3784L376.599 79.1813L375.192 79.2134L375.196 79.4105L376.604 79.3784ZM377.777 81.8252C377.09 81.2182 376.648 80.3432 376.603 79.3624L375.197 79.4265C375.259 80.7973 375.878 82.0273 376.846 82.8809L377.777 81.8252ZM378.421 82.3938L377.777 81.8253L376.846 82.8808L377.49 83.4493L378.421 82.3938ZM378.297 82.305L378.265 82.2891L377.646 83.554L377.679 83.5698L378.297 82.305ZM382.633 81.6582C381.632 82.6873 379.982 83.0952 378.287 82.3L377.689 83.5747C379.912 84.6177 382.212 84.1111 383.643 82.64L382.633 81.6582ZM383.632 79.1974C383.632 80.1554 383.252 81.0226 382.633 81.6582L383.643 82.64C384.507 81.7516 385.04 80.5358 385.04 79.1974H383.632ZM382.601 76.7038C383.238 77.3425 383.632 78.2231 383.632 79.1974H385.04C385.04 77.8357 384.488 76.6015 383.598 75.7093L382.601 76.7038ZM176.848 50.6474C176.848 48.3804 176.529 46.1868 175.933 44.11L174.579 44.4983C175.139 46.4502 175.44 48.513 175.44 50.6474H176.848ZM169.947 67.3448C174.21 63.0721 176.848 57.1677 176.848 50.6474H175.44C175.44 56.7803 172.96 62.3311 168.95 66.3503L169.947 67.3448ZM156.24 74.0779C161.566 73.4098 166.34 70.96 169.947 67.3448L168.95 66.3503C165.557 69.7514 161.069 72.0531 156.064 72.6808L156.24 74.0779ZM155.977 74.1084L156.233 74.0787L156.071 72.6801L155.814 72.7098L155.977 74.1084ZM174.67 43.9143L155.309 73.0192L156.482 73.799L175.842 44.6941L174.67 43.9143ZM137.81 33.1611L137.81 68.132L139.218 68.132L139.218 33.1611L137.81 33.1611ZM137.619 34.9445C138.052 34.5107 138.503 34.0946 138.97 33.6976L138.058 32.6246C137.562 33.0467 137.083 33.4889 136.623 33.95L137.619 34.9445ZM131.13 50.6474C131.13 44.5146 133.609 38.9637 137.619 34.9445L136.623 33.95C132.359 38.2228 129.722 44.1272 129.722 50.6474H131.13ZM137.619 66.3503C133.609 62.3311 131.13 56.7803 131.13 50.6474H129.722C129.722 57.1677 132.359 63.0721 136.623 67.3448L137.619 66.3503ZM137.856 66.5841L137.616 66.3467L136.626 67.3484L136.867 67.5859L137.856 66.5841ZM138.818 67.4663C138.487 67.1805 138.165 66.8851 137.852 66.5805L136.87 67.5895C137.203 67.9133 137.545 68.2274 137.896 68.5312L138.818 67.4663ZM138.97 67.5959L138.813 67.4627L137.901 68.5348L138.057 68.668L138.97 67.5959Z" fill="#5930DD"/>
<circle cx="218.5" cy="182.5" r="27.5" fill="#5930DD"/>
<circle cx="59.5" cy="78.5" r="8" fill="#5930DD"/>
<circle cx="59.5" cy="305.5" r="8" fill="#5930DD"/>
<circle cx="380.5" cy="78.5" r="8" fill="#5930DD"/>
<circle cx="380.5" cy="305.5" r="8" fill="#5930DD"/>
<circle cx="417.5" cy="116.5" r="8" fill="#5930DD"/>
<circle cx="417.5" cy="267.5" r="8" fill="#5930DD"/>
<circle cx="21.5" cy="116.5" r="8" fill="#5930DD"/>
<circle cx="21.5" cy="267.5" r="8" fill="#5930DD"/>
<path opacity="0.22" d="M308.949 21.7548L308.493 22.2917V22.2917L308.949 21.7548ZM285.656 2L286.111 1.46309L284.945 0.473985L284.952 2.00318L285.656 2ZM311.192 23.8214L311.69 23.3237L311.192 23.8214ZM311.192 76.0455L310.694 75.5478L310.694 75.5479L311.192 76.0455ZM250.382 16.8072L250.876 16.3062L249.785 15.2293L249.679 16.7586L250.382 16.8072ZM248.267 47.3569L248.97 47.4056V47.4055L248.267 47.3569ZM258.99 76.0455L258.492 76.5432L258.99 76.0455ZM285.152 86.8615L285.153 87.5655L285.157 87.5654L285.152 86.8615ZM285.612 86.8579L285.618 87.5619L285.622 87.5618L285.612 86.8579ZM285.842 86.854L285.856 87.5578H285.856L285.842 86.854ZM309.2 77.8969L309.66 78.4297L309.2 77.8969ZM318.758 84.2964L318.814 84.9982L320.347 84.876L319.253 83.7954L318.758 84.2964ZM288.118 86.7376L288.062 86.0359L288.118 86.7376ZM286.089 97.8507L285.385 97.8539L285.392 99.3826L286.549 98.3836L286.089 97.8507ZM179.939 10.3288L180.616 10.1343L180.193 8.66298L179.351 9.94168L179.939 10.3288ZM188.387 39.7161L187.71 39.9106L188.387 39.7161ZM152.207 2.11645L152.911 2.11646L152.911 0.596263L151.752 1.57954L152.207 2.11645ZM129.051 21.7548L128.596 21.2178L129.051 21.7548ZM126.808 23.8214L127.306 24.3191V24.3191L126.808 23.8214ZM127.196 76.4273L126.698 76.9253L126.705 76.9323L127.196 76.4273ZM128.982 78.0522L128.524 78.5862L128.982 78.0522ZM133.001 81.6367L132.412 81.2496L131.989 81.8932L132.668 82.2572L133.001 81.6367ZM152.205 98.0034L151.746 98.5374L152.909 99.5364L152.909 98.0035L152.205 98.0034ZM179.01 76.0455L179.508 76.5432L179.01 76.0455ZM71.1023 92.1645L71.5563 92.7027L71.5663 92.6939L71.1023 92.1645ZM69.1573 93.8052L69.5202 94.4085L69.5683 94.3795L69.6113 94.3433L69.1573 93.8052ZM56.4005 96.5043L56.2992 97.2009L56.4005 96.5043ZM46.121 91.3529L45.609 91.8361L45.616 91.8436L45.6232 91.8508L46.121 91.3529ZM46.1205 65.4891L46.6184 65.9868L46.1205 65.4891ZM430.017 129.163L430.521 129.654V129.654L430.017 129.163ZM419.691 134.474L419.584 133.778L419.691 134.474ZM406.693 131.717L406.234 132.251L406.276 132.287L406.323 132.316L406.693 131.717ZM404.936 130.208L404.475 130.74L404.477 130.742L404.936 130.208ZM398.659 117.246L397.955 117.25L397.955 117.264L397.956 117.278L398.659 117.246ZM403.994 103.472L403.496 102.975H403.496L403.994 103.472ZM258.524 142.63L259.022 142.132L258.524 142.63ZM179.476 142.63L179.974 143.128L179.476 142.63ZM179.476 221.712L179.974 221.214L179.476 221.712ZM219 238.091V237.387V238.091ZM258.524 221.712L259.022 222.21L258.524 221.712ZM18.2889 248.863L18.3965 249.559H18.3965L18.2889 248.863ZM31.2732 251.596L31.7302 251.06L31.6887 251.025L31.6421 250.996L31.2732 251.596ZM7.97175 254.182L8.47661 254.673H8.47661L7.97175 254.182ZM8.15352 279.861L7.65561 280.359L8.15352 279.861ZM34.0059 279.861L34.5038 280.359L34.0059 279.861ZM39.3405 266.082L40.0445 266.078L40.0444 266.064L40.0438 266.049L39.3405 266.082ZM33.0038 253.073L33.4626 252.539L33.4609 252.538L33.0038 253.073ZM69.3027 289.616L69.7629 289.083L69.7208 289.047L69.6736 289.018L69.3027 289.616ZM56.2935 286.841L56.1874 286.145L56.2935 286.841ZM71.0809 291.152L71.5439 290.622L71.5411 290.619L71.0809 291.152ZM77.308 304.076L78.012 304.072L78.0119 304.058L78.0113 304.044L77.308 304.076ZM71.9728 317.845L71.4749 317.347L71.9728 317.845ZM59.0467 323.201L59.0467 322.497H59.0467V323.201ZM46.1205 317.845L46.6184 317.347L46.1205 317.845ZM45.9599 292.144L45.4558 291.652H45.4558L45.9599 292.144ZM382.292 286.826L382.393 286.13L382.292 286.826ZM369.085 289.804L368.706 289.211L368.654 289.244L368.609 289.286L369.085 289.804ZM392.757 292.158L392.252 292.649L392.757 292.158ZM397.937 304.913H398.641H397.937ZM366.73 317.845L366.232 318.342L366.232 318.342L366.73 317.845ZM367.012 291.709L366.536 291.191L366.526 291.2L367.012 291.709ZM419.542 248.841L419.642 248.145L419.542 248.841ZM406.328 251.834L405.949 251.241L405.896 251.274L405.851 251.316L406.328 251.834ZM430.017 254.17L430.521 253.679L430.017 254.17ZM403.994 279.861L403.496 280.359L403.496 280.359L403.994 279.861ZM404.252 253.75L403.774 253.232L403.764 253.242L404.252 253.75ZM34.0059 103.472L34.5038 102.975L34.0059 103.472ZM8.15352 103.472L7.65561 102.975L8.15352 103.472ZM8.39261 129.57L7.88925 130.063L7.89652 130.07L7.90402 130.077L8.39261 129.57ZM18.7048 134.527L18.7964 133.829H18.7964L18.7048 134.527ZM31.6052 131.538L31.9836 132.132L32.0345 132.099L32.079 132.059L31.6052 131.538ZM33.6648 129.664L34.1386 130.185L34.1439 130.18L34.1491 130.175L33.6648 129.664ZM378.782 60.1535L378.778 59.4495L378.763 59.4496L378.749 59.4503L378.782 60.1535ZM392.583 65.4891L392.085 65.9868H392.085L392.583 65.4891ZM366.73 65.4891L367.228 65.9868L367.228 65.9868L366.73 65.4891ZM361.395 79.2591L360.691 79.2628L360.691 79.277L360.692 79.2912L361.395 79.2591ZM367.636 92.1934L367.173 92.7242L367.176 92.7265L367.636 92.1934ZM369.409 93.7223L368.949 94.2554L368.991 94.2916L369.038 94.3208L369.409 93.7223ZM382.414 96.4924L382.521 97.1884L382.414 96.4924ZM392.746 91.1871L393.25 91.6785L392.746 91.1871ZM397.937 78.4208H398.641V78.4208L397.937 78.4208ZM309.404 21.2178L286.111 1.46309L285.201 2.53691L308.493 22.2917L309.404 21.2178ZM311.69 23.3237C310.957 22.591 310.195 21.8884 309.404 21.2178L308.493 22.2917C309.254 22.9372 309.989 23.6137 310.694 24.3191L311.69 23.3237ZM322.707 49.9335C322.707 39.542 318.496 30.133 311.69 23.3237L310.694 24.3191C317.247 30.8751 321.299 39.9302 321.299 49.9335H322.707ZM311.69 76.5432C318.496 69.7339 322.707 60.325 322.707 49.9335H321.299C321.299 59.9368 317.247 68.9918 310.694 75.5478L311.69 76.5432ZM311.285 76.9417C311.421 76.8099 311.556 76.6771 311.69 76.5432L310.694 75.5479C310.565 75.6767 310.435 75.8045 310.305 75.9314L311.285 76.9417ZM311.289 75.9355L286.376 51.345L285.387 52.3471L310.3 76.9376L311.289 75.9355ZM284.952 2.00318L285.177 51.8493L286.585 51.8429L286.36 1.99682L284.952 2.00318ZM285.177 51.8493L285.335 86.8527L286.743 86.8463L286.585 51.8429L285.177 51.8493ZM286.376 51.345L250.876 16.3062L249.887 17.3083L285.387 52.3471L286.376 51.345ZM249.679 16.7586L247.565 47.3083L248.97 47.4055L251.084 16.8558L249.679 16.7586ZM247.565 47.3083C247.505 48.1757 247.474 49.051 247.474 49.9335H248.882C248.882 49.0836 248.912 48.2406 248.97 47.4056L247.565 47.3083ZM247.474 49.9335C247.474 60.325 251.685 69.7339 258.492 76.5432L259.488 75.5478C252.934 68.9918 248.882 59.9368 248.882 49.9335H247.474ZM258.492 76.5432C265.312 83.3662 274.741 87.5823 285.153 87.5655L285.151 86.1575C275.128 86.1737 266.054 82.117 259.488 75.5478L258.492 76.5432ZM285.157 87.5654L285.618 87.5619L285.607 86.1539L285.146 86.1575L285.157 87.5654ZM285.622 87.5618C285.7 87.5607 285.778 87.5594 285.856 87.5578L285.828 86.1501C285.753 86.1516 285.678 86.1529 285.603 86.154L285.622 87.5618ZM285.856 87.5578C285.923 87.5565 285.99 87.555 286.057 87.5533L286.022 86.1457C285.957 86.1474 285.893 86.1488 285.828 86.1501L285.856 87.5578ZM300.523 86.3188L309.66 78.4297L308.74 77.364L299.603 85.2531L300.523 86.3188ZM309.66 78.4297C310.216 77.9495 310.758 77.4533 311.285 76.9417L310.304 75.9314C309.797 76.424 309.275 76.9017 308.74 77.364L309.66 78.4297ZM319.253 83.7954L311.289 75.9355L310.3 76.9376L318.264 84.7975L319.253 83.7954ZM300.119 86.4877L318.814 84.9982L318.702 83.5946L300.007 85.0842L300.119 86.4877ZM288.174 87.4394L300.119 86.4877L300.007 85.0842L288.062 86.0359L288.174 87.4394ZM286.057 87.5533C286.715 87.5367 287.387 87.5021 288.174 87.4394L288.062 86.0359C287.299 86.0967 286.652 86.1298 286.022 86.1457L286.057 87.5533ZM285.335 86.8527L285.385 97.8539L286.793 97.8475L286.743 86.8463L285.335 86.8527ZM286.549 98.3836L300.523 86.3188L299.603 85.2531L285.629 97.3178L286.549 98.3836ZM179.263 10.5232L187.71 39.9106L189.063 39.5216L180.616 10.1343L179.263 10.5232ZM152.794 52.8474L180.527 10.7158L179.351 9.94168L151.618 52.0733L152.794 52.8474ZM151.503 2.11644L151.502 52.4603L152.91 52.4604L152.911 2.11646L151.503 2.11644ZM129.507 22.2917L152.662 2.65336L151.752 1.57954L128.596 21.2178L129.507 22.2917ZM127.306 24.3191C128.011 23.6137 128.746 22.9372 129.507 22.2917L128.596 21.2178C127.805 21.8884 127.043 22.591 126.311 23.3237L127.306 24.3191ZM116.701 49.9335C116.701 39.9302 120.753 30.8751 127.306 24.3191L126.311 23.3237C119.504 30.133 115.293 39.542 115.293 49.9335H116.701ZM127.693 75.9294C120.645 68.8855 116.701 59.8565 116.701 49.9335H115.293C115.293 60.2506 119.4 69.6323 126.698 76.9253L127.693 75.9294ZM129.441 77.5182C128.68 76.8639 128.177 76.3989 127.686 75.9224L126.705 76.9323C127.217 77.4296 127.741 77.9138 128.524 78.5862L129.441 77.5182ZM133.515 81.0181L129.441 77.5182L128.524 78.5862L132.597 82.0861L133.515 81.0181ZM133.589 82.0238L133.644 81.9392L132.468 81.165L132.412 81.2496L133.589 82.0238ZM133.73 81.2265C133.598 81.1572 133.465 81.0871 133.333 81.0162L132.668 82.2572C132.804 82.3301 132.94 82.4023 133.076 82.4736L133.73 81.2265ZM152.664 97.4695L133.862 81.3161L132.944 82.384L151.746 98.5374L152.664 97.4695ZM151.501 86.8572L151.501 98.0034L152.909 98.0035L152.909 86.8572L151.501 86.8572ZM178.512 75.5478C171.808 82.2551 162.487 86.3353 152.218 86.1533L152.193 87.5611C162.858 87.7501 172.544 83.5104 179.508 76.5432L178.512 75.5478ZM189.118 49.9335C189.118 59.9368 185.066 68.9918 178.512 75.5478L179.508 76.5432C186.315 69.7339 190.526 60.325 190.526 49.9335H189.118ZM187.71 39.9106C188.625 43.0929 189.118 46.4552 189.118 49.9335H190.526C190.526 46.3216 190.014 42.8284 189.063 39.5216L187.71 39.9106ZM151.502 52.4603L151.501 86.8572L152.909 86.8572L152.91 52.4604L151.502 52.4603ZM133.644 81.9392L152.794 52.8474L151.618 52.0733L132.468 81.165L133.644 81.9392ZM133.862 81.3161L133.515 81.0181L132.597 82.0861L132.944 82.384L133.862 81.3161ZM152.218 86.1533C146.277 86.048 140.007 84.5163 133.73 81.2265L133.076 82.4736C139.539 85.8606 146.024 87.4517 152.193 87.5611L152.218 86.1533ZM72.4708 64.9914C69.0361 61.5553 64.289 59.4286 59.0467 59.4286V60.8366C63.9003 60.8366 68.2934 62.804 71.4749 65.9868L72.4708 64.9914ZM78.0311 78.4208C78.0311 73.1766 75.9054 68.4276 72.4708 64.9914L71.4749 65.9868C74.6564 69.1697 76.623 73.5648 76.623 78.4208H78.0311ZM71.5663 92.6939C75.5345 89.216 78.0311 84.1088 78.0311 78.4208H76.623C76.623 83.6878 74.3131 88.4142 70.6383 91.6351L71.5663 92.6939ZM69.6113 94.3433L71.5562 92.7026L70.6484 91.6264L68.7034 93.2671L69.6113 94.3433ZM56.2992 97.2009C60.3532 97.7902 64.942 97.1621 69.5202 94.4085L68.7945 93.2019C64.5097 95.779 60.2516 96.3527 56.5018 95.8076L56.2992 97.2009ZM45.6232 91.8508C48.4438 94.6708 52.1348 96.5956 56.2992 97.2009L56.5018 95.8076C52.6451 95.247 49.2302 93.466 46.6188 90.8551L45.6232 91.8508ZM40.0623 78.4208C40.0623 83.2927 41.8038 87.8044 45.609 91.8361L46.633 90.8697C43.0634 87.0876 41.4703 82.9176 41.4703 78.4208H40.0623ZM45.6226 64.9914C42.1879 68.4276 40.0623 73.1766 40.0623 78.4208H41.4703C41.4703 73.5648 43.4369 69.1697 46.6184 65.9868L45.6226 64.9914ZM59.0467 59.4286C53.8044 59.4286 49.0573 61.5553 45.6226 64.9914L46.6184 65.9868C49.7999 62.804 54.193 60.8366 59.0467 60.8366V59.4286ZM430.344 102.975C426.91 99.5384 422.163 97.4118 416.92 97.4118V98.8198C421.774 98.8198 426.167 100.787 429.349 103.97L430.344 102.975ZM435.905 116.404C435.905 111.16 433.779 106.411 430.344 102.975L429.349 103.97C432.53 107.153 434.497 111.548 434.497 116.404H435.905ZM430.521 129.654C433.852 126.233 435.905 121.558 435.905 116.404H434.497C434.497 121.176 432.597 125.503 429.512 128.672L430.521 129.654ZM419.797 135.17C423.969 134.529 427.697 132.555 430.521 129.654L429.512 128.672C426.898 131.358 423.447 133.185 419.584 133.778L419.797 135.17ZM406.323 132.316C410.888 135.137 415.599 135.814 419.797 135.17L419.584 133.778C415.699 134.374 411.329 133.754 407.063 131.119L406.323 132.316ZM404.477 130.742L406.234 132.251L407.151 131.183L405.395 129.674L404.477 130.742ZM397.956 117.278C398.202 122.646 400.665 127.438 404.475 130.74L405.397 129.676C401.87 126.619 399.59 122.184 399.363 117.214L397.956 117.278ZM403.496 102.975C400.206 106.266 397.921 110.737 397.955 117.25L399.363 117.242C399.331 111.116 401.46 107.004 404.492 103.97L403.496 102.975ZM416.92 97.4118C411.678 97.4118 406.931 99.5384 403.496 102.975L404.492 103.97C407.674 100.787 412.067 98.8198 416.92 98.8198V97.4118ZM219 126.955C234.241 126.955 248.038 133.135 258.026 143.128L259.022 142.132C248.781 131.886 234.63 125.547 219 125.547V126.955ZM179.974 143.128C189.962 133.135 203.759 126.955 219 126.955V125.547C203.371 125.547 189.22 131.886 178.978 142.132L179.974 143.128ZM163.808 182.171C163.808 166.923 169.985 153.12 179.974 143.128L178.978 142.132C168.736 152.378 162.4 166.535 162.4 182.171H163.808ZM179.974 221.214C169.985 211.222 163.808 197.419 163.808 182.171H162.4C162.4 197.807 168.736 211.964 178.978 222.21L179.974 221.214ZM219 237.387C203.759 237.387 189.962 231.207 179.974 221.214L178.978 222.21C189.22 232.456 203.371 238.795 219 238.795V237.387ZM258.026 221.214C248.038 231.207 234.241 237.387 219 237.387V238.795C234.63 238.795 248.781 232.456 259.022 222.21L258.026 221.214ZM274.192 182.171C274.192 197.419 268.015 211.222 258.026 221.214L259.022 222.21C269.264 211.964 275.6 197.807 275.6 182.171H274.192ZM258.026 143.128C268.015 153.12 274.192 166.923 274.192 182.171H275.6C275.6 166.535 269.264 152.378 259.022 142.132L258.026 143.128ZM18.3965 249.559C22.2761 248.959 26.641 249.572 30.9042 252.195L31.6421 250.996C27.0793 248.189 22.3737 247.519 18.1813 248.167L18.3965 249.559ZM8.47661 254.673C11.0879 251.986 14.5353 250.156 18.3965 249.559L18.1813 248.167C14.0127 248.812 10.2878 250.789 7.46689 253.692L8.47661 254.673ZM3.50332 266.93C3.50332 262.163 5.39805 257.841 8.47661 254.673L7.46689 253.692C4.14318 257.112 2.09532 261.782 2.09532 266.93H3.50332ZM8.65143 279.364C5.46993 276.181 3.50332 271.786 3.50332 266.93H2.09532C2.09532 272.174 4.22091 276.923 7.65561 280.359L8.65143 279.364ZM21.0797 284.514C16.226 284.514 11.8329 282.547 8.65143 279.364L7.65561 280.359C11.0903 283.795 15.8374 285.922 21.0797 285.922V284.514ZM33.508 279.364C30.3265 282.547 25.9334 284.514 21.0797 284.514V285.922C26.322 285.922 31.0691 283.795 34.5038 280.359L33.508 279.364ZM38.6365 266.086C38.6696 272.22 36.5394 276.331 33.508 279.364L34.5038 280.359C37.7929 277.069 40.0797 272.6 40.0445 266.078L38.6365 266.086ZM32.545 253.607C36.1036 256.665 38.4067 261.119 38.6373 266.114L40.0438 266.049C39.7947 260.654 37.3059 255.841 33.4626 252.539L32.545 253.607ZM30.8161 252.131L32.5468 253.609L33.4609 252.538L31.7302 251.06L30.8161 252.131ZM69.6736 289.018C65.1062 286.187 60.3899 285.504 56.1874 286.145L56.3997 287.536C60.2886 286.943 64.6639 287.569 68.9318 290.215L69.6736 289.018ZM71.5411 290.619L69.7629 289.083L68.8425 290.149L70.6207 291.685L71.5411 290.619ZM78.0113 304.044C77.7677 298.698 75.3254 293.923 71.5439 290.622L70.6179 291.682C74.1192 294.739 76.3792 299.158 76.6047 304.108L78.0113 304.044ZM72.4708 318.342C75.7615 315.05 78.0463 310.578 78.012 304.072L76.604 304.08C76.6362 310.198 74.508 314.312 71.4749 317.347L72.4708 318.342ZM59.0467 323.905C64.289 323.905 69.0361 321.778 72.4708 318.342L71.4749 317.347C68.2934 320.53 63.9003 322.497 59.0467 322.497L59.0467 323.905ZM45.6226 318.342C49.0573 321.778 53.8044 323.905 59.0467 323.905V322.497C54.193 322.497 49.7999 320.53 46.6184 317.347L45.6226 318.342ZM40.0623 304.913C40.0623 310.157 42.1879 314.906 45.6226 318.342L46.6184 317.347C43.4369 314.164 41.4703 309.769 41.4703 304.913H40.0623ZM45.4558 291.652C42.1192 295.074 40.0623 299.754 40.0623 304.913H41.4703C41.4703 300.136 43.3734 295.805 46.4639 292.635L45.4558 291.652ZM56.1874 286.145C52.0139 286.781 48.2833 288.753 45.4558 291.652L46.4639 292.635C49.0812 289.951 52.5339 288.126 56.3997 287.536L56.1874 286.145ZM382.393 286.13C378.143 285.511 373.351 286.241 368.706 289.211L369.465 290.397C373.81 287.619 378.257 286.95 382.19 287.523L382.393 286.13ZM393.261 291.667C390.405 288.731 386.63 286.746 382.393 286.13L382.19 287.523C386.115 288.094 389.609 289.932 392.252 292.649L393.261 291.667ZM398.641 304.913C398.641 299.761 396.59 295.088 393.261 291.667L392.252 292.649C395.335 295.817 397.233 300.143 397.233 304.913H398.641ZM393.081 318.342C396.515 314.906 398.641 310.157 398.641 304.913H397.233C397.233 309.769 395.266 314.164 392.085 317.347L393.081 318.342ZM379.657 323.905C384.899 323.905 389.646 321.778 393.081 318.342L392.085 317.347C388.903 320.53 384.51 322.497 379.657 322.497V323.905ZM366.232 318.342C369.667 321.778 374.414 323.905 379.657 323.905V322.497C374.803 322.497 370.41 320.53 367.228 317.347L366.232 318.342ZM360.672 304.913C360.672 310.157 362.798 314.906 366.232 318.342L367.228 317.347C364.047 314.164 362.08 309.769 362.08 304.913H360.672ZM366.526 291.2C362.914 294.655 360.672 299.523 360.672 304.913H362.08C362.08 299.922 364.154 295.417 367.499 292.218L366.526 291.2ZM368.609 289.286L366.536 291.191L367.489 292.228L369.562 290.323L368.609 289.286ZM419.642 248.145C415.392 247.529 410.599 248.263 405.949 251.241L406.708 252.427C411.059 249.64 415.508 248.969 419.441 249.538L419.642 248.145ZM430.521 253.679C427.662 250.743 423.884 248.759 419.642 248.145L419.441 249.538C423.37 250.107 426.866 251.944 429.512 254.662L430.521 253.679ZM435.905 266.93C435.905 261.776 433.852 257.1 430.521 253.679L429.512 254.662C432.597 257.83 434.497 262.157 434.497 266.93H435.905ZM430.344 280.359C433.779 276.923 435.905 272.174 435.905 266.93H434.497C434.497 271.786 432.53 276.181 429.349 279.364L430.344 280.359ZM416.92 285.922C422.163 285.922 426.91 283.795 430.344 280.359L429.349 279.364C426.167 282.547 421.774 284.514 416.92 284.514V285.922ZM403.496 280.359C406.931 283.795 411.678 285.922 416.92 285.922V284.514C412.067 284.514 407.674 282.547 404.492 279.364L403.496 280.359ZM397.936 266.93C397.936 272.174 400.062 276.923 403.496 280.359L404.492 279.364C401.311 276.181 399.344 271.786 399.344 266.93H397.936ZM403.764 253.242C400.167 256.695 397.936 261.553 397.936 266.93H399.344C399.344 261.951 401.408 257.455 404.739 254.258L403.764 253.242ZM405.851 251.316L403.774 253.232L404.729 254.267L406.806 252.351L405.851 251.316ZM21.0797 98.8198C25.9334 98.8198 30.3265 100.787 33.508 103.97L34.5038 102.975C31.0691 99.5384 26.322 97.4118 21.0797 97.4118V98.8198ZM8.65143 103.97C11.8329 100.787 16.226 98.8198 21.0797 98.8198V97.4118C15.8374 97.4118 11.0903 99.5384 7.65561 102.975L8.65143 103.97ZM3.50332 116.404C3.50332 111.548 5.46993 107.153 8.65143 103.97L7.65561 102.975C4.22091 106.411 2.09532 111.16 2.09532 116.404H3.50332ZM8.89597 129.078C5.17774 125.276 3.50332 121.011 3.50332 116.404H2.09532C2.09532 121.395 3.92549 126.009 7.88925 130.063L8.89597 129.078ZM18.7964 133.829C14.9666 133.327 11.5319 131.619 8.8812 129.064L7.90402 130.077C10.7676 132.838 14.4792 134.683 18.6133 135.225L18.7964 133.829ZM31.2268 130.945C26.995 133.642 22.6578 134.336 18.7964 133.829L18.6133 135.225C22.7862 135.772 27.4589 135.016 31.9836 132.132L31.2268 130.945ZM33.191 129.143L31.1314 131.017L32.079 132.059L34.1386 130.185L33.191 129.143ZM38.6561 116.404C38.6561 121.423 36.5586 125.951 33.1805 129.153L34.1491 130.175C37.7972 126.717 40.0641 121.824 40.0641 116.404H38.6561ZM33.508 103.97C36.6895 107.153 38.6561 111.548 38.6561 116.404H40.0641C40.0641 111.16 37.9385 106.411 34.5038 102.975L33.508 103.97ZM378.786 60.8575C384.955 60.8223 389.057 62.9579 392.085 65.9868L393.081 64.9914C389.795 61.7044 385.335 59.4121 378.778 59.4495L378.786 60.8575ZM367.228 65.9868C370.225 62.9886 374.298 61.0723 378.816 60.8567L378.749 59.4503C373.869 59.6832 369.468 61.7543 366.232 64.9914L367.228 65.9868ZM362.099 79.2553C362.067 73.1348 364.195 69.021 367.228 65.9868L366.232 64.9914C362.942 68.2833 360.657 72.7551 360.691 79.2628L362.099 79.2553ZM368.098 91.6626C364.59 88.606 362.325 84.1827 362.099 79.227L360.692 79.2912C360.936 84.6433 363.384 89.4229 367.173 92.7242L368.098 91.6626ZM369.868 93.1892L368.096 91.6603L367.176 92.7265L368.949 94.2554L369.868 93.1892ZM382.308 95.7965C378.42 96.3905 374.047 95.7661 369.779 93.1237L369.038 94.3208C373.605 97.1486 378.32 97.8302 382.521 97.1884L382.308 95.7965ZM392.242 90.6958C389.625 93.3803 386.173 95.206 382.308 95.7965L382.521 97.1884C386.694 96.5508 390.424 94.5786 393.25 91.6785L392.242 90.6958ZM397.233 78.4208C397.233 83.1965 395.331 87.5263 392.242 90.6958L393.25 91.6785C396.585 88.2567 398.641 83.5782 398.641 78.4208H397.233ZM392.085 65.9868C395.266 69.1697 397.233 73.5648 397.233 78.4208L398.641 78.4208C398.641 73.1766 396.515 68.4276 393.081 64.9914L392.085 65.9868Z" fill="#5930DD"/>
<path opacity="0.5" fill-rule="evenodd" clip-rule="evenodd" d="M292.12 20.9873C297.77 22.304 302.82 25.18 306.786 29.1365C312.325 34.6609 315.752 42.2923 315.752 50.7226C315.752 59.1529 312.325 66.7843 306.786 72.3086C301.241 77.8395 293.581 81.2588 285.12 81.2588C276.659 81.2588 268.998 77.8395 263.453 72.3086C257.915 66.7843 254.488 59.1529 254.488 50.7226C254.488 44.8183 256.169 39.3059 259.079 34.6348L292.12 67.5917V20.9873Z" fill="#5930DD"/>
<path opacity="0.5" fill-rule="evenodd" clip-rule="evenodd" d="M145.88 20.9873V73.7927L175.246 29.8574C180.371 35.3161 183.512 42.6526 183.512 50.7226C183.512 59.1529 180.085 66.7843 174.547 72.3086C169.002 77.8395 161.341 81.2588 152.88 81.2588C144.419 81.2588 136.759 77.8395 131.214 72.3086C125.675 66.7843 122.248 59.1529 122.248 50.7226C122.248 42.2923 125.675 34.6609 131.214 29.1365C135.18 25.18 140.23 22.304 145.88 20.9873Z" fill="#5930DD"/>
</svg>
