<svg width="211" height="134" viewBox="0 0 211 134" fill="none" xmlns="http://www.w3.org/2000/svg">
<path fill-rule="evenodd" clip-rule="evenodd" d="M208.458 0H87.2525C85.8486 0 84.7107 1.14153 84.7107 2.54981V40.5482C84.7107 41.9563 85.8486 43.098 87.2525 43.098H172.699L170.186 57.7161L185.009 43.098H208.458C209.862 43.098 211 41.9563 211 40.5482V2.54981C211 1.14153 209.862 0 208.458 0Z" fill="#6330DD"/>
<path d="M200.635 10.0859H79.4293C78.0254 10.0859 76.8875 11.2275 76.8875 12.6357V50.6342C76.8875 52.0422 78.0254 53.184 79.4293 53.184H164.875L162.363 67.802L177.186 53.184H200.635C202.039 53.184 203.177 52.0422 203.177 50.6342V12.6357C203.177 11.2275 202.039 10.0859 200.635 10.0859Z" fill="white"/>
<path opacity="0.4" fill-rule="evenodd" clip-rule="evenodd" d="M164.06 24.0947V28.5775H124.944V24.0947H164.06Z" fill="#6330DD"/>
<path opacity="0.4" fill-rule="evenodd" clip-rule="evenodd" d="M180.266 33.6211V38.1039H124.944V33.6211H180.266Z" fill="#6330DD"/>
<ellipse cx="101.475" cy="30.8193" rx="13.97" ry="14.0088" fill="#6330DD"/>
<path fill-rule="evenodd" clip-rule="evenodd" d="M108.903 39.4062C108.565 39.618 108.228 39.7451 107.826 39.7451C107.278 39.7451 106.686 39.4698 106.285 39.0673L99.1491 31.9079L98.4101 32.6492C98.2834 32.7763 98.199 32.9882 98.199 33.2V34.4921C98.199 34.7039 98.1356 34.8945 97.9878 35.0428L96.7844 36.2501C96.5733 36.3772 96.4466 36.462 96.2355 36.462C96.0243 36.462 95.8343 36.3984 95.6865 36.2501L90.9783 31.5266C90.7038 31.2512 90.7038 30.7852 90.9783 30.5099L92.1818 29.3025C92.3084 29.1754 92.5196 29.0907 92.7307 29.0907H94.0186C94.2297 29.0907 94.4197 29.0272 94.5675 28.8789L98.8746 24.5578C99.0012 24.4307 99.0857 24.2189 99.0857 24.0071V22.715C99.0857 22.5032 99.149 22.3126 99.2968 22.1643L100.437 20.9569C100.648 20.8298 100.775 20.7451 100.986 20.7451C101.197 20.7451 101.387 20.8087 101.598 20.9569L106.306 25.6805C106.581 25.9558 106.581 26.4218 106.306 26.6972L105.103 27.9045C104.976 28.0316 104.765 28.1164 104.554 28.1164H103.266C103.055 28.1164 102.865 28.1799 102.717 28.3282L101.978 29.0695V29.1331L109.199 36.2925C110.043 37.161 109.98 38.6437 108.903 39.4062L108.903 39.4062Z" fill="white"/>
<path fill-rule="evenodd" clip-rule="evenodd" d="M2.54136 66.1973H123.727C125.131 66.1973 126.269 67.3354 126.269 68.7394V106.623C126.269 108.027 125.131 109.165 123.727 109.165H38.295L40.8071 123.739L25.9868 109.165H2.54136C1.13773 109.165 -4.57764e-05 108.027 -4.57764e-05 106.623V68.7394C-4.57764e-05 67.3354 1.13773 66.1973 2.54136 66.1973Z" fill="#6330DD"/>
<path d="M10.3851 76.457H131.571C132.975 76.457 134.112 77.5951 134.112 78.9992V116.883C134.112 118.287 132.975 119.425 131.571 119.425H46.1387L48.6508 133.999L33.8305 119.425H10.3851C8.98148 119.425 7.8437 118.287 7.8437 116.883V78.9992C7.8437 77.5951 8.98148 76.457 10.3851 76.457Z" fill="white"/>
<path opacity="0.4" fill-rule="evenodd" clip-rule="evenodd" d="M95.5551 90.292V94.7748H56.439V90.292H95.5551Z" fill="#6330DD"/>
<path opacity="0.4" fill-rule="evenodd" clip-rule="evenodd" d="M112.319 99.8184V104.301H56.9978V99.8184H112.319Z" fill="#6330DD"/>
<ellipse cx="32.9693" cy="97.0166" rx="13.97" ry="14.0088" fill="#6330DD"/>
<path fill-rule="evenodd" clip-rule="evenodd" d="M40.9032 105.406C40.5654 105.618 40.2276 105.745 39.8265 105.745C39.2775 105.745 38.6864 105.47 38.2852 105.067L31.1491 97.9079L30.4101 98.6492C30.2834 98.7763 30.199 98.9882 30.199 99.2V100.492C30.199 100.704 30.1356 100.895 29.9878 101.043L28.7844 102.25C28.5733 102.377 28.4466 102.462 28.2355 102.462C28.0243 102.462 27.8343 102.398 27.6865 102.25L22.9783 97.5266C22.7038 97.2512 22.7038 96.7852 22.9783 96.5099L24.1818 95.3025C24.3084 95.1754 24.5196 95.0907 24.7307 95.0907H26.0186C26.2297 95.0907 26.4197 95.0272 26.5675 94.8789L30.8746 90.5578C31.0012 90.4307 31.0857 90.2189 31.0857 90.0071V88.715C31.0857 88.5032 31.149 88.3126 31.2968 88.1643L32.4369 86.9569C32.6481 86.8298 32.7747 86.7451 32.9859 86.7451C33.197 86.7451 33.387 86.8087 33.5981 86.9569L38.3063 91.6805C38.5808 91.9558 38.5808 92.4218 38.3063 92.6972L37.1029 93.9045C36.9762 94.0316 36.7651 94.1164 36.554 94.1164H35.2661C35.0549 94.1164 34.8649 94.1799 34.7171 94.3282L33.9782 95.0695V95.1331L41.1988 102.293C42.0434 103.161 41.98 104.644 40.9033 105.406L40.9032 105.406Z" fill="white"/>
</svg>
