<svg width="132" height="142" viewBox="0 0 132 142" fill="none" xmlns="http://www.w3.org/2000/svg">
<path fill-rule="evenodd" clip-rule="evenodd" d="M119.034 35.3746C117.234 36.1653 116.144 37.8432 116.043 39.9779C115.927 42.419 117.369 44.7246 120.221 46.6724C120.19 46.7039 120.159 46.735 120.128 46.7657C118.243 48.6469 116.487 49.6032 115.052 49.5366C114.198 49.4927 113.471 50.1578 113.43 51.0147C113.389 51.872 114.049 52.6006 114.904 52.641C115.004 52.6459 115.103 52.6481 115.202 52.6481C117.476 52.6481 119.868 51.4116 122.316 48.9683C122.63 48.6553 122.955 48.321 123.281 47.9684C125.749 48.3347 128.349 47.2017 130.392 44.7384C131.617 43.263 132.159 41.5217 131.96 39.7022C131.866 38.8493 131.101 38.237 130.249 38.3271C129.398 38.4208 128.784 39.188 128.877 40.0418C128.984 41.0164 128.692 41.9279 128.009 42.7511C127.759 43.0508 126.949 43.9592 125.846 44.5009C126.26 43.7332 126.596 42.9167 126.802 42.0549C127.353 39.7617 126.728 37.6576 125.09 36.2825C124.022 35.3874 122.642 34.915 121.275 34.915C120.504 34.915 119.738 35.0651 119.034 35.3746ZM119.14 40.1253C119.186 39.1747 119.569 38.5336 120.279 38.221C120.582 38.0878 120.923 38.0239 121.272 38.0239C121.924 38.0239 122.602 38.2485 123.099 38.6663C123.822 39.2724 124.06 40.1928 123.787 41.3281C123.537 42.371 122.963 43.39 122.285 44.3144C120.78 43.346 119.058 41.8533 119.14 40.1253Z" fill="#6330DD"/>
<path fill-rule="evenodd" clip-rule="evenodd" d="M42.3069 120.476L47.1076 136.56L47.1134 136.558C47.4093 137.876 48.4353 139.152 50.19 140.168C52.2959 141.387 55.0514 141.997 57.8032 142H57.8382C60.5675 141.997 63.2893 141.396 65.3647 140.196C67.0312 139.231 68.0293 138.025 68.3602 136.77L74.3136 120.192L68.8847 113.448L42.3069 120.476Z" fill="#6330DD"/>
<path fill-rule="evenodd" clip-rule="evenodd" d="M6.80005 101.137L11.257 116.071L11.2628 116.069C11.5374 117.292 12.4899 118.478 14.1192 119.42C18.0224 121.679 24.3306 121.69 28.209 119.447C29.7569 118.551 30.6832 117.431 30.9906 116.265L36.5183 100.873L31.4779 94.6113L6.80005 101.137Z" fill="#6330DD"/>
<path fill-rule="evenodd" clip-rule="evenodd" d="M117.017 84.6365L92.3394 91.1619L96.7968 106.096L96.8021 106.094C97.0767 107.317 98.0292 108.503 99.6589 109.446C103.562 111.705 109.87 111.715 113.749 109.472C115.296 108.576 116.222 107.456 116.53 106.291L123.882 75.7402L117.017 84.6365Z" fill="#6330DD"/>
<path fill-rule="evenodd" clip-rule="evenodd" d="M49.9226 35.4034C18.51 47.6026 1.08216 74.406 9.89995 97.2135C18.7168 120.021 50.4401 130.196 81.8527 117.997C113.265 105.798 131.583 77.4203 122.765 54.6123C116.667 38.8359 99.1849 29.8575 78.5879 29.8584C69.4082 29.8588 59.6069 31.6428 49.9226 35.4034Z" fill="white"/>
<path opacity="0.6" fill-rule="evenodd" clip-rule="evenodd" d="M13.7931 38.8683C9.03843 44.333 13.2225 59.0105 14.3637 62.6956C16.5086 59.5255 21.1401 56.2742 27.3567 56.3372C27.9463 56.3434 30.0337 58.6779 30.0337 58.6779C30.0337 58.6779 30.583 57.4303 30.9104 56.723C27.0793 47.7255 20.2475 37.8764 15.8658 37.876C15.0875 37.8755 14.3867 38.1863 13.7931 38.8683Z" fill="#6330DD"/>
<path opacity="0.6" fill-rule="evenodd" clip-rule="evenodd" d="M56.0622 53.2298C52.4461 55.1212 46.8648 60.014 44.1692 63.066C50.1881 65.4481 56.2895 67.6964 60.7571 75.3558C61.2196 76.1483 60.2645 83.0102 60.2645 83.0102L63.0837 80.4657C63.0837 80.4657 63.7491 78.7386 63.8727 78.3416C65.7864 72.2363 67.4512 64.7066 66.252 58.4609C65.304 53.5246 63.944 51.4214 61.4269 51.4219C60.0346 51.4223 58.2878 52.0661 56.0622 53.2298Z" fill="#6330DD"/>
<path fill-rule="evenodd" clip-rule="evenodd" d="M13.4343 80.6204L13.4095 80.5955L13.138 80.806C12.9718 80.9197 12.8137 81.0453 12.6591 81.1767L2.00464 89.427L7.05166 95.9106L19.8511 115.418L29.1703 110.803C30.0284 110.592 30.8045 110.21 31.4752 109.662L31.5346 109.633L31.5266 109.616C33.2211 108.198 34.2377 105.73 34.2377 102.399C34.2377 94.6959 28.8075 85.3094 22.1099 81.4338C20.1545 80.3021 18.3072 79.7666 16.6722 79.7666C15.4632 79.7666 14.3704 80.0592 13.4343 80.6204Z" fill="#6330DD"/>
<path opacity="0.6" fill-rule="evenodd" clip-rule="evenodd" d="M76.9688 33.2141C67.6886 35.0412 53.5597 39.9069 45.3582 48.6735C45.3582 48.6735 48.3386 49.3444 53.5079 50.442C62.0652 43.0326 70.9375 39.4891 76.9688 37.7726C80.9412 36.6422 83.6793 36.3048 84.2822 36.1778C84.2822 36.1778 80.834 34.6704 77.0025 33.207C76.991 33.2093 76.9804 33.2119 76.9688 33.2141Z" fill="#6330DD"/>
<path fill-rule="evenodd" clip-rule="evenodd" d="M13.0324 40.2663C9.16502 44.8412 13.2224 60.5994 14.3635 64.285C16.8997 60.5359 22.0349 57.0408 30.0336 58.6782C26.1835 49.6368 19.3415 39.2891 15.0139 39.2891C14.2696 39.2891 13.5998 39.5954 13.0324 40.2663Z" fill="#6330DD"/>
<path fill-rule="evenodd" clip-rule="evenodd" d="M53.2058 55.8431C49.5897 57.7341 46.3682 60.4486 43.6726 63.5011C50.8642 66.3466 55.8151 71.1804 60.3141 83.1052C60.1799 82.7495 60.8922 81.3514 61.0167 80.9549C62.93 74.8491 64.5947 67.3194 63.3951 61.0742C62.4476 56.1379 61.0876 54.0347 58.5705 54.0352C57.1786 54.0352 55.4319 54.6789 53.2058 55.8431Z" fill="#6330DD"/>
<path fill-rule="evenodd" clip-rule="evenodd" d="M0 95.6583C0 102.792 5.02798 111.483 11.2299 115.072C17.4322 118.661 22.4602 115.788 22.4602 108.655C22.4602 101.522 17.4322 92.8301 11.2299 89.2413C9.41716 88.1921 7.70543 87.6953 6.18951 87.6953C2.51886 87.6958 0 90.6101 0 95.6583Z" fill="white"/>
<path fill-rule="evenodd" clip-rule="evenodd" d="M8.26203 101.076C8.26203 102.804 7.04424 103.499 5.54249 102.63C4.0403 101.761 2.82251 99.6562 2.82251 97.9286C2.82251 96.201 4.0403 95.5053 5.54249 96.3742C7.04424 97.2435 8.26203 99.3485 8.26203 101.076Z" fill="#6330DD"/>
<path fill-rule="evenodd" clip-rule="evenodd" d="M17.4908 106.452C17.4908 108.18 16.273 108.875 14.7712 108.006C13.2691 107.137 12.0513 105.032 12.0513 103.305C12.0513 101.577 13.2691 100.881 14.7712 101.75C16.273 102.62 17.4908 104.724 17.4908 106.452Z" fill="#6330DD"/>
<path fill-rule="evenodd" clip-rule="evenodd" d="M41.7164 84.621C41.7164 86.3486 40.4986 87.0443 38.9968 86.175C37.4946 85.3061 36.2769 83.2011 36.2769 81.4735C36.2769 79.746 37.4946 79.0502 38.9968 79.9191C40.4986 80.7885 41.7164 82.8934 41.7164 84.621Z" fill="#6330DD"/>
<path fill-rule="evenodd" clip-rule="evenodd" d="M21.513 74.1093C21.513 75.8369 20.2952 76.5326 18.7935 75.6633C17.2913 74.7944 16.0735 72.6894 16.0735 70.9618C16.0735 69.2342 17.2913 68.5385 18.7935 69.4074C20.2952 70.2767 21.513 72.3817 21.513 74.1093Z" fill="#6330DD"/>
<path opacity="0.6" fill-rule="evenodd" clip-rule="evenodd" d="M76.9688 33.2141V37.7726C80.9411 36.6422 83.6792 36.3048 84.2821 36.1778C84.2821 36.1778 80.8339 34.6704 77.0024 33.207C76.9909 33.2093 76.9803 33.2119 76.9688 33.2141Z" fill="#6330DD"/>
<path opacity="0.6" fill-rule="evenodd" clip-rule="evenodd" d="M78.5055 15.1287C78.5285 23.1672 72.8879 32.9577 65.9085 36.9971C61.3382 39.6411 57.3273 39.1642 55.0968 36.2623C53.9193 34.7332 53.2376 32.5292 53.2301 29.7538C53.207 21.7162 58.8468 11.9261 65.8261 7.88669C69.849 5.55884 73.439 5.64985 75.7629 7.68467C77.4715 9.17827 78.4957 11.7228 78.5055 15.1287Z" fill="#6330DD"/>
<path fill-rule="evenodd" clip-rule="evenodd" d="M77.6255 14.1873C77.6485 22.2272 72.0079 32.0172 65.0285 36.0558C61.0092 38.3823 57.4205 38.2926 55.0966 36.2622C53.9191 34.7336 53.2373 32.5296 53.2298 29.7537C53.2068 21.7166 58.8465 11.9261 65.8259 7.88663C69.8487 5.55878 73.4387 5.6498 75.7627 7.68506C76.9375 9.21373 77.6184 11.4155 77.6255 14.1873Z" fill="white"/>
<path opacity="0.6" fill-rule="evenodd" clip-rule="evenodd" d="M77.3767 2.59287C77.3696 2.58932 77.3634 2.58577 77.3559 2.58177C77.2916 2.54404 77.2252 2.50763 77.1596 2.47255C77.0976 2.43836 77.0356 2.40551 76.9727 2.37532C76.9678 2.37132 76.9616 2.36777 76.9554 2.36555C76.8987 2.33625 76.8415 2.30827 76.7844 2.28252C76.7711 2.27542 76.7578 2.2692 76.7445 2.26432C76.6803 2.2328 76.6147 2.20349 76.5492 2.17685C76.4801 2.14533 76.4105 2.11603 76.3405 2.08939C76.2701 2.06141 76.1996 2.03344 76.1279 2.00769C75.9799 1.95441 75.8306 1.90424 75.6787 1.8594C75.6277 1.84386 75.5781 1.82921 75.5272 1.81544C75.4993 1.80701 75.4714 1.79857 75.4435 1.79236C75.3806 1.77415 75.3172 1.75861 75.253 1.74396C75.2494 1.74263 75.2454 1.7413 75.2406 1.7413C75.1728 1.72442 75.1037 1.70844 75.0346 1.69423C74.8587 1.65516 74.6789 1.62231 74.4981 1.59655C74.4215 1.58457 74.3453 1.57347 74.2686 1.56503C74.1898 1.55526 74.1109 1.54549 74.0308 1.53839C73.9785 1.53351 73.9267 1.52862 73.873 1.52507C73.8527 1.52241 73.8332 1.52152 73.8124 1.52019C73.7552 1.5153 73.6972 1.51175 73.6387 1.50909C73.5807 1.50554 73.5222 1.50287 73.4628 1.50198C73.3113 1.49577 73.1572 1.49444 73.003 1.4971C72.078 1.50554 71.1048 1.64051 70.0917 1.90913C68.9412 2.21326 67.7407 2.69011 66.5043 3.34589C66.2748 3.46621 66.0454 3.59408 65.8137 3.72772L63.2483 2.23413C63.4388 2.12357 63.6293 2.01746 63.8184 1.91534C65.0468 1.25379 66.242 0.768507 67.3863 0.45194C68.3476 0.186876 69.2748 0.039914 70.1581 0.00705854C71.8986 -0.0573205 73.4713 0.31963 74.81 1.09928L77.3767 2.59287Z" fill="#6330DD"/>
<path opacity="0.6" fill-rule="evenodd" clip-rule="evenodd" d="M65.8137 3.72797C64.4107 4.53914 63.0516 5.53058 61.7541 6.66765C61.5286 6.86611 61.304 7.06813 61.0821 7.27725C60.03 8.25403 59.0226 9.32672 58.0733 10.4713C57.5311 11.1267 57.0065 11.8042 56.5042 12.5039C56.4253 12.6145 56.3465 12.725 56.269 12.8356C56.1817 12.9586 56.0966 13.0816 56.0116 13.2054C52.111 18.8846 49.6015 25.7554 49.6183 31.8434C49.6329 36.9786 51.4412 40.5909 54.3574 42.2892L51.7921 40.7956C48.8758 39.096 47.0662 35.4837 47.0516 30.3498C47.0348 24.2183 49.5798 17.2946 53.5273 11.5929C53.6194 11.4579 53.7142 11.3238 53.809 11.1915C53.8843 11.0845 53.9605 10.977 54.0385 10.8714C54.5905 10.1113 55.1668 9.37556 55.7666 8.66872C56.6087 7.67507 57.4947 6.73824 58.417 5.87379C58.6549 5.6509 58.8937 5.43201 59.1365 5.21934C60.4495 4.06496 61.8272 3.05665 63.2483 2.23438L65.8137 3.72797Z" fill="#6330DD"/>
<path fill-rule="evenodd" clip-rule="evenodd" d="M65.9084 36.9969C58.9291 41.035 53.2521 37.7934 53.2299 29.7536C53.2065 21.5104 59.174 11.2537 66.6416 7.44382C73.2422 4.10988 78.4837 7.40475 78.5054 15.1276C78.528 23.2407 72.8107 33.0152 65.9084 36.9969ZM74.4981 1.59688C70.384 0.942432 65.8145 3.0514 61.727 6.69747C54.3711 13.2592 48.5697 24.7862 49.7449 34.0523C49.7458 34.0617 49.7905 34.4364 49.7945 34.4453C50.9618 43.2661 58.3509 45.8688 66.5153 40.7979C75.2117 35.4047 82.1437 23.1452 82.1158 13.039C82.0936 5.22608 78.1085 2.10703 74.4981 1.59688Z" fill="#6330DD"/>
</svg>
