<svg width="184" height="130" viewBox="0 0 184 130" fill="none" xmlns="http://www.w3.org/2000/svg">
<path fill-rule="evenodd" clip-rule="evenodd" d="M181.22 0H46.0741C44.5387 0 43.2942 1.24342 43.2942 2.77739V104.473C43.2942 106.007 44.5387 107.25 46.0741 107.25H126.7H135.091H148.984H181.22C182.756 107.25 184 106.007 184 104.473V2.77739C184 1.24342 182.756 0 181.22 0Z" fill="#6330DD"/>
<path d="M172.02 9.20801H36.3334C34.7977 9.20801 33.553 10.4516 33.553 11.9858V110.972C33.553 112.506 34.7977 113.75 36.3334 113.75H143.576H155.72H172.02C173.555 113.75 174.8 112.506 174.8 110.972V11.9858C174.8 10.4516 173.555 9.20801 172.02 9.20801Z" fill="white"/>
<rect opacity="0.1" x="51.4119" y="74.75" width="8.11765" height="24.9167" fill="#6330DD"/>
<rect opacity="0.4" x="67.106" y="55.792" width="8.11765" height="43.875" fill="#6330DD"/>
<path opacity="0.4" fill-rule="evenodd" clip-rule="evenodd" d="M168.306 70.1455V73.9372H118.518V70.1455H168.306Z" fill="#6330DD"/>
<path opacity="0.4" fill-rule="evenodd" clip-rule="evenodd" d="M168.306 79.3545V83.1462H118.518V79.3545H168.306Z" fill="#6330DD"/>
<path opacity="0.4" fill-rule="evenodd" clip-rule="evenodd" d="M153.694 87.4795V91.2712H118.518V87.4795H153.694Z" fill="#6330DD"/>
<path opacity="0.4" fill-rule="evenodd" clip-rule="evenodd" d="M168.306 96.1455V99.9372H118.518V96.1455H168.306Z" fill="#6330DD"/>
<rect x="83.3411" y="55.792" width="8.11765" height="43.875" fill="#6330DD"/>
<rect x="99.5764" y="41.167" width="8.11765" height="58.5" fill="#6330DD"/>
<path fill-rule="evenodd" clip-rule="evenodd" d="M26.2471 83.3896C14.429 83.3896 4.84351 92.9781 4.84351 104.813C4.84351 116.647 14.429 126.235 26.2471 126.235C38.0651 126.235 47.6506 116.647 47.6506 104.813C47.6506 92.9782 38.0651 83.3896 26.2471 83.3896Z" fill="#6330DD"/>
<path fill-rule="evenodd" clip-rule="evenodd" d="M26.2472 87.7773C35.6447 87.7773 43.2671 95.4021 43.2671 104.813C43.2671 114.224 35.6447 121.848 26.2472 121.848C16.8494 121.848 9.22705 114.224 9.22705 104.813C9.22705 95.4021 16.8494 87.7773 26.2472 87.7773Z" fill="white"/>
<path fill-rule="evenodd" clip-rule="evenodd" d="M25.9764 96.9736C21.7974 96.9736 18.415 100.486 18.415 104.813C18.415 109.139 21.798 112.652 25.9764 112.652C30.1547 112.652 33.5377 109.139 33.5377 104.813C33.5377 100.486 30.1553 96.9736 25.9764 96.9736Z" fill="#6330DD"/>
<path fill-rule="evenodd" clip-rule="evenodd" d="M25.9766 98.0264C29.5656 98.0264 32.4858 101.058 32.4858 104.813C32.4858 108.566 29.5651 111.598 25.9766 111.598C22.388 111.598 19.4673 108.566 19.4673 104.813C19.4673 101.058 22.3875 98.0264 25.9766 98.0264Z" fill="#6330DD"/>
<path fill-rule="evenodd" clip-rule="evenodd" d="M27.73 79.083V89.9163H24.2231V79.083H27.73Z" fill="#6330DD"/>
<path fill-rule="evenodd" clip-rule="evenodd" d="M27.73 119.167V130H24.2231V119.167H27.73Z" fill="#6330DD"/>
<path fill-rule="evenodd" clip-rule="evenodd" d="M11.3647 102.787V106.297H0V102.787H11.3647Z" fill="#6330DD"/>
<path fill-rule="evenodd" clip-rule="evenodd" d="M51.4117 102.787V106.297H40.5881V102.787H51.4117Z" fill="#6330DD"/>
<path fill-rule="evenodd" clip-rule="evenodd" d="M111.23 11.7666L112.817 13.1502L89.222 40.2491L64.355 40.2486L39.7814 70.5389L38.1479 69.2113L63.3531 38.1431L88.2642 38.1426L111.23 11.7666Z" fill="#6330DD"/>
<path fill-rule="evenodd" clip-rule="evenodd" d="M113.076 11.9473V20.0419H110.972V14.0527L104.988 14.0533V11.9473H113.076Z" fill="#6330DD"/>
</svg>
