<svg xmlns="http://www.w3.org/2000/svg" width="74" height="74" viewBox="0 0 74 74" fill="none">
  <path
    d="M74 37C74 57.4345 57.4345 74 37 74C16.5655 74 0 57.4345 0 37C0 16.5655 16.5655 0 37 0C57.4345 0 74 16.5655 74 37Z"
    fill="black" />
  <path
    d="M21.5606 31.0013C20.51 30.6227 19.7595 29.6238 19.7595 28.4511C19.7595 26.9529 20.9836 25.7386 22.4936 25.7386C24.0036 25.7386 25.228 26.9529 25.228 28.4511C25.228 29.6238 24.4776 30.6227 23.4267 31.0013V45.0521C25.3829 44.9666 27.2017 44.6115 28.8178 44.0229V33.251C27.7669 32.8724 27.0164 31.8735 27.0164 30.7005C27.0164 29.2026 28.2408 27.988 29.7508 27.988C31.2608 27.988 32.4849 29.2026 32.4849 30.7005C32.4849 31.8735 31.7345 32.8724 30.6839 33.251V43.192C32.4806 42.2282 33.92 40.9241 34.8745 39.3495C34.2269 38.7704 33.8198 37.9321 33.8198 36.9995C33.8198 35.253 35.2474 33.8372 37.0077 33.8372C37.1523 33.8372 37.2948 33.8467 37.4341 33.8653C39.8622 29.6774 45.0683 27.1408 51.2802 27.0766L51.5215 27.0754H61.5001C62.0158 27.0754 62.4328 27.4901 62.4328 28.0013C62.4328 28.494 62.0447 28.8969 61.5549 28.925L61.5001 28.9265H59.7118L59.7121 42.9977C60.7624 43.3759 61.5132 44.3752 61.5132 45.5479C61.5132 47.046 60.2887 48.2603 58.7787 48.2603C57.2688 48.2603 56.0446 47.046 56.0446 45.5479C56.0446 44.3749 56.7951 43.3759 57.846 42.9977L57.8457 28.9265H52.4546L52.4549 42.9977C53.5058 43.3759 54.2563 44.3752 54.2563 45.5479C54.2563 47.046 53.0318 48.2603 51.5215 48.2603C50.0115 48.2603 48.7871 47.046 48.7871 45.5479C48.7871 44.3752 49.5379 43.3759 50.5885 42.9977V28.9469C48.6328 29.0326 46.8137 29.3874 45.198 29.9758V40.748C46.2483 41.1265 46.9991 42.1255 46.9991 43.2982C46.9991 44.7963 45.7749 46.0106 44.2646 46.0106C42.755 46.0106 41.5305 44.7963 41.5305 43.2982C41.5305 42.1255 42.281 41.1265 43.3316 40.748V30.8072C41.5348 31.7707 40.0955 33.0745 39.141 34.6495C39.7885 35.2286 40.1956 36.0668 40.1956 36.9995C40.1956 38.746 38.7684 40.1618 37.0077 40.1618C36.8631 40.1618 36.7207 40.1522 36.5813 40.1337C34.1532 44.3215 28.9468 46.8578 22.7356 46.922L22.4936 46.9235H12.5153C12 46.9235 11.5823 46.5089 11.5823 45.9977C11.5823 45.505 11.9707 45.1021 12.4603 45.074L12.5153 45.0724H14.3037V31.0013C13.2531 30.6227 12.5023 29.6238 12.5023 28.4511C12.5023 26.9529 13.7267 25.7386 15.2364 25.7386C16.7467 25.7386 17.9711 26.9529 17.9711 28.4511C17.9711 29.6238 17.2207 30.6227 16.1701 31.0013L16.1698 45.0724H21.5606V31.0013Z"
    fill="#F2F3F5" />
</svg>