<svg xmlns="http://www.w3.org/2000/svg" width="437" height="437" viewBox="0 0 437 437" fill="none">
  <path opacity="0.2" fill-rule="evenodd" clip-rule="evenodd"
    d="M218.5 0C97.8258 0 0 97.8258 0 218.5C0 339.174 97.8258 437 218.5 437C339.174 437 437 339.174 437 218.5C437 97.8258 339.174 0 218.5 0ZM276.668 355.61C276.647 356.695 276.702 357.78 276.831 358.856C276.831 358.856 179.659 359.167 179.768 358.331C179.877 357.472 179.932 356.875 179.932 356.517V320.207C171.785 321.163 164.522 321.103 158.142 320.029C151.762 318.942 146.756 317.247 143.124 314.968C139.493 312.676 136.297 309.847 133.549 306.469C130.79 303.103 128.914 300.023 127.932 297.254C126.903 294.383 125.914 291.494 124.966 288.589C123.973 285.581 123.363 283.826 123.144 283.349C121.16 279.732 118.193 276.426 114.234 273.406C110.264 270.398 107.298 267.987 105.313 266.185C103.339 264.37 103.111 262.628 104.659 260.945C115.663 254.678 128.096 262.628 141.968 284.781C149.45 297.075 162.548 300.692 181.262 295.643C183.34 285.992 187.923 277.204 194.458 270.338C168.928 265.277 149.995 254.917 137.671 239.257C125.348 223.609 119.186 204.57 119.186 182.166C119.186 161.207 125.239 143.028 137.344 127.606C132.502 111.946 133.156 95.4508 139.318 78.1077C145.709 77.618 152.863 79.0027 160.781 82.2613C168.71 85.508 174.26 88.277 177.456 90.5687C180.641 92.8607 183.454 94.9616 185.876 96.8948C198.428 93.0396 212.562 91.106 228.311 91.106C244.037 91.106 258.291 93.0396 271.062 96.8948C273.919 94.7227 277.115 92.4307 280.627 90.0194C284.16 87.6205 289.548 85.0303 296.811 82.2613C304.074 79.4923 310.781 78.3461 316.954 78.8238C322.887 95.9282 323.661 112.185 319.255 127.607C331.59 143.016 337.752 161.207 337.752 182.166C337.752 204.571 331.47 223.668 318.928 239.448C306.386 255.227 287.453 265.516 262.141 270.338C271.607 280.699 276.34 293.232 276.34 307.913V354.523C276.379 354.907 276.491 355.276 276.668 355.61Z"
    fill="#F2F3F5" />
</svg>