<svg xmlns="http://www.w3.org/2000/svg" width="20" height="20" viewBox="0 0 20 20" fill="none">
  <path fill-rule="evenodd" clip-rule="evenodd"
    d="M0 2C0 0.895431 0.895431 0 2 0H18C19.1046 0 20 0.895431 20 2V18C20 19.1046 19.1046 20 18 20H2C0.895431 20 0 19.1046 0 18V2ZM3 4C3 3.44772 3.44772 3 4 3H11.2525C12.1434 3 12.5895 4.07714 11.9596 4.70711L4.70711 11.9596C4.07714 12.5895 3 12.1434 3 11.2525V4ZM16 17C16.5523 17 17 16.5523 17 16V8.74755C17 7.85664 15.9229 7.41048 15.2929 8.04044L8.04044 15.2929C7.41048 15.9229 7.85664 17 8.74755 17H16Z"
    fill="#8F8F8F" />
</svg>