<?xml version="1.0" encoding="UTF-8"?>
<svg width="34px" height="39px" viewBox="0 0 34 39" version="1.1" xmlns="http://www.w3.org/2000/svg" xmlns:xlink="http://www.w3.org/1999/xlink">
    <!-- Generator: Sketch 63.1 (92452) - https://sketch.com -->
    <title>编组 32</title>
    <desc>Created with Sketch.</desc>
    <g id="Page-1" stroke="none" stroke-width="1" fill="none" fill-rule="evenodd">
        <g id="Home" transform="translate(-793.000000, -1844.000000)">
            <g id="编组-32" transform="translate(793.000000, 1844.000000)">
                <path d="M14.6254114,36 C5.12917643,34.8107876 -1.99606546,26.7592408 -2,17.2131757 L-2,7.73773664 L6.31270568,7.73773664 L6.31186471,3 L11.0618658,3.0008388 L11.0618658,7.73773664 L22.9364609,7.73773664 L22.9364609,3.0008388 L27.6864619,3 L27.685621,7.73773664 L35.9983266,7.73773664 L36,17.2132185 C35.9960526,26.7592708 28.8708407,34.8108476 19.3745886,36 L14.6254114,36 Z" id="路径" fill="#1E1E1E" transform="translate(17.000000, 19.500000) rotate(-90.000000) translate(-17.000000, -19.500000) "></path>
                <path d="M14.8817626,5.68350658 L10.3164934,5.68350658 L10.3164934,33.5783405 L14.8817623,33.5799868 C22.4470827,33.5799868 28.5799868,27.3351268 28.5799868,19.63173 C28.5799868,12.0567106 22.6497974,5.89202762 15.2588125,5.68865426 L14.8817626,5.68350658 Z" id="路径" fill="#FFFFFF"></path>
            </g>
        </g>
    </g>
</svg>