<svg width="256" height="256" viewBox="0 0 256 256" fill="none" xmlns="http://www.w3.org/2000/svg">
<path d="M256 0H0V256H256V0Z" fill="#FF0083"/>
<path fill-rule="evenodd" clip-rule="evenodd" d="M69.4174 82C75.5646 82 80.5482 86.9606 80.5482 93.0799C80.5482 97.871 77.4927 101.952 73.2158 103.498L73.2164 160.894C81.1785 160.544 88.5824 159.094 95.1606 156.69L95.1604 112.687C90.8835 111.142 87.828 107.06 87.828 102.269C87.828 96.15 92.8116 91.1895 98.9587 91.1895C105.106 91.1895 110.089 96.15 110.089 102.269C110.089 107.06 107.034 111.142 102.757 112.687L102.757 153.295C110.071 149.359 115.931 144.032 119.816 137.599C117.18 135.234 115.523 131.81 115.523 128C115.523 120.865 121.333 115.082 128.5 115.082C129.089 115.082 129.668 115.121 130.236 115.197C140.12 98.0896 161.313 87.7282 186.599 87.4663L187.583 87.4612H228.202C230.3 87.4612 232 89.1539 232 91.242C232 93.2555 230.419 94.9014 228.425 95.0164L228.202 95.0228H220.922L220.922 152.502C225.199 154.048 228.255 158.129 228.255 162.92C228.255 169.039 223.271 174 217.124 174C210.977 174 205.993 169.039 205.993 162.92C205.993 158.128 209.049 154.047 213.327 152.502L213.326 95.0228H191.38L191.381 152.502C195.658 154.048 198.713 158.129 198.713 162.92C198.713 169.039 193.729 174 187.583 174C181.436 174 176.452 169.039 176.452 162.92C176.452 158.129 179.507 154.048 183.784 152.502L183.784 95.1057C175.821 95.4556 168.418 96.9058 161.839 99.3096L161.84 143.313C166.117 144.858 169.172 148.939 169.172 153.731C169.172 159.849 164.188 164.811 158.041 164.811C151.894 164.811 146.911 159.849 146.911 153.731C146.911 148.939 149.966 144.858 154.243 143.313L154.243 102.705C146.929 106.641 141.069 111.968 137.184 118.401C139.82 120.765 141.477 124.19 141.477 128C141.477 135.134 135.667 140.918 128.5 140.918C127.911 140.918 127.332 140.879 126.764 140.803C116.881 157.91 95.6873 168.272 70.401 168.534L69.4174 168.539H28.7982C26.7005 168.539 25 166.846 25 164.758C25 162.744 26.5812 161.099 28.575 160.984L28.7982 160.977L36.078 160.977L36.078 103.498C31.801 101.952 28.7454 97.871 28.7454 93.0799C28.7454 86.9606 33.729 82 39.8761 82C46.0233 82 51.0069 86.9606 51.0069 93.0799C51.0069 97.8706 47.9519 101.951 43.6756 103.497L43.6743 160.977H65.6188L65.6191 103.498C61.3422 101.952 58.2867 97.871 58.2867 93.0799C58.2867 86.9606 63.2703 82 69.4174 82Z" fill="white"/>
</svg>
