<?xml version="1.0" standalone="no"?>
<!DOCTYPE svg PUBLIC "-//W3C//DTD SVG 20010904//EN"
 "http://www.w3.org/TR/2001/REC-SVG-20010904/DTD/svg10.dtd">
<svg version="1.0" xmlns="http://www.w3.org/2000/svg"
 width="60.000000pt" height="60.000000pt" viewBox="0 0 60.000000 60.000000"
 preserveAspectRatio="xMidYMid meet">

<g transform="translate(0.000000,60.000000) scale(0.100000,-0.100000)"
fill="#000000" stroke="none">
<path d="M191 578 c-109 -42 -191 -161 -191 -278 0 -64 31 -146 75 -198 83
-97 239 -127 357 -69 107 53 162 143 163 267 0 62 -5 85 -28 132 -68 139 -231
202 -376 146z m139 -120 c29 -63 25 -88 -26 -164 -47 -71 -52 -102 -29 -172
11 -34 -12 -27 -56 17 -35 34 -39 44 -39 88 0 50 8 68 66 137 18 21 38 60 45
87 7 27 14 49 16 49 2 0 13 -19 23 -42z m70 -140 c23 -39 26 -107 6 -146 -8
-15 -28 -37 -45 -50 l-30 -22 -16 29 c-8 17 -15 39 -15 50 0 18 70 170 78 171
1 0 11 -15 22 -32z"/>
</g>
</svg>
