<?xml version="1.0" standalone="no"?>
<!DOCTYPE svg PUBLIC "-//W3C//DTD SVG 20010904//EN"
 "http://www.w3.org/TR/2001/REC-SVG-20010904/DTD/svg10.dtd">
<svg version="1.0" xmlns="http://www.w3.org/2000/svg"
 width="256.000000pt" height="256.000000pt" viewBox="0 0 256.000000 256.000000"
 preserveAspectRatio="xMidYMid meet">

<g transform="translate(0.000000,256.000000) scale(0.100000,-0.100000)"
fill="#000000" stroke="none">
<path d="M1140 2554 c-293 -38 -549 -161 -758 -367 -182 -180 -303 -402 -358
-657 -26 -119 -26 -381 0 -500 54 -252 169 -465 349 -648 180 -182 402 -303
657 -358 119 -26 381 -26 500 0 255 55 477 176 657 358 180 183 295 396 349
648 26 119 26 381 0 500 -55 255 -176 477 -358 657 -180 176 -383 288 -628
344 -83 19 -331 33 -410 23z m-210 -749 c78 -40 78 -160 0 -200 -102 -53 -208
53 -155 155 28 55 98 75 155 45z m810 0 c102 -53 60 -215 -55 -215 -38 0 -83
26 -100 60 -53 103 52 208 155 155z m-1002 -211 c31 -20 54 -77 46 -112 -16
-66 -93 -107 -155 -82 -45 19 -69 56 -69 107 0 37 5 50 30 73 45 42 97 47 148
14z m376 12 c67 -28 93 -94 61 -156 -46 -88 -173 -72 -205 25 -16 47 11 103
60 127 42 22 42 22 84 4z m434 -12 c36 -24 55 -78 42 -120 -15 -43 -63 -84
-101 -84 -94 0 -152 105 -97 175 41 53 102 64 156 29z m410 -2 c31 -20 42 -43
42 -90 0 -101 -123 -147 -195 -73 -20 22 -28 41 -29 69 -2 96 99 149 182 94z
m-1044 -186 c67 -28 93 -94 61 -156 -21 -41 -53 -60 -101 -60 -128 0 -154 171
-34 219 34 13 36 13 74 -3z m803 3 c123 -46 99 -219 -31 -219 -127 0 -159 165
-42 216 38 16 38 16 73 3z m-1214 -31 c33 -17 46 -39 47 -77 0 -47 -33 -81
-79 -81 -88 0 -114 116 -36 158 26 15 41 15 68 0z m817 -3 c76 -39 44 -155
-42 -155 -89 0 -118 117 -38 157 33 17 45 16 80 -2z m809 0 c74 -38 46 -155
-38 -155 -88 0 -114 113 -36 158 27 15 41 15 74 -3z m-1410 -205 c31 -16 46
-65 31 -100 -34 -83 -160 -60 -160 29 0 64 70 103 129 71z m416 -15 c67 -66
-20 -171 -104 -125 -31 16 -46 65 -31 100 15 37 35 49 78 50 22 0 41 -8 57
-25z m394 15 c31 -16 46 -65 31 -100 -23 -56 -92 -69 -135 -25 -67 66 20 171
104 125z m418 -12 c51 -48 15 -138 -54 -138 -46 0 -68 13 -83 50 -14 34 0 83
29 100 29 17 83 11 108 -12z m-1638 -22 c20 -23 9 -69 -18 -83 -54 -26 -107
40 -65 81 19 20 68 21 83 2z m2025 -2 c42 -41 -11 -107 -65 -81 -27 14 -38 60
-18 83 15 19 64 18 83 -2z m-1826 -196 c18 -18 14 -63 -8 -83 -48 -44 -110 31
-68 83 13 15 60 16 76 0z m817 -12 c31 -47 -23 -104 -73 -77 -29 16 -37 48
-18 76 22 34 70 34 91 1z m811 -5 c26 -52 -34 -104 -76 -66 -23 20 -26 65 -8
83 21 21 71 10 84 -17z"/>
</g>
</svg>
