<?xml version="1.0" encoding="UTF-8"?>
<svg width="170px" height="170px" viewBox="0 0 170 170" version="1.1" xmlns="http://www.w3.org/2000/svg" xmlns:xlink="http://www.w3.org/1999/xlink">
    <title>编组 25</title>
    <defs>
        <linearGradient x1="100%" y1="81.5311419%" x2="-1.11022302e-14%" y2="18.4688581%" id="linearGradient-1">
            <stop stop-color="#FE3876" offset="0%"></stop>
            <stop stop-color="#7C30DD" offset="71.4447846%"></stop>
            <stop stop-color="#3A30DD" offset="100%"></stop>
        </linearGradient>
        <linearGradient x1="100%" y1="99.5792008%" x2="0%" y2="0.420799188%" id="linearGradient-2">
            <stop stop-color="#FE3876" offset="0%"></stop>
            <stop stop-color="#7C30DD" offset="71.4447846%"></stop>
            <stop stop-color="#3A30DD" offset="100%"></stop>
        </linearGradient>
        <linearGradient x1="100%" y1="99.5690479%" x2="0%" y2="0.430952099%" id="linearGradient-3">
            <stop stop-color="#FE3876" offset="0%"></stop>
            <stop stop-color="#7C30DD" offset="71.4447846%"></stop>
            <stop stop-color="#3A30DD" offset="100%"></stop>
        </linearGradient>
        <linearGradient x1="100%" y1="99.5507635%" x2="0%" y2="0.449236513%" id="linearGradient-4">
            <stop stop-color="#FE3876" offset="0%"></stop>
            <stop stop-color="#7C30DD" offset="71.4447846%"></stop>
            <stop stop-color="#3A30DD" offset="100%"></stop>
        </linearGradient>
        <linearGradient x1="100%" y1="99.556187%" x2="0%" y2="0.443812979%" id="linearGradient-5">
            <stop stop-color="#FE3876" offset="0%"></stop>
            <stop stop-color="#7C30DD" offset="71.4447846%"></stop>
            <stop stop-color="#3A30DD" offset="100%"></stop>
        </linearGradient>
        <linearGradient x1="100%" y1="57.018329%" x2="0%" y2="42.981671%" id="linearGradient-6">
            <stop stop-color="#FE3876" offset="0%"></stop>
            <stop stop-color="#7C30DD" offset="71.4447846%"></stop>
            <stop stop-color="#3A30DD" offset="100%"></stop>
        </linearGradient>
        <linearGradient x1="100%" y1="93.0956592%" x2="0%" y2="6.90434082%" id="linearGradient-7">
            <stop stop-color="#FE3876" offset="0%"></stop>
            <stop stop-color="#7C30DD" offset="71.4447846%"></stop>
            <stop stop-color="#3A30DD" offset="100%"></stop>
        </linearGradient>
        <linearGradient x1="100%" y1="89.927569%" x2="0%" y2="10.072431%" id="linearGradient-8">
            <stop stop-color="#FE3876" offset="0%"></stop>
            <stop stop-color="#7C30DD" offset="71.4447846%"></stop>
            <stop stop-color="#3A30DD" offset="100%"></stop>
        </linearGradient>
        <linearGradient x1="100%" y1="100%" x2="0%" y2="0%" id="linearGradient-9">
            <stop stop-color="#FE3876" offset="0%"></stop>
            <stop stop-color="#7C30DD" offset="71.4447846%"></stop>
            <stop stop-color="#3A30DD" offset="100%"></stop>
        </linearGradient>
    </defs>
    <g id="页面-1" stroke="none" stroke-width="1" fill="none" fill-rule="evenodd">
        <g id="Home" transform="translate(-135.000000, -938.000000)">
            <g id="编组-25" transform="translate(135.000000, 938.000000)">
                <rect id="矩形" fill="#FFFFFF" x="0" y="0" width="170" height="170"></rect>
                <g id="编组-31" transform="translate(14.000000, 21.000000)">
                    <g id="编组-30">
                        <rect id="矩形" stroke="#A933B9" stroke-width="1.32" opacity="0.300000012" x="0" y="78" width="95" height="51" rx="25"></rect>
                        <rect id="矩形" fill="url(#linearGradient-1)" fill-rule="nonzero" opacity="0.049999997" x="7" y="0" width="136" height="108" rx="25"></rect>
                    </g>
                    <g id="编组-28" transform="translate(10.000000, 19.000000)">
                        <path d="M16,46.008 L16,45.992 L16,46.008 Z" id="Fill-17" fill="#FFBE1B"></path>
                        <g id="编组" transform="translate(58.500000, 55.500000) scale(-1, 1) translate(-58.500000, -55.500000) translate(0.000000, 15.000000)">
                            <path d="M116.479393,16.8111296 L117,16.9424656 L116.479393,17.0724045 C113.42732,17.8324767 111.044598,20.2063053 110.278423,23.2438 L110.14792,23.7635553 L110.018821,23.2438 C109.255452,20.2063053 106.869923,17.8324767 103.81785,17.0724045 L103.297243,16.9424656 L103.81785,16.8111296 C106.869923,16.0496602 109.255452,13.6772288 110.018821,10.6369398 L110.14792,10.1185817 L110.278423,10.6369398 C111.044598,13.6772288 113.42732,16.0496602 116.479393,16.8111296" id="Fill-1" fill="url(#linearGradient-2)"></path>
                            <path d="M102.890215,4.78538138 L103.26348,4.87759603 L102.890215,4.97260506 C100.706755,5.51611261 99.0018037,7.21230327 98.4545354,9.38633347 L98.3619208,9.75798645 L98.2693061,9.38633347 C97.7220378,7.21230327 96.0184898,5.51611261 93.8336263,4.97260506 L93.4631678,4.87759603 L93.8336263,4.78538138 C96.0184898,4.24047664 97.7220378,2.54428599 98.2693061,0.370255786 L98.3619208,0 L98.4545354,0.370255786 C99.0018037,2.54428599 100.706755,4.24047664 102.890215,4.78538138" id="Fill-3" fill="url(#linearGradient-3)"></path>
                            <path d="M14.6359192,64.7546831 L15.2154623,64.8985938 L14.6359192,65.0425046 C11.2484686,65.8878055 8.60333848,68.5215118 7.75156447,71.8957296 L7.60562625,72.4713725 L7.46389779,71.8957296 C6.61212378,68.5215118 3.96559037,65.8878055 0.576736603,65.0425046 L0,64.8985938 L0.576736603,64.7546831 C3.96559037,63.9093821 6.61212378,61.2728815 7.46389779,57.9000609 L7.60562625,57.3244179 L7.75156447,57.9000609 C8.60333848,61.2728815 11.2484686,63.9093821 14.6359192,64.7546831" id="Fill-5" fill="url(#linearGradient-4)"></path>
                            <path d="M26.4809528,75.5146256 L26.8949122,75.6152234 L26.4809528,75.7186156 C24.0729723,76.319408 22.1940177,78.193042 21.5892161,80.5906228 L21.4839722,81 L21.382938,80.5906228 C20.7795396,78.193042 18.8977786,76.319408 16.4883948,75.7186156 L16.0786452,75.6152234 L16.4883948,75.5146256 C18.8977786,74.912436 20.7795396,73.0401992 21.382938,70.6426183 L21.4839722,70.231844 L21.5892161,70.6426183 C22.1940177,73.0401992 24.0729723,74.912436 26.4809528,75.5146256" id="Fill-7" fill="url(#linearGradient-5)"></path>
                        </g>
                        <g id="编组-24" transform="translate(2.000000, 15.000000)">
                            <path d="M62.690597,54.1796076 C54.80482,50.9452073 33.6388233,48.7420233 15.5372758,53.0281215 C9.79309885,54.388232 5.32650583,57.3952059 2.13749673,62.0490431 C-8.54095117,76.2716193 21.9536958,83.4883332 67.6739903,73.053619 C71.4477478,72.1923366 73.2160763,68.937167 72.9789758,63.28811 C71.3772412,59.372042 67.9477816,56.3358745 62.690597,54.1796076 Z" id="Path" fill="url(#linearGradient-6)"></path>
                            <path d="M28.9007561,10.4376085 C28.9030691,3.31258188 32.7955876,0.0936667185 40.5783116,0.780863002 C45.4634538,1.2122096 60.8436884,-2.1970152 65.7607652,2.56978634 C70.677842,7.33658788 66.9405761,23.1968804 60.0080205,27.8528508 C53.0754648,32.5088213 52.0686324,26.790602 44.6298923,24.727588 C39.6707322,23.3522452 35.5002518,29.4040723 32.1184511,42.8830691 C29.4133505,42.5373014 27.7278026,41.6213752 27.0618075,40.1352904 C20.2902851,25.0254855 20.6791346,12.2394541 24.7715074,10.4376085 C25.4704887,10.1298515 26.846905,10.1298515 28.9007561,10.4376085 Z" id="Path-2" fill="url(#linearGradient-7)"></path>
                            <path d="M27.0618075,53.6501644 C31.5705752,58.5513081 35.909278,61.0018799 40.0779161,61.0018799 C44.2465542,61.0018799 47.2268014,58.5513081 49.0186576,53.6501644 L47.4536802,44.1888329 L30.7888612,35.4515827 L27.0618075,53.6501644 Z" id="Path-3" fill="#F3C2DE" fill-rule="nonzero"></path>
                            <path d="M36.3167364,14.5481143 C42.7204865,16.8777036 57.8287005,17.666601 62.5968902,14.5481143 C61.6873168,38.3308437 57.8756547,50.2222084 51.8290171,50.2222084 C42.7590607,50.2222084 32.8502551,45.545758 30.5657294,35.7203068 C30.5408358,35.6132429 30.516539,35.5071059 30.4928388,35.4018959 C30.2621708,35.4346461 30.0264632,35.4515827 29.7868302,35.4515827 C27.0169439,35.4515827 24.7715074,33.1887227 24.7715074,30.3973434 C24.7715074,27.6059641 27.0169439,25.3431041 29.7868302,25.3431041 C31.52774,25.3431041 33.061477,26.2369988 33.9607536,27.5941847 C34.467459,27.8272313 36.4193066,20.2855299 36.3167364,14.5481143 Z" id="Path" fill="#FEEBF3" fill-rule="nonzero"></path>
                        </g>
                        <g id="编组-14" transform="translate(62.000000, 0.000000)">
                            <path d="M10.3455932,3 C6.28941017,3 3,6.27983628 3,10.3264757 L3,27.7910383 C3,31.8354158 6.28941017,35.115252 10.3455932,35.115252 L15.6585578,35.115252 L15.6585578,45 L25.7423014,35.115252 L42.6544068,35.115252 C46.7083213,35.115252 50,31.8354158 50,27.7910383 L50,10.3264757 C50,6.27983628 46.7083213,3 42.6544068,3 L10.3455932,3 Z" id="Fill-35" fill="url(#linearGradient-8)" opacity="0.100000001"></path>
                            <path d="M42.6544068,0 C45.5088294,0 48.0946678,1.15522755 49.9667833,3.02247073 C51.767193,4.8181947 52.9082322,7.27189961 52.9946818,9.99103465 L52.9946818,9.99103465 L53,27.7910383 C53,30.6421445 51.8409096,33.2243927 49.9662057,35.0936402 C48.1678573,36.8867545 45.7110323,38.0238393 42.9898331,38.109958 L42.9898331,38.109958 L26.9668526,38.115853 L12.6582874,52.1420486 L12.6578882,38.0789517 C8.6896813,38.5062802 5.49204096,37.4142356 3.24922211,35.3026217 C1.26735602,33.3127136 0.0925004563,30.8609703 0.00531774593,28.1263393 L0.00531774593,28.1263393 L0,10.3264757 C0,7.47393226 1.15868918,4.89127124 3.03292388,3.0219144 C4.83078276,1.2287346 7.28721964,0.0915317305 10.0095623,0.00530758549 L10.0095623,0.00530758549 L42.6544068,0 Z" id="Fill-35" stroke="#A933B9" stroke-width="1.32" fill="#FCEBF4"></path>
                            <path d="M37.9722113,20.1536495 C37.8132892,19.0884098 37.0013664,18.2301378 35.8001954,17.8583219 C35.1643108,17.6610985 34.0860008,17.3986576 33.2088149,17.1947045 C34.8174607,14.9501581 35.1337807,12.6303527 34.5354382,11.3021626 C34.1626527,10.4748222 33.4569974,10 32.5998892,10 C30.9433141,10 30.5106443,11.3523707 30.1947163,12.3396552 C30.1479195,12.486076 30.0996418,12.6371249 30.0466605,12.7909549 C29.7532708,13.6417116 28.2819452,15.1761476 26.1342097,16.3441813 C24.5263478,17.2180359 22.9868194,18.4130736 22.9218612,18.4633242 C22.7071487,18.6307412 22.5822844,18.8841382 22.5822844,19.1516953 L22.5822844,27.6391789 C22.5822844,27.9225734 22.722,28.1884322 22.9577918,28.3540871 C24.2515767,29.2626945 28.8148287,30 31.1075279,30 C32.3000102,30 32.7692857,29.8172977 33.0188618,29.6800056 C34.0479361,29.1126434 35.4170881,25.9011293 36.4180276,23.198978 C37.571596,22.3467777 38.1357282,21.2497784 37.9722549,20.153692 L37.9722549,20.153692 L37.9722549,20.153692 L37.9722113,20.1536495 Z M19.4686036,17.6187241 C18.6574647,17.6187241 18,18.2593923 18,19.0502601 L18,27.7135463 C18,28.5042656 18.6574865,29.1453158 19.4686036,29.1453158 C20.2795682,29.1453158 20.9370982,28.5042868 20.9370982,27.7135463 L20.9370982,19.0502601 C20.9370982,18.2593923 20.27959,17.6187241 19.4686036,17.6187241 L19.4686036,17.6187241 L19.4686036,17.6187241 Z" id="形状" fill="url(#linearGradient-9)" opacity="0.100000001"></path>
                            <path d="M34.9722113,17.1536495 C34.8132892,16.0884098 34.0013664,15.2301378 32.8001954,14.8583219 C32.1643108,14.6610985 31.0860008,14.3986576 30.2088149,14.1947045 C31.8174607,11.9501581 32.1337807,9.63035266 31.5354382,8.30216256 C31.1626527,7.47482218 30.4569974,7 29.5998892,7 C27.9433141,7 27.5106443,8.35237066 27.1947163,9.33965517 C27.1479195,9.48607601 27.0996418,9.63712491 27.0466605,9.7909549 C26.7532708,10.6417116 25.2819452,12.1761476 23.1342097,13.3441813 C21.5263478,14.2180359 19.9868194,15.4130736 19.9218612,15.4633242 C19.7071487,15.6307412 19.5822844,15.8841382 19.5822844,16.1516953 L19.5822844,24.6391789 C19.5822844,24.9225734 19.722,25.1884322 19.9577918,25.3540871 C21.2515767,26.2626945 25.8148287,27 28.1075279,27 C29.3000102,27 29.7692857,26.8172977 30.0188618,26.6800056 C31.0479361,26.1126434 32.4170881,22.9011293 33.4180276,20.198978 C34.571596,19.3467777 35.1357282,18.2497784 34.9722549,17.153692 L34.9722549,17.153692 L34.9722549,17.153692 L34.9722113,17.1536495 Z M16.4686036,14.6187241 C15.6574647,14.6187241 15,15.2593923 15,16.0502601 L15,24.7135463 C15,25.5042656 15.6574865,26.1453158 16.4686036,26.1453158 C17.2795682,26.1453158 17.9370982,25.5042868 17.9370982,24.7135463 L17.9370982,16.0502601 C17.9370982,15.2593923 17.27959,14.6187241 16.4686036,14.6187241 L16.4686036,14.6187241 L16.4686036,14.6187241 Z" id="形状" fill="url(#linearGradient-9)"></path>
                        </g>
                    </g>
                </g>
            </g>
        </g>
    </g>
</svg>