<?xml version="1.0" encoding="UTF-8"?>
<svg width="170px" height="170px" viewBox="0 0 170 170" version="1.1" xmlns="http://www.w3.org/2000/svg" xmlns:xlink="http://www.w3.org/1999/xlink">
    <title>编组 27</title>
    <defs>
        <linearGradient x1="50.2369902%" y1="100%" x2="49.7630098%" y2="0%" id="linearGradient-1">
            <stop stop-color="#FE3876" offset="0%"></stop>
            <stop stop-color="#7C30DD" offset="71.4447846%"></stop>
            <stop stop-color="#3A30DD" offset="100%"></stop>
        </linearGradient>
        <linearGradient x1="86.2346328%" y1="100%" x2="13.7653672%" y2="0%" id="linearGradient-2">
            <stop stop-color="#FE3876" offset="0%"></stop>
            <stop stop-color="#7C30DD" offset="71.4447846%"></stop>
            <stop stop-color="#3A30DD" offset="100%"></stop>
        </linearGradient>
        <linearGradient x1="100%" y1="71.1895026%" x2="-1.11022302e-14%" y2="28.8104974%" id="linearGradient-3">
            <stop stop-color="#FE3876" offset="0%"></stop>
            <stop stop-color="#7C30DD" offset="71.4447846%"></stop>
            <stop stop-color="#3A30DD" offset="100%"></stop>
        </linearGradient>
        <linearGradient x1="100%" y1="55.6448%" x2="-1.11022302e-14%" y2="44.3552%" id="linearGradient-4">
            <stop stop-color="#FE3876" offset="0%"></stop>
            <stop stop-color="#7C30DD" offset="71.4447846%"></stop>
            <stop stop-color="#3A30DD" offset="100%"></stop>
        </linearGradient>
        <linearGradient x1="100%" y1="71.1895026%" x2="0%" y2="28.8104974%" id="linearGradient-5">
            <stop stop-color="#FE3876" offset="0%"></stop>
            <stop stop-color="#7C30DD" offset="71.4447846%"></stop>
            <stop stop-color="#3A30DD" offset="100%"></stop>
        </linearGradient>
        <linearGradient x1="100%" y1="99.9718001%" x2="0%" y2="0.0281999106%" id="linearGradient-6">
            <stop stop-color="#FE3876" offset="0%"></stop>
            <stop stop-color="#7C30DD" offset="71.4447846%"></stop>
            <stop stop-color="#3A30DD" offset="100%"></stop>
        </linearGradient>
        <linearGradient x1="100%" y1="51.5562152%" x2="0%" y2="48.4437848%" id="linearGradient-7">
            <stop stop-color="#FE3876" offset="0%"></stop>
            <stop stop-color="#7C30DD" offset="71.4447846%"></stop>
            <stop stop-color="#3A30DD" offset="100%"></stop>
        </linearGradient>
        <linearGradient x1="100%" y1="99.9718001%" x2="0%" y2="0.0281999106%" id="linearGradient-8">
            <stop stop-color="#FE3876" offset="0%"></stop>
            <stop stop-color="#7C30DD" offset="71.4447846%"></stop>
            <stop stop-color="#3A30DD" offset="100%"></stop>
        </linearGradient>
    </defs>
    <g id="页面-1" stroke="none" stroke-width="1" fill="none" fill-rule="evenodd">
        <g id="Home" transform="translate(-735.000000, -936.000000)">
            <g id="编组-27" transform="translate(735.000000, 936.000000)">
                <rect id="矩形" fill="#FFFFFF" x="0" y="0" width="170" height="170"></rect>
                <g id="编组-21" transform="translate(23.000000, 26.000000)">
                    <g id="编组">
                        <path d="M62.5541276,55.1480396 C62.8267879,55.1480396 63.0738712,55.2608814 63.2533065,55.440259 C63.4327206,55.6196155 63.5455957,55.8665873 63.5455957,56.1391308 L63.5455957,56.1391308 L63.5455957,82.9593384 C63.5455957,83.2318819 63.4327206,83.4788537 63.2533065,83.6582102 C63.0738712,83.8375878 62.8267879,83.9504296 62.5541276,83.9504296 C62.2814672,83.9504296 62.0343839,83.8375878 61.8549486,83.6582102 C61.6755345,83.4788537 61.5626594,83.2318819 61.5626594,82.9593384 L61.5626594,82.9593384 L61.5626594,56.1391308 C61.5626594,55.8665873 61.6755345,55.6196155 61.8549486,55.440259 C62.0343839,55.2608814 62.2814672,55.1480396 62.5541276,55.1480396 L62.5541276,55.1480396 Z" id="路径" fill="url(#linearGradient-1)"></path>
                        <path d="M44.847324,55.1480396 C45.1199843,55.1480396 45.3670676,55.2608814 45.5465029,55.440259 C45.725917,55.6196155 45.8387921,55.8665873 45.8387921,56.1391308 L45.8387921,56.1391308 L45.8387921,65.0792 C45.8387921,66.581003 45.2228765,67.9454835 44.2330081,68.9350337 C43.2431186,69.9246051 41.8781675,70.5403258 40.3758525,70.5403258 L40.3758525,70.5403258 L26.7825791,70.5403258 C25.8255848,70.5403258 24.9548002,70.9303629 24.3237813,71.561179 C23.6927412,72.1920163 23.3025757,73.0625532 23.3025757,74.0192692 L23.3025757,74.0192692 L23.3025757,82.9593384 C23.3025757,83.2318819 23.1897006,83.4788537 23.0102865,83.6582102 C22.8308512,83.8375878 22.5837679,83.9504296 22.3111076,83.9504296 C22.0384472,83.9504296 21.791364,83.8375878 21.6119287,83.6582102 C21.4325145,83.4788537 21.3196395,83.2318819 21.3196395,82.9593384 L21.3196395,82.9593384 L21.3196395,74.0192692 C21.3196395,72.5174662 21.9355551,71.1529857 22.9254234,70.1634355 C23.9153129,69.1738641 25.2802641,68.5581434 26.7825791,68.5581434 L26.7825791,68.5581434 L40.3758525,68.5581434 C41.3328468,68.5581434 42.2036314,68.1681063 42.8346503,67.5372902 C43.4656904,66.9064529 43.8558558,66.035916 43.8558558,65.0792 L43.8558558,65.0792 L43.8558558,56.1391308 C43.8558558,55.8665873 43.9687309,55.6196155 44.148145,55.440259 C44.3275803,55.2608814 44.5746636,55.1480396 44.847324,55.1480396 Z" id="路径" fill="url(#linearGradient-2)"></path>
                        <path d="M80.4402371,55.1480396 C80.7128975,55.1480396 80.9599808,55.2608814 81.1394161,55.440259 C81.3188302,55.6196155 81.4317053,55.8665873 81.4317053,56.1391308 L81.4317053,56.1391308 L81.4317053,65.0792 C81.4317053,66.035916 81.8218707,66.9064529 82.4529108,67.5372902 C83.0839297,68.1681063 83.9547143,68.5581434 84.9117087,68.5581434 L84.9117087,68.5581434 L98.504982,68.5581434 C100.007297,68.5581434 101.372248,69.1738641 102.362138,70.1634355 C103.352006,71.1529857 103.967922,72.5174662 103.967922,74.0192692 L103.967922,74.0192692 L103.967922,82.9593384 C103.967922,83.2318819 103.855047,83.4788537 103.675632,83.6582102 C103.496197,83.8375878 103.249114,83.9504296 102.976454,83.9504296 C102.703793,83.9504296 102.45671,83.8375878 102.277275,83.6582102 C102.09786,83.4788537 101.984985,83.2318819 101.984985,82.9593384 L101.984985,82.9593384 L101.984985,74.0192692 C101.984985,73.0625532 101.59482,72.1920163 100.96378,71.561179 C100.332761,70.9303629 99.4619763,70.5403258 98.504982,70.5403258 L98.504982,70.5403258 L84.9117087,70.5403258 C83.4093936,70.5403258 82.0444425,69.9246051 81.054553,68.9350337 C80.0646846,67.9454835 79.448769,66.581003 79.448769,65.0792 L79.448769,65.0792 L79.448769,56.1391308 C79.448769,55.8665873 79.5616441,55.6196155 79.7410582,55.440259 C79.9204935,55.2608814 80.1675768,55.1480396 80.4402371,55.1480396 Z" id="路径" fill="url(#linearGradient-2)"></path>
                        <path d="M64.9536306,8 C70.6175459,8 75.8812527,10.0295861 80.0141718,13.4137347 C84.192012,16.834666 87.2161472,21.6403863 88.3270789,27.1398666 C88.4201764,27.60073 88.4989999,28.0623159 88.5638233,28.5237983 C88.9733244,28.3508438 89.4023416,28.2085694 89.8398604,28.1025383 C90.4809182,27.9471803 91.1413901,27.8693494 91.7824597,27.8693494 C94.2466065,27.8693494 96.4848598,28.8720006 98.1067161,30.4901351 C99.7256858,32.1053895 100.730911,34.334711 100.730911,36.7947521 C100.730911,37.4165537 100.676225,38.0191744 100.540134,38.6216679 C100.442577,39.0535701 100.307218,39.46756 100.14034,39.8741594 C100.584597,39.9258981 101.028349,40.0031716 101.469543,40.106689 C104.127086,40.7302289 106.44404,42.2478425 108.087208,44.3210424 C109.697188,46.3523686 110.659814,48.9182471 110.659814,51.7023175 C110.659814,54.9325772 109.370464,57.8649278 107.279131,60.0129442 C105.185549,62.16327 102.288134,63.528073 99.0747751,63.6179084 L65.4601054,63.6226433 L49.7360145,63.6226433 L41.1184518,63.6226433 C36.7339518,63.6226433 32.7587571,61.8394372 29.8795455,58.9607755 C27.000451,56.0822309 25.2168619,52.1079293 25.2168619,47.7239867 C25.2168619,47.3468041 25.2343696,46.9894462 25.2740873,46.6321022 C25.5492547,42.653552 27.260724,39.1159828 29.8855203,36.4924 C32.5101186,33.8690151 36.048578,32.1588177 39.9761874,31.8894641 C40.355428,31.8634559 40.7329094,31.8512508 41.107768,31.8513663 C41.1073147,31.4714166 41.1159728,31.0897846 41.1339356,30.7067023 C41.4207794,24.5893342 44.0353079,19.0620651 48.1063571,14.991943 C52.1775498,10.9216775 57.7062324,8.307793 63.8350911,8.02050186 C64.2163635,8 64.5723695,8 64.9536306,8 Z" id="路径" fill="url(#linearGradient-3)" fill-rule="nonzero" opacity="0.100000001"></path>
                        <rect id="矩形" fill="url(#linearGradient-4)" fill-rule="nonzero" opacity="0.100000001" x="0" y="76.5" width="125" height="42" rx="21"></rect>
                        <path d="M59.9536306,0 C65.6175459,0 70.8812527,2.02958608 75.0141718,5.41373469 C79.192012,8.83466597 82.2161472,13.6403863 83.3270789,19.1398666 C83.4201764,19.60073 83.4989999,20.0623159 83.5638233,20.5237983 C83.9733244,20.3508438 84.4023416,20.2085694 84.8398604,20.1025383 C85.4809182,19.9471803 86.1413901,19.8693494 86.7824597,19.8693494 C89.2466065,19.8693494 91.4848598,20.8720006 93.1067161,22.4901351 C94.7256858,24.1053895 95.7309113,26.334711 95.7309113,28.7947521 C95.7309113,29.4165537 95.6762249,30.0191744 95.5401342,30.6216679 C95.4425765,31.0535701 95.3072177,31.46756 95.1403403,31.8741594 C95.5845969,31.9258981 96.0283494,32.0031716 96.469543,32.106689 C99.1270857,32.7302289 101.44404,34.2478425 103.087208,36.3210424 C104.697188,38.3523686 105.659814,40.9182471 105.659814,43.7023175 C105.659814,46.9325772 104.370464,49.8649278 102.279131,52.0129442 C100.185549,54.16327 97.288134,55.528073 94.0747751,55.6179084 L60.4601054,55.6226433 L44.7360145,55.6226433 L36.1184518,55.6226433 C31.7339518,55.6226433 27.7587571,53.8394372 24.8795455,50.9607755 C22.000451,48.0822309 20.2168619,44.1079293 20.2168619,39.7239867 C20.2168619,39.3468041 20.2343696,38.9894462 20.2740873,38.6321022 C20.5492547,34.653552 22.260724,31.1159828 24.8855203,28.4924 C27.5101186,25.8690151 31.048578,24.1588177 34.9761874,23.8894641 C35.355428,23.8634559 35.7329094,23.8512508 36.107768,23.8513663 C36.1073147,23.4714166 36.1159728,23.0897846 36.1339356,22.7067023 C36.4207794,16.5893342 39.0353079,11.0620651 43.1063571,6.99194304 C47.1775498,2.92167754 52.7062324,0.307793002 58.8350911,0.0205018594 C59.2163635,0 59.5723695,0 59.9536306,0 Z" id="路径" stroke="url(#linearGradient-5)" stroke-width="1.8"></path>
                        <path d="M71.491913,42.1294369 C71.0686122,42.3948612 70.6453094,42.5541158 70.142641,42.5541158 C69.4547753,42.5541158 68.7140001,42.2090642 68.2113318,41.704756 L59.269101,32.7334134 L58.3431284,33.6624005 C58.1843906,33.8216552 58.0785655,34.0870794 58.0785655,34.3525057 L58.0785655,35.9715931 C58.0785655,36.2370174 57.9991965,36.4758979 57.8140025,36.6616982 L56.3059926,38.1746175 C56.0414296,38.3338722 55.8826918,38.4400418 55.6181268,38.4400418 C55.3535639,38.4400418 55.1154585,38.3604145 54.9302611,38.1746175 L49.0304902,32.2556397 C48.6865583,31.9105881 48.6865583,31.3266525 49.0304902,30.9816024 L50.5385001,29.4686831 C50.697238,29.3094284 50.961801,29.2032588 51.2263659,29.2032588 L52.8401994,29.2032588 C53.1047624,29.2032588 53.3428677,29.1236315 53.5280652,28.9378345 L58.9251434,23.5231858 C59.0838813,23.3639311 59.1897064,23.0985069 59.1897064,22.8330806 L59.1897064,21.2139932 C59.1897064,20.9485689 59.2690753,20.7096884 59.4542694,20.5238881 L60.8829103,19.0109688 C61.1474733,18.8517141 61.3062112,18.7455445 61.5707761,18.7455445 C61.8353391,18.7455445 62.0734444,18.8251718 62.3380108,19.0109688 L68.2377816,24.9299466 C68.5817135,25.2749982 68.5817135,25.8589338 68.2377816,26.2039839 L66.7297718,27.7169032 C66.5710339,27.8761579 66.3064709,27.9823275 66.041906,27.9823275 L64.4280725,27.9823275 C64.1635095,27.9823275 63.9254041,28.0619548 63.7402067,28.2477518 L62.8142341,29.1767389 L62.8142341,29.2563662 L71.8623127,38.2277089 C72.9205637,39.3159507 72.8411947,41.1739201 71.4919242,42.1294481 L71.491913,42.1294369 Z" id="路径" fill="url(#linearGradient-6)"></path>
                        <rect id="矩形" fill="url(#linearGradient-7)" x="48.7725413" y="42.5541158" width="17.6026043" height="3.10546582" rx="1.55273291"></rect>
                    </g>
                    <g id="编组-17" transform="translate(8.000000, 83.045516)">
                        <ellipse id="椭圆形" fill="url(#linearGradient-8)" cx="14.2873563" cy="14.2833267" rx="14.2873563" ry="14.2833267"></ellipse>
                        <path d="M12.8289921,6 C15.094108,6 16.9263844,7.83921178 16.9263844,10.1056704 C16.9263844,12.3721289 15.0918681,14.2113407 12.8289921,14.2113407 C10.5672362,14.2113407 8.73271937,12.3721289 8.73271937,10.1056704 C8.73159853,7.83921178 10.5672362,6 12.8289921,6 L12.8289921,6 Z M11.292752,15.1583607 L14.707248,15.1583607 C17.6305903,15.1583607 20,17.5321936 20,20.4612317 L20,20.8016568 C20,21.9565892 17.6305903,22 14.707248,22 L11.292752,22 C8.37052963,22 6,21.9977153 6,20.8016568 L6,20.4612317 C6,17.5322092 8.36827438,15.1583607 11.292752,15.1583607 L11.292752,15.1583607 Z" id="形状" fill="#FFFFFF"></path>
                    </g>
                    <g id="编组-17" transform="translate(48.266954, 83.045516)">
                        <ellipse id="椭圆形" fill="url(#linearGradient-8)" cx="14.2873563" cy="14.2833267" rx="14.2873563" ry="14.2833267"></ellipse>
                        <path d="M13.8320381,6 C16.0971539,6 17.9294303,7.83921178 17.9294303,10.1056704 C17.9294303,12.3721289 16.094914,14.2113407 13.8320381,14.2113407 C11.5702822,14.2113407 9.73576534,12.3721289 9.73576534,10.1056704 C9.73464451,7.83921178 11.5702822,6 13.8320381,6 L13.8320381,6 Z M12.2957979,15.1583607 L15.710294,15.1583607 C18.6336363,15.1583607 21.003046,17.5321936 21.003046,20.4612317 L21.003046,20.8016568 C21.003046,21.9565892 18.6336363,22 15.710294,22 L12.2957979,22 C9.37357561,22 7.00304598,21.9977153 7.00304598,20.8016568 L7.00304598,20.4612317 C7.00304598,17.5322092 9.37132036,15.1583607 12.2957979,15.1583607 L12.2957979,15.1583607 Z" id="形状" fill="#FFFFFF"></path>
                    </g>
                    <g id="编组-17" transform="translate(88.528736, 83.045516)">
                        <ellipse id="椭圆形" fill="url(#linearGradient-8)" cx="14.2873563" cy="14.2833267" rx="14.2873563" ry="14.2833267"></ellipse>
                        <path d="M14.8402565,6 C17.1053723,6 18.9376487,7.83921178 18.9376487,10.1056704 C18.9376487,12.3721289 17.1031324,14.2113407 14.8402565,14.2113407 C12.5785005,14.2113407 10.7439837,12.3721289 10.7439837,10.1056704 C10.7428629,7.83921178 12.5785005,6 14.8402565,6 L14.8402565,6 Z M13.3040163,15.1583607 L16.7185124,15.1583607 C19.6418547,15.1583607 22.0112644,17.5321936 22.0112644,20.4612317 L22.0112644,20.8016568 C22.0112644,21.9565892 19.6418547,22 16.7185124,22 L13.3040163,22 C10.381794,22 8.01126437,21.9977153 8.01126437,20.8016568 L8.01126437,20.4612317 C8.01126437,17.5322092 10.3795388,15.1583607 13.3040163,15.1583607 L13.3040163,15.1583607 Z" id="形状" fill="#FFFFFF"></path>
                    </g>
                </g>
            </g>
        </g>
    </g>
</svg>