<?xml version="1.0" encoding="UTF-8"?>
<svg width="172px" height="172px" viewBox="0 0 172 172" version="1.1" xmlns="http://www.w3.org/2000/svg" xmlns:xlink="http://www.w3.org/1999/xlink">
    <title>编组 11</title>
    <defs>
        <linearGradient x1="100%" y1="100%" x2="-1.11022302e-14%" y2="1.72254642e-14%" id="linearGradient-1">
            <stop stop-color="#FE3876" offset="0%"></stop>
            <stop stop-color="#7C30DD" offset="71.4447846%"></stop>
            <stop stop-color="#3A30DD" offset="100%"></stop>
        </linearGradient>
        <linearGradient x1="100%" y1="99.990003%" x2="-1.11022302e-14%" y2="0.00999699714%" id="linearGradient-2">
            <stop stop-color="#FE3876" offset="0%"></stop>
            <stop stop-color="#7C30DD" offset="71.4447846%"></stop>
            <stop stop-color="#3A30DD" offset="100%"></stop>
        </linearGradient>
        <linearGradient x1="99.9980342%" y1="100%" x2="0.00196583381%" y2="1.72254642e-14%" id="linearGradient-3">
            <stop stop-color="#FE3876" offset="0%"></stop>
            <stop stop-color="#7C30DD" offset="71.4447846%"></stop>
            <stop stop-color="#3A30DD" offset="100%"></stop>
        </linearGradient>
        <linearGradient x1="99.9915651%" y1="100%" x2="0.0084349309%" y2="0%" id="linearGradient-4">
            <stop stop-color="#FE3876" offset="0%"></stop>
            <stop stop-color="#7C30DD" offset="71.4447846%"></stop>
            <stop stop-color="#3A30DD" offset="100%"></stop>
        </linearGradient>
        <linearGradient x1="99.9890631%" y1="100%" x2="0.0109369071%" y2="1.72254642e-14%" id="linearGradient-5">
            <stop stop-color="#FE3876" offset="0%"></stop>
            <stop stop-color="#7C30DD" offset="71.4447846%"></stop>
            <stop stop-color="#3A30DD" offset="100%"></stop>
        </linearGradient>
        <linearGradient x1="99.9950437%" y1="100%" x2="0.0049563257%" y2="1.72254642e-14%" id="linearGradient-6">
            <stop stop-color="#FE3876" offset="0%"></stop>
            <stop stop-color="#7C30DD" offset="71.4447846%"></stop>
            <stop stop-color="#3A30DD" offset="100%"></stop>
        </linearGradient>
        <linearGradient x1="100%" y1="99.9963046%" x2="0%" y2="0.00369536405%" id="linearGradient-7">
            <stop stop-color="#FE3876" offset="0%"></stop>
            <stop stop-color="#7C30DD" offset="71.4447846%"></stop>
            <stop stop-color="#3A30DD" offset="100%"></stop>
        </linearGradient>
        <linearGradient x1="99.9980342%" y1="100%" x2="0.00196583381%" y2="1.72254642e-14%" id="linearGradient-8">
            <stop stop-color="#FE3876" offset="0%"></stop>
            <stop stop-color="#7C30DD" offset="71.4447846%"></stop>
            <stop stop-color="#3A30DD" offset="100%"></stop>
        </linearGradient>
        <linearGradient x1="99.9980342%" y1="100%" x2="0.00196583381%" y2="1.72254642e-14%" id="linearGradient-9">
            <stop stop-color="#FE3876" offset="0%"></stop>
            <stop stop-color="#7C30DD" offset="71.4447846%"></stop>
            <stop stop-color="#3A30DD" offset="100%"></stop>
        </linearGradient>
        <linearGradient x1="100%" y1="99.9987308%" x2="0%" y2="0.00126924973%" id="linearGradient-10">
            <stop stop-color="#FE3876" offset="0%"></stop>
            <stop stop-color="#7C30DD" offset="71.4447846%"></stop>
            <stop stop-color="#3A30DD" offset="100%"></stop>
        </linearGradient>
    </defs>
    <g id="页面-1" stroke="none" stroke-width="1" fill="none" fill-rule="evenodd">
        <g id="Home" transform="translate(-134.000000, -727.000000)">
            <g id="编组-11" transform="translate(135.000000, 728.000000)">
                <rect id="矩形" fill="#FFFFFF" x="0" y="0" width="170" height="170"></rect>
                <g id="编组-10" transform="translate(18.000000, 18.000000)">
                    <path d="M125.379703,66.9996049 C125.379703,99.2420583 99.2414245,125.379533 66.9996049,125.379533 C34.7591024,125.379533 8.6221414,99.2420583 8.6221414,66.9996049 C8.6221414,34.7584686 34.7591024,8.62231091 66.9996049,8.62231091 C99.2414245,8.62231091 125.379703,34.7584686 125.379703,66.9996049" id="Fill-1" fill="url(#linearGradient-1)" fill-rule="nonzero" opacity="0.100000001"></path>
                    <path d="M66.9993414,0 C30.0553977,0 0,30.0559886 0,66.9993414 C0,103.944011 30.0553977,134 66.9993414,134 C103.943285,134 134,103.944011 134,66.9993414 C134,30.0559886 103.943285,0 66.9993414,0" id="路径" stroke="#A933B9" stroke-width="1.32" opacity="0.300000012"></path>
                    <path d="M39.6869811,57.7177982 C39.5723916,56.8155522 39.57766,55.902769 39.706738,55.0018401 L34.5502069,55.1230176 C34.7965086,56.0081408 34.8149483,56.9419983 34.6107945,57.8376586 L39.6869811,57.7177982 Z" id="Fill-13" fill="#330D84"></path>
                    <path d="M51.0587456,46.344493 L51.1786037,41.2682066 C50.2842781,41.4736816 49.3504389,41.4552416 48.464016,41.208935 L48.3428409,46.3642503 C49.243752,46.236487 50.1565173,46.2312184 51.0587456,46.344493" id="Fill-15" fill="#330D84"></path>
                    <path d="M59.9094076,57.4670133 L74.0908558,57.4670133 C73.9986573,56.5634501 74.0315854,55.6506669 74.1817372,54.7523723 L59.8198433,54.7523723 C59.9686781,55.6506669 59.9989719,56.5634501 59.9094076,57.4670133" id="Fill-17" fill="#330D84"></path>
                    <path d="M85.6563689,46.3638551 L85.5338766,41.2085398 C84.6487709,41.4548464 83.7149316,41.4732865 82.8219232,41.2691286 L82.9404641,46.3440979 C83.8413753,46.2308232 84.7554577,46.2360918 85.6563689,46.3638551" id="Fill-19" fill="#330D84"></path>
                    <path d="M99.4501882,55.1234128 L94.2936572,55.0022352 C94.4227351,55.9031641 94.4280036,56.8159473 94.3147311,57.7181933 L99.3896006,57.8380538 C99.1841297,56.9423935 99.2038865,56.0085359 99.4501882,55.1234128" id="Fill-21" fill="#330D84"></path>
                    <path d="M74.5842496,76.90271 L80.849797,66.0494147 C80.0028878,65.7530565 79.1889067,65.3394722 78.4289275,64.811296 L72.4808064,75.1153408 C73.2605424,75.6132226 73.9678367,76.2164761 74.5842496,76.90271" id="Fill-23" fill="#330D84"></path>
                    <path d="M61.5147154,75.1173166 L55.5665943,64.815906 C54.8066151,65.3414479 53.9926339,65.7563493 53.1457248,66.0513904 L59.4125893,76.9060029 C60.0276851,76.2184519 60.7349794,75.6165155 61.5147154,75.1173166" id="Fill-25" fill="#330D84"></path>
                    <path d="M58.9576555,89.9261375 L55.2842034,93.431067 C56.0613051,93.9184116 56.7080118,94.5927911 57.1597845,95.3922996 L60.8925072,91.8333671 C60.165456,91.2867509 59.514798,90.6439829 58.9576555,89.9261375" id="Fill-27" fill="#330D84"></path>
                    <path d="M73.1077563,91.8337622 L76.8391618,95.3926947 C77.2922516,94.5931862 77.9376412,93.9188067 78.7147429,93.4314621 L75.0426079,89.9265327 C74.4854655,90.644378 73.8348074,91.287146 73.1077563,91.8337622" id="Fill-29" fill="#330D84"></path>
                    <path d="M87.1394478,98.0927154 C87.1394478,101.134009 84.6751133,103.595758 81.6338795,103.595758 C78.5939629,103.595758 76.1296284,101.134009 76.1296284,98.0927154 C76.1296284,95.0514218 78.5939629,92.5870389 81.6338795,92.5870389 C84.6751133,92.5870389 87.1394478,95.0514218 87.1394478,98.0927154" id="Fill-31" fill="url(#linearGradient-2)" fill-rule="nonzero" opacity="0.200000003"></path>
                    <path d="M46.8604205,98.0927154 C46.8604205,101.134009 49.324755,103.595758 52.3646717,103.595758 C55.4059054,103.595758 57.8689228,101.134009 57.8689228,98.0927154 C57.8689228,95.0514218 55.4059054,92.5870389 52.3646717,92.5870389 C49.324755,92.5870389 46.8604205,95.0514218 46.8604205,98.0927154" id="Fill-33" fill="url(#linearGradient-3)" fill-rule="nonzero" opacity="0.200000003"></path>
                    <path d="M77.1787157,83.689049 C77.1787157,89.3132688 72.621475,93.869282 66.9986829,93.869282 C61.3772079,93.869282 56.8212843,89.3132688 56.8212843,83.689049 C56.8212843,78.0674635 61.3772079,73.5101332 66.9986829,73.5101332 C72.621475,73.5101332 77.1787157,78.0674635 77.1787157,83.689049" id="Fill-35" fill="url(#linearGradient-4)"></path>
                    <path d="M53.8395844,32.0166944 C51.6887248,29.8657925 48.2049382,29.8657925 46.0553958,32.0166944 C43.9045362,34.1675962 43.9045362,37.6501342 46.0553958,39.801036 C48.2049382,41.9519379 51.6887248,41.9519379 53.8395844,39.801036 C55.9891269,37.6501342 55.9891269,34.1662791 53.8395844,32.0166944" id="Fill-37" fill="url(#linearGradient-5)" fill-rule="nonzero" opacity="0.200000003"></path>
                    <path d="M25.358147,60.4986917 C23.2072874,58.3477898 23.2086045,54.8639347 25.358147,52.7130329 C27.5090066,50.5634482 30.9914761,50.562131 33.1423356,52.7130329 C35.2931952,54.8639347 35.2931952,58.3477898 33.1423356,60.4986917 C30.9927932,62.6482764 27.5076894,62.6482764 25.358147,60.4986917" id="Fill-39" fill="url(#linearGradient-6)" fill-rule="nonzero" opacity="0.200000003"></path>
                    <path d="M56.980656,49.2437981 C53.0042659,45.2673298 46.560907,45.268647 42.5858341,49.2437981 C38.6107611,53.2202664 38.609444,59.6624348 42.5845169,63.638903 C46.560907,67.612737 53.0042659,67.6140542 56.980656,63.638903 C60.955729,59.6637519 60.9570461,53.2189492 56.980656,49.2437981" id="Fill-41" fill="url(#linearGradient-7)"></path>
                    <path d="M80.1601522,32.0166944 C82.3110117,29.8657925 85.7947984,29.8657925 87.9443408,32.0166944 C90.0952004,34.1675962 90.0952004,37.6501342 87.9443408,39.801036 C85.7947984,41.9519379 82.3110117,41.9519379 80.1601522,39.801036 C78.0092926,37.6501342 78.0092926,34.1662791 80.1601522,32.0166944" id="Fill-43" fill="url(#linearGradient-8)" fill-rule="nonzero" opacity="0.200000003"></path>
                    <path d="M108.641721,60.4986917 C110.792581,58.3477898 110.791264,54.8639347 108.641721,52.7130329 C106.490862,50.5634482 103.007075,50.562131 100.856216,52.7130329 C98.7066731,54.8639347 98.7066731,58.3477898 100.856216,60.4986917 C103.007075,62.6482764 106.492179,62.6482764 108.641721,60.4986917" id="Fill-45" fill="url(#linearGradient-9)" fill-rule="nonzero" opacity="0.200000003"></path>
                    <path d="M77.0192123,49.2437981 C80.9956024,45.2673298 87.4389612,45.268647 91.4140342,49.2437981 C95.3891072,53.2202664 95.3904243,59.6624348 91.4153513,63.638903 C87.4389612,67.612737 80.9956024,67.6140542 77.0192123,63.638903 C73.0441393,59.6637519 73.0441393,53.2189492 77.0192123,49.2437981" id="Fill-47" fill="url(#linearGradient-10)"></path>
                </g>
            </g>
        </g>
    </g>
</svg>