<?xml version="1.0" encoding="UTF-8"?>
<svg width="170px" height="170px" viewBox="0 0 170 170" version="1.1" xmlns="http://www.w3.org/2000/svg" xmlns:xlink="http://www.w3.org/1999/xlink">
    <title>编组 42</title>
    <defs>
        <linearGradient x1="100%" y1="100%" x2="-1.11022302e-14%" y2="1.72254642e-14%" id="linearGradient-1">
            <stop stop-color="#FE3876" offset="0%"></stop>
            <stop stop-color="#7C30DD" offset="71.4447846%"></stop>
            <stop stop-color="#3A30DD" offset="100%"></stop>
        </linearGradient>
        <linearGradient x1="97.8497164%" y1="100%" x2="2.15028355%" y2="0%" id="linearGradient-2">
            <stop stop-color="#FE3876" offset="0%"></stop>
            <stop stop-color="#7C30DD" offset="71.4447846%"></stop>
            <stop stop-color="#3A30DD" offset="100%"></stop>
        </linearGradient>
        <linearGradient x1="100%" y1="93.1122449%" x2="0%" y2="6.8877551%" id="linearGradient-3">
            <stop stop-color="#FE3876" offset="0%"></stop>
            <stop stop-color="#7C30DD" offset="71.4447846%"></stop>
            <stop stop-color="#3A30DD" offset="100%"></stop>
        </linearGradient>
    </defs>
    <g id="页面-1" stroke="none" stroke-width="1" fill="none" fill-rule="evenodd">
        <g id="Home" transform="translate(-735.000000, -728.000000)">
            <g id="编组-42" transform="translate(735.000000, 728.000000)">
                <rect id="矩形" fill="#FFFFFF" x="0" y="0" width="170" height="170"></rect>
                <g id="编组-13" transform="translate(13.000000, 13.000000)">
                    <rect id="矩形" fill="#FFFFFF" x="0" y="0" width="143.82" height="143.82"></rect>
                    <g id="编组-12" transform="translate(8.000000, 8.000000)">
                        <path d="M93.0173919,104.611765 L34.4121509,104.611765 C28.0089428,104.611765 22.8219865,99.4206 22.8219865,93.0173919 L22.8219865,34.4142551 C22.8219865,28.011047 28.0089428,22.8219865 34.4121509,22.8219865 L93.0173919,22.8219865 C99.4206,22.8219865 104.611765,28.011047 104.611765,34.4142551 L104.611765,93.0173919 C104.611765,99.4206 99.4206,104.611765 93.0173919,104.611765" id="Fill-13" fill="url(#linearGradient-1)" fill-rule="nonzero" opacity="0.100000001"></path>
                        <path d="M84.3246358,94.0582449 L41.7899255,94.0582449 C37.1419417,94.0582449 33.3755063,90.2101406 33.3755063,85.4588682 L33.3755063,41.9769126 C33.3755063,37.2256402 37.1419417,33.3755063 41.7899255,33.3755063 L84.3246358,33.3755063 C88.9726196,33.3755063 92.739055,37.2256402 92.739055,41.9769126 L92.739055,85.4588682 C92.739055,90.2101406 88.9726196,94.0582449 84.3246358,94.0582449" id="Fill-15" fill="url(#linearGradient-2)"></path>
                        <path d="M52.4387114,54.7453451 C53.5225376,54.7453451 54.4012102,55.6199572 54.4012102,56.6988827 C54.4012102,57.5436083 53.8624849,58.2631818 53.1084113,58.5357027 L53.1085164,68.6554754 C54.5123465,68.5937823 55.817756,68.3380881 56.9775808,67.9142794 L56.9775392,60.1559353 C56.2234655,59.8834144 55.6847402,59.1638409 55.6847402,58.3191153 C55.6847402,57.2401898 56.5634129,56.3655777 57.647239,56.3655777 C58.7310651,56.3655777 59.6097378,57.2401898 59.6097378,58.3191153 C59.6097378,59.1638409 59.0710125,59.8834144 58.3169388,60.1559353 L58.3170016,67.3156548 C59.6065278,66.6217034 60.6396145,65.6824777 61.3246816,64.5482426 C60.859866,64.1312681 60.5677348,63.5274658 60.5677348,62.8557666 C60.5677348,61.5978385 61.5921153,60.5781824 62.8557666,60.5781824 C62.9595335,60.5781824 63.0616871,60.5850582 63.1617924,60.5983769 C64.9044576,57.5821566 68.6411062,55.7553028 73.0994027,55.7091231 L73.2728217,55.7082262 L80.4345471,55.7082262 C80.8043944,55.7082262 81.1042149,56.0066776 81.1042149,56.3748361 C81.1042149,56.7298462 80.8254277,57.0200393 80.4738952,57.0403145 L80.4345471,57.0414461 L79.1510171,57.0414461 L79.1510654,67.1758206 C79.9051478,67.4483211 80.443848,68.1678551 80.443848,69.0126505 C80.443848,70.091487 79.5651346,70.9661881 78.4813492,70.9661881 C77.3975639,70.9661881 76.5188505,70.091487 76.5188505,69.0126505 C76.5188505,68.1677714 77.0576576,67.4481784 77.8118574,67.1757396 L77.8116814,57.0414461 L73.9423407,57.0414461 L73.9425378,67.1758206 C74.6966202,67.4483211 75.2353205,68.1678551 75.2353205,69.0126505 C75.2353205,70.091487 74.356607,70.9661881 73.2728217,70.9661881 C72.1890364,70.9661881 71.3103229,70.091487 71.3103229,69.0126505 C71.3103229,68.1678551 71.8490232,67.4483211 72.6031055,67.1758206 L72.6030167,57.0560577 C71.1991866,57.1177508 69.8937771,57.373445 68.7339523,57.7972537 L68.7340103,65.555588 C69.4880926,65.8280885 70.0267929,66.5476225 70.0267929,67.3924178 C70.0267929,68.4712544 69.1480794,69.3459554 68.0642941,69.3459554 C66.9805088,69.3459554 66.1017953,68.4712544 66.1017953,67.3924178 C66.1017953,66.5476225 66.6404956,65.8280885 67.394578,65.555588 L67.3945315,58.3958783 C66.1050053,59.0898297 65.0719186,60.0290554 64.3868515,61.1632905 C64.851679,61.5802211 65.1437983,62.1840202 65.1437983,62.8557666 C65.1437983,64.1136064 64.1193763,65.1333507 62.8557666,65.1333507 C62.752003,65.1333507 62.6498523,65.1264744 62.5497493,65.1131546 C60.8070981,68.1293654 57.0704404,69.9562302 52.6121304,70.00241 L52.4387114,70.003307 L45.276986,70.003307 C44.9071387,70.003307 44.6073182,69.7048555 44.6073182,69.336697 C44.6073182,68.981687 44.8861054,68.6914939 45.237638,68.6712186 L45.276986,68.670087 L46.560516,68.6700129 L46.560518,58.535715 C45.8064266,58.2632034 45.2676851,57.543621 45.2676851,56.6988827 C45.2676851,55.6199572 46.1463577,54.7453451 47.2301839,54.7453451 C48.31401,54.7453451 49.1926826,55.6199572 49.1926826,56.6988827 C49.1926826,57.5435376 48.6540475,58.2630613 47.9000731,58.5356342 L47.8998517,68.6700129 L51.7689692,68.6700129 L51.7690116,58.5357027 C51.0149379,58.2631818 50.4762127,57.5436083 50.4762127,56.6988827 C50.4762127,55.6199572 51.3548853,54.7453451 52.4387114,54.7453451 Z" id="路径" fill="#FFFFFF"></path>
                        <path d="M98.0158149,92.739055 C99.4736523,92.739055 100.654195,93.9211796 100.654195,95.378454 C100.654195,96.8336902 99.4736523,98.0158149 98.0158149,98.0158149 C96.5579774,98.0158149 95.3774349,96.8336902 95.3774349,95.378454 C95.3774349,93.9211796 96.5579774,92.739055 98.0158149,92.739055 Z M29.4179364,92.739055 C30.8757738,92.739055 32.0563163,93.9211796 32.0563163,95.378454 C32.0563163,96.8336902 30.8757738,98.0158149 29.4179364,98.0158149 C27.9600989,98.0158149 26.7795564,96.8336902 26.7795564,95.378454 C26.7795564,93.9211796 27.9600989,92.739055 29.4179364,92.739055 Z M98.0158149,29.4179364 C99.4736523,29.4179364 100.654195,30.5984788 100.654195,32.0563163 C100.654195,33.5141537 99.4736523,34.6946962 98.0158149,34.6946962 C96.5579774,34.6946962 95.3774349,33.5141537 95.3774349,32.0563163 C95.3774349,30.5984788 96.5579774,29.4179364 98.0158149,29.4179364 Z M29.4179364,29.4179364 C30.8757738,29.4179364 32.0563163,30.5984788 32.0563163,32.0563163 C32.0563163,33.5141537 30.8757738,34.6946962 29.4179364,34.6946962 C27.9600989,34.6946962 26.7795564,33.5141537 26.7795564,32.0563163 C26.7795564,30.5984788 27.9600989,29.4179364 29.4179364,29.4179364 Z" id="形状结合" fill="url(#linearGradient-3)"></path>
                        <path d="M36.0138862,109.492768 C36.8456418,109.492768 37.5955195,109.856034 38.1394708,110.434218 C38.7034685,111.03371 39.0480231,111.862958 39.0480231,112.775968 C39.0480231,114.176243 38.2371964,115.377809 37.0702311,115.853865 L37.0702311,115.853865 L37.0702311,127.572002 C37.0702311,127.904896 36.9470722,128.208265 36.7412485,128.427042 C36.5550019,128.62501 36.2993058,128.752941 36.0138862,128.752941 C35.728115,128.752941 35.4723965,128.625404 35.2862675,128.427561 C35.0803686,128.208704 34.9575414,127.905081 34.9575414,127.572002 L34.9575414,127.572002 L34.9575414,115.853865 C33.7905761,115.377809 32.9797493,114.176243 32.9797493,112.775968 C32.9797493,111.862958 33.3243039,111.03371 33.8883016,110.434218 C34.4322529,109.856034 35.1821306,109.492768 36.0138862,109.492768 Z M50.5249759,109.492768 C51.3561836,109.492768 52.1061505,109.856339 52.6503039,110.434737 C53.2142446,111.034169 53.5591128,111.863182 53.5591128,112.775968 C53.5591128,114.176012 52.7484198,115.377361 51.579335,115.853407 L51.579335,115.853407 L51.579335,127.572002 C51.579335,127.905114 51.4564983,128.208758 51.2507585,128.427666 C51.0650174,128.625294 50.8099464,128.752941 50.5249759,128.752941 C50.2392047,128.752941 49.9834862,128.625404 49.7973571,128.427561 C49.5914583,128.208704 49.468631,127.905081 49.468631,127.572002 L49.468631,127.572002 L49.468631,115.853334 C48.2988349,115.377314 47.490839,114.175768 47.490839,112.775968 C47.490839,111.862734 47.8350794,111.033253 48.3991341,110.4337 C48.9428836,109.855731 49.6926725,109.492768 50.5249759,109.492768 L50.5249759,109.492768 L50.5249759,109.492768 Z M63.715883,109.492768 C64.5476338,109.492768 65.297844,109.856219 65.8421068,110.434589 C66.4061942,111.034026 66.7510125,111.863111 66.7510125,112.775968 C66.7510125,114.176497 65.9377396,115.377918 64.7717313,115.853999 L64.7717313,115.853999 L64.7717313,127.572002 C64.7717313,127.90511 64.6489388,128.208767 64.4430713,128.427645 C64.2570524,128.62542 64.0014932,128.752941 63.715883,128.752941 C63.4310732,128.752941 63.1761614,128.625311 62.9905303,128.42775 C62.7848219,128.208821 62.6620199,127.905143 62.6620199,127.572002 L62.6620199,127.572002 L62.6620199,115.853468 C61.4931803,115.377423 60.6827387,114.176022 60.6827387,112.775968 C60.6827387,111.862929 61.0272029,111.033648 61.5910795,110.434134 C62.1348309,109.856018 62.8844252,109.492768 63.715883,109.492768 Z M78.2279653,109.492768 C79.0597209,109.492768 79.8095985,109.856034 80.3535498,110.434218 C80.9175476,111.03371 81.2621022,111.862958 81.2621022,112.775968 C81.2621022,114.176243 80.4512754,115.377809 79.2843101,115.853865 L79.2843101,115.853865 L79.2843101,127.572002 C79.2843101,127.905081 79.1614829,128.208704 78.955584,128.427561 C78.769455,128.625404 78.5137365,128.752941 78.2279653,128.752941 C77.9429948,128.752941 77.6879238,128.625294 77.5021826,128.427666 C77.2964429,128.208758 77.1736062,127.905114 77.1736062,127.572002 L77.1736062,127.572002 L77.1736062,115.853407 C76.0045214,115.377361 75.1938284,114.176012 75.1938284,112.775968 C75.1938284,111.862958 75.538383,111.03371 76.1023807,110.434218 C76.646332,109.856034 77.3962097,109.492768 78.2279653,109.492768 L78.2279653,109.492768 L78.2279653,109.492768 Z M92.739055,109.492768 C93.5708106,109.492768 94.3206882,109.856034 94.8646395,110.434218 C95.4286373,111.03371 95.7731919,111.862958 95.7731919,112.775968 C95.7731919,114.176243 94.9623651,115.377809 93.7953998,115.853865 L93.7953998,115.853865 L93.7953998,127.572002 C93.7953998,127.905081 93.6725726,128.208704 93.4666737,128.427561 C93.2805447,128.625404 93.0248262,128.752941 92.739055,128.752941 C92.4537335,128.752941 92.1986392,128.625688 92.0130151,128.428184 C91.8072003,128.209197 91.6846959,127.905299 91.6846959,127.572002 L91.6846959,127.572002 L91.6846959,115.853407 C90.5156111,115.377361 89.704918,114.176012 89.704918,112.775968 C89.704918,111.862958 90.0494727,111.03371 90.6134704,110.434218 C91.1574217,109.856034 91.9072994,109.492768 92.739055,109.492768 Z M15.9748629,89.704918 C16.888634,89.704918 17.7182631,90.049654 18.3180243,90.6137635 C18.8966696,91.1580123 19.2601736,91.9082539 19.2601736,92.7400476 C19.2601736,93.5715482 18.896871,94.3211739 18.3184793,94.8649113 C17.7186415,95.4288099 16.8888157,95.7731919 15.9748629,95.7731919 C14.6689686,95.7731919 13.5359446,95.0661741 13.0030713,94.0210118 L13.0030713,94.0210118 L1.18655113,93.7938885 C0.851276562,93.7958085 0.545249927,93.6726261 0.325032204,93.4654988 C0.127621077,93.2798225 0,93.0248831 0,92.7400476 C0,92.4725332 0.111865024,92.2310704 0.28855939,92.0488039 C0.477654911,91.8537451 0.739592444,91.7246707 1.03210866,91.69225 L1.03210866,91.69225 L12.8991032,91.6837985 C13.3751923,90.5182415 14.5764764,89.704918 15.9748629,89.704918 L15.9748629,89.704918 Z M112.776388,89.704918 C114.176994,89.704918 115.37608,90.5184072 115.852835,91.6841993 L115.852835,91.6841993 L127.573903,91.6841993 C127.906189,91.6841993 128.209254,91.8070742 128.427776,92.0127923 C128.625412,92.1988484 128.752941,92.454421 128.752941,92.7400476 C128.752941,93.0248736 128.625303,93.279799 128.427881,93.4654673 C128.209309,93.6710264 127.906222,93.7939106 127.573903,93.7939106 L127.573903,93.7939106 L115.852303,93.7939106 C115.375585,94.9625337 114.176518,95.7731919 112.776388,95.7731919 C111.862611,95.7731919 111.033324,95.4289955 110.433951,94.8653075 C109.855722,94.3215048 109.492768,93.5716974 109.492768,92.7400476 C109.492768,91.9081046 109.855924,91.1576812 110.434406,90.6133671 C111.033703,90.0494682 111.862793,89.704918 112.776388,89.704918 L112.776388,89.704918 L112.776388,89.704918 Z M15.9748629,75.1938284 C16.888634,75.1938284 17.7182631,75.5385643 18.3180243,76.1026738 C18.8966696,76.6469226 19.2601736,77.3971642 19.2601736,78.2289579 C19.2601736,79.0604585 18.896871,79.8100842 18.3184793,80.3538217 C17.7186415,80.9177202 16.8888157,81.2621022 15.9748629,81.2621022 C14.6689686,81.2621022 13.5359446,80.5550844 13.0030713,79.5099221 L13.0030713,79.5099221 L1.18655113,79.2827988 C0.851276562,79.2847188 0.545249927,79.1615364 0.325032204,78.9544092 C0.127621077,78.7687328 0,78.5137934 0,78.2289579 C0,77.9614435 0.111865024,77.7199808 0.28855939,77.5377142 C0.477654916,77.3426554 0.739592458,77.2135811 1.03210868,77.1811603 L1.03210868,77.1811603 L12.8991032,77.1727088 C13.3751923,76.0071519 14.5764764,75.1938284 15.9748629,75.1938284 L15.9748629,75.1938284 Z M112.776388,75.1938284 C114.176994,75.1938284 115.37608,76.0073175 115.852835,77.1731096 L115.852835,77.1731096 L127.573903,77.1731096 C127.906189,77.1731096 128.209254,77.2959845 128.427776,77.5017026 C128.625412,77.6877587 128.752941,77.9433314 128.752941,78.2289579 C128.752941,78.5137839 128.625303,78.7687093 128.427881,78.9543776 C128.209309,79.1599367 127.906222,79.282821 127.573903,79.282821 L127.573903,79.282821 L115.852303,79.282821 C115.375585,80.451444 114.176518,81.2621022 112.776388,81.2621022 C111.862611,81.2621022 111.033324,80.9179058 110.433951,80.3542178 C109.855722,79.8104152 109.492768,79.0606077 109.492768,78.2289579 C109.492768,77.397015 109.855924,76.6465915 110.434406,76.1022775 C111.033703,75.5383785 111.862793,75.1938284 112.776388,75.1938284 Z M15.9748629,60.6827387 C16.8887868,60.6827387 17.7185788,61.027211 18.3183951,61.5912308 C18.8968543,62.1351681 19.2601736,62.8850771 19.2601736,63.7168756 C19.2601736,64.5486741 18.8968543,65.2985831 18.3183951,65.8425204 C17.7185788,66.4065402 16.8887868,66.7510125 15.9748629,66.7510125 C14.6689833,66.7510125 13.5360038,66.0437803 13.003138,64.9983941 L13.003138,64.9983941 L1.18655605,64.7712126 C0.851125004,64.7731283 0.544875017,64.650249 0.324598167,64.4430141 C0.127244026,64.2573447 0,64.0022229 0,63.7168756 C0,63.4492057 0.111883145,63.2075908 0.288639962,63.0252141 C0.477719018,62.8301234 0.739628478,62.7010128 1.03212159,62.6685835 L1.03212159,62.6685835 L12.8992375,62.6601298 C13.3753013,61.4936165 14.57673,60.6827387 15.9748629,60.6827387 L15.9748629,60.6827387 Z M112.776388,60.6827387 C114.17674,60.6827387 115.375972,61.4937817 115.8527,62.6605308 L115.8527,62.6605308 L127.573903,62.6605308 C127.90616,62.6605308 128.209192,62.7834405 128.427692,62.9891899 C128.625396,63.1753561 128.752941,63.4310881 128.752941,63.7168756 C128.752941,64.0022134 128.62568,64.2573212 128.428315,64.4429825 C128.209684,64.6486481 127.906377,64.7712347 127.573903,64.7712347 L127.573903,64.7712347 L115.852242,64.7712347 C115.375523,65.9401029 114.176508,66.7510125 112.776388,66.7510125 C111.86264,66.7510125 111.033387,66.4067258 110.434035,65.8429167 C109.855739,65.2989141 109.492768,64.5488233 109.492768,63.7168756 C109.492768,62.8849279 109.855739,62.1348371 110.434035,61.5908345 C111.033387,61.0270254 111.86264,60.6827387 112.776388,60.6827387 Z M15.9748629,47.490839 C16.8887868,47.490839 17.7185788,47.8353113 18.3183951,48.3993311 C18.8968543,48.9432684 19.2601736,49.6931774 19.2601736,50.5249759 C19.2601736,51.3567744 18.8968543,52.1066834 18.3183951,52.6506207 C17.7185788,53.2146405 16.8887868,53.5591128 15.9748629,53.5591128 C14.6687694,53.5591128 13.5356122,52.851751 13.0026837,51.8081062 L13.0026837,51.8081062 L1.18654013,51.5812987 C0.851331493,51.5832167 0.545364337,51.4600102 0.325221209,51.2526932 C0.127528788,51.0665189 0,50.8107729 0,50.5249759 C0,50.257306 0.111883145,50.0156911 0.288639962,49.8333144 C0.477719018,49.6382237 0.739628477,49.5091131 1.03212158,49.4766837 L1.03212158,49.4766837 L12.8992375,49.4682301 C13.3753013,48.3017168 14.57673,47.490839 15.9748629,47.490839 Z M112.776388,47.490839 C114.17674,47.490839 115.375972,48.301882 115.8527,49.468631 L115.8527,49.468631 L127.573903,49.468631 C127.90616,49.468631 128.209192,49.5915408 128.427692,49.7972902 C128.625396,49.9834564 128.752941,50.2391884 128.752941,50.5249759 C128.752941,50.8107634 128.625396,51.0664954 128.427692,51.2526616 C128.209192,51.458411 127.90616,51.5813207 127.573903,51.5813207 L127.573903,51.5813207 L115.8527,51.5813207 C115.375972,52.7480698 114.17674,53.5591128 112.776388,53.5591128 C111.86264,53.5591128 111.033387,53.2148261 110.434035,52.6510169 C109.855739,52.1070144 109.492768,51.3569236 109.492768,50.5249759 C109.492768,49.6930282 109.855739,48.9429374 110.434035,48.3989348 C111.033387,47.8351257 111.86264,47.490839 112.776388,47.490839 Z M15.9748629,32.9797493 C16.8885622,32.9797493 17.7181203,33.3245351 18.317876,33.8884979 C18.8965501,34.4326373 19.2601736,35.1826357 19.2601736,36.0138862 C19.2601736,36.8462325 18.8971582,37.5960527 18.3189136,38.1397883 C17.7190369,38.7038649 16.8890111,39.0480231 15.9748629,39.0480231 C14.6687694,39.0480231 13.5356122,38.3406613 13.0026837,37.2970166 L13.0026837,37.2970166 L1.18654013,37.070209 C0.851331493,37.072127 0.545364337,36.9489205 0.325221209,36.7416035 C0.127528788,36.5554292 0,36.2996832 0,36.0138862 C0,35.7466327 0.111628342,35.5055859 0.288089512,35.3236959 C0.477251247,35.1287147 0.739364988,34.9999147 1.03201147,34.9675622 L1.03201147,34.9675622 L12.8996954,34.9591267 C13.3757493,33.7904944 14.5769609,32.9797493 15.9748629,32.9797493 Z M112.776388,32.9797493 C114.176508,32.9797493 115.375523,33.7906589 115.852242,34.9595271 L115.852242,34.9595271 L127.573903,34.9595271 C127.906377,34.9595271 128.209684,35.0821137 128.428315,35.2877793 C128.62568,35.4734406 128.752941,35.7285484 128.752941,36.0138862 C128.752941,36.2996737 128.625396,36.5554057 128.427692,36.7415719 C128.209192,36.9473213 127.90616,37.0702311 127.573903,37.0702311 L127.573903,37.0702311 L115.8527,37.0702311 C115.375972,38.2369801 114.17674,39.0480231 112.776388,39.0480231 C111.862416,39.0480231 111.032929,38.7040504 110.433517,38.1401845 C109.855435,37.5963838 109.492768,36.8463819 109.492768,36.0138862 C109.492768,35.1824865 109.856043,34.4323063 110.434554,33.8881016 C111.033845,33.3243494 111.862864,32.9797493 112.776388,32.9797493 Z M36.0138862,0 C36.2811834,0 36.5227266,0.112213016 36.7051875,0.289052972 C36.9002451,0.478101574 37.0296548,0.739844638 37.0621611,1.03222742 L37.0621611,1.03222742 L37.0706329,12.8992401 C38.2373825,13.3754076 39.0480231,14.5768585 39.0480231,15.9769736 C39.0480231,16.8899833 38.7034685,17.7192308 38.1394708,18.3187228 C37.5955195,18.8969068 36.8456418,19.2601736 36.0138862,19.2601736 C35.1821306,19.2601736 34.4322529,18.8969068 33.8883016,18.3187228 C33.3243039,17.7192308 32.9797493,16.8899833 32.9797493,15.9769736 C32.9797493,14.6690117 33.6868972,13.535702 34.7307557,13.00269 L34.7307557,13.00269 L34.9575634,1.18654013 C34.9556454,0.851331494 35.0788519,0.545364338 35.2861689,0.325221209 C35.4723432,0.127528788 35.7280892,0 36.0138862,0 Z M50.5249759,4.54747351e-13 C50.7918572,4.54747351e-13 51.0328316,0.111958445 51.2148053,0.288502388 C51.4097535,0.477633727 51.5388531,0.739581049 51.5712826,1.03211729 L51.5712826,1.03211729 L51.5797363,12.899698 C52.7486053,13.3758556 53.5591128,14.5770898 53.5591128,15.9769736 C53.5591128,16.889759 53.2142446,17.7187725 52.6503039,18.3182039 C52.1061505,18.8966027 51.3561836,19.2601736 50.5249759,19.2601736 C49.6926725,19.2601736 48.9428836,18.8972106 48.3991341,18.3192411 C47.8350794,17.7196887 47.490839,16.8902073 47.490839,15.9769736 C47.490839,14.6693977 48.1955336,13.5360864 49.2414946,13.0031554 L49.2414946,13.0031554 L49.4686532,1.18655176 C49.4667323,0.851338572 49.5899392,0.545366884 49.7972586,0.325221209 C49.9834329,0.127528788 50.2391789,4.54747351e-13 50.5249759,4.54747351e-13 Z M63.715883,0 C63.9833973,0 64.2248601,0.111865024 64.4071267,0.28855939 C64.6021855,0.477654913 64.7312598,0.73959245 64.7636806,1.03210867 L64.7636806,1.03210867 L64.7721321,12.8991055 C65.937926,13.375298 66.7510125,14.5766044 66.7510125,15.9769736 C66.7510125,16.8898306 66.4061942,17.7189152 65.8421068,18.3183522 C65.297844,18.8967222 64.5476338,19.2601736 63.715883,19.2601736 C62.8844252,19.2601736 62.1348309,18.8969235 61.5910795,18.318807 C61.0272029,17.7192935 60.6827387,16.8900121 60.6827387,15.9769736 C60.6827387,14.6692112 61.3895423,13.5360343 62.4349186,13.0030776 L62.4349186,13.0030776 L62.6620421,1.18655113 C62.6601221,0.851276561 62.7833044,0.545249927 62.9904317,0.325032204 C63.1761081,0.127621077 63.4310475,0 63.715883,0 L63.715883,0 Z M78.2279653,0 C78.4956352,0 78.7372501,0.111883145 78.9196268,0.288639962 C79.1147175,0.477719016 79.2438281,0.739628473 79.2762574,1.03212158 L79.2762574,1.03212158 L79.2847111,12.8992398 C80.4514612,13.375407 81.2621022,14.5768582 81.2621022,15.9769736 C81.2621022,16.8899833 80.9175476,17.7192308 80.3535498,18.3187228 C79.8095985,18.8969068 79.0597209,19.2601736 78.2279653,19.2601736 C77.3962097,19.2601736 76.646332,18.8969068 76.1023807,18.3187228 C75.538383,17.7192308 75.1938284,16.8899833 75.1938284,15.9769736 C75.1938284,14.6692259 75.9008463,13.5360935 76.9464467,13.0031444 L76.9464467,13.0031444 L77.1736283,1.18655266 C77.1717072,0.851306236 77.2949248,0.545312894 77.5020841,0.325116407 C77.6878705,0.127637822 77.9429691,0 78.2279653,0 L78.2279653,0 Z M92.739055,0 C93.0067249,0 93.2483397,0.111883145 93.4307165,0.288639962 C93.6258072,0.477719016 93.7549178,0.739628473 93.7873471,1.03212158 L93.7873471,1.03212158 L93.7958008,12.8992398 C94.9625509,13.375407 95.7731919,14.5768582 95.7731919,15.9769736 C95.7731919,16.8899833 95.4286373,17.7192308 94.8646395,18.3187228 C94.3206882,18.8969068 93.5708106,19.2601736 92.739055,19.2601736 C91.9072994,19.2601736 91.1574217,18.8969068 90.6134704,18.3187228 C90.0494727,17.7192308 89.704918,16.8899833 89.704918,15.9769736 C89.704918,14.6692259 90.411936,13.5360935 91.4575363,13.0031444 L91.4575363,13.0031444 L91.6847179,1.18655606 C91.6828023,0.851125005 91.8056816,0.544875017 92.0129165,0.324598167 C92.1985858,0.127244026 92.4537077,0 92.739055,0 Z" id="形状" fill="url(#linearGradient-1)" fill-rule="nonzero" opacity="0.5"></path>
                    </g>
                </g>
            </g>
        </g>
    </g>
</svg>