<svg width="34" height="34" viewBox="0 0 34 34" fill="none" xmlns="http://www.w3.org/2000/svg">
<rect width="34" height="34" rx="17" fill="black"/>
<path fill-rule="evenodd" clip-rule="evenodd" d="M13.9079 8L13.8289 8.00073C13.3627 8.01093 10.9034 8.16688 8.34393 10.2668L8.30603 10.3438C7.9693 11.0366 5.5 16.335 5.5 22.7334C5.5 22.7334 7.16919 25.8667 11.5586 26C11.5586 26 12.2388 24.9997 12.857 24.1997C10.3222 23.3997 9.39485 21.667 9.39485 21.667L9.4403 21.6978C9.516 21.7483 9.68633 21.8574 9.95129 22.0002C9.95129 22.0002 9.95123 22.0669 10.0131 22.0669C10.0749 22.1336 10.1367 22.1335 10.1985 22.2002C10.6931 22.5335 11.1878 22.7334 11.6206 22.9333C12.4243 23.2667 13.4135 23.5998 14.5263 23.8665C16.01 24.1331 17.741 24.2665 19.6575 23.8665C20.5849 23.6665 21.5123 23.4 22.5015 22.9333C23.1815 22.6667 23.9851 22.267 24.7888 21.667C24.7888 21.667 23.7997 23.3997 21.2031 24.1997C21.2773 24.3064 21.3548 24.416 21.4334 24.5249L21.6702 24.8479C22.1025 25.4311 22.5015 25.9333 22.5015 25.9333C26.8909 25.8 28.5602 22.6667 28.4984 22.7334C28.4984 16.335 26.029 11.0366 25.6923 10.3438L25.6588 10.2756C23.095 8.16702 20.6355 8.01093 20.1692 8.00073L20.0903 8L19.843 8.33325C23.2433 9.46658 24.7888 11.0667 24.7888 11.0667C22.7486 9.80001 20.7086 9.26716 18.8539 9.00049C17.4319 8.86715 16.0718 8.86714 14.8353 9.06714C14.7735 9.06714 14.6499 9.13379 14.5263 9.13379C13.7844 9.20045 12.115 9.46681 10.0131 10.4668C9.27118 10.8001 8.83842 11.0667 8.83842 11.0667C8.83842 11.0667 10.5076 9.39991 14.0934 8.2666L13.9079 8ZM20.5937 15.5C21.7698 15.5 22.7499 16.5 22.7499 17.75C22.7499 19 21.7698 20 20.5937 20C19.4176 20 18.4375 19 18.4375 17.75C18.4375 16.5 19.4176 15.5 20.5937 15.5ZM13.4062 15.5C14.5824 15.5 15.5625 16.5 15.5625 17.75C15.5625 19 14.5824 20 13.4062 20C12.2301 20 11.25 19 11.25 17.75C11.25 16.5 12.2301 15.5 13.4062 15.5Z" fill="#F2F3F5"/>
</svg>
