<svg width="24" height="25" viewBox="0 0 24 25" fill="none" xmlns="http://www.w3.org/2000/svg">
  <rect y="0.5" width="24" height="24" rx="12" fill="#F2F3F5" />
  <path fill-rule="evenodd" clip-rule="evenodd"
    d="M9.84898 6.5L9.79405 6.50049C9.46969 6.50729 7.7589 6.61125 5.97839 8.01123L5.95202 8.0625C5.71777 8.52437 4 12.0567 4 16.3223C4 16.3223 5.16118 18.4111 8.21471 18.5C8.21471 18.5 8.68784 17.8331 9.1179 17.2998C7.3546 16.7665 6.70946 15.6113 6.70946 15.6113L6.74108 15.6318C6.79374 15.6655 6.91223 15.7383 7.09655 15.8335C7.09655 15.8335 7.09651 15.8779 7.13952 15.8779C7.18253 15.9224 7.22553 15.9224 7.26854 15.9668C7.6126 16.189 7.95675 16.3222 8.2578 16.4556C8.8169 16.6778 9.50502 16.8999 10.2792 17.0776C11.3113 17.2554 12.5155 17.3443 13.8487 17.0776C14.4938 16.9443 15.139 16.7667 15.8271 16.4556C16.3002 16.2778 16.8592 16.0113 17.4183 15.6113C17.4183 15.6113 16.7302 16.7665 14.9239 17.2998C14.9755 17.3709 15.0294 17.444 15.0841 17.5166L15.2489 17.7319C15.5495 18.1207 15.8271 18.4556 15.8271 18.4556C18.8806 18.3667 20.0419 16.2778 19.9989 16.3223C19.9989 12.0567 18.2811 8.52437 18.0468 8.0625L18.0235 8.01709C16.24 6.61135 14.529 6.50729 14.2047 6.50049L14.1497 6.5L13.9778 6.72217C16.3432 7.47772 17.4183 8.54443 17.4183 8.54443C15.999 7.7 14.5799 7.34477 13.2896 7.16699C12.3005 7.0781 11.3543 7.0781 10.4941 7.21143C10.4511 7.21143 10.3652 7.25586 10.2792 7.25586C9.76307 7.3003 8.60177 7.47787 7.13952 8.14453C6.62343 8.36675 6.32238 8.54443 6.32238 8.54443C6.32238 8.54443 7.48357 7.43327 9.97801 6.67773L9.84898 6.5ZM14.5 11.5C15.3181 11.5 16 12.1667 16 13C16 13.8333 15.3181 14.5 14.5 14.5C13.6818 14.5 13 13.8333 13 13C13 12.1667 13.6818 11.5 14.5 11.5ZM9.49998 11.5C10.3182 11.5 11 12.1667 11 13C11 13.8333 10.3182 14.5 9.49998 14.5C8.68181 14.5 7.99999 13.8333 7.99999 13C7.99999 12.1667 8.68181 11.5 9.49998 11.5Z"
    fill="black" />
</svg>