<svg width="24" height="25" viewBox="0 0 24 25" fill="none" xmlns="http://www.w3.org/2000/svg">
  <rect y="0.5" width="24" height="24" rx="12" fill="#F2F3F5" />
  <path fill-rule="evenodd" clip-rule="evenodd"
    d="M8.39807 12.9463C7.93172 12.9463 7.55371 13.3232 7.55371 13.7886C7.55371 16.9429 10.116 19.5 13.2767 19.5C13.7431 19.5 14.1212 19.1227 14.1212 18.6572C14.1212 18.1919 13.7431 17.8149 13.2767 17.8149C11.0487 17.8149 9.24243 16.0121 9.24243 13.7886C9.24243 13.3232 8.86442 12.9463 8.39807 12.9463ZM18.1556 10.3687C17.6893 10.3687 17.3112 10.746 17.3112 11.2114C17.3112 13.4349 15.5049 15.2373 13.2769 15.2373C12.8105 15.2373 12.4325 15.6147 12.4325 16.0801C12.4325 16.5455 12.8105 16.9224 13.2769 16.9224C16.4377 16.9224 19 14.3657 19 11.2114C19 10.746 18.622 10.3687 18.1556 10.3687ZM10.7231 8.07764C7.56231 8.07764 5 10.6343 5 13.7886C5 14.2539 5.378 14.6313 5.84436 14.6313C6.31071 14.6313 6.68884 14.2539 6.68884 13.7886C6.68884 11.565 8.49502 9.7627 10.7231 9.7627C11.1895 9.7627 11.5676 9.38531 11.5676 8.91992C11.5676 8.45454 11.1895 8.07764 10.7231 8.07764ZM10.7365 5.5C10.2701 5.5 9.89209 5.87739 9.89209 6.34277C9.89209 6.80816 10.2701 7.18555 10.7365 7.18555C12.9645 7.18555 14.7709 8.98794 14.7709 11.2114C14.7709 11.6768 15.149 12.0537 15.6154 12.0537C16.0816 12.0537 16.4597 11.6768 16.4597 11.2114C16.4597 8.05717 13.8973 5.5 10.7365 5.5Z"
    fill="black" />
</svg>