<svg width="24" height="25" viewBox="0 0 24 25" fill="none" xmlns="http://www.w3.org/2000/svg">
  <rect y="0.5" width="24" height="24" rx="12" fill="#F2F3F5" />
  <path
    d="M14.5687 18.9236C14.5628 18.8744 14.5603 18.8247 14.5613 18.775C14.5532 18.7598 14.5481 18.7428 14.5463 18.7253V16.5921C14.5463 15.9202 14.3297 15.3466 13.8964 14.8724C15.0549 14.6518 15.9214 14.1809 16.4954 13.4587C17.0694 12.7365 17.3569 11.8625 17.3569 10.8371C17.3569 9.87786 17.0749 9.04534 16.5104 8.34011C16.712 7.63432 16.6766 6.89029 16.405 6.10748C16.1225 6.08562 15.8156 6.13807 15.4832 6.2648C15.1507 6.39153 14.9042 6.51007 14.7424 6.61987C14.5817 6.73022 14.4355 6.83512 14.3047 6.93453C13.7202 6.75809 13.0679 6.66959 12.3481 6.66959C11.6274 6.66959 10.9805 6.75809 10.406 6.93453C10.2952 6.84605 10.1664 6.7499 10.0207 6.645C9.87443 6.54012 9.62038 6.41339 9.25752 6.2648C8.89515 6.11567 8.56773 6.05229 8.27523 6.0747C7.99323 6.86844 7.96328 7.62338 8.18488 8.34009C7.63086 9.04588 7.35385 9.87786 7.35385 10.8371C7.35385 11.8625 7.63585 12.7338 8.19987 13.4499C8.76388 14.1667 9.63037 14.6408 10.7988 14.8724C10.4997 15.1867 10.29 15.5889 10.1949 16.0306C9.33838 16.2616 8.73892 16.0961 8.39652 15.5334C7.76163 14.5196 7.19262 14.1557 6.68901 14.4425C6.61814 14.5196 6.62861 14.5993 6.71896 14.6823C6.8098 14.7648 6.94555 14.8752 7.12724 15.0129C7.30841 15.1511 7.44419 15.3024 7.53502 15.4679C7.54501 15.4897 7.57295 15.57 7.61838 15.7077C7.66178 15.8407 7.70704 15.9729 7.75415 16.1043C7.79907 16.231 7.88491 16.372 8.01119 16.526C8.13697 16.6806 8.28322 16.8101 8.44944 16.915C8.61565 17.0193 8.84474 17.0969 9.13673 17.1466C9.42872 17.1958 9.76113 17.1985 10.134 17.1548V18.8166C10.134 18.8329 10.1315 18.8603 10.1265 18.8996C10.1215 18.9378 14.5687 18.9236 14.5687 18.9236Z"
    fill="black" />
</svg>