<svg width="24" height="25" viewBox="0 0 24 25" fill="none" xmlns="http://www.w3.org/2000/svg">
  <rect y="0.5" width="24" height="24" rx="12" fill="#F2F3F5" />
  <path fill-rule="evenodd" clip-rule="evenodd"
    d="M4.5 12.498C4.5 10.148 6.38998 8.23828 8.72998 8.23828C11.07 8.23828 12.96 10.148 12.96 12.498C12.96 14.848 11.07 16.7583 8.72998 16.7583C6.38998 16.7583 4.5 14.848 4.5 12.498ZM13.37 12.498C13.37 10.288 14.32 8.48828 15.49 8.48828C16.65 8.48828 17.6 10.278 17.6 12.498C17.6 14.708 16.65 16.5083 15.49 16.5083C14.32 16.5083 13.37 14.708 13.37 12.498ZM18.01 12.498C18.01 10.518 18.35 8.9082 18.76 8.9082C19.17 8.9082 19.5 10.518 19.5 12.498C19.5 14.478 19.17 16.0884 18.76 16.0884C18.35 16.0884 18.01 14.478 18.01 12.498Z"
    fill="black" />
</svg>