<?xml version="1.0" encoding="UTF-8"?>
<svg width="55px" height="55px" viewBox="0 0 55 55" version="1.1" xmlns="http://www.w3.org/2000/svg" xmlns:xlink="http://www.w3.org/1999/xlink">
    <title>编组 33</title>
    <defs>
        <linearGradient x1="100%" y1="100%" x2="0%" y2="0%" id="linearGradient-1">
            <stop stop-color="#FF1F65" offset="0%"></stop>
            <stop stop-color="#811EFF" offset="71.4447846%"></stop>
            <stop stop-color="#2A1DFF" offset="100%"></stop>
        </linearGradient>
    </defs>
    <g id="页面-1" stroke="none" stroke-width="1" fill="none" fill-rule="evenodd">
        <g id="画板" transform="translate(-1056.000000, -73.000000)">
            <g id="编组-33" transform="translate(1056.000000, 73.000000)">
                <rect id="矩形" x="0" y="0" width="55" height="55"></rect>
                <path d="M35.501834,11.7160187 L35.5018338,11.7160188 C36.456816,10.7613271 38.0048408,10.7613271 38.9598229,11.7160185 L45.2839813,18.0401768 L45.2839812,18.0401767 C46.2386729,18.9951588 46.2386729,20.5431836 45.2839813,21.4981658 L38.959823,27.822324 L38.9598231,27.8223239 C38.004841,28.7770156 36.4568161,28.7770156 35.501834,27.8223241 L29.1776757,21.4981659 L29.1776758,21.498166 C28.2229841,20.5431839 28.2229841,18.995159 29.1776755,18.0401769 L35.5018339,11.7160187 L35.501834,11.7160187 Z M14.6683055,11.7624839 L14.6683053,11.7624839 C12.6423576,11.7624839 11,13.4048415 11,15.4307891 C11,15.4307891 11,15.4307891 11,15.4307891 L11,23.990168 L11,23.9901686 C11,26.0161162 12.6423576,27.6584738 14.6683053,27.6584738 L23.2276843,27.6584738 L23.2276841,27.6584738 C25.2536318,27.6584738 26.8959894,26.0161162 26.8959894,23.9901686 L26.8959894,15.4307897 L26.8959894,15.4307897 C26.8959894,13.404842 25.2536318,11.7624839 23.2276841,11.7624839 L14.6683051,11.7624839 L14.6683055,11.7624839 Z M14.6683055,30.1040101 L14.6683053,30.1040101 C12.6423576,30.1040101 11,31.7463676 11,33.7723153 C11,33.7723153 11,33.7723153 11,33.7723153 L11,42.3316942 L11,42.3316948 C11,44.3576424 12.6423576,46 14.6683053,46 L23.2276843,46 L23.2276841,46 C25.2536318,46 26.8959894,44.3576424 26.8959894,42.3316948 L26.8959894,33.7723159 L26.8959894,33.7723159 C26.8959894,31.7463682 25.2536318,30.1040101 23.2276841,30.1040101 L14.6683051,30.1040101 L14.6683055,30.1040101 Z M33.0098319,30.1040101 L33.0098317,30.1040101 C30.983884,30.1040101 29.3415265,31.7463676 29.3415265,33.7723153 C29.3415265,33.7723153 29.3415265,33.7723153 29.3415265,33.7723153 L29.3415265,42.3316942 L29.3415265,42.3316948 C29.3415265,44.3576424 30.983884,46 33.0098317,46 L41.5692108,46 L41.5692106,46 C43.5951583,46 45.2375159,44.3576424 45.2375159,42.3316948 L45.2375159,33.7723159 L45.2375159,33.7723159 C45.2375159,31.7463682 43.5951583,30.1040101 41.5692106,30.1040101 L33.0098316,30.1040101 L33.0098319,30.1040101 Z" id="形状" fill="url(#linearGradient-1)" fill-rule="nonzero"></path>
            </g>
        </g>
    </g>
</svg>