<svg width="55" height="55" viewBox="0 0 55 55" fill="none" xmlns="http://www.w3.org/2000/svg">
<path fill-rule="evenodd" clip-rule="evenodd" d="M38.9598 11.716C38.0048 10.7613 36.4568 10.7613 35.5018 11.716L29.1777 18.0402C28.223 18.9952 28.223 20.5432 29.1777 21.4982L35.5018 27.8223C36.4568 28.777 38.0048 28.777 38.9598 27.8223L45.284 21.4982C46.2387 20.5432 46.2387 18.9952 45.284 18.0402L38.9598 11.716ZM11 15.4308C11 13.4048 12.6424 11.7625 14.6683 11.7625H23.2277C25.2536 11.7625 26.896 13.4048 26.896 15.4308V23.9902C26.896 26.0161 25.2536 27.6585 23.2277 27.6585H14.6683C12.6424 27.6585 11 26.0161 11 23.9902V15.4308ZM14.6683 30.104C12.6424 30.104 11 31.7464 11 33.7723V42.3317C11 44.3576 12.6424 46 14.6683 46H23.2277C25.2536 46 26.896 44.3576 26.896 42.3317V33.7723C26.896 31.7464 25.2536 30.104 23.2277 30.104H14.6683ZM29.3415 33.7723C29.3415 31.7464 30.9839 30.104 33.0098 30.104H41.5692C43.5952 30.104 45.2375 31.7464 45.2375 33.7723V42.3317C45.2375 44.3576 43.5952 46 41.5692 46H33.0098C30.9839 46 29.3415 44.3576 29.3415 42.3317V33.7723Z" fill="url(#paint0_linear_251_2724)"/>
<defs>
<linearGradient id="paint0_linear_251_2724" x1="63.5" y1="28.5" x2="28.5" y2="-6.5" gradientUnits="userSpaceOnUse">
<stop stop-color="#FF1F65"/>
<stop offset="0.714448" stop-color="#811EFF"/>
<stop offset="1" stop-color="#2A1DFF"/>
</linearGradient>
</defs>
</svg>
