<?xml version="1.0" encoding="UTF-8"?>
<svg width="55px" height="55px" viewBox="0 0 55 55" version="1.1" xmlns="http://www.w3.org/2000/svg" xmlns:xlink="http://www.w3.org/1999/xlink">
    <title>编组 34</title>
    <defs>
        <linearGradient x1="100%" y1="90.9297052%" x2="0%" y2="9.07029478%" id="linearGradient-1">
            <stop stop-color="#FF1F65" offset="0%"></stop>
            <stop stop-color="#811EFF" offset="71.4447846%"></stop>
            <stop stop-color="#2A1DFF" offset="100%"></stop>
        </linearGradient>
    </defs>
    <g id="页面-1" stroke="none" stroke-width="1" fill="none" fill-rule="evenodd">
        <g id="画板" transform="translate(-1056.000000, -173.000000)">
            <g id="编组-34" transform="translate(1056.000000, 173.000000)">
                <rect id="矩形" x="0" y="0" width="55" height="55"></rect>
                <path d="M6,24.7949968 L9,24.7949968 L9,30.8535692 L6,30.8535692 L6,24.7949968 Z M45,24.7949968 L48,24.7949968 L48,30.8535692 L45,30.8535692 L45,24.7949968 Z M40.5,15.7071383 L34.5,15.7071383 L37.5,10.4058875 L37.5,10.4058875 C37.9872516,9.72936273 37.8391144,8.78208128 37.1691305,8.29007314 C36.4991461,7.798065 35.5610227,7.94764831 35.0737711,8.62417264 C35.0136333,8.70767112 34.9621078,8.79716002 34.9199986,8.89124303 L31.4399986,14.9498154 L31.4399987,14.9498153 C31.2889374,15.1756083 31.1961277,15.4359305 31.1699987,15.7071368 L22.8299987,15.7071368 L22.8299987,15.7071227 C22.8312532,15.443731 22.7695009,15.1839271 22.6499926,14.9498012 L19.1699926,8.89122885 L19.1699927,8.89122892 C18.8288158,8.12894692 17.9402599,7.79027746 17.1853521,8.13478776 C16.4304396,8.47929523 16.0950442,9.3765253 16.4362239,10.1388026 C16.478333,10.2328856 16.5298581,10.322374 16.5899964,10.4058729 L19.620001,15.7071237 L13.620001,15.7071237 L13.620001,15.7071237 C12.7915745,15.7071238 12.120001,16.3852531 12.120001,17.2217668 C12.120001,17.2217668 12.120001,17.2217668 12.120001,17.2217668 L12.120001,38.42677 L12.120001,38.4267702 C12.120001,39.2632839 12.7915745,39.9414133 13.620001,39.9414133 L40.620001,39.9414133 L40.620001,39.9414133 C41.4484275,39.9414133 42.120001,39.2632839 42.120001,38.4267702 L42.120001,17.2217671 L42.120001,17.2217615 C42.1226535,16.3852525 41.4532322,15.7049553 40.6248104,15.7022763 C40.5831564,15.7021416 40.5415149,15.703759 40.4999944,15.7071242 L40.5,15.7071383 Z M24,29.3389261 L24,29.3389261 C24,30.1754398 23.3284266,30.8535692 22.5,30.8535692 C21.6715734,30.8535692 21,30.1754398 21,29.3389261 L21,26.3096399 L21,26.3096401 C21,25.4731264 21.6715734,24.7949971 22.5,24.7949971 C23.3284266,24.7949971 24,25.4731264 24,26.3096401 C24,26.3096401 24,26.3096401 24,26.3096401 L24,29.3389261 Z M33,29.3389261 L33,29.3389261 C33,30.1754398 32.3284266,30.8535692 31.5,30.8535692 C30.6715734,30.8535692 30,30.1754398 30,29.3389261 L30,26.3096399 L30,26.3096401 C30,25.4731264 30.6715734,24.7949971 31.5,24.7949971 C32.3284266,24.7949971 33,25.4731264 33,26.3096401 C33,26.3096401 33,26.3096401 33,26.3096401 L33,29.3389261 Z M34.4999999,46 L19.4999999,46 L19.4999999,46 C18.6715734,46 17.9999999,45.3218706 17.9999999,44.4853569 C17.9999999,43.6488432 18.6715734,42.9707138 19.4999999,42.9707138 L34.4999999,42.9707138 L34.4999999,42.9707138 C35.3284264,42.9707138 35.9999999,43.6488432 35.9999999,44.4853569 C35.9999999,45.3218706 35.3284264,46 34.4999999,46 L34.4999999,46 Z" id="形状" fill="url(#linearGradient-1)" fill-rule="nonzero"></path>
            </g>
        </g>
    </g>
</svg>