<?xml version="1.0" encoding="UTF-8"?>
<svg width="55px" height="55px" viewBox="0 0 55 55" version="1.1" xmlns="http://www.w3.org/2000/svg" xmlns:xlink="http://www.w3.org/1999/xlink">
    <title>编组 32</title>
    <defs>
        <rect id="path-1" x="0" y="0" width="55" height="55"></rect>
        <linearGradient x1="-2.22044605e-14%" y1="50%" x2="100%" y2="50%" id="linearGradient-3">
            <stop stop-color="#929297" offset="0%"></stop>
            <stop stop-color="#88878D" offset="78.0357361%"></stop>
            <stop stop-color="#BAB9C6" offset="100%"></stop>
        </linearGradient>
        <linearGradient x1="-1.11022302e-14%" y1="50%" x2="100%" y2="50%" id="linearGradient-4">
            <stop stop-color="#919FB7" offset="0%"></stop>
            <stop stop-color="#F8FAFE" offset="100%"></stop>
        </linearGradient>
    </defs>
    <g id="页面-1" stroke="none" stroke-width="1" fill="none" fill-rule="evenodd">
        <g id="画板" transform="translate(-761.000000, -73.000000)">
            <g id="编组-32" transform="translate(761.000000, 73.000000)">
                <mask id="mask-2" fill="white">
                    <use xlink:href="#path-1"></use>
                </mask>
                <g id="矩形"></g>
                <g id="编组" mask="url(#mask-2)">
                    <g transform="translate(7.000000, 7.000000)" id="矩形">
                        <g id="ring" transform="translate(-0.000000, 0.000000)" fill-rule="nonzero">
                            <path d="M20.0438512,9.45863969 C13.107134,9.43018543 6.97461269,12.9109185 3.26289707,18.1950846 C1.7598526,20.3342073 0.653625724,22.7744896 0.051733984,25.4075939 C0.0174399491,24.9243047 5.07120588e-15,24.4363448 5.07120588e-15,23.9443014 C5.07120588e-15,12.7182002 9.07814569,3.61764706 20.2765747,3.61764706 C32.4436,3.61764706 41,12.0382738 41,22.4256434 C41,30.513296 35.8128967,37.4086601 28.5341027,40.0654412 C26.7650964,40.67035 24.9576221,41 23.0733435,41 C14.3205376,41 6.75885822,33.8869239 6.75885822,25.1125 C6.75885822,23.6050491 6.96828646,22.1466336 7.82569478,20.764898 C7.50394531,21.6171758 7.45805045,22.2496764 7.45805045,22.8929228 C7.45805045,30.1834368 13.5866828,35.8599265 20.8592349,35.8599265 C28.1317869,35.8599265 34.0273552,29.9497971 34.0273552,22.6592831 C34.0273552,16.4851858 29.7991475,11.3010785 24.0871382,9.8581452 C22.9227988,9.62475361 21.7324285,9.46417269 20.0438512,9.45863969 Z" id="Combined-Shape-Copy-34" fill="url(#linearGradient-3)" transform="translate(20.500000, 22.308824) rotate(180.000000) translate(-20.500000, -22.308824) "></path>
                            <path d="M20.0438512,5.84099264 C13.107134,5.81253838 6.97461269,9.29327144 3.26289707,14.5774376 C1.7598526,16.7165601 0.653625724,19.1568426 0.051733984,21.7899469 C0.0174399491,21.3066576 5.07120588e-15,20.8186977 5.07120588e-15,20.3266544 C5.07120588e-15,9.10055314 9.07814569,0 20.2765747,0 C32.4436,0 41,8.42062681 41,18.8079963 C41,26.895649 35.8128967,33.791013 28.5341027,36.4477941 C26.7650964,37.052703 24.9576221,37.3823529 23.0733435,37.3823529 C14.3205376,37.3823529 6.75885822,30.2692769 6.75885822,21.4948529 C6.75885822,19.9874021 6.96828646,18.5289866 7.82569478,17.1472508 C7.50394531,17.9995287 7.45805045,18.6320293 7.45805045,19.2752757 C7.45805045,26.5657897 13.5866828,32.2422794 20.8592349,32.2422794 C28.1317869,32.2422794 34.0273552,26.33215 34.0273552,19.041636 C34.0273552,12.8675387 29.7991475,7.68343139 24.0871382,6.24049816 C22.9227988,6.00710656 21.7324285,5.84652561 20.0438512,5.84099264 Z" id="Combined-Shape-Copy-41" fill="url(#linearGradient-4)"></path>
                        </g>
                    </g>
                </g>
            </g>
        </g>
    </g>
</svg>