<svg width="55" height="55" viewBox="0 0 55 55" fill="none" xmlns="http://www.w3.org/2000/svg">
<mask id="mask0_251_2541" style="mask-type:alpha" maskUnits="userSpaceOnUse" x="0" y="0" width="55" height="55">
<rect width="55" height="55" fill="white"/>
</mask>
<g mask="url(#mask0_251_2541)">
<path d="M27.9561 42.159C34.8929 42.1875 41.0254 38.7067 44.7371 33.4226C46.2401 31.2834 47.3464 28.8432 47.9483 26.2101C47.9826 26.6933 48 27.1813 48 27.6733C48 38.8994 38.9219 48 27.7234 48C15.5564 48 7 39.5794 7 29.192C7 21.1043 12.1871 14.209 19.4659 11.5522C21.2349 10.9473 23.0424 10.6176 24.9267 10.6176C33.6795 10.6176 41.2411 17.7307 41.2411 26.5051C41.2411 28.0126 41.0317 29.471 40.1743 30.8527C40.4961 30.0005 40.5419 29.368 40.5419 28.7247C40.5419 21.4342 34.4133 15.7577 27.1408 15.7577C19.8682 15.7577 13.9726 21.6678 13.9726 28.9584C13.9726 35.1325 18.2009 40.3166 23.9129 41.7595C25.0772 41.9929 26.2676 42.1535 27.9561 42.159Z" fill="url(#paint0_linear_251_2541)"/>
<path d="M27.0439 12.841C20.1071 12.8125 13.9746 16.2933 10.2629 21.5774C8.75985 23.7166 7.65363 26.1568 7.05173 28.7899C7.01744 28.3067 7 27.8187 7 27.3267C7 16.1006 16.0781 7 27.2766 7C39.4436 7 48 15.4206 48 25.808C48 33.8956 42.8129 40.791 35.5341 43.4478C33.7651 44.0527 31.9576 44.3824 30.0733 44.3824C21.3205 44.3824 13.7589 37.2693 13.7589 28.4949C13.7589 26.9874 13.9683 25.529 14.8257 24.1473C14.5039 24.9995 14.4581 25.632 14.4581 26.2753C14.4581 33.5658 20.5867 39.2423 27.8592 39.2423C35.1318 39.2423 41.0274 33.3321 41.0274 26.0416C41.0274 19.8675 36.7991 14.6834 31.0871 13.2405C29.9228 13.0071 28.7324 12.8465 27.0439 12.841Z" fill="url(#paint1_linear_251_2541)"/>
</g>
<defs>
<linearGradient id="paint0_linear_251_2541" x1="48" y1="10.6176" x2="7" y2="10.6176" gradientUnits="userSpaceOnUse">
<stop stop-color="#929297"/>
<stop offset="0.780357" stop-color="#88878D"/>
<stop offset="1" stop-color="#BAB9C6"/>
</linearGradient>
<linearGradient id="paint1_linear_251_2541" x1="7" y1="44.3824" x2="48" y2="44.3824" gradientUnits="userSpaceOnUse">
<stop stop-color="#919FB7"/>
<stop offset="1" stop-color="#F8FAFE"/>
</linearGradient>
</defs>
</svg>
