<?xml version="1.0" encoding="UTF-8"?>
<svg width="30px" height="22px" viewBox="0 0 30 22" version="1.1" xmlns="http://www.w3.org/2000/svg" xmlns:xlink="http://www.w3.org/1999/xlink">
    <title>形状结合</title>
    <defs>
        <linearGradient x1="100%" y1="76.8888889%" x2="0%" y2="23.1111111%" id="linearGradient-1">
            <stop stop-color="#FF1F65" offset="0%"></stop>
            <stop stop-color="#811EFF" offset="71.4447846%"></stop>
            <stop stop-color="#2A1DFF" offset="100%"></stop>
        </linearGradient>
    </defs>
    <g id="首页" stroke="none" stroke-width="1" fill="none" fill-rule="evenodd">
        <g id="Home" transform="translate(-1275.000000, -2333.000000)" fill="url(#linearGradient-1)">
            <path d="M1284.49224,2333.45953 C1285.11447,2332.84409 1286.11781,2332.84959 1286.73326,2333.47183 L1286.73326,2333.47183 L1286.74705,2333.48577 C1287.36363,2334.10915 1287.36363,2335.11267 1286.74705,2335.73606 L1286.74705,2335.73606 L1280.165,2342.389 L1303.4,2342.38909 C1304.28366,2342.38909 1305,2343.10543 1305,2343.98909 L1305,2344.01091 C1305,2344.89457 1304.28366,2345.61091 1303.4,2345.61091 L1280.165,2345.61 L1286.74705,2352.26394 C1287.36363,2352.88733 1287.36363,2353.89085 1286.74705,2354.51423 L1286.73326,2354.52817 C1286.11781,2355.15041 1285.11447,2355.15591 1284.49224,2354.54047 C1284.48812,2354.53639 1284.48402,2354.53229 1284.47994,2354.52817 L1275.45289,2345.40154 C1275.07461,2345.01908 1274.92841,2344.49356 1275.01428,2344.00051 C1274.92821,2343.50715 1275.07436,2342.98117 1275.45289,2342.59846 L1275.45289,2342.59846 L1284.47994,2333.47183 C1284.48402,2333.46771 1284.48812,2333.46361 1284.49224,2333.45953 Z" id="形状结合" transform="translate(1290.000000, 2344.000000) scale(-1, 1) translate(-1290.000000, -2344.000000) "></path>
        </g>
    </g>
</svg>