<?xml version="1.0" encoding="UTF-8"?>
<svg width="30px" height="22px" viewBox="0 0 30 22" version="1.1" xmlns="http://www.w3.org/2000/svg" xmlns:xlink="http://www.w3.org/1999/xlink">
    <title>形状结合</title>
    <defs>
        <linearGradient x1="100%" y1="76.8888889%" x2="0%" y2="23.1111111%" id="linearGradient-1">
            <stop stop-color="#FF1F65" offset="0%"></stop>
            <stop stop-color="#811EFF" offset="71.4447846%"></stop>
            <stop stop-color="#2A1DFF" offset="100%"></stop>
        </linearGradient>
    </defs>
    <g id="首页" stroke="none" stroke-width="1" fill="none" fill-rule="evenodd">
        <g id="Home" transform="translate(-1225.000000, -2333.000000)" fill="url(#linearGradient-1)">
            <path d="M1234.49224,2333.45953 C1235.11447,2332.84409 1236.11781,2332.84959 1236.73326,2333.47183 L1236.73326,2333.47183 L1236.74705,2333.48577 C1237.36363,2334.10915 1237.36363,2335.11267 1236.74705,2335.73606 L1236.74705,2335.73606 L1230.165,2342.389 L1253.4,2342.38909 C1254.28366,2342.38909 1255,2343.10543 1255,2343.98909 L1255,2344.01091 C1255,2344.89457 1254.28366,2345.61091 1253.4,2345.61091 L1230.165,2345.61 L1236.74705,2352.26394 C1237.36363,2352.88733 1237.36363,2353.89085 1236.74705,2354.51423 L1236.73326,2354.52817 C1236.11781,2355.15041 1235.11447,2355.15591 1234.49224,2354.54047 C1234.48812,2354.53639 1234.48402,2354.53229 1234.47994,2354.52817 L1225.45289,2345.40154 C1225.07461,2345.01908 1224.92841,2344.49356 1225.01428,2344.00051 C1224.92821,2343.50715 1225.07436,2342.98117 1225.45289,2342.59846 L1225.45289,2342.59846 L1234.47994,2333.47183 C1234.48402,2333.46771 1234.48812,2333.46361 1234.49224,2333.45953 Z" id="形状结合"></path>
        </g>
    </g>
</svg>