<?xml version="1.0" encoding="UTF-8"?>
<svg width="28px" height="28px" viewBox="0 0 28 28" version="1.1" xmlns="http://www.w3.org/2000/svg" xmlns:xlink="http://www.w3.org/1999/xlink">
    <!-- Generator: Sketch 54.1 (76490) - https://sketchapp.com -->
    <title>Shape</title>
    <desc>Created with Sketch.</desc>
    <g id="Page-1" stroke="none" stroke-width="1" fill="none" fill-rule="evenodd">
        <g id="Home" transform="translate(-1532.000000, -16.000000)" fill="#FFFFFF" fill-rule="nonzero">
            <g id="编组-3">
                <g id="编组-21">
                    <path d="M1534.38313,33.8977273 L1539.41613,33.8977273 C1539.248,32.6583611 1539.15909,31.3501047 1539.15909,30 C1539.15909,28.6498953 1539.248,27.3416389 1539.41613,26.1022727 L1534.38313,26.1022727 C1533.97249,27.3266522 1533.75,28.6373433 1533.75,30 C1533.75,31.3626567 1533.97249,32.6733478 1534.38313,33.8977273 L1534.38313,33.8977273 Z M1535.12675,35.6477273 C1536.58154,38.4428454 1539.08248,40.6064989 1542.11054,41.6196414 C1541.04765,40.1465198 1540.22009,38.0746543 1539.71522,35.6477273 L1535.12675,35.6477273 L1535.12675,35.6477273 Z M1557.61687,33.8977273 C1558.02751,32.6733478 1558.25,31.3626567 1558.25,30 C1558.25,28.6373433 1558.02751,27.3266522 1557.61687,26.1022727 L1552.58387,26.1022727 C1552.752,27.3416389 1552.84091,28.6498953 1552.84091,30 C1552.84091,31.3501047 1552.752,32.6583611 1552.58387,33.8977273 L1557.61687,33.8977273 L1557.61687,33.8977273 Z M1556.87325,35.6477273 L1552.28478,35.6477273 C1551.77991,38.0746543 1550.95235,40.1465198 1549.88946,41.6196414 C1552.91752,40.6064989 1555.41846,38.4428454 1556.87325,35.6477273 L1556.87325,35.6477273 Z M1541.18737,33.8977273 L1550.81263,33.8977273 C1550.99196,32.6759114 1551.09091,31.3658645 1551.09091,30 C1551.09091,28.6341355 1550.99196,27.3240886 1550.81263,26.1022727 L1541.18737,26.1022727 C1541.00804,27.3240886 1540.90909,28.6341355 1540.90909,30 C1540.90909,31.3658645 1541.00804,32.6759114 1541.18737,33.8977273 Z M1541.51151,35.6477273 C1542.40182,39.5869435 1544.16278,42.25 1546,42.25 C1547.83722,42.25 1549.59818,39.5869435 1550.48849,35.6477273 L1541.51151,35.6477273 L1541.51151,35.6477273 Z M1535.12675,24.3522727 L1539.71522,24.3522727 C1540.22009,21.9253457 1541.04765,19.8534802 1542.11054,18.3803586 C1539.08248,19.3935011 1536.58154,21.5571546 1535.12675,24.3522727 L1535.12675,24.3522727 Z M1556.87325,24.3522727 C1555.41846,21.5571546 1552.91752,19.3935011 1549.88946,18.3803586 C1550.95235,19.8534802 1551.77991,21.9253457 1552.28478,24.3522727 L1556.87325,24.3522727 L1556.87325,24.3522727 Z M1541.51151,24.3522727 L1550.48849,24.3522727 C1549.59818,20.4130565 1547.83722,17.75 1546,17.75 C1544.16278,17.75 1542.40182,20.4130565 1541.51151,24.3522727 L1541.51151,24.3522727 Z M1546,44 C1538.26801,44 1532,37.7319865 1532,30 C1532,22.2680135 1538.26801,16 1546,16 C1553.73199,16 1560,22.2680135 1560,30 C1560,37.7319865 1553.73199,44 1546,44 Z" id="Shape"></path>
                </g>
            </g>
        </g>
    </g>
</svg>