<?xml version="1.0" encoding="UTF-8"?>
<svg width="203px" height="24px" viewBox="0 0 203 24" version="1.1" xmlns="http://www.w3.org/2000/svg" xmlns:xlink="http://www.w3.org/1999/xlink">
    <!-- Generator: Sketch 54.1 (76490) - https://sketchapp.com -->
    <title>Logo</title>
    <desc>Created with Sketch.</desc>
    <defs>
        <path d="M187.223249,17.5388528 L187.223249,6.31478811 L190.065907,3.50877193 L203,3.50877193 L203,6.31478811 L191.487236,6.31478811 L190.065907,7.85809701 L190.056031,16.0127827 L191.448822,17.5388528 L200.015209,17.5388528 L200.015209,13.3298286 L195.751223,13.3298286 L195.751223,10.5238124 L202.857867,10.5238124 L202.857867,20.344869 L190.040298,20.344869 L187.223249,17.5388528 Z M173.009961,20.344869 L169.456638,20.344869 L158.796672,7.05321342 L158.796672,20.344869 L155.954014,20.344869 L155.954014,3.50877193 L159.507336,3.50877193 L170.167303,16.8004275 L170.167303,3.50877193 L173.009961,3.50877193 L173.009961,20.344869 Z M119.710127,11.9268205 L125.963975,20.3508772 L122.410652,20.344869 L116.156805,11.9268205 L116.156805,9.12080429 L123.26345,9.12080429 L123.26345,6.31478811 L113.314147,6.31478811 L113.314147,20.344869 L110.47149,20.344869 L110.47149,3.50877193 L124.684677,3.50877193 L126.106107,4.91151164 L126.106107,10.5236782 L124.684677,11.9268205 L119.710127,11.9268205 Z M86.3088987,17.5388528 L96.2582009,17.5388528 L96.2582009,20.344869 L83.4662409,20.344869 L83.4662409,3.50877193 L96.2582009,3.50877193 L96.2582009,6.31478811 L86.3088987,6.31478811 L86.3088987,10.5238124 L96.2582009,10.5238124 L96.2582009,13.3298286 L86.3088987,13.3298286 L86.3088987,17.5388528 Z M62.1463077,6.31478811 L56.4609921,6.31478811 L56.4609921,3.50877193 L70.674281,3.50877193 L70.674281,6.31478811 L64.9889654,6.31478811 L64.9889654,20.344869 L62.1463077,20.344869 L62.1463077,6.31478811 Z M39.4050456,20.344869 L39.4050456,3.50877193 L42.2477033,3.50877193 L42.2477033,20.344869 L39.4050456,20.344869 Z M138.898067,20.344869 L138.898067,3.50877193 L141.740725,3.50877193 L141.740725,20.344869 L138.898067,20.344869 Z M3.24469961,14.6450959 L3.24469961,18.3920169 C4.56006067,18.6104648 5.56234219,19.7428886 5.56234219,21.1070443 C5.56234219,22.6275354 4.31716948,23.860137 2.7811711,23.860137 C1.24517271,23.860137 0,22.6275354 0,21.1070443 C0,19.7428886 1.00228153,18.6104648 2.31764258,18.3920169 L2.31764258,14.6450959 C1.00228153,14.426648 0,13.2942243 0,11.9300685 C0,10.4095774 1.24517271,9.17697578 2.7811711,9.17697578 C4.15923966,9.17697578 5.30321282,10.1691384 5.52388859,11.4712197 L9.30902393,11.4712197 C9.50440975,10.3183599 10.4235953,9.40845439 11.5882129,9.21504116 L11.5882129,5.46812009 C10.2728519,5.24967223 9.27057032,4.11724848 9.27057032,2.75309273 C9.27057032,1.2326016 10.515743,0 12.0517414,0 C13.5877398,0 14.8329125,1.2326016 14.8329125,2.75309273 C14.8329125,4.11724848 13.830631,5.24967223 12.5152699,5.46812009 L12.5152699,9.21504116 C13.6798876,9.40845439 14.5990731,10.3183599 14.7944589,11.4712197 L18.5875019,11.4712197 C18.8022409,10.4240165 19.7375273,9.63582457 20.8587832,9.63582457 C22.1387819,9.63582457 23.1764258,10.6629926 23.1764258,11.9300685 C23.1764258,13.1971445 22.1387819,14.2243125 20.8587832,14.2243125 C19.7375273,14.2243125 18.8022409,13.4361205 18.5875019,12.3889173 L14.7944589,12.3889173 C14.5990731,13.5417771 13.6798876,14.4516826 12.5152699,14.6450959 L12.5152699,18.3920169 C13.6798876,18.5854302 14.5990731,19.4953357 14.7944589,20.6481955 L18.5875019,20.6481955 C18.8022409,19.6009923 19.7375273,18.8128004 20.8587832,18.8128004 C22.1387819,18.8128004 23.1764258,19.8399684 23.1764258,21.1070443 C23.1764258,22.3741202 22.1387819,23.4012882 20.8587832,23.4012882 C19.7375273,23.4012882 18.8022409,22.6130963 18.5875019,21.5658931 L14.7944589,21.5658931 C14.5737831,22.8679744 13.42981,23.860137 12.0517414,23.860137 C10.515743,23.860137 9.27057032,22.6275354 9.27057032,21.1070443 C9.27057032,19.7428886 10.2728519,18.6104648 11.5882129,18.3920169 L11.5882129,14.6450959 C10.4235953,14.4516826 9.50440975,13.5417771 9.30902393,12.3889173 L5.52388859,12.3889173 C5.32850277,13.5417771 4.40931727,14.4516826 3.24469961,14.6450959 Z M2.7811711,5.50618547 C1.24517271,5.50618547 0,4.27358387 0,2.75309273 C0,1.2326016 1.24517271,0 2.7811711,0 C4.31716948,0 5.56234219,1.2326016 5.56234219,2.75309273 C5.56234219,4.27358387 4.31716948,5.50618547 2.7811711,5.50618547 Z M2.7811711,4.58848789 C3.80517002,4.58848789 4.63528516,3.76675349 4.63528516,2.75309273 C4.63528516,1.73943198 3.80517002,0.917697578 2.7811711,0.917697578 C1.75717217,0.917697578 0.927057032,1.73943198 0.927057032,2.75309273 C0.927057032,3.76675349 1.75717217,4.58848789 2.7811711,4.58848789 Z" id="path-1"></path>
    </defs>
    <g id="Symbols" stroke="none" stroke-width="1" fill="none" fill-rule="evenodd">
        <g id="底栏" transform="translate(-410.000000, -80.000000)">
            <g id="Logo" transform="translate(410.000000, 80.000000)">
                <mask id="mask-2" fill="white">
                    <use xlink:href="#path-1"></use>
                </mask>
                <use id="Combined-Shape" fill="#FFFFFF" xlink:href="#path-1"></use>
            </g>
        </g>
    </g>
</svg>