<?xml version="1.0" encoding="UTF-8"?>
<svg width="24px" height="24px" viewBox="0 0 24 24" version="1.1" xmlns="http://www.w3.org/2000/svg" xmlns:xlink="http://www.w3.org/1999/xlink">
    <title>编组 6</title>
    <g id="页面-1" stroke="none" stroke-width="1" fill="none" fill-rule="evenodd">
        <g id="Home" transform="translate(-418.000000, -1525.000000)">
            <g id="编组-9" transform="translate(215.000000, 1494.000000)">
                <g id="编组-6" transform="translate(203.000000, 31.000000)">
                    <rect id="矩形" x="0" y="0" width="24" height="24"></rect>
                    <g id="编组" transform="translate(2.000000, 2.000000)" fill-rule="nonzero">
                        <path d="M10.1927536,20.5333819 C7.77187533,20.5333819 5.57994449,19.4840941 3.91159922,18.0282826 C10.2872065,17.266496 15.1248574,15.2819511 18.4235592,12.0756719 L18.4235561,12.0756749 C19.0813248,11.4488544 19.7610544,10.845488 20.4614657,10.266706 C21.2037458,16.4903585 16.0098379,20.5333819 10.1916992,20.5333819 L10.1927536,20.5333819 Z" id="路径" fill="#979695"></path>
                        <path d="M4.15184852,9.21947999 C4.15184852,10.1301354 4.20010186,13.4596207 4.15184852,15.4102871 C3.82331381,15.7439539 2.58515239,16.0416871 1.39832085,15.7439539 C0.802854505,14.7634864 0,12.4945426 0,10.4514761 C0,4.70726204 4.27503889,0 10.0038455,0 C15.0273342,0 19.5559546,3.78635151 19.5559546,7.76366173 C19.5559546,8.47616897 16.5344756,10.909371 15.7778144,11.4524698 C15.7778144,10.3539349 15.7624144,6.75032854 15.7778144,5.49985914 C15.7870544,4.58407167 13.1454491,4.42904433 12.6013126,5.02964502 L12.6013126,12.8672313 C12.5540859,13.4801513 11.9031775,13.5776857 11.4370713,13.5325121 L11.4370713,7.10659908 C10.6506439,6.38074391 9.31494807,6.34583896 8.21127889,7.10659908 L8.21127889,14.424683 C7.84681281,14.8640978 7.78213273,15.1946831 7.25339704,15.4102848 C7.17639702,13.7696686 7.36530381,10.5233434 7.25339704,9.21947774 C6.96079595,8.47514255 4.94134155,8.47514255 4.15183499,9.21947774 L4.15184852,9.21947999 Z" id="路径" fill="#0C598B"></path>
                    </g>
                </g>
            </g>
        </g>
    </g>
</svg>