<?xml version="1.0" encoding="UTF-8"?>
<svg width="24px" height="24px" viewBox="0 0 24 24" version="1.1" xmlns="http://www.w3.org/2000/svg" xmlns:xlink="http://www.w3.org/1999/xlink">
    <title>编组 7</title>
    <g id="页面-1" stroke="none" stroke-width="1" fill="none" fill-rule="evenodd">
        <g id="Home" transform="translate(-447.000000, -1525.000000)">
            <g id="编组-9" transform="translate(215.000000, 1494.000000)">
                <g id="编组-7" transform="translate(232.000000, 31.000000)">
                    <rect id="矩形" x="0" y="0" width="24" height="24"></rect>
                    <g id="编组-2" transform="translate(2.000000, 2.000000)" fill-rule="nonzero">
                        <path d="M1.47262597,18.5089133 L0.173249517,14.0044015 L3.9558765,13.9466515 L6.12151069,17.2383984 L1.47262597,18.5089133 L1.47262597,18.5089133 Z M14.6685207,17.2384114 L16.834159,13.9466645 L20.616786,14.0044145 L19.2885349,18.5089263 L14.6685207,17.2384244 L14.6685207,17.2384114 Z" id="形状" fill="#E27625"></path>
                        <path d="M8.86463042,15.9101604 L6.09263408,17.2384114 L6.46800973,14.0332761 L8.86463042,15.9101523 L8.86463042,15.9101604 Z M14.6685187,17.2384114 L11.8965223,15.9101604 L14.293141,14.0621588 L14.6685187,17.2384114 L14.6685187,17.2384114 Z" id="形状" fill="#E27625"></path>
                        <path d="M8.66251647,18.451154 L6.09263408,17.2384013 L8.86463042,15.9101502 L8.6625051,17.7004027 L8.6625051,18.451154 L8.66251647,18.451154 Z M11.9253811,15.9101381 L14.6973892,17.2383911 L12.1275068,18.4511418 L12.1563818,17.7003905 L11.9253811,15.9101381 L11.9253811,15.9101381 Z" id="形状" fill="#D5BFB2"></path>
                        <path d="M16.2277745,10.3084064 L11.6366471,10.5105317 L12.0697719,12.8494093 L12.7338974,11.4345325 L14.3508983,12.1852838 L16.2277745,10.3084064 L16.2277745,10.3084064 Z M6.49688228,13.9466515 L6.09263205,17.2384074 L3.92699786,14.0044015 L6.49688228,13.9466515 L6.49688228,13.9466515 Z M14.6685187,17.2384163 L14.2642685,13.9466605 L16.8052803,14.0044104 L14.668537,17.2384163 L14.6685187,17.2384163 Z M8.05613402,11.4345191 L6.43913311,12.1852704 L4.5911315,10.3083942 L9.18225487,10.5105195 L8.74913006,12.8493971 L8.05612996,11.4345203 L8.05613402,11.4345191 Z" id="形状" fill="#CC6228"></path>
                        <path d="M9.06676467,6.06376985 L9.00901449,6.00601968 L9.15338963,10.4816407 L4.56226625,10.2795153 L6.41026787,12.1563915 L6.46801805,14.0043932 L4.56226524,10.2506367 L5.86164169,8.31600931 L8.74914042,5.77499745 L1.03951355,0 L7.65189821,2.45438001 L8.92240009,5.63062454 L9.00902525,5.54399937 L9.00902525,5.86162383 L9.06677543,6.06374914 L9.06676467,6.06376985 Z M11.9831339,5.7461454 L19.7505221,1.8475509e-05 L13.1381375,2.45439848 L11.8098864,5.57290197 L11.7232613,5.515152 L11.7232613,5.77502729 L11.6366361,6.006028 L11.7232613,5.94827803 L11.6366361,10.5105309 L16.2277595,10.3084056 L14.3797579,12.1852818 L14.2931327,14.0332834 L16.1988855,10.2795269 L14.899509,8.34489953 L11.9831398,5.74614662 L11.9831339,5.7461454 Z M9.15337623,10.5105305 L8.72025142,12.8494101 L9.26887658,15.6214065 L9.38437674,11.9542819 L9.15337603,10.5105305 L9.15337623,10.5105305 Z" id="形状" fill="#E27525"></path>
                        <polygon id="路径" fill="#E27525" points="11.4056423 11.9542697 11.636643 10.4816437 12.0697678 12.8205213 11.5211426 15.5925177 11.4056425 11.9542636"></polygon>
                        <path d="M8.72025751,12.8493979 L6.41025041,12.1852724 L8.02725132,11.4345211 L8.72025751,12.8493979 L8.72025751,12.8493979 Z M12.0697556,12.8493979 L12.7338913,11.4345211 L14.3508922,12.1852724 L12.0697556,12.8493979 L12.0697556,12.8493979 Z M11.5211406,15.6213943 L11.8965163,15.8812696 L12.127517,17.671522 L11.9253917,17.4982719 L8.8646292,17.4982719 L8.66250388,17.7003972 L8.89350459,15.9101448 L9.26888024,15.6502695 L11.521126,15.6502695 L11.5211406,15.6213943 Z" id="形状" fill="#161616"></path>
                        <polygon id="路径" fill="#C0AC9D" points="12.1275068 18.451152 12.1563818 17.7004007 11.9542565 17.5271505 8.86462351 17.5271505 8.6624982 17.7004007 8.69137319 18.451152 6.1214908 17.2384013 7.01661702 17.9891526 8.83574406 19.2596544 11.9542476 19.2596544 13.7733746 17.9891526 14.6685008 17.2384013 12.127489 18.451152"></polygon>
                        <path d="M0.693000099,6.41027701 L0,3.08963927 L1.03950116,6.29385477e-06 L8.89350094,5.80389456 L5.86162931,8.34490643 L1.58812227,9.58653373 L0.635246877,8.4892834 L1.0394971,8.20053353 L0.375371585,7.59415717 L0.895122168,7.21878152 L0.230996649,6.72790552 L0.692998069,6.41028107 L0.693000099,6.41027701 Z M20.7900416,3.08963927 L20.0970293,6.41027701 L20.5301541,6.72790146 L19.8949031,7.21877746 L20.3857792,7.59415311 L19.7216536,8.20052947 L20.1259039,8.48927934 L19.1730285,9.58652966 L14.8995214,8.34490237 L11.8676498,5.8038905 L19.7505404,2.23330335e-06 L20.7900416,3.08963521 L20.7900416,3.08963927 Z" id="形状" fill="#763E1A"></path>
                        <path d="M11.9253929,5.80389456 L11.6655176,10.5105203 L11.5500174,11.9831463 L11.5500174,15.6214004 L9.29777167,15.6214004 L9.29777167,11.9831463 L9.18227152,10.5105203 L8.92239623,5.80389456 L7.65189435,2.4543863 L13.1670165,2.4543863 L11.9253892,5.80389456 L11.9253929,5.80389456 Z M5.86162931,8.34490481 L1.58812227,9.58653373 L0.173245457,14.0044137 L3.95587244,14.0044137 L6.49688431,14.0332887 L4.5911315,10.2795322 L5.86163337,8.34490481 L5.86162931,8.34490481 Z" id="形状" fill="#F5841F"></path>
                        <path d="M14.928394,8.34488613 L19.201901,9.58651342 L20.6456524,14.0043934 L16.8341549,14.0043934 L14.293143,14.0332684 L11.8965244,15.88127 L11.5211487,15.6213947 L12.0697739,12.8493983 L14.379781,12.1852728 L14.2931558,14.0332744 L16.1989086,10.279518 L14.9284068,8.34488613 L14.928394,8.34488613 Z M6.43912378,12.1852745 L6.49689121,14.0332761 L8.89350987,15.8812777 L9.26888552,15.6214024 L8.72026035,12.8494061 L6.43912378,12.1852745 L6.43912378,12.1852745 Z" id="形状" fill="#F5841F"></path>
                    </g>
                </g>
            </g>
        </g>
    </g>
</svg>