<?xml version="1.0" encoding="UTF-8"?>
<svg width="24px" height="24px" viewBox="0 0 24 24" version="1.1" xmlns="http://www.w3.org/2000/svg" xmlns:xlink="http://www.w3.org/1999/xlink">
    <title>编组 5</title>
    <defs>
        <linearGradient x1="100%" y1="100%" x2="0%" y2="0%" id="linearGradient-1">
            <stop stop-color="#FE3876" offset="0%"></stop>
            <stop stop-color="#7C30DD" offset="71.4447846%"></stop>
            <stop stop-color="#3A30DD" offset="100%"></stop>
        </linearGradient>
    </defs>
    <g id="页面-1" stroke="none" stroke-width="1" fill="none" fill-rule="evenodd">
        <g id="Home" transform="translate(-389.000000, -1525.000000)">
            <g id="编组-9" transform="translate(215.000000, 1494.000000)">
                <g id="编组-5" transform="translate(174.000000, 31.000000)">
                    <rect id="矩形" x="0" y="0" width="24" height="24"></rect>
                    <g id="编组-4" transform="translate(1.000000, 1.000000)">
                        <circle id="椭圆形" fill="url(#linearGradient-1)" fill-rule="nonzero" cx="11" cy="11" r="11"></circle>
                        <path d="M11.84984,5.05161333 C12.3191733,4.58228 12.3191733,3.82134667 11.84984,3.35201333 C11.3805067,2.88268 10.6195733,2.88268 10.15024,3.35201333 L3.35210667,10.15028 C2.88277333,10.6196133 2.88277333,11.3805467 3.35210667,11.8497467 L6.75117333,15.2488133 L6.75117333,15.2489467 C7.22050667,15.71828 7.98130667,15.71828 8.45064,15.2489467 L14.3991733,9.30041333 L16.0987733,11.0000133 L10.15024,16.9485467 C9.68090667,17.4177467 9.68090667,18.17868 10.15024,18.6481467 C10.6195733,19.1173467 11.3805067,19.1173467 11.84984,18.6481467 L18.6479733,11.8497467 C19.1173067,11.3805467 19.1173067,10.6196133 18.6479733,10.15028 L15.2489067,6.75108 C14.7795733,6.28188 14.0187733,6.28188 13.54944,6.75108 L7.60090667,12.6996133 L5.90130667,11.0000133 L11.84984,5.05161333 Z" id="Fill-1" fill="#FFFFFF" opacity="0.200000003"></path>
                        <path d="M5.0516,10.15032 C5.52093333,10.6196533 5.52093333,11.3805867 5.0516,11.8497867 C4.58226667,12.3192533 3.82133333,12.3192533 3.352,11.8497867 C2.88266667,11.3805867 2.88266667,10.6196533 3.352,10.15032 C3.82133333,9.68085333 4.58226667,9.68085333 5.0516,10.15032" id="Fill-3" fill="#FFFFFF"></path>
                        <path d="M8.45069333,6.75109333 C8.92002667,7.22056 8.92002667,7.98149333 8.45069333,8.45069333 C7.98136,8.92002667 7.22042667,8.92002667 6.75109333,8.45069333 C6.28176,7.98149333 6.28176,7.22056 6.75109333,6.75122667 C7.22042667,6.28176 7.98136,6.28176 8.45069333,6.75109333" id="Fill-5" fill="#FFFFFF"></path>
                        <path d="M11.84984,3.352 C12.3191733,3.82146667 12.3191733,4.5824 11.84984,5.0516 C11.3805067,5.52093333 10.6195733,5.52093333 10.15024,5.0516 C9.68090667,4.5824 9.68090667,3.82146667 10.15024,3.352 C10.6195733,2.88266667 11.3805067,2.88266667 11.84984,3.352" id="Fill-7" fill="#FFFFFF"></path>
                        <path d="M8.45069333,13.5494 C8.92002667,14.0187333 8.92002667,14.7796667 8.45069333,15.249 C7.98136,15.7183333 7.22042667,15.7183333 6.75109333,15.249 C6.28176,14.7796667 6.28176,14.0187333 6.75109333,13.5494 C7.22042667,13.0800667 7.98136,13.0800667 8.45069333,13.5494" id="Fill-9" fill="#FFFFFF"></path>
                        <path d="M11.84984,10.15032 C12.3191733,10.6196533 12.3191733,11.3805867 11.84984,11.8497867 C11.3805067,12.3192533 10.6195733,12.3192533 10.15024,11.8497867 C9.68090667,11.3805867 9.68090667,10.6196533 10.15024,10.15032 C10.6195733,9.68085333 11.3805067,9.68085333 11.84984,10.15032" id="Fill-11" fill="#FFFFFF"></path>
                        <path d="M15.2489333,6.75109333 C15.7182667,7.22056 15.7182667,7.98149333 15.2489333,8.45069333 C14.7796,8.92002667 14.0186667,8.92002667 13.5493333,8.45069333 C13.08,7.98149333 13.08,7.22056 13.5493333,6.75122667 C14.0186667,6.28176 14.7796,6.28176 15.2489333,6.75109333" id="Fill-13" fill="#FFFFFF"></path>
                        <path d="M11.84984,16.9484933 C12.3191733,17.4178267 12.3191733,18.17876 11.84984,18.6480933 C11.3805067,19.1174267 10.6195733,19.1174267 10.15024,18.6480933 C9.68090667,18.17876 9.68090667,17.4178267 10.15024,16.9484933 C10.6195733,16.47916 11.3805067,16.47916 11.84984,16.9484933" id="Fill-15" fill="#FFFFFF"></path>
                        <path d="M15.2489333,13.5494 C15.7182667,14.0187333 15.7182667,14.7796667 15.2489333,15.2488667 C14.7796,15.7183333 14.0186667,15.7183333 13.5493333,15.249 C13.08,14.7796667 13.08,14.0187333 13.5493333,13.5494 C14.0186667,13.0800667 14.7796,13.0800667 15.2489333,13.5494" id="Fill-17" fill="#FFFFFF"></path>
                        <path d="M18.6480267,10.15032 C19.11736,10.6196533 19.11736,11.3805867 18.6480267,11.8497867 C18.1786933,12.3192533 17.41776,12.3192533 16.9484267,11.8497867 C16.4790933,11.3805867 16.4790933,10.6196533 16.9484267,10.15032 C17.41776,9.68085333 18.1786933,9.68085333 18.6480267,10.15032" id="Fill-19" fill="#FFFFFF"></path>
                    </g>
                </g>
            </g>
        </g>
    </g>
</svg>