<?xml version="1.0" encoding="UTF-8"?>
<svg width="80px" height="80px" viewBox="0 0 80 80" version="1.1" xmlns="http://www.w3.org/2000/svg" xmlns:xlink="http://www.w3.org/1999/xlink">
    <title>切片</title>
    <defs>
        <linearGradient x1="-2.22044605e-14%" y1="50%" x2="100%" y2="50%" id="linearGradient-1">
            <stop stop-color="#929297" offset="0%"></stop>
            <stop stop-color="#88878D" offset="78.0357361%"></stop>
            <stop stop-color="#BAB9C6" offset="100%"></stop>
        </linearGradient>
        <linearGradient x1="-1.11022302e-14%" y1="50%" x2="100%" y2="50%" id="linearGradient-2">
            <stop stop-color="#919FB7" offset="0%"></stop>
            <stop stop-color="#F8FAFE" offset="100%"></stop>
        </linearGradient>
    </defs>
    <g id="页面-1" stroke="none" stroke-width="1" fill="none" fill-rule="evenodd">
        <g id="Home" transform="translate(-258.000000, -1545.000000)" fill-rule="nonzero">
            <g id="编组-9" transform="translate(215.000000, 1494.000000)">
                <g id="ring" transform="translate(43.000000, 51.000000)">
                    <path d="M39.1099536,18.4558823 C25.5748956,18.4003618 13.6090004,25.192036 6.36662844,35.5026042 C3.43385873,39.676502 1.27536727,44.4380286 0.100944359,49.575793 C0.0340291691,48.6327897 1.67186526e-14,47.6806727 1.67186526e-14,46.7205882 C1.67186526e-14,24.8160005 17.713455,7.05882353 39.5640481,7.05882353 C63.3045853,7.05882353 80,23.4893148 80,43.757353 C80,59.5381386 69.8788228,72.9925076 55.676298,78.1764706 C52.2245783,79.3567805 48.6977992,80 45.0211581,80 C27.9425123,80 13.188016,66.1208272 13.188016,48.9999999 C13.188016,46.0586324 13.5966565,43.2129436 15.2696484,40.5168741 C14.6418445,42.1798552 14.5522936,43.4140027 14.5522936,44.6691176 C14.5522936,58.8945109 26.5106006,69.9705882 40.7009461,69.9705882 C54.8912916,69.9705882 66.3948394,58.4386286 66.3948394,44.2132353 C66.3948394,32.1662162 58.1446781,22.0508848 46.9992941,19.2354053 C44.7274123,18.780007 42.4047386,18.4666784 39.1099536,18.4558823 Z" id="Combined-Shape-Copy-34" fill="url(#linearGradient-1)" transform="translate(40.000000, 43.529412) rotate(180.000000) translate(-40.000000, -43.529412) "></path>
                    <path d="M39.1099536,11.3970588 C25.5748956,11.3415383 13.6090004,18.1332126 6.36662844,28.4437807 C3.43385873,32.6176783 1.27536727,37.3792051 0.100944359,42.5169695 C0.0340291691,41.5739661 1.67186526e-14,40.6218492 1.67186526e-14,39.6617647 C1.67186526e-14,17.7571769 17.713455,0 39.5640481,0 C63.3045853,0 80,16.4304913 80,36.6985293 C80,52.4793151 69.8788228,65.9336839 55.676298,71.117647 C52.2245783,72.297957 48.6977992,72.9411765 45.0211581,72.9411765 C27.9425123,72.9411765 13.188016,59.0620037 13.188016,41.9411764 C13.188016,38.9998089 13.5966565,36.1541201 15.2696484,33.4580504 C14.6418445,35.1210316 14.5522936,36.3551792 14.5522936,37.6102941 C14.5522936,51.8356872 26.5106006,62.9117647 40.7009461,62.9117647 C54.8912916,62.9117647 66.3948394,51.3798049 66.3948394,37.1544118 C66.3948394,25.1073926 58.1446781,14.9920613 46.9992941,12.1765818 C44.7274123,11.7211835 42.4047386,11.4078549 39.1099536,11.3970588 Z" id="Combined-Shape-Copy-41" fill="url(#linearGradient-2)"></path>
                </g>
            </g>
        </g>
    </g>
</svg>