<?xml version="1.0" encoding="UTF-8"?>
<svg width="80px" height="80px" viewBox="0 0 80 80" version="1.1" xmlns="http://www.w3.org/2000/svg" xmlns:xlink="http://www.w3.org/1999/xlink">
    <title>切片</title>
    <defs>
        <linearGradient x1="50%" y1="100%" x2="50%" y2="3.061617e-15%" id="linearGradient-1">
            <stop stop-color="#ABEC79" offset="0%"></stop>
            <stop stop-color="#72D444" offset="100%"></stop>
        </linearGradient>
        <linearGradient x1="50%" y1="0%" x2="50%" y2="98.134935%" id="linearGradient-2">
            <stop stop-color="#36B564" offset="0%"></stop>
            <stop stop-color="#598E69" offset="100%"></stop>
        </linearGradient>
        <linearGradient x1="50%" y1="100%" x2="50%" y2="-2.48949813e-15%" id="linearGradient-3">
            <stop stop-color="#499D6C" offset="0%"></stop>
            <stop stop-color="#1C8441" offset="100%"></stop>
        </linearGradient>
        <linearGradient x1="-1.11022302e-14%" y1="50%" x2="100%" y2="50%" id="linearGradient-4">
            <stop stop-color="#4C9B72" offset="0%"></stop>
            <stop stop-color="#25623E" offset="100%"></stop>
        </linearGradient>
        <linearGradient x1="50%" y1="0%" x2="50%" y2="98.0604227%" id="linearGradient-5">
            <stop stop-color="#B1F286" offset="0%"></stop>
            <stop stop-color="#6BD240" offset="100%"></stop>
        </linearGradient>
        <linearGradient x1="100%" y1="50%" x2="0%" y2="50%" id="linearGradient-6">
            <stop stop-color="#A6E579" offset="0%"></stop>
            <stop stop-color="#66B740" offset="100%"></stop>
        </linearGradient>
        <linearGradient x1="50%" y1="100%" x2="50%" y2="3.061617e-15%" id="linearGradient-7">
            <stop stop-color="#399163" offset="0%"></stop>
            <stop stop-color="#205A38" offset="100%"></stop>
        </linearGradient>
        <linearGradient x1="50%" y1="0%" x2="50%" y2="100%" id="linearGradient-8">
            <stop stop-color="#54A66D" offset="0%"></stop>
            <stop stop-color="#2A6D3B" offset="100%"></stop>
        </linearGradient>
        <linearGradient x1="50%" y1="0%" x2="50%" y2="100%" id="linearGradient-9">
            <stop stop-color="#B1F286" offset="0%"></stop>
            <stop stop-color="#79E14E" offset="100%"></stop>
        </linearGradient>
        <linearGradient x1="50%" y1="0%" x2="50%" y2="100%" id="linearGradient-10">
            <stop stop-color="#4C9D69" offset="0%"></stop>
            <stop stop-color="#256438" offset="100%"></stop>
        </linearGradient>
    </defs>
    <g id="页面-1" stroke="none" stroke-width="1" fill="none" fill-rule="evenodd">
        <g id="Home" transform="translate(-778.000000, -1545.000000)" fill-rule="nonzero">
            <g id="编组-9" transform="translate(215.000000, 1494.000000)">
                <g id="矩形" transform="translate(563.000000, 51.000000)">
                    <g id="kton" transform="translate(0.103711, 8.470588)">
                        <polygon id="Path" fill="url(#linearGradient-1)" points="12.9592942 0 19.3498851 7.71748493 0 15.4349699"></polygon>
                        <polygon id="Combined-Shape" fill="url(#linearGradient-2)" points="39.9890387 38.8879053 59.6802656 15.4349699 69.7235556 15.4349699 39.9381479 51.0824002"></polygon>
                        <polygon id="Combined-Shape-Copy-16" fill="url(#linearGradient-3)" points="59.6802656 15.4349699 0 15.4349699 19.3498851 7.71748493 63.4722972 7.71748493 69.7235556 15.4349699"></polygon>
                        <polygon id="Combined-Shape-Copy-16" fill="url(#linearGradient-4)" points="59.6802656 15.4349699 63.4722972 7.71748493 69.7235556 15.4349699"></polygon>
                        <polygon id="Combined-Shape" fill="url(#linearGradient-5)" points="63.4722972 7.71748493 19.3498851 7.71748493 12.9592942 0 67.0039595 0"></polygon>
                        <polygon id="Combined-Shape-Copy" fill="url(#linearGradient-6)" points="69.7235556 15.4349699 63.4722972 7.71748493 67.0039595 0 79.8413484 15.4349699"></polygon>
                        <polygon id="Combined-Shape-Copy" fill="url(#linearGradient-7)" points="39.9381479 51.0824002 69.7235556 15.4349699 79.8413484 15.4349699 50.0695802 50.8941805 40.0073211 62.9222309"></polygon>
                        <polygon id="Combined-Shape-Copy" fill="url(#linearGradient-8)" points="28.1710732 37.1174275 39.9381479 51.0824002 40.0073211 62.9222309 13.0960232 30.8699398"></polygon>
                        <polygon id="Combined-Shape-Copy" fill="url(#linearGradient-9)" points="28.1710732 37.1174275 13.0960232 30.8699398 33.2571061 30.8699398"></polygon>
                        <polygon id="Combined-Shape" fill="url(#linearGradient-10)" points="33.2571061 30.8699398 28.1710732 37.1174275 39.9381479 51.0824002 39.9890387 38.8879053"></polygon>
                    </g>
                </g>
            </g>
        </g>
    </g>
</svg>