<svg width="28" height="28" viewBox="0 0 28 28" fill="none" xmlns="http://www.w3.org/2000/svg">
<rect x="1" y="1" width="26" height="26" rx="10" fill="white" fill-opacity="0.5" stroke="#CCCCCC"/>
<path d="M8.48905 13.6648C7.75165 12.8424 6.48719 12.7735 5.66481 13.5109C4.84243 14.2483 4.77355 15.5128 5.51095 16.3352L8.48905 13.6648ZM11.4834 20L9.99431 21.3352C10.3546 21.737 10.8619 21.9761 11.4011 21.9983C11.9402 22.0205 12.4655 21.8239 12.8576 21.4531L11.4834 20ZM22.3742 12.4531C23.1767 11.6941 23.2121 10.4283 22.4531 9.62578C21.6941 8.82325 20.4283 8.78793 19.6258 9.54689L22.3742 12.4531ZM5.51095 16.3352L9.99431 21.3352L12.9724 18.6648L8.48905 13.6648L5.51095 16.3352ZM12.8576 21.4531L22.3742 12.4531L19.6258 9.54689L10.1091 18.5469L12.8576 21.4531Z" fill="#EC3783"/>
</svg>
