<?xml version="1.0" encoding="UTF-8"?>
<svg width="55px" height="55px" viewBox="0 0 55 55" version="1.1" xmlns="http://www.w3.org/2000/svg" xmlns:xlink="http://www.w3.org/1999/xlink">
    <title>编组 34</title>
    <defs>
        <linearGradient x1="88.2558929%" y1="100%" x2="11.7441071%" y2="0%" id="linearGradient-1">
            <stop stop-color="#FF1F65" offset="0%"></stop>
            <stop stop-color="#811EFF" offset="71.4447846%"></stop>
            <stop stop-color="#2A1DFF" offset="100%"></stop>
        </linearGradient>
    </defs>
    <g id="页面-1" stroke="none" stroke-width="1" fill="none" fill-rule="evenodd">
        <g id="画板" transform="translate(-374.000000, -240.000000)">
            <g id="编组-41" transform="translate(59.000000, 113.000000)">
                <g id="编组-34" transform="translate(315.000000, 127.000000)">
                    <rect id="矩形" x="0" y="0" width="55" height="55"></rect>
                    <g id="编组-26" transform="translate(9.000000, 5.000000)" fill-rule="nonzero">
                        <path d="M1.67200195,0 C0.825439242,0 0,0.836000973 0,1.65000192 L0,42.3500493 C0,43.1860503 0.847439267,44.0000512 1.67200195,44.0000512 L36.8148514,44.0000512 C37.6622907,44.0000512 38.4872917,43.1640502 38.4872917,42.3500493 L38.4872917,9.63601121 L28.743042,0.0220000256 L1.67201054,0.0220000256 L1.67201054,0 L1.67200195,0 Z" id="路径" fill="url(#linearGradient-1)"></path>
                        <path d="M24.1064613,10.3584726 C24.4387687,10.783329 24.3915289,11.3970105 23.9663709,11.7258265 C23.1997253,12.3563194 22.5282599,12.9898293 21.9514398,13.6280263 C22.0123959,13.6649623 22.0694111,13.7086198 22.1223904,13.7590026 L27.3676349,19.0005261 C27.6243276,19.2700645 27.7065722,19.6441417 27.6143689,19.9806688 C28.5012843,19.2844774 29.3790763,18.4066474 30.2508906,17.3466789 C30.5815691,16.9234503 31.244555,16.8274099 31.6208442,17.2050601 C32.0460023,17.535504 32.1421108,18.1980195 31.7625636,18.5756696 C28.2016256,22.8788653 24.3490914,24.6445969 20.2378692,23.7742097 C21.4823492,28.0653059 19.9089278,32.0317029 15.5173786,35.533387 L15.2237537,35.7635835 C15.0590381,35.9214238 14.8377442,36.0064765 14.6096366,35.9996148 L14.6080075,35.9996149 C14.361424,35.9996149 14.0761782,35.891188 13.91487,35.7059587 L13.8537999,35.6219647 C13.5293675,35.174932 13.6124502,34.5522467 14.0427593,34.2057766 C18.2487286,30.9469164 19.5714424,27.4520248 18.0597695,23.4866983 C18.003609,23.3413894 17.9506487,23.19639 17.9008847,23.0517013 C16.5719579,22.6434166 15.2855523,22.5579014 14.0391776,22.8020793 C14.1603699,22.8492659 14.274011,22.9201329 14.3734375,23.0146866 L18.1070091,26.7439818 C18.4847212,27.1405958 18.4847212,27.7635558 18.107009,28.1601698 C17.9652897,28.397829 17.680222,28.4906137 17.3984123,28.4906137 C17.1149737,28.4906137 16.9260146,28.3978289 16.6898157,28.1601698 L12.9562442,24.4308747 C12.6155627,24.0731444 12.5821626,23.5312742 12.8560437,23.137438 C12.2430192,23.3662661 11.6388801,23.6792611 11.044085,24.0771789 C11.2243488,24.114655 11.3953889,24.2013902 11.5374217,24.3364621 L16.7826663,29.5779857 C17.1612056,29.9742691 17.1612056,30.5978903 16.7826662,30.9941737 C16.6425758,31.230205 16.3591371,31.3246176 16.0756985,31.3246176 L16.0740696,31.3246176 C15.7906309,31.3246176 15.6016718,31.230205 15.3654729,30.9941736 L10.1202284,25.7526502 C9.92349314,25.5460696 9.82922949,25.2780824 9.83743747,25.0126571 C9.2073531,25.5689972 8.58665917,26.2272682 7.97596595,26.9873879 L7.75823962,27.2632506 C7.63025036,27.5633945 7.32847216,27.7518711 7.00240314,27.7353133 L7.00077401,27.7353134 C6.81060569,27.7414954 6.62508987,27.6834058 6.47338744,27.5722522 L6.38665679,27.499282 C5.9563472,27.1528119 5.87326525,26.5301266 6.19769793,26.083094 C9.58076212,21.7976049 13.3210573,20.0295518 17.3904417,20.8719532 C16.9234556,17.0863309 18.7313131,13.5267216 22.7365077,10.2168538 C23.1632947,9.88640992 23.7774118,9.93361619 24.1064613,10.3584726 Z M19.5033927,21.4698825 L19.5167125,21.5250525 C20.6397211,21.910744 21.7327936,22.0672158 22.8024088,21.9922597 L19.3839329,18.5772881 C19.2400002,19.5223585 19.2803149,20.4850115 19.5033927,21.4698825 Z M20.0242481,16.4678447 L19.9646687,16.6029274 C20.1654053,16.6338393 20.3587593,16.7244022 20.5162379,16.8746163 L24.2498096,20.6055393 C24.5324141,20.9013909 24.6040357,21.3239518 24.4646744,21.6840283 C25.1604648,21.4724443 25.8482006,21.1579262 26.5289599,20.7397617 C26.3133145,20.7129576 26.1484828,20.6146149 25.9504415,20.4167141 L20.7287082,15.1997549 C20.4542329,15.6197497 20.2194616,16.042294 20.0242481,16.4678447 Z" id="形状结合" fill="#FFFFFF"></path>
                    </g>
                </g>
            </g>
        </g>
    </g>
</svg>