<?xml version="1.0" encoding="UTF-8"?>
<svg width="55px" height="55px" viewBox="0 0 55 55" version="1.1" xmlns="http://www.w3.org/2000/svg" xmlns:xlink="http://www.w3.org/1999/xlink">
    <title>编组 33</title>
    <defs>
        <linearGradient x1="100%" y1="100%" x2="0%" y2="0%" id="linearGradient-1">
            <stop stop-color="#FF1F65" offset="0%"></stop>
            <stop stop-color="#811EFF" offset="71.4447846%"></stop>
            <stop stop-color="#2A1DFF" offset="100%"></stop>
        </linearGradient>
    </defs>
    <g id="页面-1" stroke="none" stroke-width="1" fill="none" fill-rule="evenodd">
        <g id="画板" transform="translate(-374.000000, -154.000000)">
            <g id="编组-41" transform="translate(59.000000, 113.000000)">
                <g id="编组-33" transform="translate(315.000000, 41.000000)">
                    <rect id="矩形" x="0" y="0" width="55" height="55"></rect>
                    <g id="编组-19" transform="translate(5.000000, 4.000000)" fill-rule="nonzero">
                        <circle id="椭圆形" fill="url(#linearGradient-1)" cx="23" cy="23" r="23"></circle>
                        <path d="M21.7077459,17.6185353 L21.7077459,17.6185373 C21.7055572,16.5521169 20.8472901,15.6894032 19.7907528,15.6916109 C18.7902627,15.6937029 17.9603487,16.4735611 17.8868494,17.4806835 L17.8827108,17.6185324 L17.8827108,30.6546587 C17.8827108,31.7626712 16.6380483,32.3777708 15.7762005,31.7459639 L15.6851528,31.672862 L12.4322693,28.8511436 L12.4322694,28.8511436 C11.9123715,28.400075 11.8530847,27.6090491 12.2998363,27.0841705 L12.4157152,26.9484101 L12.4157151,26.9484101 C12.8626035,26.4236491 13.6462985,26.3638076 14.1663127,26.8147382 L15.2216375,27.7295541 L15.2216375,17.618533 L15.2216375,17.6185767 C15.2216379,15.1452744 17.1530177,13.1115126 19.601187,13.0068531 L19.7946633,13.0026759 L19.7946632,13.0026759 C22.245432,13.00214 24.2609521,14.9517604 24.3646416,17.4232417 L24.3677455,17.6185278 L24.3677455,27.3817936 L24.3677455,27.3817914 C24.3699341,28.4482118 25.2282014,29.3109256 26.2847386,29.3087178 C27.2852287,29.3066259 28.1151428,28.5267676 28.1886421,27.5196453 L28.1938152,27.3817963 L28.1938152,14.34567 C28.1938152,13.1760416 29.5595297,12.582875 30.3996502,13.3337333 L30.4844901,13.417278 L33.6546111,16.7538497 L33.6546111,16.7538496 C34.1291726,17.2534224 34.1126517,18.0467124 33.6177084,18.5257106 C33.6175938,18.5258215 33.6174792,18.5259324 33.6173645,18.5260433 L33.4890701,18.6503162 L33.4890701,18.6503162 C32.9941271,19.1293168 32.208189,19.1126389 31.7336299,18.6130681 C31.73352,18.6129524 31.7334101,18.6128367 31.7333003,18.6127209 L30.8538621,17.6864185 L30.8538621,27.3817877 L30.8538621,27.3817434 C30.8538621,29.8550456 28.9224819,31.8888074 26.4743127,31.9934669 L26.2808364,31.9976441 L26.2808365,31.9976441 C23.8304557,31.9976204 21.8155662,30.0481557 21.7119009,27.5770784 L21.7077624,27.3817922 L21.7077624,17.6185265 L21.7077459,17.6185353 Z" id="路径" fill="#FFFFFF"></path>
                    </g>
                </g>
            </g>
        </g>
    </g>
</svg>