<?xml version="1.0" encoding="UTF-8"?>
<svg width="55px" height="55px" viewBox="0 0 55 55" version="1.1" xmlns="http://www.w3.org/2000/svg" xmlns:xlink="http://www.w3.org/1999/xlink">
    <title>编组 35</title>
    <defs>
        <linearGradient x1="88.2558929%" y1="100%" x2="11.7441071%" y2="0%" id="linearGradient-1">
            <stop stop-color="#FF1F65" offset="0%"></stop>
            <stop stop-color="#811EFF" offset="71.4447846%"></stop>
            <stop stop-color="#2A1DFF" offset="100%"></stop>
        </linearGradient>
    </defs>
    <g id="页面-1" stroke="none" stroke-width="1" fill="none" fill-rule="evenodd">
        <g id="画板" transform="translate(-89.000000, -240.000000)">
            <g id="编组-41" transform="translate(59.000000, 113.000000)">
                <g id="编组-35" transform="translate(30.000000, 127.000000)">
                    <rect id="矩形" x="0" y="0" width="55" height="55"></rect>
                    <g id="编组-23" transform="translate(8.000000, 5.000000)">
                        <g id="文档">
                            <path d="M1.67200195,0 C0.825439242,0 0,0.836000973 0,1.65000192 L0,42.3500493 C0,43.1860503 0.847439267,44.0000512 1.67200195,44.0000512 L36.8148514,44.0000512 C37.6622907,44.0000512 38.4872917,43.1640502 38.4872917,42.3500493 L38.4872917,9.63601121 L28.743042,0.0220000256 L1.67201054,0.0220000256 L1.67201054,0 L1.67200195,0 Z" id="路径" fill="url(#linearGradient-1)" fill-rule="nonzero"></path>
                            <path d="M28.9947017,0 L28.9947017,7.70000896 C28.9947017,8.53600993 29.8417027,9.35001088 30.6667037,9.35001088 L38.4938573,9.35001088 L28.9942291,0 L28.9947017,0 Z" id="路径" fill="#FFFFFF" opacity="0.5"></path>
                        </g>
                        <path d="M20.1280031,15.76 L22.9235615,15.76 L17.8879969,30.816 L15.0924385,30.816 L20.1280031,15.76 Z M14.352,17.5943705 L14.352,20.940715 L10.8820387,23.1276654 L14.352,25.4166735 L14.352,28.7752031 L7.248,24.0872843 L7.248,22.2642588 L14.352,17.5943705 Z M24.208,17.5959427 L31.312,22.2478005 L31.312,24.070829 L24.208,28.7767783 L24.208,25.411285 L27.6779613,23.2243346 L24.208,20.9353265 L24.208,17.5959427 Z" id="&lt;/&gt;" fill="#FFFFFF" fill-rule="nonzero"></path>
                    </g>
                </g>
            </g>
        </g>
    </g>
</svg>