<?xml version="1.0" encoding="UTF-8"?>
<svg width="55px" height="55px" viewBox="0 0 55 55" version="1.1" xmlns="http://www.w3.org/2000/svg" xmlns:xlink="http://www.w3.org/1999/xlink">
    <title>编组 32</title>
    <defs>
        <linearGradient x1="88.2558929%" y1="100%" x2="11.7441071%" y2="0%" id="linearGradient-1">
            <stop stop-color="#FF1F65" offset="0%"></stop>
            <stop stop-color="#811EFF" offset="71.4447846%"></stop>
            <stop stop-color="#2A1DFF" offset="100%"></stop>
        </linearGradient>
    </defs>
    <g id="页面-1" stroke="none" stroke-width="1" fill="none" fill-rule="evenodd">
        <g id="画板" transform="translate(-89.000000, -154.000000)">
            <g id="编组-41" transform="translate(59.000000, 113.000000)">
                <g id="编组-37" transform="translate(30.000000, 40.000000)">
                    <g id="编组-32" transform="translate(0.000000, 1.000000)">
                        <rect id="矩形" x="0" y="0" width="55" height="55"></rect>
                        <path d="M9.67200195,5 C8.82543924,5 8,5.83600097 8,6.65000192 L8,47.3500493 C8,48.1860503 8.84743927,49.0000512 9.67200195,49.0000512 L44.8148514,49.0000512 C45.6622907,49.0000512 46.4872917,48.1640502 46.4872917,47.3500493 L46.4872917,14.6360112 L36.743042,5.02200003 L9.67201054,5.02200003 L9.67201054,5 L9.67200195,5 Z" id="路径" fill="url(#linearGradient-1)" fill-rule="nonzero"></path>
                        <polygon id="W" fill="#FFFFFF" fill-rule="nonzero" points="28.4695664 23.432 29.7905221 29.105441 30.0738638 30.3837732 30.3357677 29.1135535 31.4720784 23.432 34.6074687 23.432 31.8297953 35.4 28.4264241 35.4 26.9455252 29.0387722 26.7703524 28.2504949 26.573582 29.0426963 25.0935748 35.4 21.6724246 35.4 18.9633357 23.432 22.1928836 23.432 23.3129177 29.1170621 23.5585635 30.4050431 23.8741652 29.1023962 25.17751 23.432"></polygon>
                    </g>
                </g>
            </g>
        </g>
    </g>
</svg>