<?xml version="1.0" encoding="UTF-8"?>
<svg width="25px" height="25px" viewBox="0 0 25 25" version="1.1" xmlns="http://www.w3.org/2000/svg" xmlns:xlink="http://www.w3.org/1999/xlink">
    <title>形状结合</title>
    <g id="页面-1" stroke="none" stroke-width="1" fill="none" fill-rule="evenodd">
        <g id="Home" transform="translate(-1035.000000, -3801.000000)" fill="#7B70AE" fill-rule="nonzero">
            <g id="foot" transform="translate(-80.000000, 3437.000000)">
                <path d="M1127.5,364 C1134.40476,364 1140,369.595239 1140,376.5 C1140,383.404761 1134.40476,389 1127.5,389 C1120.59524,389 1115,383.404761 1115,376.5 C1115,369.595239 1120.59524,364 1127.5,364 Z M1116.60624,373.481364 L1116.54997,373.692128 C1116.31546,374.591634 1116.19048,375.532738 1116.19048,376.5 C1116.19048,382.104206 1120.38583,386.830309 1125.77345,387.67522 C1126.12118,387.571427 1126.5664,387.571427 1126.90476,387.571427 C1126.78572,386.857142 1126.78572,386.261903 1126.78572,385.547618 C1126.78572,385.547618 1124.04763,383.523812 1124.04763,382.333336 C1124.04763,381.14286 1124.40477,380.54762 1124.04763,380.54762 C1123.45239,380.54762 1122.73811,381.023812 1122.61906,380.54762 C1122.38096,379.833333 1121.90477,379.238096 1121.19049,379.000001 C1119.51638,379.000001 1119.30712,377.116622 1119.2875,375.213633 L1119.28573,374.833326 C1119.28573,374.238089 1118.57144,374.238089 1118.09525,373.880946 C1117.9762,373.999993 1117.9762,373.999993 1118.09525,374.119041 C1117.73811,374.71428 1116.90477,374.71428 1116.42858,374.238088 C1116.47975,373.982235 1116.53907,373.729911 1116.60624,373.481364 Z M1128.7795,365.263951 L1128.84988,365.297538 C1130.24305,365.992487 1130.17509,367.543402 1128.80954,367.333318 C1128.80954,367.928555 1128.80954,368.642842 1128.69049,369.357126 C1128.57145,370.547603 1127.14287,370.190459 1126.78573,370.785698 C1126.42858,371.380935 1127.50002,371.976174 1128.69049,371.738079 C1129.04763,371.738079 1128.69049,371.380935 1128.92858,371.261887 C1129.40478,371.14284 1130.00001,371.14284 1130.47621,371.261887 C1130.00001,372.333318 1129.40478,373.404746 1128.80954,374.357126 C1128.57144,374.71427 1128.80954,375.428555 1128.80954,375.904746 C1128.80954,378.021151 1128.22426,377.336586 1127.69782,376.452284 L1127.59996,376.284771 C1127.27711,375.722828 1126.99296,375.14637 1126.90478,375.190461 C1126.66668,375.428558 1125.59525,374.952366 1125.11906,374.952366 C1124.64287,374.952366 1124.88097,375.904747 1124.40478,375.904747 C1123.4524,375.904747 1123.69049,375.666651 1123.69049,376.023794 C1123.69049,376.499995 1123.80954,377.452376 1123.80954,378.880948 C1123.80954,379.357139 1124.76192,378.7619 1125.35716,378.7619 C1126.07145,378.7619 1126.54764,379.357137 1127.02383,379.595232 C1127.85716,379.952376 1128.69049,381.142852 1129.28573,381.2619 C1129.88097,381.380948 1129.40478,382.333328 1130.11906,382.21428 C1130.47621,382.095232 1130.9524,382.333328 1131.19049,382.690472 C1131.54763,383.166663 1131.30954,383.7619 1130.83335,384.119043 C1130.11906,384.833326 1129.88097,385.666658 1129.52383,387.333326 C1129.83213,387.230557 1130.05172,387.305218 1130.18259,387.480719 C1134.00531,386.532384 1137.09546,383.609113 1138.28388,379.881679 L1138.21429,380.071421 C1137.26191,381.49999 1135.83334,381.738086 1136.19048,380.785706 C1135.83334,380.071421 1135.35715,379.476184 1134.76191,378.880945 C1133.69048,377.928577 1132.73811,376.142859 1136.07143,373.642859 C1135.47619,372.09524 1137.26191,370.66667 1137.97619,372.571431 C1137.97619,372.690479 1138.09524,372.690479 1138.09524,372.690479 C1138.25498,373.16969 1138.41472,373.648909 1138.53851,374.056226 C1137.49507,369.423726 1133.56492,365.816342 1128.7795,365.263951 Z" id="形状结合"></path>
            </g>
        </g>
    </g>
</svg>