<?xml version="1.0" encoding="UTF-8"?>
<svg width="24px" height="24px" viewBox="0 0 24 24" version="1.1" xmlns="http://www.w3.org/2000/svg" xmlns:xlink="http://www.w3.org/1999/xlink">
    <!-- Generator: Sketch 56.2 (81672) - https://sketch.com -->
    <title>路径</title>
    <desc>Created with Sketch.</desc>
    <g id="Page-1" stroke="none" stroke-width="1" fill="none" fill-rule="evenodd">
        <g id="Home" transform="translate(-1492.000000, -18.000000)" fill="#FFFFFF" fill-rule="nonzero">
            <g id="矩形">
                <path d="M1492,30.3130442 C1492,28.644716 1492.31664,27.049477 1492.94917,25.5265335 C1493.58168,24.0035901 1494.43328,22.6927711 1495.50399,21.5940526 C1496.57391,20.4961519 1497.85135,19.6222806 1499.33625,18.9724147 L1499.33625,18.9724148 C1500.81011,18.3258752 1502.39711,17.994997 1503.99998,18 C1505.62501,18 1507.17957,18.3241844 1508.6637,18.9740262 C1510.14861,19.6230984 1511.42604,20.4969697 1512.49596,21.5956882 C1513.56668,22.6935889 1514.4183,24.0044319 1515.05079,25.5281691 L1515.05079,25.5281697 C1515.68118,27.0399441 1516.00417,28.6678772 1516,30.3122271 C1516,32.9894695 1515.23815,35.3982133 1513.71455,37.539228 C1512.1917,39.6794491 1510.23456,41.1666296 1507.84384,42 C1507.71843,42 1507.62475,41.9761901 1507.56283,41.9284982 C1507.50011,41.8808303 1507.46448,41.8323687 1507.45675,41.7839072 L1507.45675,41.7839066 C1507.44757,41.7122879 1507.44369,41.6400585 1507.44515,41.5678383 L1507.44515,41.5678383 C1507.43259,41.545661 1507.42468,41.5210374 1507.42192,41.4955428 L1507.42192,38.3932817 C1507.42192,37.4161139 1507.08592,36.5819498 1506.41392,35.8923768 C1508.2108,35.5714242 1509.5548,34.8866131 1510.44514,33.8363802 C1511.33546,32.7861233 1511.78138,31.5150356 1511.78138,30.0238627 C1511.78138,28.6288193 1511.34397,27.4180981 1510.46837,26.3924928 C1510.78114,25.3660699 1510.72618,24.2840424 1510.30501,23.1456167 C1509.8668,23.1138221 1509.39069,23.1901099 1508.87509,23.3744081 C1508.35947,23.5587064 1507.97701,23.7310996 1507.72619,23.8907702 C1507.47688,24.0512586 1507.25003,24.2038102 1507.0472,24.3483772 C1506.14064,24.0917835 1505.12875,23.9630898 1504.01238,23.9630898 C1502.89441,23.9630898 1501.89108,24.0917835 1500.99999,24.3483772 C1500.82812,24.2197076 1500.62839,24.0798785 1500.40233,23.9273268 C1500.17546,23.7747992 1499.7814,23.590501 1499.21858,23.3744081 C1498.6565,23.1575216 1498.14866,23.0653605 1497.69495,23.0979488 C1497.25754,24.2522718 1497.21109,25.3501726 1497.55482,26.3924688 C1496.69549,27.4188918 1496.26581,28.6288193 1496.26581,30.0238387 C1496.26581,31.5150116 1496.70322,32.782155 1497.57807,33.8236576 C1498.4529,34.8659779 1499.79689,35.5555269 1501.60927,35.8923768 L1501.60927,35.892377 C1501.1453,36.3493658 1500.81998,36.9342571 1500.67249,37.5766024 C1499.34399,37.9126346 1498.41418,37.6719142 1497.88309,36.8536474 C1496.89831,35.3791655 1496.01573,34.8500807 1495.23458,35.2671628 C1495.12466,35.3791655 1495.1409,35.4951606 1495.28104,35.6159176 C1495.42194,35.735881 1495.6325,35.8963453 1495.91432,36.0965649 C1496.19533,36.297554 1496.40594,36.5176152 1496.54682,36.7583116 C1496.56231,36.7901062 1496.60565,36.9068709 1496.67613,37.1070905 L1496.67613,37.1070921 C1496.74343,37.3004403 1496.81364,37.4927138 1496.88671,37.6838448 C1496.95639,37.868143 1497.08954,38.0731245 1497.28541,38.29713 C1497.4805,38.5219772 1497.70735,38.7102677 1497.96516,38.8627954 C1498.22298,39.0145293 1498.57831,39.1273498 1499.03122,39.1996453 C1499.48412,39.2711231 1499.99972,39.2751154 1500.57804,39.2115502 L1500.57804,41.6282306 C1500.57804,41.6520646 1500.57417,41.6917958 1500.56644,41.7489877 C1500.55871,41.8045922 1500.54321,41.8443235 1500.51999,41.8681574 C1500.49676,41.892785 1500.46503,41.916619 1500.42553,41.9412466 L1500.42553,41.9412466 C1500.37901,41.966961 1500.32659,41.9793085 1500.2738,41.9769855 C1500.21108,41.9769855 1500.13289,41.9690488 1500.03921,41.9531756 C1497.66399,41.1031142 1495.73082,39.6159096 1494.23821,37.4915859 C1492.7463,35.3672597 1492,32.9752094 1492,30.3138642 L1492,30.3130442 Z" id="路径"></path>
            </g>
        </g>
    </g>
</svg>